<svg xmlns="http://www.w3.org/2000/svg" width="204" height="46" viewBox="0 0 204 46"><title>  Page-1</title><desc>  Created with Sketch.</desc><g fill="none"><g fill="#FFF"><path d="M12.2 0.5C-1.3 1.8 0 16.1 0 16.1 0.2 22.9 3.7 29.7 13.5 29.7 23.4 29.7 24.6 20.7 24.8 19.7 25.1 18.6 24.1 18.6 24.1 18.6L22.5 18.6C21.2 18.6 21.2 19.6 21.2 19.6 19.8 26.7 13.5 26.6 13.5 26.6 3.4 26.6 3.5 15.9 3.5 15.9 3.5 3.7 12.2 3.6 12.2 3.6 19.3 3.2 20.6 8.2 20.8 8.7 20.9 9.1 21.1 9.5 21.9 9.5L23.9 9.5C24.8 9.5 24.5 8.7 24.5 8.7 22.4-0.5 12.2 0.5 12.2 0.5"/><path d="M54.5 2.1L54.5 28C54.5 28 54.3 29.1 55.9 29.1L56.7 29.1C56.7 29.1 58 29.3 58 27.8L58 8.4C58 8.4 57.8 6.3 59.4 8.6 60.7 10.6 72.5 28.5 72.5 28.5 72.5 28.5 72.9 29 73.8 29L75.8 29C75.8 29 76.9 29 76.9 28L76.9 2.2C76.9 2.2 77 1.1 76 1.1L74.2 1.1C74.2 1.1 73.4 1.2 73.4 2.5L73.4 21.9C73.4 21.9 73.4 23.9 72.1 21.9 70.8 20.2 58.9 1.8 58.9 1.8 58.9 1.8 58.4 1.1 57.4 1.1L55.4 1.1C55.4 1.1 54.5 1.1 54.5 2.1"/><path d="M99.9 1.1L83.8 1.1 83.8 1.1 79.5 1.1C79.5 1.1 78.6 1 78.6 1.8L78.6 3.6C78.6 3.6 78.6 4.2 79.7 4.2 80.2 4.2 86.9 4.3 86.9 4.3 88 4.3 88 5.8 88 5.8L88 23.9 88 23.9 88 28.1C88 28.1 87.9 29 88.9 29L90.9 29C90.9 29 91.7 29 91.7 27.9L91.7 11.9 91.7 11.9 91.7 5.8C91.7 4.4 92.3 4.2 93.1 4.2L95.8 4.2 100.1 4.2C100.1 4.2 101 4.3 101 3.5L101 1.7C101 1.7 101 1.1 99.9 1.1"/><path d="M188.5 42.6L188.5 44.6C188.5 44.6 188.4 45.1 188.9 45.1L189.9 45.1C189.9 45.1 190.3 45 190.3 44.5L190.3 36.7 190.3 36.7 190.3 33.9 190.3 33.9 190.3 31.9C190.3 31.9 190.3 31.4 189.8 31.4L188.9 31.4C188.9 31.4 188.5 31.4 188.5 32 188.5 32.5 188.5 39.8 188.5 39.8L188.5 42.6"/><path d="M152.6 28.1L152.6 23.9 152.6 23.9 152.6 2C152.6 2 152.5 1.2 151.4 1.2L148.3 1.2C148.3 1.2 147.6 1 147.1 2.1 146.7 3.1 139.2 23 139.2 23 139.2 23 139 23.6 138.5 23.6L138.5 23.6C138 23.6 137.9 23 137.9 23 137.9 23 130.3 3.1 129.9 2.1 129.5 1 128.8 1.2 128.8 1.2L125.6 1.2C124.5 1.2 124.5 2 124.5 2L124.5 23.9 124.5 23.9 124.5 28.1C124.5 28.1 124.4 29 125.4 29L127.2 29C127.2 29 128 29 128 27.9L128 8.8C128 8.2 128 7.6 128.3 7.5 128.7 7.5 129 8.2 129 8.2L136.6 28C137.1 29.1 137.8 29 137.8 29L139.3 29C139.3 29 140 29.1 140.4 28L148 8.2C148 8.2 148.3 7.5 148.7 7.5 149.1 7.6 149 8.2 149 8.8L149 27.9C149 29 149.8 29 149.8 29L151.6 29C152.6 29 152.6 28.1 152.6 28.1"/><path d="M162.7 44.6L162.7 42.6 162.7 42.6 162.7 31.9C162.7 31.9 162.7 31.5 162.2 31.5L160.6 31.5C160.6 31.5 160.3 31.4 160.1 31.9 159.9 32.4 156.2 42.1 156.2 42.1 156.2 42.1 156.1 42.4 155.9 42.4L155.9 42.5C155.6 42.5 155.6 42.1 155.6 42.1 155.6 42.1 151.9 32.4 151.7 31.9 151.5 31.4 151.1 31.5 151.1 31.5L149.6 31.5C149 31.5 149 31.9 149 31.9L149 44.6C149 44.6 149 45.1 149.5 45.1L150.4 45.1C150.4 45.1 150.8 45 150.8 44.5L150.8 35.2C150.8 34.9 150.7 34.6 150.9 34.6 151.1 34.6 151.2 34.9 151.2 34.9L151.8 36.2 154.9 44.6C155.2 45.1 155.5 45.1 155.5 45.1L156.2 45.1C156.2 45.1 156.6 45.1 156.8 44.6L160 36.2 160.5 34.9C160.5 34.9 160.7 34.6 160.9 34.6 161 34.6 161 34.9 161 35.2L161 44.5C161 45 161.4 45.1 161.4 45.1L162.3 45.1C162.8 45.1 162.7 44.6 162.7 44.6"/><path d="M121.9 3.5L121.9 1.7C121.9 1.7 121.8 1.1 120.8 1.1L103.2 1.1C102.5 1.1 102.5 1.8 102.5 1.8L102.5 28.3C102.5 28.3 102.5 29 103.2 29L120.8 29C121.8 29 121.9 28.3 121.9 28.3L121.9 26.6C121.9 25.7 121 25.8 121 25.8L110.3 25.8 110.3 25.8 107.6 25.8C106.8 25.8 106.2 25.7 106.2 24.3L106.2 17.5C106.2 17.5 106.3 16.3 107.7 16.3L119.9 16.3C119.9 16.3 120.8 16.4 120.8 15.5L120.8 13.8C120.8 13.8 120.8 13.1 119.7 13.1L107.3 13.1C107.3 13.1 106.2 13.1 106.2 12.5L106.2 5.8C106.2 4.4 106.8 4.2 107.6 4.2L110.3 4.2 110.3 4.2 121 4.2C121 4.2 121.9 4.3 121.9 3.5"/><path d="M173.9 32.6L173.9 31.8C173.9 31.8 173.9 31.4 173.4 31.4L164.8 31.4C164.5 31.4 164.5 31.8 164.5 31.8L164.5 44.6C164.5 44.6 164.5 45.1 164.8 45.1L173.4 45.1C173.9 45.1 173.9 44.7 173.9 44.7L173.9 43.9C173.9 43.5 173.5 43.5 173.5 43.5L166.9 43.5C166.6 43.5 166.3 43.4 166.3 42.8L166.3 39.5C166.3 39.5 166.3 38.9 167 38.9L173 38.9C173 38.9 173.4 38.9 173.4 38.5L173.4 37.6C173.4 37.6 173.4 37.3 172.9 37.3L166.8 37.3C166.8 37.3 166.4 37.4 166.3 37L166.3 33.7C166.3 33.1 166.6 33 166.9 33L173.5 33C173.5 33 173.9 33 173.9 32.6"/><path d="M167.3 14.4L159.7 14.4C159.7 14.4 158.8 14.5 158.6 13.8L158.6 6C158.6 4.6 159.2 4.3 160 4.3L167.2 4.3C169.3 4.3 172.2 5.4 172.2 9.8 172.2 14.1 167.3 14.4 167.3 14.4M168.9 1.1L155.6 1.1C154.9 1.1 154.9 1.8 154.9 1.8L154.9 28.3C154.9 28.3 154.9 29 155.6 29L157.9 29C158.6 29 158.6 28.3 158.6 28.3 158.6 28.3 158.6 21 158.6 18.8 158.6 18.8 158.7 17.6 160.1 17.6 161.5 17.6 169 17.6 169 17.6 175.9 17.6 175.9 9.3 175.9 9.3 175.9 1.5 169 1.1 168.9 1.1"/><path d="M181 43.6L177.9 43.6C177.1 43.6 177.2 42.9 177.2 42.9 177.2 42.9 177.2 34.1 177.2 33.5L177.2 33.5C177.2 32.9 177.7 33 177.7 33L180.1 33C181.6 33 182.1 33.2 182.1 33.2 183.9 33.9 184.9 35 184.9 38.6 184.9 42.3 182.1 43.6 181 43.6M186.1 34.6C184.7 31.3 180.2 31.5 180.2 31.5L175.8 31.5C175.8 31.5 175.4 31.5 175.4 32 175.4 32.6 175.4 39.8 175.4 39.8L175.4 42.6 175.4 42.6 175.4 44.6C175.4 44.6 175.4 45 175.8 45.1L175.8 45.1 180.3 45.1C185.1 45 186.2 41.3 186.2 41.3 186.2 41.3 187.4 37.9 186.1 34.6"/><path d="M199.6 39.5L196 39.5C195.5 39.5 195.7 38.9 195.7 38.9 195.7 38.9 197.3 34.6 197.4 34.1 197.6 33.6 197.8 33.6 197.8 33.6 197.8 33.6 198 33.6 198.2 34.1 198.4 34.6 200 38.9 200 38.9 200 38.9 200.1 39.5 199.6 39.5M203.8 44.3C203.6 43.7 199 32 199 32 199 32 198.8 31.5 198.3 31.5L197.3 31.5C196.8 31.5 196.7 32 196.7 32 196.7 32 192.1 43.7 191.8 44.3 191.5 45 192.1 45.1 192.1 45.1L192.7 45.1C193.4 45.1 193.5 44.6 193.5 44.6 193.5 44.6 194.3 42.5 194.6 41.7 194.9 40.9 195.5 41 195.5 41L200.1 41C200.1 41 200.7 40.9 201 41.7 201.3 42.5 202.1 44.6 202.1 44.6 202.1 44.6 202.2 45.1 202.9 45.1L203.6 45.1C203.6 45.1 204.1 45 203.8 44.3"/><path d="M190.6 26.3L190.6 26.3C181.3 26.3 180.9 16.3 180.9 15.1L180.9 15C180.9 13.8 181.2 3.7 190.6 3.7L190.6 3.7C200.5 3.7 200.3 15.1 200.3 15.1 200.3 16.2 199.9 26.3 190.6 26.3M203.9 15C203.9 15 203.9 15 203.9 15L203.9 15C203.9 2.5 194 0.7 190.6 0.7L190.6 0.7C187.2 0.7 177.3 2.5 177.3 15L177.3 15C177.3 15 177.3 15 177.3 15 177.3 15 177.3 15.1 177.3 15.1L177.3 15.1C177.3 27.5 187.2 29.3 190.6 29.3L190.6 29.4C194 29.4 203.9 27.5 203.9 15.1L203.9 15.1C203.9 15.1 203.9 15 203.9 15"/><path d="M39.4 26.3L39.4 26.3C30.1 26.3 29.7 16.3 29.7 15.1L29.7 15 29.7 15C29.7 13.8 30 3.7 39.4 3.7L39.4 3.7C49.3 3.7 49 15.1 49 15.1L49 15.1C49 16.2 48.7 26.3 39.4 26.3M52.7 15C52.7 15 52.7 15 52.7 15L52.7 15C52.6 2.5 42.8 0.7 39.4 0.7L39.4 0.7C35.9 0.7 26.1 2.5 26.1 15L26 15C26 15 26.1 15 26.1 15 26.1 15 26 15.1 26 15.1L26.1 15.1C26.1 27.5 35.9 29.3 39.4 29.3L39.4 29.4C42.8 29.4 52.6 27.5 52.7 15.1L52.7 15.1C52.7 15.1 52.7 15 52.7 15"/></g></g></svg>
