<svg xmlns="http://www.w3.org/2000/svg" width="290" height="85" viewBox="0 0 290 85"><title>  S-mag_logo</title><desc>  Created with Sketch.</desc><g fill="none"><g fill="#FFF"><path d="M67.4 0L46.5 50.3C41.3 36 17.6 29.8 17.6 15.8 17.6 9.1 22.6 3.8 30.9 3.8 38.8 3.8 45.9 10 46.6 25.2 46.7 27.2 46.7 28.2 47.2 28.2L47.3 28.2 50.6 0 50.3 0C48.2 3.8 45.6 4.6 42.6 4.6 38.9 4.6 34.4 3.1 30.1 3.1 18.2 3.1 6.9 9.1 6.9 23 6.9 38.6 35.9 46.5 35.9 60.9 35.9 68 31.1 77.4 18.6 77.4 5.9 77.4 1 65.9 1 51.1 1 50.8 0.9 50 0.3 50L0.3 50C0.3 50 0.3 70.4 0.3 81.4 0.3 81.3 0.2 82 0.5 81.7 2.2 77.5 6.9 76.8 8.7 76.8 12.1 76.8 14.7 78 19.6 78 26.2 78 32 76.7 36.5 74.2L32.3 84.4 33.1 84.4 68.3 0 67.4 0 67.4 0Z"/><path d="M87 76.3L83.1 76.3C82.9 76.3 82.8 76.3 82.8 76.2L92.2 46.3C92.2 46.2 92.4 46.2 92.5 46.2L96.5 46.2C96.6 46.2 96.8 45.6 96.7 45.6L87.7 45.6C87.5 45.6 87.2 45.9 86.8 46.5L71.4 70.1 70.6 46.5C70.6 46 70.4 45.6 70.1 45.6L61.5 45.6C61.4 45.6 61.3 46.2 61.4 46.2L65.1 46.2C65.3 46.2 65.4 46.2 65.4 46.3L55.9 76.2C55.9 76.3 55.8 76.3 55.6 76.3L51.8 76.3C51.8 76.3 51.6 76.9 51.7 76.9L60.3 76.9C60.4 76.9 60.5 76.3 60.5 76.3L56.7 76.3C56.5 76.3 56.4 76.3 56.5 76.2L65.8 46.7 66.7 77.4C66.7 77.5 67.2 77.5 67.2 77.4L87.3 46.8 78 76.2C78 76.3 77.9 76.3 77.7 76.3L73.7 76.3C73.6 76.3 73.4 76.9 73.5 76.9L86.8 76.9C86.9 76.9 87.1 76.3 87 76.3L87 76.3Z"/><path d="M121.5 76.3L117.4 76.3C117.2 76.3 117.1 76.3 117.1 76.2L117.1 45C117.1 44.9 116.6 44.8 116.5 45L94.2 74.5C93 76 92.6 76.3 92.2 76.3L89 76.3C88.9 76.3 88.8 76.8 88.9 76.8L97.7 76.8C97.8 76.8 98 76.3 97.9 76.3L94 76.3C93.7 76.3 93.7 76.1 94.9 74.5L101.2 66.2 112.5 66.2 112.5 76.1C112.5 76.3 112.5 76.3 112.3 76.3L108.9 76.3C108.8 76.3 108.6 76.8 108.8 76.8L121.3 76.8C121.4 76.9 121.6 76.3 121.5 76.3L121.5 76.3ZM112.5 65.7L101.6 65.7 112.5 51.2 112.5 65.7 112.5 65.7Z"/><path d="M148.8 65.1L152.7 65.1C152.8 65.1 153 64.6 152.9 64.6L139.6 64.6C139.5 64.6 139.4 65.1 139.4 65.1L143.4 65.1C143.6 65.1 143.7 65.1 143.6 65.2L141.3 72.8C140.4 75.4 138.3 77.1 134.9 77.1 130.6 77.1 127.8 75.3 127.8 70.7 127.8 65.5 132.3 53.1 134.2 50 136.2 46.8 139.1 45.5 142.8 45.5 146.8 45.5 150.2 49.5 148.9 53.8 148.8 53.9 149.4 53.9 149.4 53.8L152.1 45.1C152.1 45 151.7 45 151.6 45.1 151.3 45.8 150.6 46.4 149 46.4 147.2 46.4 145.2 45 142.8 45 133.3 45 124.2 55.4 124.2 65.9 124.2 73.3 128.6 77.7 134.9 77.7 138.6 77.7 140.7 75.4 142.5 75.4 143.8 75.4 144.4 76 144.1 77.1 144 77.2 144.7 77.2 144.7 77.1L148.5 65.3C148.5 65.1 148.6 65.1 148.8 65.1L148.8 65.1Z"/><path d="M180.6 76.3L176.5 76.3C176.3 76.3 176.2 76.3 176.2 76.2L176.2 45C176.2 44.9 175.7 44.8 175.6 45L153.3 74.5C152.1 76 151.7 76.3 151.2 76.3L148.1 76.3C148 76.3 147.8 76.8 148 76.8L156.8 76.8C156.9 76.8 157.1 76.3 157 76.3L153.1 76.3C152.7 76.3 152.7 76.1 154 74.5L160.3 66.2 171.6 66.2 171.6 76.1C171.6 76.3 171.5 76.3 171.4 76.3L168 76.3C167.8 76.3 167.7 76.8 167.8 76.8L180.4 76.8C180.5 76.9 180.7 76.3 180.6 76.3L180.6 76.3ZM171.6 65.7L160.7 65.7 171.6 51.2 171.6 65.7 171.6 65.7Z"/><path d="M207.7 68C206.3 72.5 202.8 76.3 194.9 76.3L188.8 76.3C188.6 76.3 188.6 76.3 188.7 76.2L214.5 46.1C214.7 46 214.7 45.6 214.6 45.6L194.4 45.6C194.3 45.6 194.2 45.7 194.2 45.7L191.2 54.9C191.2 55 191.7 55 191.8 54.9 193.3 49.8 197 46.2 203 46.2L208.8 46.2C209 46.2 209 46.3 209 46.3L183.1 76.4C182.9 76.5 182.9 76.9 183 76.9L205.3 76.9C205.4 76.9 205.5 76.8 205.5 76.7L208.2 68C208.3 67.9 207.8 67.9 207.7 68L207.7 68Z"/><path d="M223.2 76.3L219.2 76.3C219.1 76.3 219 76.3 219 76.2L228.5 46.3C228.5 46.2 228.6 46.2 228.8 46.2L232.7 46.2C232.9 46.2 233 45.6 232.9 45.6L219.6 45.6C219.5 45.6 219.4 46.2 219.5 46.2L223.4 46.2C223.6 46.2 223.7 46.2 223.7 46.3L214.2 76.2C214.2 76.3 214.1 76.3 213.9 76.3L209.9 76.3C209.8 76.3 209.7 76.9 209.7 76.9L223 76.9C223.2 76.9 223.3 76.3 223.2 76.3L223.2 76.3Z"/><path d="M261.8 46.2L265.6 46.2C265.6 46.2 265.8 45.6 265.7 45.6L257.1 45.6C257 45.6 256.8 46.2 256.9 46.2L260.7 46.2C260.8 46.2 260.9 46.2 260.9 46.3L253.5 69.9 246 46.4C245.7 45.8 245.5 45.6 245.2 45.6L236.7 45.6C236.6 45.6 236.5 46.1 236.6 46.1L240.3 46.1C240.5 46.1 240.6 46.2 240.5 46.3L231.1 76.1C231.1 76.3 231 76.3 230.8 76.3L227 76.3C227 76.3 226.8 76.8 226.8 76.8L235.5 76.8C235.6 76.8 235.8 76.3 235.7 76.3L231.9 76.3C231.7 76.3 231.7 76.3 231.7 76.1L240.9 46.9 251.1 77.4C251.1 77.6 251.6 77.5 251.7 77.4L261.4 46.3C261.5 46.2 261.6 46.2 261.8 46.2L261.8 46.2Z"/><path d="M289.7 45.6L267.5 45.6C267.4 45.6 267.2 46.2 267.3 46.2L271.3 46.2C271.4 46.2 271.5 46.2 271.5 46.3L262 76.2C262 76.3 261.9 76.3 261.7 76.3L257.8 76.3C257.6 76.3 257.5 76.9 257.6 76.9L282.2 76.9C282.3 76.9 282.3 76.8 282.4 76.7L285.1 68C285.1 67.9 284.6 67.9 284.6 68 283.2 72.5 279.6 76.3 271.7 76.3L267.1 76.3C266.9 76.3 266.8 76.3 266.8 76.1L271.7 60.6 273.8 60.6C277.4 60.6 278.3 63 277.3 66 277.3 66.1 277.9 66.1 277.9 66L281.1 55.8C281.1 55.7 280.5 55.7 280.5 55.8 279.6 58.8 277.5 60.1 273.9 60.1L271.9 60.1 276.3 46.3C276.3 46.2 276.5 46.2 276.6 46.2L281.8 46.2C287 46.2 288.4 49.4 287 53.6 287 53.7 287.5 53.7 287.5 53.6L289.8 45.8C289.8 45.7 289.8 45.6 289.7 45.6L289.7 45.6Z"/></g></g></svg>
