<svg xmlns="http://www.w3.org/2000/svg" width="204" height="45" viewBox="0 0 204 45"><title>  contempo-media-logo</title><desc>  Created with Sketch.</desc><g fill="none"><g fill="#4A4A4A"><path d="M12.2 0.5C-1.3 1.8 0 16 0 16 0.2 22.8 3.7 29.6 13.5 29.6 23.4 29.6 24.6 20.6 24.8 19.6 25.1 18.5 24.1 18.5 24.1 18.5L22.5 18.5C21.2 18.5 21.2 19.5 21.2 19.5 19.8 26.5 13.5 26.5 13.5 26.5 3.4 26.5 3.5 15.9 3.5 15.9 3.5 3.7 12.2 3.6 12.2 3.6 19.3 3.2 20.6 8.2 20.8 8.7 20.9 9.1 21.1 9.5 21.9 9.5L23.9 9.5C24.8 9.5 24.5 8.6 24.5 8.6 22.4-0.5 12.2 0.5 12.2 0.5"/><path d="M54.5 2.1L54.5 27.9C54.5 27.9 54.3 28.9 55.9 28.9L56.7 28.9C56.7 28.9 58 29.1 58 27.7L58 8.4C58 8.4 57.8 6.3 59.4 8.5 60.7 10.5 72.5 28.4 72.5 28.4 72.5 28.4 72.9 28.9 73.8 28.9L75.8 28.9C75.8 28.9 76.9 28.9 76.9 27.9L76.9 2.2C76.9 2.2 77 1.1 76 1.1L74.2 1.1C74.2 1.1 73.4 1.2 73.4 2.4L73.4 21.8C73.4 21.8 73.4 23.8 72.1 21.8 70.8 20.1 58.9 1.8 58.9 1.8 58.9 1.8 58.4 1.1 57.4 1.1L55.4 1.1C55.4 1.1 54.5 1.1 54.5 2.1"/><path d="M99.9 1L83.8 1 83.8 1 79.5 1C79.5 1 78.6 1 78.6 1.8L78.6 3.6C78.6 3.6 78.6 4.2 79.7 4.2 80.2 4.2 86.9 4.3 86.9 4.3 88 4.3 88 5.7 88 5.7L88 23.8 88 23.8 88 28C88 28 87.9 28.9 88.9 28.9L90.9 28.9C90.9 28.9 91.7 28.8 91.7 27.8L91.7 11.9 91.7 11.9 91.7 5.7C91.7 4.4 92.3 4.2 93.1 4.2L95.8 4.2 100.1 4.2C100.1 4.2 101 4.3 101 3.4L101 1.7C101 1.7 101 1 99.9 1"/><path d="M188.5 42.4L188.5 44.4C188.5 44.4 188.4 44.9 188.9 44.9L189.9 44.9C189.9 44.9 190.3 44.8 190.3 44.3L190.3 36.6 190.3 36.6 190.3 33.8 190.3 33.8 190.3 31.7C190.3 31.7 190.3 31.3 189.8 31.3L188.9 31.3C188.9 31.3 188.5 31.3 188.5 31.8 188.5 32.4 188.5 39.6 188.5 39.6L188.5 42.4"/><path d="M152.6 28L152.6 23.8 152.6 23.8 152.6 2C152.6 2 152.5 1.2 151.4 1.2L148.3 1.2C148.3 1.2 147.6 1 147.1 2 146.7 3.1 139.2 22.9 139.2 22.9 139.2 22.9 139 23.5 138.5 23.5L138.5 23.5C138 23.5 137.9 22.9 137.9 22.9 137.9 22.9 130.3 3.1 129.9 2 129.5 1 128.8 1.2 128.8 1.2L125.6 1.2C124.5 1.2 124.5 2 124.5 2L124.5 23.8 124.5 23.8 124.5 28C124.5 28 124.4 28.9 125.4 28.9L127.2 28.9C127.2 28.9 128 28.8 128 27.8L128 8.7C128 8.2 128 7.5 128.3 7.5 128.7 7.5 129 8.2 129 8.2L136.6 27.9C137.1 28.9 137.8 28.9 137.8 28.9L139.3 28.9C139.3 28.9 140 28.9 140.4 27.9L148 8.2C148 8.2 148.3 7.5 148.7 7.5 149.1 7.5 149 8.2 149 8.7L149 27.8C149 28.8 149.8 28.9 149.8 28.9L151.6 28.9C152.6 28.9 152.6 28 152.6 28"/><path d="M162.7 44.4L162.7 42.4 162.7 42.4 162.7 31.8C162.7 31.8 162.7 31.3 162.2 31.3L160.6 31.3C160.6 31.3 160.3 31.3 160.1 31.8 159.9 32.3 156.2 41.9 156.2 41.9 156.2 41.9 156.1 42.3 155.9 42.3L155.9 42.3C155.6 42.3 155.6 41.9 155.6 41.9 155.6 41.9 151.9 32.3 151.7 31.8 151.5 31.3 151.1 31.3 151.1 31.3L149.6 31.3C149 31.3 149 31.8 149 31.8L149 44.4C149 44.4 149 44.9 149.5 44.9L150.4 44.9C150.4 44.9 150.8 44.8 150.8 44.3L150.8 35C150.8 34.8 150.7 34.4 150.9 34.4 151.1 34.4 151.2 34.8 151.2 34.8L151.8 36.1 154.9 44.4C155.2 44.9 155.5 44.9 155.5 44.9L156.2 44.9C156.2 44.9 156.6 44.9 156.8 44.4L160 36.1 160.5 34.8C160.5 34.8 160.7 34.4 160.9 34.4 161 34.4 161 34.8 161 35L161 44.3C161 44.8 161.4 44.9 161.4 44.9L162.3 44.9C162.8 44.9 162.7 44.4 162.7 44.4"/><path d="M121.9 3.4L121.9 1.7C121.9 1.7 121.8 1 120.8 1L103.2 1C102.5 1 102.5 1.8 102.5 1.8L102.5 28.1C102.5 28.1 102.5 28.9 103.2 28.9L120.8 28.9C121.8 28.9 121.9 28.2 121.9 28.2L121.9 26.5C121.9 25.6 121 25.7 121 25.7L110.3 25.7 110.3 25.7 107.6 25.7C106.8 25.7 106.2 25.5 106.2 24.2L106.2 17.4C106.2 17.4 106.3 16.2 107.7 16.2L119.9 16.2C119.9 16.2 120.8 16.3 120.8 15.4L120.8 13.7C120.8 13.7 120.8 13 119.7 13L107.3 13C107.3 13 106.2 13.1 106.2 12.4L106.2 5.7C106.2 4.4 106.8 4.2 107.6 4.2L110.3 4.2 110.3 4.2 121 4.2C121 4.2 121.9 4.3 121.9 3.4"/><path d="M173.9 32.5L173.9 31.6C173.9 31.6 173.9 31.3 173.4 31.3L164.8 31.3C164.5 31.3 164.5 31.6 164.5 31.6L164.5 44.4C164.5 44.4 164.5 44.9 164.8 44.9L173.4 44.9C173.9 44.9 173.9 44.5 173.9 44.5L173.9 43.7C173.9 43.3 173.5 43.3 173.5 43.3L166.9 43.3C166.6 43.3 166.3 43.2 166.3 42.6L166.3 39.3C166.3 39.3 166.3 38.7 167 38.7L173 38.7C173 38.7 173.4 38.7 173.4 38.3L173.4 37.5C173.4 37.5 173.4 37.1 172.9 37.1L166.8 37.1C166.8 37.1 166.4 37.2 166.3 36.8L166.3 33.6C166.3 32.9 166.6 32.8 166.9 32.8L173.5 32.8C173.5 32.8 173.9 32.9 173.9 32.5"/><path d="M167.3 14.3L159.7 14.3C159.7 14.3 158.8 14.5 158.6 13.7L158.6 5.9C158.6 4.6 159.2 4.3 160 4.3L167.2 4.3C169.3 4.3 172.2 5.4 172.2 9.7 172.2 14.1 167.3 14.3 167.3 14.3M168.9 1L155.6 1C154.9 1 154.9 1.8 154.9 1.8L154.9 28.1C154.9 28.1 154.9 28.9 155.6 28.9L157.9 28.9C158.6 28.9 158.6 28.1 158.6 28.1 158.6 28.1 158.6 20.9 158.6 18.8 158.6 18.8 158.7 17.5 160.1 17.5 161.5 17.5 169 17.5 169 17.5 175.9 17.5 175.9 9.2 175.9 9.2 175.9 1.5 169 1 168.9 1"/><path d="M181 43.4L177.9 43.4C177.1 43.4 177.2 42.8 177.2 42.8 177.2 42.8 177.2 34 177.2 33.4L177.2 33.4C177.2 32.8 177.7 32.8 177.7 32.8L180.1 32.8C181.6 32.8 182.1 33 182.1 33 183.9 33.8 184.9 34.8 184.9 38.5 184.9 42.1 182.1 43.4 181 43.4M186.1 34.5C184.7 31.1 180.2 31.3 180.2 31.3L175.8 31.3C175.8 31.3 175.4 31.4 175.4 31.9 175.4 32.4 175.4 39.6 175.4 39.6L175.4 42.4 175.4 42.4 175.4 44.4C175.4 44.4 175.4 44.8 175.8 44.9L175.8 44.9 180.3 44.9C185.1 44.8 186.2 41.1 186.2 41.1 186.2 41.1 187.4 37.8 186.1 34.5"/><path d="M199.6 39.3L196 39.3C195.5 39.3 195.7 38.7 195.7 38.7 195.7 38.7 197.3 34.4 197.4 33.9 197.6 33.4 197.8 33.4 197.8 33.4 197.8 33.4 198 33.4 198.2 33.9 198.4 34.4 200 38.7 200 38.7 200 38.7 200.1 39.3 199.6 39.3M203.8 44.2C203.6 43.5 199 31.9 199 31.9 199 31.9 198.8 31.4 198.3 31.4L197.3 31.4C196.8 31.4 196.7 31.9 196.7 31.9 196.7 31.9 192.1 43.5 191.8 44.2 191.5 44.8 192.1 44.9 192.1 44.9L192.7 44.9C193.4 44.9 193.5 44.4 193.5 44.4 193.5 44.4 194.3 42.3 194.6 41.5 194.9 40.7 195.5 40.8 195.5 40.8L200.1 40.8C200.1 40.8 200.7 40.7 201 41.5 201.3 42.3 202.1 44.4 202.1 44.4 202.1 44.4 202.2 44.9 202.9 44.9L203.6 44.9C203.6 44.9 204.1 44.8 203.8 44.2"/><path d="M190.6 26.2L190.6 26.2C181.3 26.2 180.9 16.2 180.9 15L180.9 14.9C180.9 13.8 181.2 3.7 190.6 3.7L190.6 3.7C200.5 3.7 200.3 15 200.3 15 200.3 16.1 199.9 26.2 190.6 26.2M203.9 15C203.9 14.9 203.9 14.9 203.9 14.9L203.9 14.9C203.9 2.5 194 0.7 190.6 0.7L190.6 0.7C187.2 0.7 177.3 2.5 177.3 14.9L177.3 14.9C177.3 14.9 177.3 14.9 177.3 14.9 177.3 15 177.3 15 177.3 15L177.3 15C177.3 27.4 187.2 29.2 190.6 29.2L190.6 29.2C194 29.2 203.9 27.4 203.9 15L203.9 15C203.9 15 203.9 15 203.9 15"/><path d="M39.4 26.2L39.4 26.2C30.1 26.2 29.7 16.2 29.7 15L29.7 14.9 29.7 14.9C29.7 13.8 30 3.7 39.4 3.7L39.4 3.7C49.3 3.7 49 15 49 15L49 15C49 16.1 48.7 26.2 39.4 26.2M52.7 15C52.7 14.9 52.7 14.9 52.7 14.9L52.7 14.9C52.6 2.5 42.8 0.7 39.4 0.7L39.4 0.7C35.9 0.7 26.1 2.5 26.1 14.9L26 14.9C26 14.9 26.1 14.9 26.1 14.9 26.1 15 26 15 26 15L26.1 15C26.1 27.4 35.9 29.2 39.4 29.2L39.4 29.2C42.8 29.2 52.6 27.4 52.7 15L52.7 15C52.7 15 52.7 15 52.7 15"/></g></g></svg>
