<?xml version="1.0" encoding="utf-8"?>
<!-- Generator: Adobe Illustrator 19.2.1, SVG Export Plug-In . SVG Version: 6.00 Build 0)  -->
<svg version="1.1" id="Layer_1" xmlns="http://www.w3.org/2000/svg" xmlns:xlink="http://www.w3.org/1999/xlink" x="0px" y="0px"
	 viewBox="0 0 1119.4 326.2" style="enable-background:new 0 0 1119.4 326.2;" xml:space="preserve">
<metadata><?xpacket begin="﻿" id="W5M0MpCehiHzreSzNTczkc9d"?>
<x:xmpmeta xmlns:x="adobe:ns:meta/" x:xmptk="Adobe XMP Core 5.6-c111 79.158366, 2015/09/25-01:12:00        ">
   <rdf:RDF xmlns:rdf="http://www.w3.org/1999/02/22-rdf-syntax-ns#">
      <rdf:Description rdf:about=""/>
   </rdf:RDF>
</x:xmpmeta>
                                                                                                    
                                                                                                    
                                                                                                    
                                                                                                    
                                                                                                    
                                                                                                    
                                                                                                    
                                                                                                    
                                                                                                    
                                                                                                    
                                                                                                    
                                                                                                    
                                                                                                    
                                                                                                    
                                                                                                    
                                                                                                    
                                                                                                    
                                                                                                    
                                                                                                    
                                                                                                    
                           
<?xpacket end="w"?></metadata>
<g>
	<path d="M259.4,0l-80.7,194.1c-20.2-55.2-111.6-79-111.6-133c0-25.8,19.1-46.6,51.4-46.6c30.3,0,57.6,24.1,60.3,82.7
		c0.4,7.9,0.4,11.6,2.3,11.6h0.4L194.3,0h-1.2c-7.8,14.5-17.9,17.9-29.6,17.9c-14.4,0-31.5-5.8-48.2-5.8
		c-45.9,0-89.5,22.9-89.5,76.9c0,59.9,111.7,90.6,111.7,146.3c0,27.4-18.3,63.6-66.5,63.6c-49.4,0-68.1-44.5-68.1-101.4
		c0-1.4-0.6-4.4-2.6-4.4L0,193.1c0,0,0.2,78.6,0,121.2c0-0.4-0.2,2.5,0.8,1.1c6.8-16.1,24.7-18.8,31.7-18.8
		c13.2,0,23.3,4.6,42.3,4.6c25.4,0,47.7-5.1,65.3-14.7l-16.5,39.5h3.3L262.8,0H259.4z"/>
	<path d="M335,294.8h-15.1c-0.8,0-1-0.2-1-0.7L355.2,179c0-0.5,0.5-0.7,1.2-0.7h15.3c0.3,0,1-2,0.7-2h-34.7c-0.8,0-2,1-3.4,3.1
		l-59.5,91.5l-3.1-91.5c-0.2-1.9-1-3.1-1.9-3.1h-33.1c-0.5,0-1,2-0.7,2h14.4c0.9,0,1,0.2,1,0.7l-36.4,115.1
		c-0.2,0.5-0.5,0.7-1.4,0.7h-14.4c-0.3,0-1,2-0.7,2h33.5c0.3,0,0.8-2,0.5-2h-14.5c-0.7,0-1-0.2-0.8-0.7l35.9-113.9l3.4,118.8
		c0,0.5,1.9,0.5,2.2,0L336,180.9l-35.7,113.2c-0.2,0.5-0.5,0.7-1.4,0.7h-15.3c-0.3,0-1,2-0.7,2h51.3
		C334.6,296.8,335.5,294.8,335,294.8z"/>
	<path d="M468.1,294.8h-15.8c-0.7,0-1-0.2-1-0.7V173.9c0-0.5-1.9-0.7-2.4,0l-86,113.7c-4.6,6.1-6.1,7.1-8,7.1h-12.2
		c-0.3,0-0.9,2-0.5,2h34.3c0.3,0,0.9-2,0.5-2h-14.8c-1.5,0-1.5-0.9,3.4-7.1l24.1-32h43.9v38.4c0,0.5-0.3,0.7-1,0.7h-13.1
		c-0.5,0-1,2-0.5,2h48.6C468,296.8,468.5,294.8,468.1,294.8z M433.6,253.6h-42.2l42.2-55.8V253.6z"/>
	<path d="M573.5,251.4h15.3c0.3,0,1-2,0.7-2h-51.3c-0.3,0-1,2-0.7,2h15.3c0.7,0,1,0.2,0.8,0.5l-9,29.2c-3.2,10-11.6,16.7-24.5,16.7
		c-16.7,0-27.5-7-27.5-24.8c0-20.2,17.3-68,24.8-79.9c7.6-12.2,18.7-17.3,33-17.3c15.5,0,28.7,15.3,23.5,32c-0.2,0.5,2,0.5,2,0
		l10.7-33.7c0-0.3-1.9-0.3-2,0c-1.4,2.7-4.1,5.1-10.2,5.1c-7,0-14.6-5.6-24-5.6c-36.4,0-71.6,40.3-71.6,81.1
		c0,28.2,16.8,45.2,41.3,45.2c14.1,0,22.1-8.8,29.4-8.8c4.9,0,7,2.5,6,6.5c-0.2,0.5,2.2,0.5,2.4,0.2l14.5-45.7
		C572.5,251.6,572.8,251.4,573.5,251.4z"/>
	<path d="M696.3,294.8h-15.8c-0.7,0-1-0.2-1-0.7V173.9c0-0.5-1.9-0.7-2.4,0l-86,113.7c-4.6,6.1-6.1,7.1-8,7.1h-12.2
		c-0.3,0-0.9,2-0.5,2h34.3c0.3,0,0.9-2,0.5-2h-14.8c-1.5,0-1.5-0.9,3.4-7.1l24.1-32h43.9v38.4c0,0.5-0.3,0.7-1,0.7h-13.1
		c-0.5,0-1,2-0.5,2h48.6C696.1,296.8,696.7,294.8,696.3,294.8z M661.8,253.6h-42.2l42.2-55.8V253.6z"/>
	<path d="M801.3,262.8c-5.4,17.3-19,32-49.6,32h-23.6c-0.7,0-0.7-0.3-0.5-0.5l100-116.1c0.7-0.7,0.7-1.9,0.2-1.9h-78.2
		c-0.3,0-0.7,0.2-0.7,0.3L737.6,212c-0.2,0.3,1.9,0.3,2,0c6.1-19.7,20.4-33.7,43.3-33.7h22.6c0.7,0,0.7,0.5,0.5,0.7l-100,115.9
		c-0.7,0.7-0.7,1.9-0.2,1.9h86.2c0.3,0,0.5-0.2,0.7-0.5l10.5-33.5C803.5,262.3,801.5,262.3,801.3,262.8z"/>
	<path d="M861,294.8h-15.3c-0.7,0-1-0.2-0.9-0.7L881.3,179c0.2-0.5,0.5-0.7,1.4-0.7h15.1c0.5,0,1-2,0.7-2h-51.3c-0.3,0-1,2-0.5,2
		h15.1c0.8,0,1,0.2,1,0.7l-36.4,115.1c-0.2,0.5-0.7,0.7-1.4,0.7h-15.3c-0.3,0-1,2-0.7,2h51.3C860.9,296.8,861.4,294.8,861,294.8z"/>
	<path d="M1010.1,178.3h14.5c0.3,0,1-2,0.7-2h-33.5c-0.3,0-1,2-0.7,2h14.6c0.7,0,1,0.2,0.8,0.7L978,270.1l-29.1-90.8
		c-0.9-2.4-1.7-3.1-2.9-3.1h-32.8c-0.3,0-1,2-0.5,2h14.5c0.7,0,1,0.2,0.8,0.7l-36.4,115.1c0,0.5-0.5,0.7-1.2,0.7h-14.6
		c-0.3,0-1,2-0.7,2h33.5c0.3,0,1-2,0.7-2h-14.6c-0.7,0-1-0.2-0.8-0.7l35.5-112.7L968.6,299c0.3,0.7,2.2,0.5,2.4,0l37.7-120
		C1008.9,178.5,1009.3,178.3,1010.1,178.3z"/>
	<path d="M1117.8,176.3H1032c-0.3,0-1,2-0.7,2h15.3c0.7,0,1,0.2,0.8,0.7L1011,294.1c-0.2,0.5-0.5,0.7-1.4,0.7h-15.1
		c-0.5,0-1,2-0.7,2h95c0.3,0,0.5-0.2,0.7-0.5l10.5-33.7c0.2-0.3-1.9-0.3-2,0c-5.4,17.5-19,32.1-49.6,32.1h-17.9c-0.8,0-1-0.2-1-0.7
		l19-59.8h7.8c13.9,0,17.5,9,13.8,20.6c-0.2,0.3,2,0.3,2,0l12.4-39.4c0-0.3-2-0.3-2.2,0c-3.6,11.7-11.4,16.8-25.3,16.8h-7.8
		L1066,179c0.2-0.5,0.7-0.7,1.4-0.7h19.9c20.2,0,25.5,12.4,20.2,28.7c0,0.5,2,0.5,2,0l8.7-30.3
		C1118.1,176.6,1118.1,176.3,1117.8,176.3z"/>
</g>
</svg>
