<?xml version="1.0" encoding="UTF-8" standalone="no"?>
<svg width="153px" height="60px" viewBox="0 0 153 60" version="1.1" xmlns="http://www.w3.org/2000/svg" xmlns:xlink="http://www.w3.org/1999/xlink">
    <!-- Generator: Sketch 3.6.1 (26313) - http://www.bohemiancoding.com/sketch -->
    <title>Sharp Logo-black</title>
    <desc>Created with Sketch.</desc>
    <defs></defs>
    <g id="Page-1" stroke="none" stroke-width="1" fill="none" fill-rule="evenodd">
        <g id="Sharp-Logo-black" fill="#222222">
            <g id="Layer_1">
                <g id="Group">
                    <path d="M27.6,38.4 C27.6,34.1 26.5,32 23.1,29.5 L12.9,22 C11.3,20.8 10.7,19.7 10.7,17.8 L10.7,12.2 C10.7,10.5 11.6,9.6 13.3,9.6 L14.2,9.6 C15.9,9.6 16.8,10.5 16.8,12.2 L16.8,19.7 L27.4,14.5 L27.4,11 C27.5,3.9 24,0.5 17,0.5 L10.6,0.5 C3.4,0.5 0,3.9 0,11 L0,20.4 C0,24.6 1.1,26.9 4.5,29.3 L14.7,36.8 C16.3,38 16.9,39.1 16.9,41 L16.9,48.1 C16.9,49.8 16,50.7 14.3,50.7 L13.2,50.7 C11.5,50.7 10.6,49.8 10.6,48.1 L10.6,39.2 L0,44.3 L0,49.3 C0,56.4 3.4,59.8 10.5,59.8 L17.1,59.8 C24.2,59.8 27.6,56.4 27.6,49.3 L27.6,38.4 L27.6,38.4 L27.6,38.4 Z" id="Shape"></path>
                    <path d="M59.1,59.3 L59.1,1 L48.2,1 L48.2,27.3 L41.3,27.3 L41.3,1 L30.4,1 L30.4,59.3 L41.3,59.3 L41.3,36.9 L48.2,36.9 L48.2,59.3 L59.1,59.3 L59.1,59.3 Z" id="Shape"></path>
                    <path d="M80.4,47.2 L81.3,59.3 L92.1,59.3 L84.5,1 L69.2,1 L61.5,59.3 L71.3,59.3 L72.5,47.2 L80.4,47.2 L80.4,47.2 L80.4,47.2 Z M76.2,10.5 L79.5,37.8 L73.4,37.8 L76.2,10.5 L76.2,10.5 L76.2,10.5 Z" id="Shape"></path>
                    <path d="M110.9,39.5 L110.9,59.3 L121.8,59.3 L121.8,39.4 C121.8,35.3 120.4,33.2 117,32.2 L115.6,31.8 L117,31.3 C120.3,30.1 121.8,27.5 121.8,23 L121.8,11.5 C121.8,4.4 118.4,1 111.3,1 L94,1 L94,59.3 L104.9,59.3 L104.9,36.9 L108.4,36.9 C110,36.9 110.9,37.8 110.9,39.5 L110.9,39.5 L110.9,39.5 Z M104.9,27.8 L104.9,10.4 L108.3,10.4 C110,10.4 110.9,11.3 110.9,13 L110.9,25.2 C110.9,26.9 110,27.8 108.3,27.8 L104.9,27.8 L104.9,27.8 L104.9,27.8 Z" id="Shape"></path>
                    <path d="M152.1,11.5 C152.1,4.4 148.7,1 141.6,1 L124.7,1 L124.7,59.3 L135.6,59.3 L135.6,36.6 L141.6,36.6 C148.7,36.6 152.1,33.2 152.1,26.1 L152.1,11.5 L152.1,11.5 L152.1,11.5 Z M141.2,25.1 C141.2,26.8 140.3,27.7 138.6,27.7 L135.6,27.7 L135.6,10.2 L138.6,10.2 C140.3,10.2 141.2,11.1 141.2,12.8 L141.2,25.1 L141.2,25.1 L141.2,25.1 Z" id="Shape"></path>
                </g>
            </g>
        </g>
    </g>
</svg>