<?xml version="1.0" encoding="UTF-8"?>
<svg width="204px" height="46px" viewBox="0 0 204 46" version="1.1" xmlns="http://www.w3.org/2000/svg" xmlns:xlink="http://www.w3.org/1999/xlink">
    <!-- Generator: Sketch 42 (36781) - http://www.bohemiancoding.com/sketch -->
    <title>Page-1</title>
    <desc>Created with Sketch.</desc>
    <defs></defs>
    <g id="Page-1" stroke="none" stroke-width="1" fill="none" fill-rule="evenodd">
        <g id="Homepage" transform="translate(-996.000000, -8336.000000)" fill-rule="nonzero" fill="#FFFFFF">
            <g id="Footer" transform="translate(-17.000000, 8256.000000)">
                <g id="Group" transform="translate(1013.000000, 80.000000)">
                    <g id="Page-1">
                        <g id="Final-Logo">
                            <g id="Group-3">
                                <g id="Group">
                                    <path d="M12.1794915,0.537921627 C-1.29084746,1.8265377 0.0357288136,16.0657738 0.0357288136,16.0657738 C0.204,22.8705109 3.68813559,29.7186012 13.5296949,29.7186012 C23.3672203,29.7186012 24.5652881,20.6937252 24.7975254,19.6880456 C25.0574237,18.5597222 24.0564407,18.5865327 24.0564407,18.5865327 L22.4964746,18.5910962 C21.2119661,18.5865327 21.1566441,19.5619792 21.1566441,19.5619792 C19.8150847,26.6610615 13.4743729,26.643378 13.4743729,26.643378 C3.41959322,26.643378 3.48298305,15.924876 3.48298305,15.924876 C3.47664407,3.67132937 12.1794915,3.6234127 12.1794915,3.6234127 C19.2543729,3.24521329 20.5642373,8.20858135 20.7780339,8.74022817 C20.9365085,9.13839286 21.1099661,9.49491567 21.9155932,9.51488095 L23.861661,9.50518353 C24.7894576,9.50518353 24.5036271,8.68261409 24.5036271,8.68261409 C22.4048475,-0.548189484 12.1794915,0.537921627 12.1794915,0.537921627" id="Fill-1"></path>
                                    <path d="M54.4783729,2.14198909 L54.4783729,27.9924603 C54.4783729,27.9924603 54.2709153,29.055754 55.8965763,29.055754 L56.7022034,29.055754 C56.7022034,29.055754 57.9584746,29.2708085 57.9584746,27.7791171 L57.9584746,8.44131944 C57.9584746,8.44131944 57.8484068,6.27936508 59.3737966,8.57879464 C60.7049831,10.596999 72.5266102,28.4813244 72.5266102,28.4813244 C72.5266102,28.4813244 72.8637288,29.0295139 73.8335932,29.0295139 L75.8257627,29.0295139 C75.8257627,29.0295139 76.9172203,29.0015625 76.9172203,28.0386657 L76.9172203,2.24466766 C76.9172203,2.24466766 77.0019322,1.14600694 75.956,1.14600694 L74.2473559,1.14600694 C74.2473559,1.14600694 73.4163729,1.19050099 73.4163729,2.45744048 L73.4163729,21.9475446 C73.4163729,21.9475446 73.4348136,23.921255 72.0684746,21.9458333 C70.8398644,20.1603671 58.8528475,1.82311508 58.8528475,1.82311508 C58.8528475,1.82311508 58.4442712,1.12433036 57.4478983,1.12433036 L55.4390169,1.12433036 C55.4390169,1.12433036 54.4783729,1.08668155 54.4783729,2.14198909" id="Fill-4"></path>
                                    <path d="M99.919661,1.05188492 L83.7512203,1.05188492 L83.7512203,1.05359623 L79.4833559,1.05359623 C79.4833559,1.05359623 78.5653559,0.984002976 78.5653559,1.83623512 L78.5653559,3.57264385 C78.5653559,3.57264385 78.6091525,4.24804067 79.6568136,4.24632937 C80.2175254,4.24632937 86.9114915,4.27085813 86.9114915,4.27085813 C88.0294576,4.27085813 88.0029492,5.77224702 88.0029492,5.77224702 L88.0029492,23.8630704 L88.0081356,23.8619296 L88.0081356,28.084871 C88.0081356,28.084871 87.9263051,28.9901538 88.9157627,28.9901538 L90.9344407,28.9901538 C90.9344407,28.9901538 91.7204746,28.9519345 91.7204746,27.9114583 L91.7204746,11.9067212 L91.7204746,11.9084325 L91.7204746,5.77224702 C91.7204746,4.38836806 92.3278644,4.24632937 93.0505085,4.24632937 L95.8287119,4.24632937 L100.095424,4.24461806 C100.095424,4.24461806 101.007661,4.31364087 101.007661,3.46140873 L101.007661,1.72557044 C101.007661,1.72557044 100.967322,1.05017361 99.919661,1.05188492" id="Fill-5"></path>
                                    <path d="M188.481017,42.5602679 L188.481017,44.6201141 C188.481017,44.6201141 188.440678,45.0644841 188.924746,45.0644841 L189.909017,45.0644841 C189.909017,45.0644841 190.296271,45.0428075 190.296271,44.5391121 L190.296271,36.7229911 L190.292814,36.7229911 L190.296271,33.9284226 L190.292814,33.9284226 L190.292814,31.8691468 C190.292814,31.8691468 190.333153,31.4264881 189.849661,31.4264881 L188.863085,31.4264881 C188.863085,31.4264881 188.481017,31.4458829 188.481017,31.9512897 C188.481017,32.5046131 188.484475,39.7656994 188.484475,39.7656994 L188.481017,42.5602679" id="Fill-7"></path>
                                    <path d="M152.551661,28.0831597 L152.551661,23.8602183 L152.55339,23.8630704 L152.55339,2.01649306 C152.55339,2.01649306 152.519966,1.16426091 151.425627,1.16426091 L148.263627,1.16426091 C148.263627,1.16426091 147.56461,1.02222222 147.135864,2.05128968 C146.708847,3.08149802 139.154508,22.9863095 139.154508,22.9863095 C139.154508,22.9863095 139.011017,23.6383185 138.516,23.6383185 L138.516,23.6417411 C138.023288,23.6417411 137.878068,22.9880208 137.878068,22.9880208 C137.878068,22.9880208 130.328339,3.08320933 129.897864,2.0547123 C129.472,1.02564484 128.771254,1.16597222 128.771254,1.16597222 L125.609254,1.16597222 C124.511458,1.16597222 124.479186,2.01820437 124.479186,2.01820437 L124.479186,23.8647817 L124.481492,23.8630704 L124.481492,28.0865823 C124.481492,28.0865823 124.402542,28.9918651 125.392,28.9918651 L127.234915,28.9918651 C127.234915,28.9918651 128.022102,28.9519345 128.018644,27.9114583 L128.018644,8.76989087 C128.018644,8.18861607 127.965051,7.55486111 128.335593,7.54459325 C128.709593,7.5343254 129.019627,8.20344742 129.019627,8.20344742 L136.593559,28.0072917 C137.055729,29.055754 137.786441,28.9918651 137.786441,28.9918651 L139.251322,28.9884425 C139.251322,28.9884425 139.975695,29.0529018 140.442475,28.003869 L148.018136,8.20173611 C148.018136,8.20173611 148.325288,7.53261409 148.699288,7.54288194 C149.069254,7.5531498 149.015661,8.1874752 149.015661,8.76875 L149.015661,27.909747 C149.01278,28.9519345 149.797085,28.9884425 149.797085,28.9884425 L151.642305,28.9884425 C152.633492,28.9884425 152.551661,28.0831597 152.551661,28.0831597" id="Fill-8"></path>
                                    <path d="M162.731492,44.6184028 L162.731492,42.5568452 L162.734949,42.5585565 L162.734949,31.8953869 C162.734949,31.8953869 162.71478,31.4823909 162.18461,31.4823909 L160.639051,31.4823909 C160.639051,31.4823909 160.300203,31.4127976 160.090441,31.9136409 C159.880102,32.4173363 156.192542,42.1324405 156.192542,42.1324405 C156.192542,42.1324405 156.125695,42.4478919 155.883661,42.4478919 L155.883661,42.4530258 C155.640475,42.4530258 155.573051,42.1324405 155.573051,42.1324405 C155.573051,42.1324405 151.886068,32.4173363 151.675729,31.9170635 C151.467119,31.4127976 151.127119,31.4823909 151.127119,31.4823909 L149.579831,31.4823909 C149.047356,31.4823909 149.032949,31.8982391 149.032949,31.8982391 L149.032949,44.6184028 C149.032949,44.6184028 148.994339,45.0644841 149.476102,45.0644841 L150.377966,45.0644841 C150.377966,45.0644841 150.761763,45.0428075 150.758305,44.5356895 L150.758305,35.1919395 C150.758305,34.9078621 150.734678,34.599256 150.912746,34.594122 C151.094847,34.5889881 151.245254,34.9175595 151.245254,34.9175595 L151.752373,36.2278522 L154.943186,44.5818948 C155.169661,45.0941468 155.524644,45.0644841 155.524644,45.0644841 L156.242102,45.0610615 C156.242102,45.0610615 156.596508,45.0941468 156.821254,44.5818948 L160.01322,36.2278522 L160.519186,34.9175595 C160.519186,34.9175595 160.669017,34.5872768 160.852847,34.594122 C161.036678,34.599256 161.006136,34.9078621 161.006136,35.1885169 L161.006136,44.5356895 C161.006136,45.0428075 161.388203,45.0610615 161.388203,45.0610615 L162.289492,45.0610615 C162.771831,45.0610615 162.731492,44.6184028 162.731492,44.6184028" id="Fill-9"></path>
                                    <path d="M121.881356,3.46140873 L121.881356,1.72728175 C121.881356,1.72728175 121.841593,1.05017361 120.790475,1.05359623 L103.196915,1.05359623 C102.512881,1.05359623 102.512881,1.79002976 102.512881,1.79002976 L102.512881,28.2548611 C102.512881,28.2548611 102.512881,28.9901538 103.196915,28.9901538 L120.790475,28.9901538 C121.841593,28.9918651 121.881356,28.3176091 121.881356,28.3176091 L121.881356,26.5800595 C121.881356,25.7295387 120.96739,25.7991319 120.96739,25.7991319 L110.335186,25.7991319 L110.338068,25.7974206 L107.558712,25.7974206 C106.837797,25.7974206 106.230407,25.6553819 106.230407,24.2692212 L106.230407,17.5238095 C106.230407,17.5238095 106.287458,16.2853919 107.70739,16.2853919 L119.901288,16.2853919 C119.901288,16.2853919 120.815831,16.3544147 120.815831,15.5021825 L120.815831,13.7663442 C120.815831,13.7663442 120.776644,13.0926587 119.728983,13.09437 L107.258475,13.09437 C107.258475,13.09437 106.230407,13.1371528 106.230407,12.4600446 L106.230407,5.77224702 C106.230407,4.38836806 106.837797,4.24461806 107.558712,4.24461806 L110.338068,4.24461806 L110.335186,4.24290675 L120.96739,4.24290675 C120.96739,4.24290675 121.881356,4.31364087 121.881356,3.46140873" id="Fill-10"></path>
                                    <path d="M173.924407,32.6021577 L173.924407,31.7567708 C173.924407,31.7567708 173.907695,31.4247768 173.393661,31.4264881 L164.80722,31.4264881 C164.474136,31.4264881 164.474136,31.7864335 164.474136,31.7864335 L164.474136,44.6446429 C164.474136,44.6446429 164.474136,45.0627728 164.80722,45.0627728 L173.393661,45.0627728 C173.907695,45.0627728 173.924407,44.733631 173.924407,44.733631 L173.924407,43.8848214 C173.924407,43.4718254 173.480678,43.5031994 173.480678,43.5031994 L166.936542,43.5031994 C166.586169,43.5031994 166.288814,43.4341766 166.288814,42.7587798 L166.288814,39.4650794 C166.288814,39.4650794 166.315898,38.8587054 167.009729,38.8587054 L172.958,38.8587054 C172.958,38.8587054 173.404034,38.8952133 173.404034,38.4787946 L173.404034,37.6334077 C173.404034,37.6334077 173.385593,37.3014137 172.875017,37.3025546 L166.789593,37.3025546 C166.789593,37.3025546 166.389085,37.3538938 166.288814,36.9956597 L166.288814,33.7304812 C166.288814,33.0550843 166.586169,32.9837798 166.936542,32.9837798 L173.480678,32.9837798 C173.480678,32.9837798 173.924407,33.0185764 173.924407,32.6021577" id="Fill-11"></path>
                                    <path d="M167.34339,14.4092262 L159.650169,14.4092262 C159.650169,14.4092262 158.827254,14.5164683 158.619797,13.7783234 L158.619797,5.97247024 C158.619797,4.59144345 159.23122,4.32390873 159.950407,4.32390873 L167.201627,4.29937996 C169.34939,4.29937996 172.170814,5.42884425 172.170814,9.78070437 C172.170814,14.1302827 167.34339,14.4092262 167.34339,14.4092262 M168.85322,1.05017361 L155.586881,1.05017361 C154.902847,1.05017361 154.902847,1.79002976 154.902847,1.79002976 L154.902847,28.2531498 C154.902847,28.2531498 154.902847,28.9918651 155.586881,28.9918651 L157.938068,28.9918651 C158.623254,28.9918651 158.623254,28.2531498 158.623254,28.2531498 C158.623254,28.2531498 158.619797,20.9578373 158.619797,18.840377 C158.619797,18.840377 158.676847,17.6013889 160.098508,17.6013889 C161.536881,17.6013889 168.978847,17.5768601 168.978847,17.5768601 C175.920034,17.5768601 175.920034,9.27872024 175.920034,9.27872024 C175.923492,1.49283234 169.028983,1.05017361 168.85322,1.05017361" id="Fill-12"></path>
                                    <path d="M180.979119,43.5665179 L177.896068,43.5665179 C177.118102,43.5665179 177.208,42.9436012 177.208,42.9436012 C177.208,42.9436012 177.204542,34.149752 177.204542,33.5439484 L177.204542,33.512004 C177.223559,32.940997 177.675356,32.9621032 177.675356,32.9621032 L180.061119,32.9621032 C181.634915,32.9621032 182.083831,33.197123 182.083831,33.197123 C183.862203,33.9187252 184.920237,34.9637649 184.920237,38.6442212 C184.920237,42.3241071 182.083831,43.5665179 180.979119,43.5665179 M186.061831,34.6055308 C184.72661,31.2855903 180.20461,31.4772569 180.20461,31.4772569 L175.786915,31.4772569 C175.786915,31.4772569 175.406,31.4989335 175.406,32.002629 C175.406,32.5525298 175.409458,39.7805308 175.409458,39.7805308 L175.406,42.5602679 L175.409458,42.5602679 L175.409458,44.6132688 C175.409458,44.6132688 175.374881,45.0291171 175.819763,45.0507937 L175.819763,45.0542163 L180.265119,45.0542163 C185.063729,45.0445188 186.228949,41.2602431 186.228949,41.2602431 C186.228949,41.2602431 187.394746,37.9237599 186.061831,34.6055308" id="Fill-13"></path>
                                    <path d="M199.600746,39.4599454 L196.03939,39.4599454 C195.528814,39.4599454 195.662508,38.9134673 195.662508,38.9134673 C195.662508,38.9134673 197.271458,34.5827133 197.444915,34.0755952 C197.621254,33.5701885 197.821797,33.5884425 197.821797,33.5884425 C197.821797,33.5884425 198.02061,33.5701885 198.19522,34.0755952 C198.372712,34.5827133 199.977627,38.9134673 199.977627,38.9134673 C199.977627,38.9134673 200.110746,39.4599454 199.600746,39.4599454 M203.838644,44.3491567 C203.555119,43.6669147 198.989898,31.997495 198.989898,31.997495 C198.989898,31.997495 198.796271,31.5206101 198.335254,31.5206101 L197.302576,31.5206101 C196.840983,31.5206101 196.650814,31.997495 196.650814,31.997495 C196.650814,31.997495 192.089051,43.6669147 191.804949,44.3491567 C191.517966,45.0376736 192.065424,45.052505 192.065424,45.052505 L192.695864,45.052505 C193.41678,45.052505 193.543559,44.5567956 193.543559,44.5567956 C193.543559,44.5567956 194.311153,42.4593006 194.61139,41.6618304 C194.911627,40.8672123 195.516136,40.9579117 195.516136,40.9579117 L200.129763,40.9579117 C200.129763,40.9579117 200.731966,40.8672123 201.032203,41.6618304 C201.332441,42.4593006 202.100034,44.5567956 202.100034,44.5567956 C202.100034,44.5567956 202.223356,45.052505 202.944271,45.052505 L203.581627,45.052505 C203.581627,45.052505 204.122169,45.0376736 203.838644,44.3491567" id="Fill-14"></path>
                                    <path d="M190.601695,26.3342014 L190.601695,26.31937 C181.302983,26.31937 180.939356,16.2968006 180.927254,15.084623 L180.927254,14.959127 C180.930712,13.8410714 181.24939,3.71924603 190.586712,3.71125992 L190.586712,3.72266865 C200.477831,3.72266865 200.262881,15.066369 200.262881,15.0812004 C200.254237,16.2026786 199.939593,26.3227927 190.601695,26.3342014 M203.915288,15.0252976 C203.915288,15.0053323 203.920475,14.9922123 203.920475,14.9688244 L203.913559,14.9688244 C203.851898,2.53045635 194.022441,0.703348214 190.605153,0.703348214 L190.579797,0.693650794 C187.164814,0.693650794 177.33478,2.52018849 177.275424,14.9574157 L177.268508,14.9574157 C177.268508,14.9785218 177.271966,14.9967758 177.271966,15.0150298 C177.271966,15.0367063 177.268508,15.0549603 177.268508,15.0732143 L177.275424,15.0732143 C177.33478,27.5115823 187.166542,29.3386905 190.581525,29.3386905 L190.60861,29.3500992 C194.022441,29.3500992 203.851898,27.5218502 203.913559,15.0829117 L203.920475,15.0829117 C203.920475,15.0646577 203.915288,15.0464038 203.915288,15.0252976" id="Fill-16"></path>
                                    <path d="M39.3771864,26.3342014 L39.3771864,26.31937 C30.0802034,26.31937 29.7131186,16.2968006 29.709661,15.084623 L29.709661,14.959127 L29.7027458,14.959127 C29.709661,13.8410714 30.0300678,3.71924603 39.3639322,3.71125992 L39.3639322,3.72266865 C49.2538983,3.72266865 49.0383729,15.066369 49.0383729,15.0812004 L49.0418305,15.0812004 C49.0349153,16.2026786 48.7150847,26.3227927 39.3771864,26.3342014 M52.6942373,15.0252976 C52.6942373,15.0053323 52.6976949,14.9922123 52.6976949,14.9688244 L52.6913559,14.9688244 C52.6291186,2.53045635 42.7979322,0.703348214 39.3841017,0.703348214 L39.3575932,0.693650794 C35.9437627,0.693650794 26.1154576,2.52018849 26.0520678,14.9574157 L26.0474576,14.9574157 C26.0474576,14.9785218 26.0509153,14.9967758 26.0509153,15.0150298 C26.0509153,15.0367063 26.0474576,15.0549603 26.0474576,15.0732143 L26.0520678,15.0732143 C26.1154576,27.5115823 35.9466441,29.3386905 39.3610508,29.3386905 L39.3841017,29.3500992 C42.8013898,29.3500992 52.6291186,27.5218502 52.6913559,15.0829117 L52.6976949,15.0829117 C52.6976949,15.0646577 52.6942373,15.0464038 52.6942373,15.0252976" id="Fill-17"></path>
                                </g>
                            </g>
                        </g>
                    </g>
                </g>
            </g>
        </g>
    </g>
</svg>