<?xml version="1.0" encoding="UTF-8"?>
<svg width="204px" height="45px" viewBox="0 0 204 45" version="1.1" xmlns="http://www.w3.org/2000/svg" xmlns:xlink="http://www.w3.org/1999/xlink">
    <!-- Generator: Sketch 42 (36781) - http://www.bohemiancoding.com/sketch -->
    <title>contempo-media-logo</title>
    <desc>Created with Sketch.</desc>
    <defs></defs>
    <g id="Page-1" stroke="none" stroke-width="1" fill="none" fill-rule="evenodd">
        <g id="Brands-Landing-Page-Hi-Fidedlity" transform="translate(-117.000000, -44.000000)" fill-rule="nonzero" fill="#4A4A4A">
            <g id="Nav" transform="translate(-2.000000, 0.000000)">
                <g id="contempo-media-logo" transform="translate(119.000000, 44.000000)">
                    <g id="Group">
                        <g id="Page-1">
                            <g id="Final-Logo">
                                <g id="Group-3">
                                    <g id="Group">
                                        <path d="M12.1794915,0.535530864 C-1.29084746,1.81841975 0.0357288136,15.9943704 0.0357288136,15.9943704 C0.204,22.7688642 3.68813559,29.5865185 13.5296949,29.5865185 C23.3672203,29.5865185 24.5652881,20.6017531 24.7975254,19.6005432 C25.0574237,18.4772346 24.0564407,18.5039259 24.0564407,18.5039259 L22.4964746,18.5084691 C21.2119661,18.5039259 21.1566441,19.475037 21.1566441,19.475037 C19.8150847,26.5425679 13.4743729,26.524963 13.4743729,26.524963 C3.41959322,26.524963 3.48298305,15.8540988 3.48298305,15.8540988 C3.47664407,3.65501235 12.1794915,3.60730864 12.1794915,3.60730864 C19.2543729,3.23079012 20.5642373,8.17209877 20.7780339,8.70138272 C20.9365085,9.09777778 21.1099661,9.45271605 21.9155932,9.47259259 L23.861661,9.46293827 C24.7894576,9.46293827 24.5036271,8.64402469 24.5036271,8.64402469 C22.4048475,-0.545753086 12.1794915,0.535530864 12.1794915,0.535530864" id="Fill-1"></path>
                                        <path d="M54.4783729,2.13246914 L54.4783729,27.8680494 C54.4783729,27.8680494 54.2709153,28.9266173 55.8965763,28.9266173 L56.7022034,28.9266173 C56.7022034,28.9266173 57.9584746,29.140716 57.9584746,27.6556543 L57.9584746,8.40380247 C57.9584746,8.40380247 57.8484068,6.25145679 59.3737966,8.54066667 C60.7049831,10.5499012 72.5266102,28.3547407 72.5266102,28.3547407 C72.5266102,28.3547407 72.8637288,28.9004938 73.8335932,28.9004938 L75.8257627,28.9004938 C75.8257627,28.9004938 76.9172203,28.8726667 76.9172203,27.9140494 L76.9172203,2.23469136 C76.9172203,2.23469136 77.0019322,1.14091358 75.956,1.14091358 L74.2473559,1.14091358 C74.2473559,1.14091358 73.4163729,1.18520988 73.4163729,2.44651852 L73.4163729,21.85 C73.4163729,21.85 73.4348136,23.8149383 72.0684746,21.8482963 C70.8398644,20.0707654 58.8528475,1.81501235 58.8528475,1.81501235 C58.8528475,1.81501235 58.4442712,1.11933333 57.4478983,1.11933333 L55.4390169,1.11933333 C55.4390169,1.11933333 54.4783729,1.08185185 54.4783729,2.13246914" id="Fill-4"></path>
                                        <path d="M99.919661,1.04720988 L83.7512203,1.04720988 L83.7512203,1.04891358 L79.4833559,1.04891358 C79.4833559,1.04891358 78.5653559,0.97962963 78.5653559,1.82807407 L78.5653559,3.55676543 C78.5653559,3.55676543 78.6091525,4.22916049 79.6568136,4.22745679 C80.2175254,4.22745679 86.9114915,4.25187654 86.9114915,4.25187654 C88.0294576,4.25187654 88.0029492,5.74659259 88.0029492,5.74659259 L88.0029492,23.7570123 L88.0081356,23.7558765 L88.0081356,27.9600494 C88.0081356,27.9600494 87.9263051,28.8613086 88.9157627,28.8613086 L90.9344407,28.8613086 C90.9344407,28.8613086 91.7204746,28.8232593 91.7204746,27.7874074 L91.7204746,11.8538025 L91.7204746,11.8555062 L91.7204746,5.74659259 C91.7204746,4.3688642 92.3278644,4.22745679 93.0505085,4.22745679 L95.8287119,4.22745679 L100.095424,4.22575309 C100.095424,4.22575309 101.007661,4.29446914 101.007661,3.44602469 L101.007661,1.71790123 C101.007661,1.71790123 100.967322,1.04550617 99.919661,1.04720988" id="Fill-5"></path>
                                        <path d="M188.481017,42.3711111 L188.481017,44.4218025 C188.481017,44.4218025 188.440678,44.8641975 188.924746,44.8641975 L189.909017,44.8641975 C189.909017,44.8641975 190.296271,44.8426173 190.296271,44.3411605 L190.296271,36.5597778 L190.292814,36.5597778 L190.296271,33.7776296 L190.292814,33.7776296 L190.292814,31.7275062 C190.292814,31.7275062 190.333153,31.2868148 189.849661,31.2868148 L188.863085,31.2868148 C188.863085,31.2868148 188.481017,31.3061235 188.481017,31.809284 C188.481017,32.3601481 188.484475,39.588963 188.484475,39.588963 L188.481017,42.3711111" id="Fill-7"></path>
                                        <path d="M152.551661,27.9583457 L152.551661,23.7541728 L152.55339,23.7570123 L152.55339,2.00753086 C152.55339,2.00753086 152.519966,1.15908642 151.425627,1.15908642 L148.263627,1.15908642 C148.263627,1.15908642 147.56461,1.01767901 147.135864,2.04217284 C146.708847,3.06780247 139.154508,22.8841481 139.154508,22.8841481 C139.154508,22.8841481 139.011017,23.5332593 138.516,23.5332593 L138.516,23.5366667 C138.023288,23.5366667 137.878068,22.8858519 137.878068,22.8858519 C137.878068,22.8858519 130.328339,3.06950617 129.897864,2.04558025 C129.472,1.02108642 128.771254,1.16079012 128.771254,1.16079012 L125.609254,1.16079012 C124.511458,1.16079012 124.479186,2.00923457 124.479186,2.00923457 L124.479186,23.758716 L124.481492,23.7570123 L124.481492,27.9617531 C124.481492,27.9617531 124.402542,28.8630123 125.392,28.8630123 L127.234915,28.8630123 C127.234915,28.8630123 128.022102,28.8232593 128.018644,27.7874074 L128.018644,8.73091358 C128.018644,8.15222222 127.965051,7.52128395 128.335593,7.51106173 C128.709593,7.50083951 129.019627,8.16698765 129.019627,8.16698765 L136.593559,27.8828148 C137.055729,28.9266173 137.786441,28.8630123 137.786441,28.8630123 L139.251322,28.8596049 C139.251322,28.8596049 139.975695,28.9237778 140.442475,27.8794074 L148.018136,8.16528395 C148.018136,8.16528395 148.325288,7.4991358 148.699288,7.50935802 C149.069254,7.51958025 149.015661,8.15108642 149.015661,8.72977778 L149.015661,27.7857037 C149.01278,28.8232593 149.797085,28.8596049 149.797085,28.8596049 L151.642305,28.8596049 C152.633492,28.8596049 152.551661,27.9583457 152.551661,27.9583457" id="Fill-8"></path>
                                        <path d="M162.731492,44.4200988 L162.731492,42.3677037 L162.734949,42.3694074 L162.734949,31.7536296 C162.734949,31.7536296 162.71478,31.3424691 162.18461,31.3424691 L160.639051,31.3424691 C160.639051,31.3424691 160.300203,31.2731852 160.090441,31.7718025 C159.880102,32.2732593 156.192542,41.9451852 156.192542,41.9451852 C156.192542,41.9451852 156.125695,42.2592346 155.883661,42.2592346 L155.883661,42.2643457 C155.640475,42.2643457 155.573051,41.9451852 155.573051,41.9451852 C155.573051,41.9451852 151.886068,32.2732593 151.675729,31.7752099 C151.467119,31.2731852 151.127119,31.3424691 151.127119,31.3424691 L149.579831,31.3424691 C149.047356,31.3424691 149.032949,31.7564691 149.032949,31.7564691 L149.032949,44.4200988 C149.032949,44.4200988 148.994339,44.8641975 149.476102,44.8641975 L150.377966,44.8641975 C150.377966,44.8641975 150.761763,44.8426173 150.758305,44.3377531 L150.758305,35.0355309 C150.758305,34.752716 150.734678,34.4454815 150.912746,34.4403704 C151.094847,34.4352593 151.245254,34.7623704 151.245254,34.7623704 L151.752373,36.0668395 L154.943186,44.3837531 C155.169661,44.8937284 155.524644,44.8641975 155.524644,44.8641975 L156.242102,44.8607901 C156.242102,44.8607901 156.596508,44.8937284 156.821254,44.3837531 L160.01322,36.0668395 L160.519186,34.7623704 C160.519186,34.7623704 160.669017,34.4335556 160.852847,34.4403704 C161.036678,34.4454815 161.006136,34.752716 161.006136,35.0321235 L161.006136,44.3377531 C161.006136,44.8426173 161.388203,44.8607901 161.388203,44.8607901 L162.289492,44.8607901 C162.771831,44.8607901 162.731492,44.4200988 162.731492,44.4200988" id="Fill-9"></path>
                                        <path d="M121.881356,3.44602469 L121.881356,1.71960494 C121.881356,1.71960494 121.841593,1.04550617 120.790475,1.04891358 L103.196915,1.04891358 C102.512881,1.04891358 102.512881,1.78207407 102.512881,1.78207407 L102.512881,28.129284 C102.512881,28.129284 102.512881,28.8613086 103.196915,28.8613086 L120.790475,28.8613086 C121.841593,28.8630123 121.881356,28.1917531 121.881356,28.1917531 L121.881356,26.4619259 C121.881356,25.6151852 120.96739,25.6844691 120.96739,25.6844691 L110.335186,25.6844691 L110.338068,25.6827654 L107.558712,25.6827654 C106.837797,25.6827654 106.230407,25.541358 106.230407,24.161358 L106.230407,17.4459259 C106.230407,17.4459259 106.287458,16.2130123 107.70739,16.2130123 L119.901288,16.2130123 C119.901288,16.2130123 120.815831,16.2817284 120.815831,15.433284 L120.815831,13.7051605 C120.815831,13.7051605 120.776644,13.0344691 119.728983,13.0361728 L107.258475,13.0361728 C107.258475,13.0361728 106.230407,13.0787654 106.230407,12.4046667 L106.230407,5.74659259 C106.230407,4.3688642 106.837797,4.22575309 107.558712,4.22575309 L110.338068,4.22575309 L110.335186,4.22404938 L120.96739,4.22404938 C120.96739,4.22404938 121.881356,4.29446914 121.881356,3.44602469" id="Fill-10"></path>
                                        <path d="M173.924407,32.4572593 L173.924407,31.6156296 C173.924407,31.6156296 173.907695,31.2851111 173.393661,31.2868148 L164.80722,31.2868148 C164.474136,31.2868148 164.474136,31.6451605 164.474136,31.6451605 L164.474136,44.4462222 C164.474136,44.4462222 164.474136,44.8624938 164.80722,44.8624938 L173.393661,44.8624938 C173.907695,44.8624938 173.924407,44.5348148 173.924407,44.5348148 L173.924407,43.6897778 C173.924407,43.2786173 173.480678,43.3098519 173.480678,43.3098519 L166.936542,43.3098519 C166.586169,43.3098519 166.288814,43.2411358 166.288814,42.5687407 L166.288814,39.289679 C166.288814,39.289679 166.315898,38.686 167.009729,38.686 L172.958,38.686 C172.958,38.686 173.404034,38.7223457 173.404034,38.3077778 L173.404034,37.4661481 C173.404034,37.4661481 173.385593,37.1356296 172.875017,37.1367654 L166.789593,37.1367654 C166.789593,37.1367654 166.389085,37.1878765 166.288814,36.8312346 L166.288814,33.5805679 C166.288814,32.9081728 166.586169,32.8371852 166.936542,32.8371852 L173.480678,32.8371852 C173.480678,32.8371852 173.924407,32.8718272 173.924407,32.4572593" id="Fill-11"></path>
                                        <path d="M167.34339,14.3451852 L159.650169,14.3451852 C159.650169,14.3451852 158.827254,14.4519506 158.619797,13.7170864 L158.619797,5.94592593 C158.619797,4.57103704 159.23122,4.30469136 159.950407,4.30469136 L167.201627,4.2802716 C169.34939,4.2802716 172.170814,5.40471605 172.170814,9.73723457 C172.170814,14.0674815 167.34339,14.3451852 167.34339,14.3451852 M168.85322,1.04550617 L155.586881,1.04550617 C154.902847,1.04550617 154.902847,1.78207407 154.902847,1.78207407 L154.902847,28.1275802 C154.902847,28.1275802 154.902847,28.8630123 155.586881,28.8630123 L157.938068,28.8630123 C158.623254,28.8630123 158.623254,28.1275802 158.623254,28.1275802 C158.623254,28.1275802 158.619797,20.8646914 158.619797,18.756642 C158.619797,18.756642 158.676847,17.5231605 160.098508,17.5231605 C161.536881,17.5231605 168.978847,17.4987407 168.978847,17.4987407 C175.920034,17.4987407 175.920034,9.23748148 175.920034,9.23748148 C175.923492,1.48619753 169.028983,1.04550617 168.85322,1.04550617" id="Fill-12"></path>
                                        <path d="M180.979119,43.3728889 L177.896068,43.3728889 C177.118102,43.3728889 177.208,42.7527407 177.208,42.7527407 C177.208,42.7527407 177.204542,33.9979753 177.204542,33.3948642 L177.204542,33.3630617 C177.223559,32.7945926 177.675356,32.8156049 177.675356,32.8156049 L180.061119,32.8156049 C181.634915,32.8156049 182.083831,33.0495802 182.083831,33.0495802 C183.862203,33.7679753 184.920237,34.8083704 184.920237,38.4724691 C184.920237,42.136 182.083831,43.3728889 180.979119,43.3728889 M186.061831,34.4517284 C184.72661,31.1465432 180.20461,31.337358 180.20461,31.337358 L175.786915,31.337358 C175.786915,31.337358 175.406,31.3589383 175.406,31.8603951 C175.406,32.4078519 175.409458,39.6037284 175.409458,39.6037284 L175.406,42.3711111 L175.409458,42.3711111 L175.409458,44.4149877 C175.409458,44.4149877 175.374881,44.8289877 175.819763,44.8505679 L175.819763,44.8539753 L180.265119,44.8539753 C185.063729,44.844321 186.228949,41.0768642 186.228949,41.0768642 C186.228949,41.0768642 187.394746,37.7552099 186.061831,34.4517284" id="Fill-13"></path>
                                        <path d="M199.600746,39.2845679 L196.03939,39.2845679 C195.528814,39.2845679 195.662508,38.7405185 195.662508,38.7405185 C195.662508,38.7405185 197.271458,34.4290123 197.444915,33.9241481 C197.621254,33.4209877 197.821797,33.4391605 197.821797,33.4391605 C197.821797,33.4391605 198.02061,33.4209877 198.19522,33.9241481 C198.372712,34.4290123 199.977627,38.7405185 199.977627,38.7405185 C199.977627,38.7405185 200.110746,39.2845679 199.600746,39.2845679 M203.838644,44.1520494 C203.555119,43.4728395 198.989898,31.855284 198.989898,31.855284 C198.989898,31.855284 198.796271,31.3805185 198.335254,31.3805185 L197.302576,31.3805185 C196.840983,31.3805185 196.650814,31.855284 196.650814,31.855284 C196.650814,31.855284 192.089051,43.4728395 191.804949,44.1520494 C191.517966,44.8375062 192.065424,44.8522716 192.065424,44.8522716 L192.695864,44.8522716 C193.41678,44.8522716 193.543559,44.3587654 193.543559,44.3587654 C193.543559,44.3587654 194.311153,42.2705926 194.61139,41.4766667 C194.911627,40.6855802 195.516136,40.7758765 195.516136,40.7758765 L200.129763,40.7758765 C200.129763,40.7758765 200.731966,40.6855802 201.032203,41.4766667 C201.332441,42.2705926 202.100034,44.3587654 202.100034,44.3587654 C202.100034,44.3587654 202.223356,44.8522716 202.944271,44.8522716 L203.581627,44.8522716 C203.581627,44.8522716 204.122169,44.8375062 203.838644,44.1520494" id="Fill-14"></path>
                                        <path d="M190.601695,26.2171605 L190.601695,26.2023951 C181.302983,26.2023951 180.939356,16.2243704 180.927254,15.0175802 L180.927254,14.892642 C180.930712,13.7795556 181.24939,3.70271605 190.586712,3.69476543 L190.586712,3.70612346 C200.477831,3.70612346 200.262881,14.9994074 200.262881,15.0141728 C200.254237,16.1306667 199.939593,26.2058025 190.601695,26.2171605 M203.915288,14.9585185 C203.915288,14.938642 203.920475,14.9255802 203.920475,14.9022963 L203.913559,14.9022963 C203.851898,2.51920988 194.022441,0.700222222 190.605153,0.700222222 L190.579797,0.690567901 C187.164814,0.690567901 177.33478,2.50898765 177.275424,14.8909383 L177.268508,14.8909383 C177.268508,14.9119506 177.271966,14.9301235 177.271966,14.9482963 C177.271966,14.9698765 177.268508,14.9880494 177.268508,15.0062222 L177.275424,15.0062222 C177.33478,27.3893086 187.166542,29.2082963 190.581525,29.2082963 L190.60861,29.2196543 C194.022441,29.2196543 203.851898,27.3995309 203.913559,15.0158765 L203.920475,15.0158765 C203.920475,14.9977037 203.915288,14.9795309 203.915288,14.9585185" id="Fill-16"></path>
                                        <path d="M39.3771864,26.2171605 L39.3771864,26.2023951 C30.0802034,26.2023951 29.7131186,16.2243704 29.709661,15.0175802 L29.709661,14.892642 L29.7027458,14.892642 C29.709661,13.7795556 30.0300678,3.70271605 39.3639322,3.69476543 L39.3639322,3.70612346 C49.2538983,3.70612346 49.0383729,14.9994074 49.0383729,15.0141728 L49.0418305,15.0141728 C49.0349153,16.1306667 48.7150847,26.2058025 39.3771864,26.2171605 M52.6942373,14.9585185 C52.6942373,14.938642 52.6976949,14.9255802 52.6976949,14.9022963 L52.6913559,14.9022963 C52.6291186,2.51920988 42.7979322,0.700222222 39.3841017,0.700222222 L39.3575932,0.690567901 C35.9437627,0.690567901 26.1154576,2.50898765 26.0520678,14.8909383 L26.0474576,14.8909383 C26.0474576,14.9119506 26.0509153,14.9301235 26.0509153,14.9482963 C26.0509153,14.9698765 26.0474576,14.9880494 26.0474576,15.0062222 L26.0520678,15.0062222 C26.1154576,27.3893086 35.9466441,29.2082963 39.3610508,29.2082963 L39.3841017,29.2196543 C42.8013898,29.2196543 52.6291186,27.3995309 52.6913559,15.0158765 L52.6976949,15.0158765 C52.6976949,14.9977037 52.6942373,14.9795309 52.6942373,14.9585185" id="Fill-17"></path>
                                    </g>
                                </g>
                            </g>
                        </g>
                    </g>
                </g>
            </g>
        </g>
    </g>
</svg>