<?xml version="1.0" encoding="UTF-8"?>
<svg width="290px" height="85px" viewBox="0 0 290 85" version="1.1" xmlns="http://www.w3.org/2000/svg" xmlns:xlink="http://www.w3.org/1999/xlink">
    <!-- Generator: Sketch 43.1 (39012) - http://www.bohemiancoding.com/sketch -->
    <title>S-mag_logo</title>
    <desc>Created with Sketch.</desc>
    <defs></defs>
    <g id="Page-1" stroke="none" stroke-width="1" fill="none" fill-rule="evenodd">
        <g id="S-mag_logo" fill-rule="nonzero" fill="#FFFFFF">
            <path d="M67.425,0 L46.5294643,50.2580357 C41.2991071,35.9651786 17.6330357,29.8026786 17.6330357,15.8205357 C17.6330357,9.14017857 22.5785714,3.75446429 30.9419643,3.75446429 C38.7875,3.75446429 45.85625,9.99464286 46.5553571,25.1678571 C46.6589286,27.2133929 46.6589286,28.1714286 47.1508929,28.1714286 L47.2544643,28.1714286 L50.56875,0 L50.2580357,0 C48.2383929,3.75446429 45.6232143,4.63482143 42.59375,4.63482143 C38.8651786,4.63482143 34.4375,3.13303571 30.1133929,3.13303571 C18.2285714,3.13303571 6.93928571,9.0625 6.93928571,23.0446429 C6.93928571,38.5544643 35.8616071,46.5035714 35.8616071,60.9258929 C35.8616071,68.0205357 31.1232143,77.39375 18.6428571,77.39375 C5.85178571,77.39375 1.00982143,65.8714286 1.00982143,51.1383929 C1.00982143,50.7758929 0.854464286,49.9991071 0.336607143,49.9991071 L0.258928571,49.9991071 C0.258928571,49.9991071 0.310714286,70.3508929 0.258928571,81.38125 C0.258928571,81.2776786 0.207142857,82.0285714 0.466071429,81.6660714 C2.22678571,77.4973214 6.86160714,76.7982143 8.67410714,76.7982143 C12.0919643,76.7982143 14.7071429,77.9892857 19.6267857,77.9892857 C26.2035714,77.9892857 31.9776786,76.66875 36.5348214,74.1830357 L32.2625,84.4107143 L33.1169643,84.4107143 L68.3053571,0 L67.425,0 L67.425,0 Z" id="Shape"></path>
            <path d="M87,76.3321429 L83.0901786,76.3321429 C82.8830357,76.3321429 82.83125,76.2803571 82.83125,76.1508929 L92.2303571,46.3482143 C92.2303571,46.21875 92.3598214,46.1669643 92.5410714,46.1669643 L96.5026786,46.1669643 C96.5803571,46.1669643 96.7616071,45.6491071 96.6839286,45.6491071 L87.6991071,45.6491071 C87.4919643,45.6491071 87.18125,45.9080357 86.81875,46.4517857 L71.4125,70.14375 L70.6098214,46.4517857 C70.5580357,45.9598214 70.3508929,45.6491071 70.1178571,45.6491071 L61.5473214,45.6491071 C61.4178571,45.6491071 61.2883929,46.1669643 61.3660714,46.1669643 L65.0946429,46.1669643 C65.3276786,46.1669643 65.3535714,46.21875 65.3535714,46.3482143 L55.9285714,76.1508929 C55.8767857,76.2803571 55.7991071,76.3321429 55.5660714,76.3321429 L51.8375,76.3321429 C51.7598214,76.3321429 51.5785714,76.85 51.65625,76.85 L60.3303571,76.85 C60.4080357,76.85 60.5375,76.3321429 60.4598214,76.3321429 L56.7053571,76.3321429 C56.5241071,76.3321429 56.4464286,76.2803571 56.4982143,76.1508929 L65.79375,46.6589286 L66.6741071,77.4196429 C66.6741071,77.5491071 67.1660714,77.5491071 67.24375,77.4196429 L87.2589286,46.8401786 L78.0151786,76.1508929 C77.9633929,76.2803571 77.8857143,76.3321429 77.6526786,76.3321429 L73.6910714,76.3321429 C73.6133929,76.3321429 73.4321429,76.85 73.5098214,76.85 L86.7928571,76.85 C86.8964286,76.85 87.1294643,76.3321429 87,76.3321429 L87,76.3321429 Z" id="Shape"></path>
            <path d="M121.463393,76.3321429 L117.372321,76.3321429 C117.191071,76.3321429 117.113393,76.2803571 117.113393,76.1508929 L117.113393,45.0276786 C117.113393,44.8982143 116.621429,44.8464286 116.491964,45.0276786 L94.2241071,74.4678571 C93.0330357,76.0473214 92.6446429,76.30625 92.1526786,76.30625 L88.99375,76.30625 C88.9160714,76.30625 88.7607143,76.8241071 88.8642857,76.8241071 L97.7455357,76.8241071 C97.8232143,76.8241071 97.9785714,76.30625 97.875,76.30625 L94.0428571,76.30625 C93.6544643,76.30625 93.6544643,76.0732143 94.9232143,74.4678571 L101.163393,66.1821429 L112.530357,66.1821429 L112.530357,76.125 C112.530357,76.2544643 112.452679,76.30625 112.271429,76.30625 L108.879464,76.30625 C108.75,76.30625 108.620536,76.8241071 108.75,76.8241071 L121.333929,76.8241071 C121.4375,76.85 121.566964,76.3321429 121.463393,76.3321429 L121.463393,76.3321429 Z M112.530357,65.6642857 L101.603571,65.6642857 L112.530357,51.2160714 L112.530357,65.6642857 L112.530357,65.6642857 Z" id="Shape"></path>
            <path d="M148.754464,65.0946429 L152.716071,65.0946429 C152.79375,65.0946429 152.975,64.5767857 152.897321,64.5767857 L139.614286,64.5767857 C139.536607,64.5767857 139.355357,65.0946429 139.433036,65.0946429 L143.394643,65.0946429 C143.575893,65.0946429 143.653571,65.1464286 143.601786,65.2241071 L141.271429,72.7848214 C140.442857,75.3741071 138.267857,77.1089286 134.927679,77.1089286 C130.603571,77.1089286 127.807143,75.2964286 127.807143,70.6875 C127.807143,65.4571429 132.286607,53.0803571 134.228571,49.9991071 C136.196429,46.8401786 139.070536,45.5196429 142.773214,45.5196429 C146.786607,45.5196429 150.204464,49.48125 148.858036,53.8053571 C148.80625,53.9348214 149.375893,53.9348214 149.375893,53.8053571 L152.146429,45.0794643 C152.146429,45.0017857 151.654464,45.0017857 151.628571,45.0794643 C151.266071,45.7785714 150.566964,46.4 148.9875,46.4 C147.175,46.4 145.207143,44.95 142.773214,44.95 C133.348214,44.95 124.233929,55.3848214 124.233929,65.9491071 C124.233929,73.2508929 128.583929,77.6526786 134.927679,77.6526786 C138.578571,77.6526786 140.65,75.3741071 142.540179,75.3741071 C143.808929,75.3741071 144.352679,76.0214286 144.09375,77.0571429 C144.041964,77.1866071 144.663393,77.1866071 144.715179,77.1089286 L148.469643,65.2758929 C148.495536,65.1464286 148.573214,65.0946429 148.754464,65.0946429 L148.754464,65.0946429 Z" id="Shape"></path>
            <path d="M180.550893,76.3321429 L176.459821,76.3321429 C176.278571,76.3321429 176.200893,76.2803571 176.200893,76.1508929 L176.200893,45.0276786 C176.200893,44.8982143 175.708929,44.8464286 175.579464,45.0276786 L153.311607,74.4678571 C152.120536,76.0473214 151.732143,76.30625 151.240179,76.30625 L148.08125,76.30625 C148.003571,76.30625 147.848214,76.8241071 147.951786,76.8241071 L156.833036,76.8241071 C156.910714,76.8241071 157.066071,76.30625 156.9625,76.30625 L153.130357,76.30625 C152.741964,76.30625 152.741964,76.0732143 154.010714,74.4678571 L160.250893,66.1821429 L171.617857,66.1821429 L171.617857,76.125 C171.617857,76.2544643 171.540179,76.30625 171.358929,76.30625 L167.966964,76.30625 C167.8375,76.30625 167.708036,76.8241071 167.8375,76.8241071 L180.421429,76.8241071 C180.499107,76.85 180.654464,76.3321429 180.550893,76.3321429 L180.550893,76.3321429 Z M171.617857,65.6642857 L160.691071,65.6642857 L171.617857,51.2160714 L171.617857,65.6642857 L171.617857,65.6642857 Z" id="Shape"></path>
            <path d="M207.738393,68.0464286 C206.340179,72.5258929 202.81875,76.3321429 194.895536,76.3321429 L188.784821,76.3321429 C188.603571,76.3321429 188.603571,76.2544643 188.655357,76.2026786 L214.548214,46.1410714 C214.729464,45.9598214 214.729464,45.6491071 214.6,45.6491071 L194.351786,45.6491071 C194.274107,45.6491071 194.170536,45.7008929 194.170536,45.7267857 L191.244643,54.8928571 C191.192857,54.9705357 191.736607,54.9705357 191.7625,54.8928571 C193.341964,49.7919643 197.044643,46.1669643 202.974107,46.1669643 L208.825893,46.1669643 C209.007143,46.1669643 209.007143,46.2964286 208.955357,46.3482143 L183.0625,76.3580357 C182.88125,76.5392857 182.88125,76.85 183.010714,76.85 L205.330357,76.85 C205.408036,76.85 205.459821,76.7982143 205.511607,76.7205357 L208.230357,68.0464286 C208.308036,67.9169643 207.790179,67.9169643 207.738393,68.0464286 L207.738393,68.0464286 Z" id="Shape"></path>
            <path d="M223.196429,76.3321429 L219.234821,76.3321429 C219.053571,76.3321429 218.975893,76.2803571 219.001786,76.1508929 L228.452679,46.3482143 C228.504464,46.21875 228.582143,46.1669643 228.815179,46.1669643 L232.725,46.1669643 C232.854464,46.1669643 232.983929,45.6491071 232.90625,45.6491071 L219.623214,45.6491071 C219.545536,45.6491071 219.364286,46.1669643 219.49375,46.1669643 L223.403571,46.1669643 C223.610714,46.1669643 223.6625,46.21875 223.6625,46.3482143 L214.2375,76.1508929 C214.185714,76.2803571 214.05625,76.3321429 213.875,76.3321429 L209.913393,76.3321429 C209.835714,76.3321429 209.654464,76.85 209.732143,76.85 L223.015179,76.85 C223.170536,76.85 223.3,76.3321429 223.196429,76.3321429 L223.196429,76.3321429 Z" id="Shape"></path>
            <path d="M261.802679,46.1669643 L265.557143,46.1669643 C265.634821,46.1669643 265.816071,45.6491071 265.738393,45.6491071 L257.064286,45.6491071 C256.986607,45.6491071 256.805357,46.1669643 256.883036,46.1669643 L260.663393,46.1669643 C260.844643,46.1669643 260.922321,46.21875 260.870536,46.3482143 L253.491071,69.9366071 L245.95625,46.4258929 C245.723214,45.8044643 245.516071,45.6232143 245.205357,45.6232143 L236.7125,45.6232143 C236.634821,45.6232143 236.453571,46.1410714 236.583036,46.1410714 L240.3375,46.1410714 C240.51875,46.1410714 240.596429,46.1928571 240.544643,46.3223214 L231.119643,76.125 C231.119643,76.2544643 230.990179,76.30625 230.808929,76.30625 L227.028571,76.30625 C226.950893,76.30625 226.769643,76.8241071 226.847321,76.8241071 L235.521429,76.8241071 C235.599107,76.8241071 235.780357,76.30625 235.702679,76.30625 L231.922321,76.30625 C231.741071,76.30625 231.663393,76.2544643 231.715179,76.125 L240.907143,46.94375 L251.057143,77.4196429 C251.134821,77.6008929 251.626786,77.5491071 251.678571,77.4196429 L261.440179,46.3482143 C261.491964,46.21875 261.595536,46.1669643 261.802679,46.1669643 L261.802679,46.1669643 Z" id="Shape"></path>
            <path d="M289.689286,45.6491071 L267.473214,45.6491071 C267.395536,45.6491071 267.214286,46.1669643 267.291964,46.1669643 L271.253571,46.1669643 C271.434821,46.1669643 271.5125,46.21875 271.460714,46.3482143 L262.035714,76.1508929 C261.983929,76.2803571 261.90625,76.3321429 261.673214,76.3321429 L257.763393,76.3321429 C257.633929,76.3321429 257.504464,76.85 257.582143,76.85 L282.180357,76.85 C282.258036,76.85 282.309821,76.7982143 282.361607,76.7205357 L285.080357,67.9946429 C285.132143,67.9169643 284.588393,67.9169643 284.5625,67.9946429 C283.164286,72.5258929 279.642857,76.30625 271.719643,76.30625 L267.084821,76.30625 C266.877679,76.30625 266.825893,76.2544643 266.825893,76.125 L271.745536,60.6410714 L273.765179,60.6410714 C277.364286,60.6410714 278.296429,62.9714286 277.338393,65.975 C277.286607,66.0526786 277.85625,66.0526786 277.85625,65.975 L281.066964,55.7732143 C281.066964,55.6955357 280.549107,55.6955357 280.497321,55.7732143 C279.565179,58.8026786 277.545536,60.1232143 273.946429,60.1232143 L271.926786,60.1232143 L276.276786,46.3482143 C276.328571,46.21875 276.458036,46.1669643 276.639286,46.1669643 L281.791964,46.1669643 C287.022321,46.1669643 288.394643,49.3776786 287.022321,53.5982143 C287.022321,53.7276786 287.540179,53.7276786 287.540179,53.5982143 L289.792857,45.7526786 C289.766964,45.7267857 289.766964,45.6491071 289.689286,45.6491071 L289.689286,45.6491071 Z" id="Shape"></path>
        </g>
    </g>
</svg>