<?xml version="1.0" encoding="utf-8"?>
<!-- Generator: Adobe Illustrator 19.2.0, SVG Export Plug-In . SVG Version: 6.00 Build 0)  -->
<!DOCTYPE svg PUBLIC "-//W3C//DTD SVG 1.1//EN" "http://www.w3.org/Graphics/SVG/1.1/DTD/svg11.dtd">
<svg version="1.1" id="Layer_1" xmlns="http://www.w3.org/2000/svg" xmlns:xlink="http://www.w3.org/1999/xlink" x="0px" y="0px"
	 viewBox="0 0 512.1 93.9" style="enable-background:new 0 0 512.1 93.9;" xml:space="preserve">
<metadata><?xpacket begin="﻿" id="W5M0MpCehiHzreSzNTczkc9d"?>
<x:xmpmeta xmlns:x="adobe:ns:meta/" x:xmptk="Adobe XMP Core 5.6-c111 79.158366, 2015/09/25-01:12:00        ">
   <rdf:RDF xmlns:rdf="http://www.w3.org/1999/02/22-rdf-syntax-ns#">
      <rdf:Description rdf:about=""/>
   </rdf:RDF>
</x:xmpmeta>
                                                                                                    
                                                                                                    
                                                                                                    
                                                                                                    
                                                                                                    
                                                                                                    
                                                                                                    
                                                                                                    
                                                                                                    
                                                                                                    
                                                                                                    
                                                                                                    
                                                                                                    
                                                                                                    
                                                                                                    
                                                                                                    
                                                                                                    
                                                                                                    
                                                                                                    
                                                                                                    
                           
<?xpacket end="w"?></metadata>
<style type="text/css">
	.st0{fill:#8D8F8F;}
</style>
<g>
	<path d="M43.7,77.8c0,11.2-5.5,16.7-16.7,16.7H16.5C5.3,94.4-0.2,89-0.2,77.8v-7.9l16.8-8V76c0,2.7,1.4,4.1,4.1,4.1h1.7
		c2.7,0,4.1-1.4,4.1-4.1V64.7c0-3.1-0.9-4.8-3.5-6.7L7,46.1C1.6,42.2-0.2,38.7-0.2,32V17.1c0-11.2,5.5-16.7,16.7-16.7h10.2
		c11.2,0,16.7,5.5,16.7,16.7v5.3l-16.8,8.2V18.8c0-2.7-1.4-4.1-4.1-4.1h-1.5c-2.7,0-4.1,1.4-4.1,4.1v8.9c0,3.1,0.9,4.8,3.5,6.7
		l16.1,12c5.5,4,7.2,7.3,7.2,14.1V77.8z M93.5,93.6H76.2V58.1H65.3v35.5H48.1V1.2h17.3v41.7h10.9V1.2h17.2V93.6z M145.9,93.6h-17.1
		l-1.5-19.2h-12.7l-1.8,19.2H97.3l12.1-92.4h24.3L145.9,93.6z M192.9,93.6h-17.2V62.2c0-2.7-1.4-4.1-4.1-4.1h-5.5v35.6h-17.2V1.2
		h27.3c11.2,0,16.7,5.5,16.7,16.7V36c0,7.2-2.3,11.3-7.5,13.2l-2.2,0.8l2.3,0.6c5.4,1.5,7.6,4.8,7.6,11.3V93.6z M240.9,41
		c0,11.2-5.5,16.7-16.7,16.7h-9.5v36h-17.2V1.2h26.7c11.2,0,16.7,5.5,16.7,16.7V41z M223.7,39.4V19.9c0-2.7-1.4-4.1-4.1-4.1h-4.8
		v27.7h4.8C222.2,43.5,223.7,42.1,223.7,39.4 M175.5,39.5V20.2c0-2.7-1.4-4.1-4.1-4.1h-5.3v27.6h5.3
		C174.1,43.6,175.5,42.2,175.5,39.5 M116.2,59.6h9.7l-5.2-43.2L116.2,59.6z"/>
</g>
<path class="st0" d="M472.6,92.9h25.2l0.2-1c-7.1-0.4-8-1.5-7.2-4.3l11.7-43.8c0.7-2.6,2.4-3.8,9.6-4.1l0.2-1h-25.6l-0.2,1
	c6.9,0.4,7.6,1.8,7,4.2l-5.4,20.1h-24.3l5.4-20c0.6-2.6,1.8-3.9,8.9-4.3l0.2-1h-25.2l-0.2,1c7.2,0.3,7.9,1.7,7.2,4.2l-11.7,43.8
	c-0.8,2.9-2.4,3.8-9.6,4.2l-0.2,1h25.6l0.2-1c-6.5-0.4-7.7-1.5-7-4.3l5.9-22h24.3l-5.9,22c-0.8,3-2.1,4-8.9,4.4L472.6,92.9z
	 M416.2,94.2c11.8,0,19.8-7.6,25.2-15.3l-1.2-0.9c-5.9,7.9-12.8,13.2-20.6,13.2c-10.1,0-15.6-6.7-15.6-17.9
	c0-15.4,10.4-34.5,23.4-34.5c7.9,0,10,4.2,13.5,17.2h1.2l5.1-18.5h-1.2l-4.3,3.8c-3-1.9-7.6-4-13.8-4c-20,0-33.4,17.4-33.4,34.2
	C394.5,85,403.6,94.2,416.2,94.2 M356.9,87.6c-0.8,2.9-2.6,3.8-10.4,4.2l-0.2,1H374l0.2-1c-7.6-0.4-9.1-1.1-8.3-4.3l12.6-47.4h3.1
	c7.3,0,7.9,3,10.8,16.3h1.2l4.4-17.8H351l-5.4,17.8h1.5c9.3-13,12.5-16.3,19.5-16.3h2.9L356.9,87.6z M328.3,70.1H311l14.2-22.8h0.3
	L328.3,70.1z M288.3,92.9h18.8l0.3-1c-6.6-1.2-7.7-3.5-3-11l5.6-9.1h18.5l1.6,13.2c0.6,5.1-0.5,6.5-7.9,6.9l-0.3,1h24.4l0.3-1
	c-5.9-0.8-6.5-1.8-7.3-7.5l-6.4-46.7h-3.5l-26.5,41.9c-4.9,7.8-8.3,11.1-14.3,12.3L288.3,92.9z M250,45.7c-0.5-4.2,0.1-5.8,6.9-6.1
	l0.2-1H234l-0.2,1c5.7,1,6.8,2.3,7.2,6.9l5.3,47.4h2.8l22.6-37.2l4,37.2h2.7l24.1-42.3c4.1-7.3,7.8-11.1,13.5-12.1l0.2-1h-19.4
	l-0.2,1c7,1,8.3,4.3,3.5,12.6l-17,29.6h-0.4l-3-36.1c-0.4-4.2,0.4-5.8,7.5-6.1l0.2-1h-23.6l-0.2,1c5.5,0.8,6.5,2.3,7,6.9l0.8,7.6
	l-17.4,28h-0.3L250,45.7z"/>
</svg>
