<?xml version="1.0" encoding="UTF-8"?>
<svg width="600px" height="386px" viewBox="0 0 600 386" version="1.1" xmlns="http://www.w3.org/2000/svg" xmlns:xlink="http://www.w3.org/1999/xlink">
    <!-- Generator: Sketch 42 (36781) - http://www.bohemiancoding.com/sketch -->
    <title>Sharp-BFM-logo</title>
    <desc>Created with Sketch.</desc>
    <defs></defs>
    <g id="Page-1" stroke="none" stroke-width="1" fill="none" fill-rule="evenodd">
        <g id="Sharp-BFM-logo" fill="#FFFFFF">
            <path d="M194.704,82.488 C194.704,73.086 192.389,68.562 184.796,63.114 L162.603,46.734 C159.014,44.214 157.737,41.821 157.737,37.608 L157.737,25.467 C157.737,21.771 159.702,19.813 163.42,19.813 L165.456,19.813 C169.174,19.813 171.139,21.771 171.139,25.467 L171.139,41.651 L194.338,30.384 L194.338,23.077 C194.338,7.698 186.825,0.225 171.37,0.225 L157.325,0.225 C141.869,0.225 134.356,7.698 134.356,23.077 L134.356,43.495 C134.356,52.663 136.858,57.553 144.266,62.87 L166.458,79.249 C170.046,81.769 171.323,84.159 171.323,88.372 L171.323,103.823 C171.323,107.522 169.358,109.479 165.642,109.479 L163.236,109.479 C159.518,109.479 157.554,107.522 157.554,103.823 L157.554,84.408 L134.356,95.359 L134.356,106.216 C134.356,121.593 141.869,129.066 157.325,129.066 L171.741,129.066 C187.193,129.066 194.704,121.593 194.704,106.216 L194.704,82.488" id="Fill-1"></path>
            <polyline id="Fill-2" points="239.585 1.328 239.585 58.423 224.52 58.423 224.52 1.328 200.767 1.328 200.767 127.967 224.52 127.967 224.52 79.299 239.585 79.299 239.585 127.967 263.332 127.967 263.332 1.328 239.585 1.328"></polyline>
            <path d="M285.329,1.326 L268.606,127.967 L289.905,127.967 L292.441,101.612 L309.964,101.612 L311.998,127.967 L335.495,127.967 L318.77,1.326 L285.329,1.326 Z M300.767,22.037 L307.962,81.286 L294.627,81.286 L300.767,22.037 L300.767,22.037 Z" id="Fill-3"></path>
            <path d="M363.24,59.45 L363.24,21.651 L370.587,21.651 C374.306,21.651 376.27,23.609 376.27,27.307 L376.27,53.794 C376.27,57.493 374.306,59.45 370.587,59.45 L363.24,59.45 Z M376.454,84.88 L376.454,127.966 L400.206,127.966 L400.206,84.697 C400.206,75.73 397.164,71.23 389.708,69.16 L386.54,68.282 L389.627,67.151 C396.815,64.513 400.022,58.919 400.022,49.01 L400.022,24.18 C400.022,8.802 392.508,1.327 377.058,1.327 L339.488,1.327 L339.488,127.966 L363.24,127.966 L363.24,79.222 L370.773,79.222 C374.489,79.222 376.454,81.18 376.454,84.88 L376.454,84.88 Z" id="Fill-4"></path>
            <path d="M442.57,53.595 C442.57,57.294 440.605,59.251 436.887,59.251 L430.281,59.251 L430.281,21.284 L436.887,21.284 C440.605,21.284 442.57,23.242 442.57,26.942 L442.57,53.595 Z M466.32,24.18 C466.32,8.802 458.811,1.328 443.354,1.328 L406.528,1.328 L406.528,127.966 L430.281,127.966 L430.281,78.631 L443.354,78.631 C458.811,78.631 466.32,71.154 466.32,55.775 L466.32,24.18 L466.32,24.18 Z" id="Fill-5"></path>
            <path d="M107.646,273.112 C104.553,271.737 100.772,271.051 95.79,271.051 C79.467,271.051 68.642,281.015 68.642,298.37 L68.642,307.477 L56.098,307.477 L56.098,324.66 L68.642,324.66 L68.642,384.282 L89.605,384.282 L89.605,324.66 L105.585,324.66 L105.585,307.477 L89.605,307.477 L89.605,299.745 C89.605,292.7 93.557,289.092 100.086,289.092 C102.664,289.092 105.411,289.607 107.646,291.153 L107.646,273.112 Z M181.014,345.965 C181.014,322.254 165.722,305.759 143.385,305.759 C121.048,305.759 105.757,322.254 105.757,345.965 C105.757,369.506 121.048,386 143.385,386 C165.722,386 181.014,369.506 181.014,345.965 L181.014,345.965 Z M159.88,345.965 C159.88,358.679 154.038,367.959 143.385,367.959 C132.733,367.959 126.89,358.679 126.89,345.965 C126.89,333.078 132.733,323.8 143.385,323.8 C154.038,323.8 159.88,333.078 159.88,345.965 L159.88,345.965 Z M234.28,307.133 C233.077,306.445 229.812,305.759 226.203,305.759 C218.643,305.759 212.286,309.538 209.022,315.037 L209.022,307.477 L187.716,307.477 L187.716,384.282 L209.022,384.282 L209.022,336.687 C210.568,329.642 216.41,325.861 223.627,325.861 C227.578,325.861 231.359,326.721 234.28,328.439 L234.28,307.133 Z M333.247,384.282 L358.849,315.38 L358.849,384.282 L379.639,384.282 L379.639,278.783 L353.866,278.783 L325.859,353.182 L297.68,278.783 L271.564,278.783 L271.564,384.282 L292.183,384.282 L292.183,315.38 L318.299,384.282 L333.247,384.282 Z M438.917,359.196 C437.199,365.725 431.874,368.817 424.657,368.817 C415.205,368.817 408.677,361.945 407.99,350.433 L459.193,350.433 L459.193,343.904 C459.193,321.394 446.822,305.759 424.313,305.759 C402.835,305.759 387.371,322.768 387.371,345.965 C387.371,369.677 402.32,386 424.657,386 C443.901,386 455.929,375.519 458.678,359.196 L438.917,359.196 Z M424.485,323.113 C433.248,323.113 438.059,329.47 438.231,337.545 L408.505,337.545 C410.395,328.096 416.237,323.113 424.485,323.113 L424.485,323.113 Z M465.893,384.282 L487.199,384.282 L487.199,335.656 C488.917,328.954 494.587,325.003 501.117,325.003 C509.536,325.003 513.66,330.502 513.66,338.577 L513.66,384.282 L534.965,384.282 L534.965,334.109 C534.965,317.1 525.172,305.759 507.818,305.759 C498.883,305.759 491.323,309.711 487.199,314.522 L487.199,307.477 L465.893,307.477 L465.893,384.282 L465.893,384.282 Z" id="Fill-6"></path>
            <path d="M0,174.038 L33.85,174.038 L33.85,260.293 L56.015,260.293 L56.015,174.038 L90.035,174.038 L90.035,154.793 L0,154.793 L0,174.038 Z M96.737,260.293 L118.042,260.293 L118.042,211.667 C119.76,204.966 125.431,201.014 131.959,201.014 C140.379,201.014 144.503,206.513 144.503,214.588 L144.503,260.293 L165.809,260.293 L165.809,210.12 C165.809,193.111 156.014,181.769 138.661,181.769 C129.726,181.769 122.166,185.722 118.042,190.533 L118.042,148.608 L96.737,148.608 L96.737,260.293 Z M223.369,235.207 C221.649,241.735 216.323,244.828 209.106,244.828 C199.657,244.828 193.126,237.956 192.44,226.444 L243.643,226.444 L243.643,219.915 C243.643,197.406 231.272,181.769 208.763,181.769 C187.284,181.769 171.821,198.781 171.821,221.976 C171.821,245.688 186.769,262.011 209.106,262.011 C228.351,262.011 240.378,251.53 243.128,235.207 L223.369,235.207 Z M208.935,199.124 C217.698,199.124 222.509,205.481 222.68,213.558 L192.955,213.558 C194.844,204.107 200.686,199.124 208.935,199.124 L208.935,199.124 Z M342.782,205.824 C350.513,203.075 356.701,194.828 356.701,183.487 C356.701,164.588 343.125,154.793 321.133,154.793 L280.755,154.793 L280.755,260.293 L324.569,260.293 C346.563,260.293 359.965,249.812 359.965,230.396 C359.965,218.883 352.748,209.091 342.782,205.824 L342.782,205.824 Z M301.889,198.093 L301.889,173.351 L319.758,173.351 C330.239,173.351 335.737,177.13 335.737,185.55 C335.737,193.969 330.239,198.093 319.758,198.093 L301.889,198.093 Z M301.889,215.276 L322.679,215.276 C332.989,215.276 338.486,220.258 338.486,228.507 C338.486,236.581 332.989,241.735 322.679,241.735 L301.889,241.735 L301.889,215.276 Z M438.487,221.976 C438.487,198.264 423.195,181.769 400.858,181.769 C378.521,181.769 363.227,198.264 363.227,221.976 C363.227,245.516 378.521,262.011 400.858,262.011 C423.195,262.011 438.487,245.516 438.487,221.976 L438.487,221.976 Z M417.353,221.976 C417.353,234.692 411.511,243.97 400.858,243.97 C390.203,243.97 384.363,234.692 384.363,221.976 C384.363,209.091 390.203,199.811 400.858,199.811 C411.511,199.811 417.353,209.091 417.353,221.976 L417.353,221.976 Z M518.04,221.976 C518.04,198.264 502.749,181.769 480.411,181.769 C458.074,181.769 442.781,198.264 442.781,221.976 C442.781,245.516 458.074,262.011 480.411,262.011 C502.749,262.011 518.04,245.516 518.04,221.976 L518.04,221.976 Z M496.906,221.976 C496.906,234.692 491.064,243.97 480.411,243.97 C469.757,243.97 463.915,234.692 463.915,221.976 C463.915,209.091 469.757,199.811 480.411,199.811 C491.064,199.811 496.906,209.091 496.906,221.976 L496.906,221.976 Z M574.742,260.293 L600,260.293 L567.697,216.134 L598.797,183.487 L572.336,183.487 L546.046,212.01 L546.046,148.608 L524.741,148.608 L524.741,260.293 L546.046,260.293 L546.046,236.067 L552.233,229.365 L574.742,260.293 L574.742,260.293 Z" id="Fill-7"></path>
        </g>
    </g>
</svg>