<?xml version="1.0" standalone="no"?>
<!DOCTYPE svg PUBLIC "-//W3C//DTD SVG 1.1//EN" "http://www.w3.org/Graphics/SVG/1.1/DTD/svg11.dtd" >
<svg>
<metadata>
Created by FontForge 20090622 at Tue Oct 13 10:54:49 2015
 By deploy user
Copyright (C) 1996, 2007 Hoefler &#38; Frere-Jones. http://www.typography.com
</metadata>
<defs>
<font id="MercuryDisplay-Bold" horiz-adv-x="598" >
  <font-face 
    font-family="Mercury Display Bold"
    font-weight="400"
    font-stretch="normal"
    units-per-em="1000"
    panose-1="0 0 0 0 0 0 0 0 0 0"
    ascent="800"
    descent="-200"
    x-height="454"
    cap-height="637"
    bbox="-106 -314 1506 1063.05"
    underline-thickness="50"
    underline-position="-50"
    unicode-range="U+0020-U+FB04"
  />
<missing-glyph horiz-adv-x="500" 
d="M0 -200v1000h500v-1000h-500zM71 750l179 -390l179 390h-358zM50 -76l172 376l-172 376v-752zM450 676l-172 -376l172 -376v752zM250 240l-179 -390h358z" />
    <glyph glyph-name="f_f" unicode="ff" horiz-adv-x="652" 
d="M537 455h125v-59h-125v-358l75 -24v-14h-263v14l60 24v358h-186v-358l62 -24v-14h-250v14l60 24v358h-91v17l91 45v18q0 133 85 209q63 56 162 56q107 0 140 -58l18 16q53 42 132 42q59 0 95 -28.5t36 -62.5q0 -31 -16 -48.5t-47 -17.5q-34 0 -60.5 32t-40.5 88
q-35 -16 -48.5 -51.5t-13.5 -108.5v-89zM223 455h186v38q0 46 9 82q-34 5 -53.5 39t-15.5 93q-66 -10 -96 -59.5t-30 -144.5v-48z" />
    <glyph glyph-name="fi" unicode="fi" horiz-adv-x="608" 
d="M222 396v-358l62 -24v-14h-250v14l60 24v358h-90v17l90 45v18q0 132 85 209q61 56 163 56q84 0 124 -31t40 -72q0 -31 -19 -50.5t-50 -19.5q-40 0 -63 37t-19 102q-133 -19 -133 -204v-48h238l73 17l4 -3v-431l60 -24v-14h-248v14l60 24v358h-187z" />
    <glyph glyph-name="fl" unicode="fl" horiz-adv-x="611" 
d="M537 38l60 -24v-14h-251v14l63 24v358h-187v-358l62 -24v-14h-250v14l60 24v358h-90v17l90 45v18q0 132 85 209q61 56 163 56q66 0 110 -22l81 23l4 -3v-701zM409 455v119q-61 26 -54 133q-133 -19 -133 -204v-48h187z" />
    <glyph glyph-name="f_f_i" unicode="ffi" horiz-adv-x="924" 
d="M537 455h238l74 17l4 -3v-431l60 -24v-14h-249v14l61 24v358h-188v-358l63 -24v-14h-251v14l60 24v358h-186v-358l62 -24v-14h-250v14l60 24v358h-91v17l91 45v18q0 133 85 209q63 56 162 56q112 0 144 -65l9 9q63 56 162 56q84 0 124 -31t40 -72q0 -31 -18.5 -50.5
t-49.5 -19.5q-40 0 -63.5 37t-19.5 102q-133 -19 -133 -204v-48zM223 455h186v21q0 54 14 98q-37 4 -57.5 38t-16.5 95q-66 -10 -96 -59.5t-30 -144.5v-48z" />
    <glyph glyph-name="f_f_l" unicode="ffl" horiz-adv-x="927" 
d="M853 38l60 -24v-14h-252v14l64 24v358h-188v-358l63 -24v-14h-251v14l60 24v358h-186v-358l62 -24v-14h-250v14l60 24v358h-91v17l91 45v18q0 133 85 209q63 56 162 56q112 0 144 -65l9 9q63 56 162 56q68 0 110 -22l82 23l4 -3v-701zM537 455h188v119q-62 26 -55 133
q-133 -19 -133 -204v-48zM223 455h186v21q0 54 14 98q-37 4 -57.5 38t-16.5 95q-66 -10 -96 -59.5t-30 -144.5v-48z" />
    <glyph glyph-name="f_b" unicode="fb" horiz-adv-x="899" 
d="M409 0v396h-187v-358l62 -24v-14h-250v14l60 24v358h-90v17l90 45v18q0 132 85 209q61 56 163 56q66 0 110 -22l81 23l4 -3v-333l4 -3q68 66 145 66t128.5 -62t51.5 -164q0 -116 -77 -187.5t-201 -71.5q-78 0 -179 16zM729 209q0 184 -124 184q-31 0 -68 -9v-320
q36 -44 93 -44q45 0 72 45.5t27 143.5zM409 455v119q-61 26 -54 133q-133 -19 -133 -204v-48h187z" />
    <glyph glyph-name="f_h" unicode="fh" horiz-adv-x="896" 
d="M588 0h-242v14l63 24v358h-187v-358l62 -24v-14h-250v14l60 24v358h-90v17l90 45v18q0 132 85 209q61 56 163 56q66 0 110 -22l82 23l4 -3v-348l4 -2q84 80 166 80q63 0 94 -39.5t31 -98.5v-293l60 -24v-14h-238v14l50 24v253q0 97 -73 97q-48 0 -94 -19v-331l50 -24v-14
zM409 455v119q-61 26 -54 133q-133 -19 -133 -204v-48h187z" />
    <glyph glyph-name="f_j" unicode="fj" horiz-adv-x="601" 
d="M409 396h-187v-358l62 -24v-14h-250v14l60 24v358h-90v17l90 45v18q0 132 85 209q61 56 163 56q84 0 124 -31t40 -72q0 -31 -19 -50.5t-50 -19.5q-40 0 -63 37t-19 102q-133 -19 -133 -204v-48h238l73 17l4 -3v-424q0 -82 -7.5 -118t-30.5 -66q-49 -67 -161 -67
q-64 0 -92 22.5t-28 55.5q0 28 18.5 44t47.5 16q34 0 55 -28.5t27 -74.5q26 13 34.5 39.5t8.5 81.5v446z" />
    <glyph glyph-name="f_k" unicode="fk" horiz-adv-x="862" 
d="M581 0h-235v14l63 24v358h-187v-358l62 -24v-14h-250v14l60 24v358h-90v17l90 45v18q0 132 85 209q61 56 163 56q66 0 110 -22l81 23l4 -3v-490h33l117 158l-55 33v14h216v-14l-60 -24l-133 -134l172 -247l49 -21v-14h-236v14l38 21l-113 171h-28v-168l44 -24v-14z
M409 455v119q-61 26 -54 133q-133 -19 -133 -204v-48h187z" />
    <glyph glyph-name="f_f_b" unicode="ffb" horiz-adv-x="1215" 
d="M767 719l82 23l4 -3v-333l4 -3q68 66 145 66t128.5 -62t51.5 -164q0 -116 -77 -187.5t-201 -71.5q-78 0 -179 16v396h-188v-358l63 -24v-14h-251v14l60 24v358h-186v-358l62 -24v-14h-250v14l60 24v358h-91v17l91 45v18q0 133 85 209q63 56 162 56q112 0 144 -65l9 9
q63 56 162 56q68 0 110 -22zM1045 209q0 184 -124 184q-31 0 -68 -9v-320q36 -44 93 -44q45 0 72 45.5t27 143.5zM537 455h188v119q-62 26 -55 133q-133 -19 -133 -204v-48zM223 455h186v21q0 54 14 98q-37 4 -57.5 38t-16.5 95q-66 -10 -96 -59.5t-30 -144.5v-48z" />
    <glyph glyph-name="f_f_h" unicode="ffh" horiz-adv-x="1211" 
d="M903 0h-242v14l64 24v358h-188v-358l63 -24v-14h-251v14l60 24v358h-186v-358l62 -24v-14h-250v14l60 24v358h-91v17l91 45v18q0 133 85 209q63 56 162 56q112 0 144 -65l9 9q63 56 162 56q67 0 111 -22l81 23l4 -3v-348l4 -2q84 80 166 80q63 0 94 -39.5t31 -98.5v-293
l60 -24v-14h-238v14l50 24v253q0 97 -73 97q-48 0 -94 -19v-331l50 -24v-14zM537 455h188v119q-62 26 -55 133q-133 -19 -133 -204v-48zM223 455h186v21q0 54 14 98q-37 4 -57.5 38t-16.5 95q-66 -10 -96 -59.5t-30 -144.5v-48z" />
    <glyph glyph-name="f_f_j" unicode="ffj" horiz-adv-x="917" 
d="M725 396h-188v-358l63 -24v-14h-251v14l60 24v358h-186v-358l62 -24v-14h-250v14l60 24v358h-91v17l91 45v18q0 133 85 209q63 56 162 56q112 0 144 -65l9 9q63 56 162 56q84 0 124 -31t40 -72q0 -31 -18.5 -50.5t-49.5 -19.5q-40 0 -63.5 37t-19.5 102
q-133 -19 -133 -204v-48h239l73 17l4 -3v-424q0 -82 -7.5 -118t-30.5 -66q-49 -67 -161 -67q-64 0 -92 22.5t-28 55.5q0 28 18.5 44t47.5 16q34 0 55 -28.5t27 -74.5q26 13 34.5 39.5t8.5 81.5v446zM223 455h186v21q0 54 14 98q-37 4 -57.5 38t-16.5 95q-66 -10 -96 -59.5
t-30 -144.5v-48z" />
    <glyph glyph-name="f_f_k" unicode="ffk" horiz-adv-x="1178" 
d="M897 0h-236v14l64 24v358h-188v-358l63 -24v-14h-251v14l60 24v358h-186v-358l62 -24v-14h-250v14l60 24v358h-91v17l91 45v18q0 133 85 209q63 56 162 56q112 0 144 -65l9 9q63 56 162 56q68 0 110 -22l82 23l4 -3v-490h33l117 158l-55 33v14h216v-14l-60 -24l-133 -134
l172 -247l49 -21v-14h-236v14l38 21l-113 171h-28v-168l44 -24v-14zM537 455h188v119q-62 26 -55 133q-133 -19 -133 -204v-48zM223 455h186v21q0 54 14 98q-37 4 -57.5 38t-16.5 95q-66 -10 -96 -59.5t-30 -144.5v-48z" />
    <glyph glyph-name=".notdef" horiz-adv-x="500" 
d="M0 -200v1000h500v-1000h-500zM71 750l179 -390l179 390h-358zM50 -76l172 376l-172 376v-752zM450 676l-172 -376l172 -376v752zM250 240l-179 -390h358z" />
    <glyph glyph-name=".null" horiz-adv-x="0" 
 />
    <glyph glyph-name="nonmarkingreturn" horiz-adv-x="333" 
 />
    <glyph glyph-name="space" unicode=" " horiz-adv-x="210" 
 />
    <glyph glyph-name="exclam" unicode="!" horiz-adv-x="266" 
d="M205 564q0 -29 -10 -89.5t-25.5 -144.5t-22.5 -139h-34q-7 55 -22.5 139t-25.5 144.5t-10 89.5q0 88 75 88t75 -88zM201 56q0 -29 -21 -50t-50 -21t-50 21t-21 50t21 49.5t50 20.5t50 -20.5t21 -49.5z" />
    <glyph glyph-name="quotedbl" unicode="&#x22;" horiz-adv-x="315" 
d="M297 608q0 -11 -8 -29q-19 -37 -56 -85l-47 -62l-15 7l12 78q7 54 23 98q6 17 19 27t28 10q18 0 31 -12.5t13 -31.5zM166 608q0 -15 -7 -29q-21 -39 -57 -85l-47 -62l-15 7l12 78q6 46 23 98q5 16 19 26.5t29 10.5q18 0 30.5 -12.5t12.5 -31.5z" />
    <glyph glyph-name="numbersign" unicode="#" horiz-adv-x="582" 
d="M537 365h-120l-20 -68l-16 -60h125v-46h-138l-40 -146l-49 15l39 131h-121l-40 -146l-48 15l39 131h-103v46h116l23 76l14 52h-122v46h135l43 156l49 -15l-43 -141h121l44 156l48 -15l-42 -141h106v-46zM368 365h-122l-20 -68q-16 -60 -17 -60h123l22 76q1 3 2.5 8.5
l4.5 17l5 19.5z" />
    <glyph glyph-name="dollar" unicode="$" horiz-adv-x="538" 
d="M488 190q0 -87 -63.5 -144t-160.5 -61l-6 -84l-37 4q7 80 7 81q-105 4 -169 30l-5 188l22 2q66 -143 155 -176l18 210q-90 37 -120 59q-70 50 -70 139q0 84 65.5 136.5t150.5 53.5l5 71l38 -5q-6 -67 -6 -68q73 -6 131 -38l9 -154l-22 -3q-63 119 -122 148l-17 -195
q7 -3 27 -11l28 -11t26.5 -11.5t27 -14l23 -15.5t22 -18.5t17.5 -21.5t14.5 -26t8 -29.5t3.5 -35.5zM273 589q-45 4 -71.5 -19t-26.5 -67q0 -66 85 -105q0 6 1 15t2.5 34t3 47l3 45t2.5 37zM375 117q0 41 -24.5 65.5t-71.5 45.5l-13 -205q52 -2 80.5 24.5t28.5 69.5z" />
    <glyph glyph-name="percent" unicode="%" horiz-adv-x="746" 
d="M360 460q0 -72 -46.5 -121t-123.5 -49q-75 0 -118 46.5t-43 121.5q0 72 47.5 120.5t123.5 48.5q75 0 117.5 -46t42.5 -121zM717 154q0 -72 -46.5 -121t-123.5 -49q-75 0 -118 46.5t-43 121.5q0 72 47 120.5t124 48.5q75 0 117.5 -46t42.5 -121zM488 151q0 -142 65 -142
q33 0 47.5 34t14.5 111q0 142 -65 142q-62 0 -62 -145zM258 460q0 142 -65 142q-62 0 -62 -145q0 -142 65 -142q34 0 48 34t14 111zM114 -4l244 318l243 324l31 -24l-244 -317l-244 -325z" />
    <glyph glyph-name="ampersand" unicode="&#x26;" horiz-adv-x="683" 
d="M678 353v-14l-61 -25l-136 -184q38 -51 68.5 -73t64.5 -22q26 0 42 3l1 -16q-47 -37 -117 -37q-91 0 -163 83q-75 -83 -170 -83q-74 0 -130 48t-56 121q0 58 39 101t96 67l21 10q-61 73 -61 137q0 68 53 113.5t138 45.5q78 0 121 -39.5t43 -88.5q0 -74 -120 -141l-29 -16
l131 -180l71 150l-60 27v13h214zM364 508q0 42 -20 66.5t-52 24.5q-30 0 -48.5 -23.5t-18.5 -58.5q0 -41 47 -107l34 -48q58 62 58 146zM361 86l-170 224l-8 -8q-43 -43 -43 -103q0 -54 38.5 -91.5t104.5 -37.5q46 0 78 16z" />
    <glyph glyph-name="quotesingle" unicode="'" horiz-adv-x="185" 
d="M166 608q0 -15 -7 -29q-21 -39 -57 -85l-47 -62l-15 7l12 78q6 46 23 98q5 16 19 26.5t29 10.5q18 0 30.5 -12.5t12.5 -31.5z" />
    <glyph glyph-name="parenleft" unicode="(" horiz-adv-x="363" 
d="M167 282q0 -156 55 -274t157 -163l-9 -21q-137 46 -230 167t-93 291q0 171 93 292t230 167l9 -22q-102 -45 -157 -162.5t-55 -274.5z" />
    <glyph glyph-name="parenright" unicode=")" horiz-adv-x="364" 
d="M317 282q0 -170 -93 -291t-230 -167l-9 21q102 45 157 163t55 274q0 157 -55 274.5t-157 162.5l9 22q137 -46 230 -167t93 -292z" />
    <glyph glyph-name="asterisk" unicode="*" horiz-adv-x="336" 
d="M313 414l-7 -13q-26 -16 -60 2q-29 17 -62 63l-4 -3q23 -52 23 -85q0 -37 -28 -53h-15q-27 16 -27 53q0 33 23 85l-4 3q-34 -46 -63 -63q-33 -18 -59 -2l-7 13q-1 30 31 50q29 16 85 22v5q-54 6 -85 23q-32 20 -31 50l7 13q28 16 59 -3q29 -16 63 -62l4 3q-23 51 -23 85
q0 38 27 52h15q28 -15 28 -52q0 -34 -23 -85l4 -3q34 46 62 62q33 19 60 3l7 -13q0 -30 -32 -50q-30 -17 -85 -23v-5q57 -6 85 -22q32 -20 32 -50z" />
    <glyph glyph-name="plus" unicode="+" horiz-adv-x="505" 
d="M464 278h-182v-184h-58v184h-183v57h183v181h58v-181h182v-57z" />
    <glyph glyph-name="comma" unicode="," horiz-adv-x="232" 
d="M197 28q0 -110 -141 -171l-11 14q79 68 97 128l-2 2l-13 -4q-13 -4 -25 -4q-25 0 -41 17t-16 43q0 30 20.5 51t50.5 21q37 0 59 -27t22 -70z" />
    <glyph glyph-name="hyphen" unicode="-" horiz-adv-x="325" 
d="M287 200h-249v81h249v-81z" />
    <glyph glyph-name="period" unicode="." horiz-adv-x="208" 
d="M175 55q0 -29 -20.5 -50t-49.5 -21t-50 21t-21 50t21 49.5t50 20.5t49.5 -20.5t20.5 -49.5z" />
    <glyph glyph-name="slash" unicode="/" horiz-adv-x="357" 
d="M422 724l-205 -467l-199 -468l-39 17l205 466l199 469z" />
    <glyph glyph-name="zero" unicode="0" horiz-adv-x="569" 
d="M540 306q0 -140 -69 -230.5t-191 -90.5q-125 0 -188.5 89t-63.5 232q0 141 68.5 231.5t190.5 90.5q126 0 189.5 -89t63.5 -233zM397 306q0 148 -34 218.5t-87 70.5q-49 0 -77 -63.5t-28 -225.5t32.5 -225t88.5 -63q46 0 75.5 70.5t29.5 217.5z" />
    <glyph glyph-name="one" unicode="1" horiz-adv-x="389" 
d="M265 61l105 -45v-16h-337v16l105 45v462l-106 53v12l229 33l4 -3v-557z" />
    <glyph glyph-name="two" unicode="2" horiz-adv-x="506" 
d="M305 406q0 56 -31.5 89t-84.5 33q-72 0 -140 -54l-10 12q74 142 205 142q93 0 143 -54t50 -132q0 -75 -66 -151.5t-215 -171.5l2 -6h226l71 90l13 -3l-33 -200h-422l-5 28q123 99 191 174q106 117 106 204z" />
    <glyph glyph-name="three" unicode="3" horiz-adv-x="494" 
d="M449 176q0 -88 -65 -139.5t-160 -51.5q-91 0 -147 33.5t-56 83.5q0 34 21.5 54.5t51.5 20.5q50 0 67 -38.5t6 -93.5q25 -23 64 -23q41 0 70 30t29 76q0 58 -46.5 106.5t-157.5 64.5v12q98 34 139 68.5t41 74.5q0 32 -26.5 54.5t-76.5 22.5q-60 0 -142 -36l-9 11
q39 57 95.5 89.5t118.5 32.5q77 0 118.5 -36.5t41.5 -88.5q0 -48 -30 -83.5t-98 -60.5v-7q151 -38 151 -176z" />
    <glyph glyph-name="four" unicode="4" horiz-adv-x="535" 
d="M497 161h-95v-100l104 -45v-16h-340v16l106 45v100h-252l-8 18l373 448l17 -6v-371h95v-89zM272 250v195h-2l-160 -195h162z" />
    <glyph glyph-name="five" unicode="5" horiz-adv-x="504" 
d="M458 201q0 -91 -64 -153.5t-165 -62.5q-90 0 -142 33.5t-52 83.5q0 34 21.5 54.5t51.5 20.5q50 0 67 -38.5t5 -93.5q21 -23 59 -23q40 0 70 35.5t30 95.5q0 62 -41 99.5t-120 37.5q-45 0 -96 -15l-17 4l34 333h283l38 49l14 -4l-15 -160h-288l-11 -108l4 -2q56 7 94 7
q125 0 182.5 -52.5t57.5 -140.5z" />
    <glyph glyph-name="six" unicode="6" horiz-adv-x="538" 
d="M498 215q0 -98 -64 -164t-166 -66q-98 0 -164.5 61t-66.5 179q0 165 121 282q95 91 275 132l5 -23q-97 -42 -155 -96q-33 -31 -53 -66t-38 -86l4 -2q52 33 115 33q87 0 137 -54.5t50 -129.5zM370 172q0 175 -121 175q-32 0 -68 -18q-13 -42 -13 -111q0 -83 30 -141.5
t82 -58.5q90 0 90 154z" />
    <glyph glyph-name="seven" unicode="7" horiz-adv-x="486" 
d="M376 494h-276l-50 -59l-11 3l27 203l11 4l21 -33h364l8 -10l-267 -617h-129l147 244z" />
    <glyph glyph-name="eight" unicode="8" horiz-adv-x="508" 
d="M447 490q0 -91 -128 -141q77 -39 113 -83t36 -103q0 -72 -61.5 -125t-159.5 -53q-97 0 -150.5 42.5t-53.5 106.5q0 51 34 92t96 65q-113 66 -113 171q0 73 56 119.5t146 46.5q88 0 136.5 -41t48.5 -97zM175 506q0 -76 119 -143q29 35 40.5 62.5t11.5 63.5q0 45 -24 75.5
t-66 30.5q-36 0 -58.5 -23t-22.5 -66zM343 113q0 44 -36 88t-112 78q-43 -63 -43 -130q0 -56 29 -93.5t80 -37.5q37 0 59.5 27t22.5 68z" />
    <glyph glyph-name="nine" unicode="9" horiz-adv-x="533" 
d="M496 388q0 -167 -121 -282q-99 -95 -284 -132l-5 22q102 39 164 96q56 52 94 162l-4 2q-44 -33 -107 -33q-87 0 -142 50t-55 132q0 93 63.5 158t165.5 65q103 0 167 -64t64 -176zM364 395q0 87 -28.5 143.5t-77.5 56.5q-94 0 -94 -154q0 -166 127 -166q27 0 62 18
q11 32 11 102z" />
    <glyph glyph-name="colon" unicode=":" horiz-adv-x="208" 
d="M175 361q0 -30 -20.5 -50.5t-49.5 -20.5t-50 20.5t-21 50.5q0 29 21 49.5t50 20.5t49.5 -20.5t20.5 -49.5zM175 55q0 -29 -20.5 -50t-49.5 -21t-50 21t-21 50t21 49.5t50 20.5t49.5 -20.5t20.5 -49.5z" />
    <glyph glyph-name="semicolon" unicode=";" horiz-adv-x="232" 
d="M196 361q0 -30 -21 -50.5t-50 -20.5t-50 20.5t-21 50.5q0 29 21 49.5t50 20.5t50 -20.5t21 -49.5zM197 28q0 -110 -141 -171l-11 14q79 68 97 128l-2 2l-13 -4q-13 -4 -25 -4q-25 0 -41 17t-16 43q0 30 20.5 51t50.5 21q37 0 59 -27t22 -70z" />
    <glyph glyph-name="less" unicode="&#x3c;" horiz-adv-x="505" 
d="M425 166l-12 -53l-338 175v37l338 177l12 -54l-280 -142z" />
    <glyph glyph-name="equal" unicode="=" horiz-adv-x="505" 
d="M464 426v-56h-423v56h423zM464 185h-423v57h423v-57z" />
    <glyph glyph-name="greater" unicode="&#x3e;" horiz-adv-x="505" 
d="M80 448l12 53l338 -175v-37l-338 -177l-12 54l280 142z" />
    <glyph glyph-name="question" unicode="?" horiz-adv-x="429" 
d="M397 499q0 -90 -112 -149q-52 -27 -72.5 -46.5t-20.5 -42.5q0 -20 16 -33.5t38 -13.5q21 0 45 3l3 -10q-36 -31 -91 -31q-51 0 -83 28.5t-32 72.5q0 41 28.5 75t89.5 72q45 28 63.5 53t18.5 60q0 34 -24 56.5t-60 22.5q-34 0 -62 -19q18 -36 18 -67q0 -32 -19 -52.5
t-49 -20.5t-51 21t-21 53q0 54 56.5 87.5t134.5 33.5q82 0 134 -43.5t52 -109.5zM263 56q0 -29 -21 -50t-50 -21t-50 21t-21 50t21 49.5t50 20.5t50 -20.5t21 -49.5z" />
    <glyph glyph-name="at" unicode="@" horiz-adv-x="829" 
d="M709 291q0 120 -68.5 201t-203.5 81q-133 0 -222.5 -99.5t-89.5 -251.5q0 -158 94 -242.5t234 -84.5q121 0 227 59l11 -16q-118 -98 -276 -98q-74 0 -141 22t-120.5 64.5t-85 110.5t-31.5 154q0 114 59 211t157.5 152t211.5 55q151 0 239 -86.5t88 -206.5
q0 -71 -28.5 -134.5t-86 -105.5t-131.5 -42q-90 0 -97 68l-5 2q-25 -34 -49 -49t-58 -15q-47 0 -75.5 33t-28.5 88q0 90 75.5 171t163.5 81q37 0 64 -15l50 19l7 -2l-43 -259q-14 -76 42 -76q49 0 83 58.5t34 152.5zM481 324q-26 43 -61 43q-27 0 -47.5 -34t-28.5 -74
t-8 -76q0 -77 55 -77q24 0 58 26z" />
    <glyph glyph-name="A" unicode="A" horiz-adv-x="641" 
d="M573 46l80 -29v-17h-316v17l79 24l-60 174h-178l-58 -168l67 -30v-17h-204v17l68 33l236 593h63zM344 251l-76 218h-2l-75 -218h153z" />
    <glyph glyph-name="B" unicode="B" horiz-adv-x="653" 
d="M612 178q0 -77 -58.5 -127.5t-178.5 -50.5h-347v17l87 24v555l-87 24v17h321q120 0 178.5 -39.5t58.5 -100.5q0 -124 -180 -156v-5q100 -8 153 -53t53 -105zM265 347l53 2q55 2 87 35.5t32 94.5q0 60 -32.5 91.5t-86.5 32.5l-53 1v-257zM448 175q0 64 -37 102t-102 38
h-44v-276q33 -7 69 -7q55 0 84.5 37t29.5 106z" />
    <glyph glyph-name="C" unicode="C" horiz-adv-x="670" 
d="M623 191l-21 -166q-100 -40 -214 -40q-156 0 -249.5 88.5t-93.5 238.5q0 141 100 240.5t252 99.5q94 0 153 -31l34 34h14l14 -242l-25 -2q-37 94 -92.5 148.5t-115.5 54.5q-72 0 -120.5 -70t-48.5 -215q0 -140 55 -220.5t152 -80.5q33 0 72 9l119 158z" />
    <glyph glyph-name="D" unicode="D" horiz-adv-x="738" 
d="M115 596l-87 24v17h308q170 0 263.5 -89t93.5 -229q0 -139 -99 -229t-265 -90h-301v17l87 24v555zM528 319q0 266 -213 280l-50 3v-566l73 4q92 5 141 70.5t49 208.5z" />
    <glyph glyph-name="E" unicode="E" horiz-adv-x="652" 
d="M570 637l14 -215l-19 -5l-78 110q-28 40 -54 55t-77 17l-91 4v-265h34q42 0 64 17.5t39 64.5l12 33h21v-269h-21l-12 31q-18 47 -39.5 64.5t-63.5 17.5h-34v-262l123 6q41 2 68.5 17.5t53.5 48.5l81 104l19 -4l-19 -207h-563v17l87 24v555l-87 24v17h542z" />
    <glyph glyph-name="F" unicode="F" horiz-adv-x="620" 
d="M585 422l-19 -5l-79 110q-28 40 -53.5 55t-76.5 17l-92 4v-281h35q47 0 68 17t38 65l12 34h21v-269h-22l-11 31q-17 48 -38 65t-68 17h-35v-241l93 -24v-17h-329v17l86 24v555l-86 24v17h542z" />
    <glyph glyph-name="G" unicode="G" horiz-adv-x="706" 
d="M618 413l-25 -2q-100 203 -214 203q-73 0 -121 -69.5t-48 -215.5q0 -148 62.5 -218t159.5 -70q24 0 52 5v204l-80 25v16h285v-16l-61 -25v-255l-16 -4l-86 49q-81 -55 -169 -55q-132 0 -222 92t-90 235q0 141 100 240.5t252 99.5q97 0 156 -31l34 34h21z" />
    <glyph glyph-name="H" unicode="H" horiz-adv-x="786" 
d="M521 353v243l-74 24v17h311v-17l-87 -24v-555l87 -24v-17h-311v17l74 24v267h-256v-267l74 -24v-17h-311v17l87 24v555l-87 24v17h311v-17l-74 -24v-243h256z" />
    <glyph glyph-name="I" unicode="I" horiz-adv-x="400" 
d="M275 41l86 -24v-17h-323v17l87 24v555l-87 24v17h323v-17l-86 -24v-555z" />
    <glyph glyph-name="J" unicode="J" horiz-adv-x="534" 
d="M429 226q0 -63 -12.5 -104t-43.5 -74q-26 -28 -81.5 -47t-117.5 -19q-82 0 -123.5 31t-41.5 78q0 35 23.5 60t54.5 25q50 0 73.5 -40.5t17.5 -115.5q57 18 79 53.5t22 107.5v415l-87 24v17h321v-17l-84 -24v-370z" />
    <glyph glyph-name="K" unicode="K" horiz-adv-x="717" 
d="M419 382l225 -330l73 -35v-17h-291v17l46 25l-155 250h-52v-251l74 -24v-17h-311v17l87 24v555l-87 24v17h311v-17l-74 -24v-258h61l179 238l-70 44v17h254v-17l-86 -36z" />
    <glyph glyph-name="L" unicode="L" horiz-adv-x="609" 
d="M578 217l-23 -217h-527v17l87 24v555l-87 24v17h324v-17l-87 -24v-561l89 4q73 4 122 68l85 113z" />
    <glyph glyph-name="M" unicode="M" horiz-adv-x="911" 
d="M795 41l86 -24v-17h-311v17l75 24v527h-7l-215 -568h-28l-228 568h-7v-518l85 -33v-17h-213v17l86 33v544l-86 26v17h271l39 -103l119 -322h5l119 322l38 103h258v-17l-86 -24v-555z" />
    <glyph glyph-name="N" unicode="N" horiz-adv-x="745" 
d="M120 53v534l-79 33v17h207l81 -102l256 -314h7v363l-85 36v17h213v-17l-85 -36v-590h-56l-82 102l-327 394h-7v-437l85 -36v-17h-213v17z" />
    <glyph glyph-name="O" unicode="O" horiz-adv-x="732" 
d="M687 319q0 -142 -87 -238t-237 -96q-155 0 -236.5 94.5t-81.5 239.5q0 141 87 237t237 96q156 0 237 -94.5t81 -238.5zM523 319q0 147 -44 224t-121 77q-73 0 -111 -69.5t-38 -231.5t42.5 -231.5t122.5 -69.5q70 0 109.5 77t39.5 224z" />
    <glyph glyph-name="P" unicode="P" horiz-adv-x="631" 
d="M602 450q0 -79 -64 -135.5t-169 -56.5q-46 0 -104 9v-226l99 -24v-17h-336v17l87 24v555l-87 24v17h333q124 0 182.5 -53t58.5 -134zM447 450q0 67 -31 108t-88 42l-63 2v-300l63 2q57 1 88 40t31 106z" />
    <glyph glyph-name="Q" unicode="Q" horiz-adv-x="732" 
d="M687 319q0 -117 -60.5 -205t-168.5 -117q46 -79 84 -106q48 -34 117 -48l-4 -15h-114q-109 0 -150 33q-27 21 -64 94l-17 33q-129 17 -197 108.5t-68 222.5q0 141 87 237t237 96q156 0 237 -94.5t81 -238.5zM523 319q0 147 -44 224t-121 77q-73 0 -111 -69.5t-38 -231.5
t42.5 -231.5t122.5 -69.5q70 0 109.5 77t39.5 224z" />
    <glyph glyph-name="R" unicode="R" horiz-adv-x="683" 
d="M612 481q0 -61 -47 -107t-142 -61v-5q65 -10 99.5 -40t51.5 -80q32 -95 61 -131q24 -28 58 -40v-17h-121q-56 0 -82.5 23.5t-52.5 88.5l-41 103q-16 41 -43 56.5t-77 15.5h-11v-246l86 -24v-17h-323v17l87 24v555l-87 24v17h377q100 0 153.5 -45.5t53.5 -110.5zM459 460
q0 64 -37 101t-95 39l-62 2v-281l62 2q58 2 95 37.5t37 99.5z" />
    <glyph glyph-name="S" unicode="S" horiz-adv-x="544" 
d="M503 198q0 -92 -66.5 -152.5t-161.5 -60.5q-79 0 -157 38l-37 -35h-20l-13 225l26 2q42 -98 97.5 -145t110.5 -47q51 0 78.5 28.5t27.5 70.5q0 44 -23 69.5t-91 53.5l-32 12l-38 15t-31 14q-53 26 -82.5 70.5t-29.5 98.5q0 82 63 139.5t146 57.5q65 0 128 -34l38 34h20
l17 -201l-25 -3q-83 166 -177 166q-43 0 -67.5 -24t-24.5 -63q0 -38 19 -64t70 -49q15 -7 54.5 -22t59.5 -25q121 -58 121 -169z" />
    <glyph glyph-name="T" unicode="T" horiz-adv-x="681" 
d="M657 414l-22 -5l-91 123q-29 39 -52.5 53t-61.5 17l-13 1v-562l90 -24v-17h-330v17l90 24v562l-17 -1q-38 -2 -61 -16.5t-52 -53.5l-92 -123l-21 5l28 223h577z" />
    <glyph glyph-name="U" unicode="U" horiz-adv-x="714" 
d="M575 587l-72 33v17h188v-17l-73 -33v-377q0 -107 -66.5 -166t-176.5 -59q-130 0 -200 60.5t-70 182.5v368l-86 24v17h323v-17l-87 -24v-388q0 -162 160 -162q76 0 118 45t42 128v368z" />
    <glyph glyph-name="V" unicode="V" horiz-adv-x="671" 
d="M612 587l-249 -593h-37l-243 597l-80 29v17h317v-17l-79 -24l155 -421l147 406l-67 39v17h197v-17z" />
    <glyph glyph-name="W" unicode="W" horiz-adv-x="939" 
d="M585 596l120 -399h2l105 384l-66 39v17h196v-17l-61 -33l-205 -593h-35l-159 444h-2l-175 -444h-35l-189 597l-80 29v17h307v-17l-69 -24l103 -404h2l116 310l-27 89l-61 29v17h286v-17z" />
    <glyph glyph-name="X" unicode="X" horiz-adv-x="704" 
d="M600 593q-187 -238 -187 -239l209 -314l72 -23v-17h-314v17l73 21l-132 213l-131 -207l63 -27v-17h-229v17l81 27l191 243l-200 310l-72 23v17h313v-17l-72 -20l122 -207l129 200l-64 27v17h233v-17z" />
    <glyph glyph-name="Y" unicode="Y" horiz-adv-x="637" 
d="M583 587l-179 -284v-255l90 -31v-17h-329v17l89 31v223l-182 314l-75 35v17h316v-17l-74 -30l139 -249l121 243l-60 36v17h211v-17z" />
    <glyph glyph-name="Z" unicode="Z" horiz-adv-x="630" 
d="M590 223l-16 -223h-544l-4 10l391 585l-138 -3q-39 -1 -68 -18.5t-67 -63.5l-64 -77l-18 5l17 199h514l4 -10l-387 -587l170 3q39 1 65 19.5t55 58.5l75 106z" />
    <glyph glyph-name="bracketleft" unicode="[" horiz-adv-x="323" 
d="M381 703h-167v-841h167v-38h-280v917h280v-38z" />
    <glyph glyph-name="backslash" unicode="\" horiz-adv-x="357" 
d="M29 741l199 -469l205 -466l-39 -17l-199 468l-205 467z" />
    <glyph glyph-name="bracketright" unicode="]" horiz-adv-x="323" 
d="M109 703h-167v38h280v-917h-280v38h167v841z" />
    <glyph glyph-name="asciicircum" unicode="^" horiz-adv-x="319" 
d="M159 581l-128 -74l-15 13l136 183h21l129 -183l-15 -13z" />
    <glyph glyph-name="underscore" unicode="_" horiz-adv-x="440" 
d="M440 45v-45h-440v45h440z" />
    <glyph glyph-name="grave" unicode="`" horiz-adv-x="238" 
d="M202 513l-13 -9q-105 83 -135 123q-18 23 -15 47.5t24 38.5q20 13 44.5 5t37.5 -32q29 -53 57 -173z" />
    <glyph glyph-name="a" unicode="a" horiz-adv-x="483" 
d="M412 332v-253q0 -30 15 -46t53 -20l2 -12q-74 -19 -111 -19q-77 0 -82 63l-5 2q-61 -63 -136 -63q-56 0 -88.5 29t-32.5 76q0 67 69.5 104t187.5 38v92q0 47 -23.5 72t-82.5 25q-25 0 -49 -4q42 -33 42 -78q0 -26 -18 -45t-45 -19q-30 0 -47.5 19.5t-17.5 46.5
q0 58 73.5 93.5t153.5 35.5q68 0 105 -35t37 -102zM284 65v142q-67 -4 -95 -26t-28 -65q0 -32 17.5 -51t45.5 -19q26 0 60 19z" />
    <glyph glyph-name="b" unicode="b" horiz-adv-x="552" 
d="M519 243q0 -116 -77 -187.5t-201 -71.5q-78 0 -179 16v630l-66 47v10l190 54l4 -3v-332l4 -3q68 66 145 66t128.5 -62t51.5 -164zM382 209q0 184 -124 184q-30 0 -68 -9v-320q36 -44 93 -44q45 0 72 45.5t27 143.5z" />
    <glyph glyph-name="c" unicode="c" horiz-adv-x="478" 
d="M457 361q0 -31 -19 -53t-48 -22q-32 0 -52 21t-20 50q0 40 25 75q-10 2 -30 2q-66 0 -107 -46.5t-41 -141.5q0 -86 42 -139.5t104 -53.5q48 0 137 29l6 -12q-92 -86 -194 -86q-98 0 -164 65t-66 168q0 106 71.5 179t183.5 73q77 0 124.5 -31.5t47.5 -76.5z" />
    <glyph glyph-name="d" unicode="d" horiz-adv-x="568" 
d="M495 55l66 -25v-10l-180 -37l-4 2l-8 54l-4 2l-15 -12q-56 -45 -119 -45q-83 0 -140.5 59.5t-57.5 169.5q0 114 73.5 185t176.5 71q45 0 83 -11v172l-65 47v10l189 54l5 -3v-683zM170 245q0 -194 132 -194q31 0 64 21v314q-38 49 -92 49q-43 0 -73.5 -46.5t-30.5 -143.5z
" />
    <glyph glyph-name="e" unicode="e" horiz-adv-x="499" 
d="M471 251h-306q1 -100 31 -149t110 -49q59 0 154 26l6 -13q-47 -36 -101.5 -59t-101.5 -23q-108 0 -170.5 64t-62.5 169q0 106 72.5 179t165.5 73q101 0 153 -60t50 -158zM166 280l179 11q-3 146 -84 146q-40 0 -65.5 -43t-29.5 -114z" />
    <glyph glyph-name="f" unicode="f" horiz-adv-x="337" 
d="M347 396h-125v-358l75 -24v-14h-263v14l60 24v358h-90v17l90 45v35q0 135 90 206q53 42 133 42q58 0 91 -28t33 -63q0 -66 -63 -66q-32 0 -57.5 31.5t-36.5 88.5q-35 -16 -48.5 -51.5t-13.5 -108.5v-89h125v-59z" />
    <glyph glyph-name="g" unicode="g" horiz-adv-x="513" 
d="M441 320q0 -67 -56 -108.5t-144 -41.5q-49 0 -86 12q-11 -20 -11 -50q0 -35 61 -36l126 -2q79 -1 120.5 -33t41.5 -87q0 -66 -78 -123.5t-197 -57.5q-98 0 -156.5 32t-58.5 77q0 61 110 92l-1 6q-60 11 -60 56q0 50 81 130v5q-44 19 -70 53t-26 76q0 66 57.5 107.5
t146.5 41.5q86 0 140 -37q78 62 121 62q31 0 47.5 -17t16.5 -42q0 -23 -16.5 -40t-40.5 -17t-39.5 13.5t-17.5 36.5l-49 -10l-2 -4q40 -38 40 -94zM310 323q0 117 -74 117q-36 0 -54.5 -26t-18.5 -91q0 -69 19 -96t59 -27q32 0 50.5 33.5t18.5 89.5zM394 -83q0 29 -25.5 49
t-79.5 21l-154 1q-24 -19 -24 -61q0 -98 151 -98q62 0 97 24.5t35 63.5z" />
    <glyph glyph-name="h" unicode="h" horiz-adv-x="561" 
d="M370 291q0 97 -73 97q-48 0 -94 -19v-331l50 -24v-14h-238v14l60 24v592l-66 47v10l190 54l4 -3v-347l4 -2q84 80 166 80q63 0 94 -39.5t31 -98.5v-293l60 -24v-14h-238v14l50 24v253z" />
    <glyph glyph-name="i" unicode="i" horiz-adv-x="279" 
d="M66 609q0 33 24 58.5t58 25.5q33 0 53.5 -21.5t20.5 -54.5t-24 -58t-58 -25q-32 0 -53 21.5t-21 53.5zM80 373l-59 47v10l183 42l4 -3v-431l60 -24v-14h-251v14l63 24v335z" />
    <glyph glyph-name="j" unicode="j" horiz-adv-x="277" 
d="M71 609q0 33 24 58.5t58 25.5q32 0 53 -22t21 -54q0 -33 -24 -58t-58 -25q-32 0 -53 21.5t-21 53.5zM213 45q0 -82 -7.5 -118t-30.5 -66q-49 -67 -161 -67q-64 0 -92 22.5t-28 55.5q0 28 18.5 44t47.5 16q34 0 55 -28.5t27 -74.5q26 13 34.5 39.5t8.5 81.5v423l-59 47v10
l183 42l4 -3v-424z" />
    <glyph glyph-name="k" unicode="k" horiz-adv-x="528" 
d="M321 282l172 -247l49 -21v-14h-236v14l38 21l-113 171h-28v-168l44 -24v-14h-232v14l60 24v592l-65 47v10l189 54l4 -3v-489h33l117 158l-55 33v14h216v-14l-60 -24z" />
    <glyph glyph-name="l" unicode="l" horiz-adv-x="277" 
d="M203 38l60 -24v-14h-251v14l63 24v592l-65 47v10l189 54l4 -3v-700z" />
    <glyph glyph-name="m" unicode="m" horiz-adv-x="836" 
d="M645 292q0 48 -15 72.5t-58 24.5q-16 0 -27 -2.5t-30.5 -11l-26.5 -11.5v-326l50 -24v-14h-228v14l50 24v254q0 49 -12.5 73t-55.5 24q-38 0 -84 -19v-332l50 -24v-14h-238v14l60 24v335l-60 47v10l178 42l4 -3l-2 -80l4 -2q87 83 163 83q95 0 115 -83l4 -2q93 87 165 87
q63 0 92.5 -40t29.5 -100v-294l60 -24v-14h-238v14l50 24v254z" />
    <glyph glyph-name="n" unicode="n" horiz-adv-x="561" 
d="M498 331v-293l60 -24v-14h-238v14l50 24v253q0 47 -15.5 72t-55.5 25q-45 0 -91 -19v-331l50 -24v-14h-238v14l60 24v335l-60 47v10l178 42l4 -3l-2 -81l4 -2q87 83 171 83q63 0 93 -39.5t30 -98.5z" />
    <glyph glyph-name="o" unicode="o" horiz-adv-x="540" 
d="M510 227q0 -97 -66 -170t-180 -73t-174 69.5t-60 173.5q0 97 66 169.5t180 72.5t174 -69.5t60 -172.5zM373 227q0 98 -25.5 154t-77.5 56t-77.5 -56t-25.5 -154t25.5 -154t77.5 -56t77.5 56t25.5 154z" />
    <glyph glyph-name="p" unicode="p" horiz-adv-x="560" 
d="M527 240q0 -106 -72.5 -181t-194.5 -75q-30 0 -62 6v-160l70 -24v-13h-258v13l60 24v542l-60 47v10l178 43l4 -3l-1 -67l4 -2q73 69 155 69q74 0 125.5 -64t51.5 -165zM390 209q0 184 -124 184q-30 0 -68 -9v-313q36 -55 94 -55q42 0 70 47t28 146z" />
    <glyph glyph-name="q" unicode="q" horiz-adv-x="552" 
d="M554 -207h-257v13l69 24v207l-4 2l-12 -10q-53 -45 -115 -45q-90 0 -146 62.5t-56 165.5q0 106 72.5 181.5t194.5 75.5q56 0 125 -26l59 48l10 -3v-658l60 -24v-13zM302 51q26 0 64 9v334q-36 42 -92 42q-43 0 -73.5 -47t-30.5 -144q0 -194 132 -194z" />
    <glyph glyph-name="r" unicode="r" horiz-adv-x="428" 
d="M420 396q0 -32 -18.5 -53.5t-49.5 -21.5q-29 0 -49 18t-27 50q-40 -3 -68 -37v-314l69 -24v-14h-257v14l60 24v335l-59 47v10l178 42l4 -3l-4 -92l4 -2q32 48 70 71.5t73 23.5q33 0 53.5 -20t20.5 -54z" />
    <glyph glyph-name="s" unicode="s" horiz-adv-x="415" 
d="M385 136q0 -67 -55.5 -109.5t-130.5 -42.5q-88 0 -157 27l-3 137l20 2q56 -76 90 -104t72 -28q30 0 47 19t17 49q0 14 -7 27t-14.5 20.5t-26 17.5t-28 14l-34.5 14q-32 13 -50 22.5t-41 27t-33.5 41.5t-10.5 55q0 60 53 102t133 42q75 0 125 -18l3 -124l-20 -4
q-49 66 -74.5 89t-59.5 23q-28 0 -44.5 -18.5t-16.5 -42.5t18.5 -43t35.5 -27t57 -24q31 -12 49.5 -21.5t41 -26.5t33.5 -41t11 -55z" />
    <glyph glyph-name="t" unicode="t" horiz-adv-x="363" 
d="M364 29q-27 -17 -78.5 -31t-95.5 -14q-109 0 -109 116v293h-77v15l104 93l88 100h13v-147h152v-61h-152v-246q0 -64 28 -84q26 -18 72 -18q8 0 26.5 0.5t26.5 0.5z" />
    <glyph glyph-name="u" unicode="u" horiz-adv-x="558" 
d="M488 66l60 -29v-10l-178 -44l-4 2l2 80l-4 3q-88 -84 -170 -84q-64 0 -94 40t-30 99v258l-57 39v10l181 42l4 -3v-306q0 -47 15.5 -72t56.5 -25q43 0 90 18v297l-57 39v10l181 42l4 -3v-403z" />
    <glyph glyph-name="v" unicode="v" horiz-adv-x="503" 
d="M193 414l101 -267h4l46 122l47 138l-53 33v14h174v-14l-63 -35l-181 -416h-34l-181 425l-60 26v14h260v-14z" />
    <glyph glyph-name="w" unicode="w" horiz-adv-x="738" 
d="M474 414l65 -265h5l86 258l-52 33v14h181v-14l-65 -35l-181 -416h-28l-99 280l-140 -280h-28l-159 425l-60 26v14h244v-14l-44 -26l81 -270h5l82 176l-8 24q-8 23 -17 46l-8 24l-48 26v14h244v-14z" />
    <glyph glyph-name="x" unicode="x" horiz-adv-x="518" 
d="M287 288l81 129l-46 23v14h182v-14l-64 -27l-131 -160l152 -218l55 -21v-14h-260v14l55 21l-81 132l-89 -131l48 -22v-14h-179v14l60 27l136 162l-147 217l-55 20v14h257v-14l-52 -20z" />
    <glyph glyph-name="y" unicode="y" horiz-adv-x="494" 
d="M451 405l-154 -379q-51 -125 -93.5 -179t-92.5 -54q-42 0 -65 20.5t-23 50.5q0 25 20.5 45t46.5 20q46 0 86 -48q39 49 58 91l5 11l-179 431l-60 26v14h259v-14l-59 -26l99 -275h5l89 268l-53 33v14h173v-14z" />
    <glyph glyph-name="z" unicode="z" horiz-adv-x="471" 
d="M457 441l-290 -403h147l114 133l18 -6l-12 -165h-412l-9 14l290 402h-139l-106 -133l-18 6l9 165h399z" />
    <glyph glyph-name="braceleft" unicode="{" horiz-adv-x="338" 
d="M249 470q0 -158 -138 -184v-2q138 -24 138 -183v-105q0 -68 24.5 -99.5t88.5 -46.5v-26q-124 13 -177.5 50t-53.5 129v131q0 74 -24 103t-96 37v23q72 8 96 37t24 103v125q0 92 53.5 129t177.5 50v-26q-65 -15 -89 -46.5t-24 -100.5v-98z" />
    <glyph glyph-name="bar" unicode="|" horiz-adv-x="270" 
d="M159 -241h-48l3 471l-3 471h48l-3 -471z" />
    <glyph glyph-name="braceright" unicode="}" horiz-adv-x="338" 
d="M207 437q0 -74 24 -103t96 -37v-23q-72 -8 -96 -37t-24 -103v-131q0 -92 -53.5 -129t-177.5 -50v26q64 15 88.5 46.5t24.5 99.5v105q0 159 138 183v2q-138 26 -138 184v98q0 69 -24 100.5t-89 46.5v26q124 -13 177.5 -50t53.5 -129v-125z" />
    <glyph glyph-name="asciitilde" unicode="~" horiz-adv-x="361" 
d="M127 377q27 0 70 -17.5t61 -17.5q31 0 47 41l19 -5q-7 -112 -86 -112q-27 0 -72 18t-63 18q-30 0 -46 -42l-20 6q18 111 90 111z" />
    <glyph glyph-name="uni00A0" unicode="&#xa0;" horiz-adv-x="210" 
 />
    <glyph glyph-name="exclamdown" unicode="&#xa1;" horiz-adv-x="266" 
d="M201 360q0 -29 -21 -49.5t-50 -20.5t-50 20.5t-21 49.5t21 50t50 21t50 -21t21 -50zM113 225h34q7 -55 22.5 -139t25.5 -144.5t10 -89.5q0 -88 -75 -88t-75 88q0 29 10 89.5t25.5 144.5t22.5 139z" />
    <glyph glyph-name="cent" unicode="&#xa2;" horiz-adv-x="506" 
d="M283 60q20 -6 38 -6q12 0 25 1.5t22.5 3.5t24.5 6.5t22.5 7.5t24.5 9t24 8l6 -13q-94 -86 -190 -91l-4 -82l-35 3l5 79q-91 6 -151 70t-60 162q0 101 66.5 173.5t171.5 78.5l4 66l34 -3l-4 -64q71 -4 118.5 -34.5t47.5 -72.5q0 -31 -19 -53t-48 -22q-53 0 -67 49t21 97
q-21 4 -55 1l-14 -216zM169 247q0 -59 22.5 -104.5t60.5 -68.5l9 146l10 207q-102 -35 -102 -180z" />
    <glyph glyph-name="sterling" unicode="&#xa3;" horiz-adv-x="562" 
d="M441 336v-47h-135q0 -3 0.5 -9.5t0.5 -9.5q0 -100 -116 -155l2 -7q18 5 110.5 0t102.5 -5q40 0 60 23t31 73l22 -2q-3 -104 -38.5 -158t-99.5 -54q-90 0 -203 87q-14 -37 -41.5 -62t-59.5 -25q-30 0 -45 15t-15 39q0 31 36 57t96 25q26 40 26 107q0 31 -12 61h-131v47
h112q-21 42 -21 83q0 86 71.5 147.5t161.5 61.5q78 0 114.5 -28t36.5 -63q0 -27 -16.5 -47t-48.5 -20q-40 0 -66.5 33.5t-34.5 88.5q-38 -13 -60 -48.5t-22 -88.5q0 -52 36 -119h146z" />
    <glyph glyph-name="yen" unicode="&#xa5;" horiz-adv-x="641" 
d="M77 318h150l-143 242l-75 35v17h308v-17l-87 -30l120 -234l131 228l-73 36v17h223v-17l-79 -39l-160 -238h169v-45h-175v-67h175v-45h-175v-113l103 -31v-17h-339v17l102 31v113h-175v45h175v67h-175v45z" />
    <glyph glyph-name="brokenbar" unicode="&#xa6;" horiz-adv-x="270" 
d="M159 279h-48l3 211l-3 211h48l-3 -211zM159 -241h-48l3 211l-3 211h48l-3 -211z" />
    <glyph glyph-name="section" unicode="&#xa7;" horiz-adv-x="522" 
d="M474 172q0 -114 -73 -192t-177 -78q-77 0 -127.5 37t-50.5 81q0 31 17.5 50.5t44.5 19.5q29 0 48.5 -18.5t19.5 -44.5t-15 -56q29 -32 84 -32q43 0 78.5 28.5t51.5 74.5q-327 168 -327 359q0 114 73 192t177 78q77 0 127 -37t50 -82q0 -30 -17.5 -49.5t-44.5 -19.5
q-28 0 -48 18.5t-20 44.5q0 27 16 56q-29 32 -84 32q-43 0 -78.5 -28.5t-51.5 -75.5q327 -168 327 -358zM137 469q0 -97 57 -186t189 -206q2 18 2 27q0 96 -57 185.5t-189 205.5q-2 -8 -2 -26z" />
    <glyph glyph-name="dieresis" unicode="&#xa8;" horiz-adv-x="361" 
d="M268 528q-30 0 -49.5 20.5t-19.5 50.5q0 31 22.5 54.5t54.5 23.5q30 0 49.5 -20t19.5 -51t-22.5 -54.5t-54.5 -23.5zM77 528q-30 0 -49.5 20.5t-19.5 50.5q0 31 22 54.5t54 23.5q31 0 50 -20t19 -51t-22 -54.5t-54 -23.5z" />
    <glyph glyph-name="copyright" unicode="&#xa9;" horiz-adv-x="734" 
d="M701 319q0 -139 -98 -236.5t-236 -97.5t-236 97.5t-98 236.5q0 138 98 235.5t236 97.5t236 -97.5t98 -235.5zM660 319q0 122 -86 209.5t-207 87.5t-207 -87.5t-86 -209.5q0 -123 86 -210.5t207 -87.5t207 87.5t86 210.5zM290 324q0 -73 25 -113.5t74 -40.5q20 0 34 4
l64 87l13 -2l-12 -98q-50 -19 -114 -19q-84 0 -133.5 46.5t-49.5 126.5q0 75 53.5 127.5t135.5 52.5q47 0 79 -16l13 18h14l9 -135l-19 -1q-16 48 -44 78.5t-56 30.5q-86 0 -86 -146z" />
    <glyph glyph-name="ordfeminine" unicode="&#xaa;" horiz-adv-x="381" 
d="M48 557q0 44 55 69.5t115 25.5q49 0 77.5 -25t28.5 -71v-171q0 -24 9 -36t40 -15l1 -11q-47 -13 -84 -13q-54 0 -64 41l-4 1q-46 -41 -95 -41q-41 0 -66 21t-25 54q0 48 51 75.5t135 25.5v63q0 32 -16 48.5t-61 16.5h-29q31 -25 31 -59q0 -20 -13 -34t-35 -14
q-23 0 -37 14.5t-14 34.5zM143 404q0 -23 12.5 -36t31.5 -13q18 0 35 12v102q-43 -4 -61 -19.5t-18 -45.5z" />
    <glyph glyph-name="guillemotleft" unicode="&#xab;" horiz-adv-x="483" 
d="M314 224l113 -174l-23 -20l-197 189v10l197 189l23 -21zM137 224l113 -174l-23 -20l-197 189v10l197 189l23 -21z" />
    <glyph glyph-name="registered" unicode="&#xae;" horiz-adv-x="376" 
d="M259 544q0 -30 -41 -38v-6q29 -4 35 -28q4 -17 10 -24t20 -9v-11h-38q-25 0 -36 30l-7 21q-5 15 -24 15h-3v-48l22 -7v-11h-92v11l26 7v117l-26 8v11h98q27 0 41.5 -10.5t14.5 -27.5zM215 537q0 29 -27 31l-13 1v-62h13q12 0 19.5 8.5t7.5 21.5zM188 350
q-65 0 -108.5 43.5t-43.5 108.5t43.5 108.5t108.5 43.5t108.5 -43.5t43.5 -108.5t-43.5 -108.5t-108.5 -43.5zM188 366q57 0 95 39t38 97t-38 97t-95 39t-95 -39t-38 -97t38 -97t95 -39z" />
    <glyph glyph-name="macron" unicode="&#xaf;" horiz-adv-x="320" 
d="M298 606v-67h-276v67h276z" />
    <glyph glyph-name="degree" unicode="&#xb0;" horiz-adv-x="384" 
d="M346 503q0 -60 -41 -105.5t-116 -45.5q-74 0 -112.5 43.5t-38.5 106.5q0 60 41.5 105t116.5 45t112.5 -43t37.5 -106zM258 503q0 57 -17.5 90t-49.5 33q-31 0 -48 -34t-17 -91q0 -56 18 -89.5t49 -33.5q65 0 65 125z" />
    <glyph glyph-name="plusminus" unicode="&#xb1;" horiz-adv-x="505" 
d="M464 304h-182v-184h-58v184h-183v57h183v181h58v-181h182v-57zM464 0h-423v55h423v-55z" />
    <glyph glyph-name="acute" unicode="&#xb4;" horiz-adv-x="238" 
d="M184 713q21 -13 23.5 -38t-15.5 -48q-30 -40 -135 -123l-13 9q26 118 58 173q14 24 37.5 32t44.5 -5z" />
    <glyph glyph-name="paragraph" unicode="&#xb6;" horiz-adv-x="731" 
d="M607 -48l111 -18v-17h-250q-203 0 -311.5 103t-108.5 277q0 172 113.5 276t312.5 104h244v-16l-111 -19v-690zM459 644v-694l102 2v690z" />
    <glyph glyph-name="periodcentered" unicode="&#xb7;" horiz-adv-x="231" 
d="M186 318q0 -30 -20.5 -50.5t-49.5 -20.5t-50 20.5t-21 50.5q0 29 21 49.5t50 20.5t49.5 -20.5t20.5 -49.5z" />
    <glyph glyph-name="cedilla" unicode="&#xb8;" horiz-adv-x="282" 
d="M182 -162q0 -43 -34 -73t-86 -30q-37 0 -62 18t-25 42q0 17 10.5 28.5t26.5 11.5q17 0 26.5 -11t9.5 -28t-14 -33q10 -3 24 -3q21 0 35 16t14 42q0 27 -16 43t-39 16q-20 0 -32 -4l-12 12l154 136l36 -5l-96 -84q80 -19 80 -94z" />
    <glyph glyph-name="ordmasculine" unicode="&#xba;" horiz-adv-x="386" 
d="M367 481q0 -70 -47 -120t-132 -50t-127 48t-42 123q0 70 46.5 120t131.5 50t127.5 -48t42.5 -123zM259 481q0 71 -14.5 108.5t-51.5 37.5q-67 0 -67 -144q0 -72 14.5 -109t51.5 -37q67 0 67 144z" />
    <glyph glyph-name="guillemotright" unicode="&#xbb;" horiz-adv-x="483" 
d="M453 219l-197 -189l-23 20l113 174l-113 173l23 21l197 -189v-10zM276 219l-197 -189l-23 20l113 174l-113 173l23 21l197 -189v-10z" />
    <glyph glyph-name="questiondown" unicode="&#xbf;" horiz-adv-x="392" 
d="M291 360q0 -29 -21 -49.5t-50 -20.5t-50 20.5t-21 49.5t21 50t50 21t50 -21t21 -50zM392 -115q0 -54 -56.5 -87.5t-134.5 -33.5q-82 0 -134 43.5t-52 109.5q0 90 112 149q52 27 72.5 46.5t20.5 42.5q0 20 -16 33.5t-38 13.5q-21 0 -45 -3l-3 10q36 31 91 31
q51 0 83 -28.5t32 -72.5q0 -41 -28.5 -75t-89.5 -72q-45 -28 -63.5 -53t-18.5 -60q0 -34 24 -56.5t60 -22.5q34 0 62 19q-18 36 -18 67q0 32 19 52.5t49 20.5t51 -21t21 -53z" />
    <glyph glyph-name="Agrave" unicode="&#xc0;" horiz-adv-x="641" 
d="M573 46l80 -29v-17h-316v17l79 24l-60 174h-178l-58 -168l67 -30v-17h-204v17l68 33l236 593h63zM344 251l-76 218h-2l-75 -218h153zM371 706l-13 -9q-105 83 -135 123q-18 23 -15 47.5t24 38.5q20 13 44.5 5t37.5 -32q29 -53 57 -173z" />
    <glyph glyph-name="Aacute" unicode="&#xc1;" horiz-adv-x="641" 
d="M573 46l80 -29v-17h-316v17l79 24l-60 174h-178l-58 -168l67 -30v-17h-204v17l68 33l236 593h63zM344 251l-76 218h-2l-75 -218h153zM424 906q21 -13 23.5 -38t-15.5 -48q-30 -40 -135 -123l-13 9q26 118 58 173q14 24 37.5 32t44.5 -5z" />
    <glyph glyph-name="Acircumflex" unicode="&#xc2;" horiz-adv-x="641" 
d="M573 46l80 -29v-17h-316v17l79 24l-60 174h-178l-58 -168l67 -30v-17h-204v17l68 33l236 593h63zM344 251l-76 218h-2l-75 -218h153zM319 764l-128 -74l-15 13l136 183h21l129 -183l-15 -13z" />
    <glyph glyph-name="Atilde" unicode="&#xc3;" horiz-adv-x="641" 
d="M573 46l80 -29v-17h-316v17l79 24l-60 174h-178l-58 -168l67 -30v-17h-204v17l68 33l236 593h63zM344 251l-76 218h-2l-75 -218h153zM170 717q10 67 32.5 97.5t67.5 30.5q30 0 75.5 -20t66.5 -20q34 0 53 47l22 -6q-5 -69 -26 -100t-67 -31q-31 0 -79.5 21.5t-69.5 21.5
q-34 0 -53 -47z" />
    <glyph glyph-name="Adieresis" unicode="&#xc4;" horiz-adv-x="641" 
d="M573 46l80 -29v-17h-316v17l79 24l-60 174h-178l-58 -168l67 -30v-17h-204v17l68 33l236 593h63zM344 251l-76 218h-2l-75 -218h153zM412 713q-30 0 -49.5 20.5t-19.5 50.5q0 31 22.5 54.5t54.5 23.5q30 0 49.5 -20t19.5 -51t-22.5 -54.5t-54.5 -23.5zM221 713
q-30 0 -49.5 20.5t-19.5 50.5q0 31 22 54.5t54 23.5q31 0 50 -20t19 -51t-22 -54.5t-54 -23.5z" />
    <glyph glyph-name="Aring" unicode="&#xc5;" horiz-adv-x="641" 
d="M573 46l80 -29v-17h-316v17l79 24l-60 174h-178l-58 -168l67 -30v-17h-204v17l68 33l232 584q-31 9 -48 34.5t-17 57.5q0 38 28.5 67t76.5 29q47 0 73 -27t26 -68q0 -31 -18.5 -57t-50.5 -36zM266 469l-75 -218h153l-76 218h-2zM284 725q0 -69 37 -69q20 0 27.5 17.5
t7.5 53.5q0 69 -37 69q-35 0 -35 -71z" />
    <glyph glyph-name="AE" unicode="&#xc6;" horiz-adv-x="949" 
d="M225 240l-122 -193l67 -30v-17h-203v17l68 33l377 546l-87 24v17h542l14 -215l-19 -5l-79 110q-28 40 -53.5 55t-76.5 17l-91 4v-265h34q42 0 64 17.5t39 64.5l12 33h21v-269h-22l-11 31q-17 47 -38.5 64.5t-64.5 17.5h-34v-262l123 6q41 2 68.5 17.5t53.5 48.5l81 104
l19 -4l-19 -207h-563v17l87 24v199h-187zM412 276v256h-2l-162 -256h164z" />
    <glyph glyph-name="Ccedilla" unicode="&#xc7;" horiz-adv-x="670" 
d="M210 329q0 -140 55 -220.5t152 -80.5q37 0 72 9l119 158l15 -4l-21 -166q-82 -32 -167 -39l-64 -54q80 -19 80 -94q0 -43 -34 -73t-86 -30q-37 0 -62 18t-25 42q0 17 10.5 28.5t26.5 11.5q17 0 26.5 -11t9.5 -28t-14 -33q11 -3 24 -3q21 0 35 16t14 42q0 27 -16 43
t-39 16q-20 0 -32 -4l-12 12l115 100q-159 0 -253 88t-94 239q0 141 100 240.5t252 99.5q94 0 153 -31l34 34h14l14 -242l-25 -2q-37 94 -92.5 148.5t-115.5 54.5q-72 0 -120.5 -70t-48.5 -215z" />
    <glyph glyph-name="Egrave" unicode="&#xc8;" horiz-adv-x="652" 
d="M570 637l14 -215l-19 -5l-78 110q-28 40 -54 55t-77 17l-91 4v-265h34q42 0 64 17.5t39 64.5l12 33h21v-269h-21l-12 31q-18 47 -39.5 64.5t-63.5 17.5h-34v-262l123 6q41 2 68.5 17.5t53.5 48.5l81 104l19 -4l-19 -207h-563v17l87 24v555l-87 24v17h542zM369 699l-13 -9
q-105 83 -135 123q-18 23 -15 47.5t24 38.5q20 13 44.5 5t37.5 -32q29 -53 57 -173z" />
    <glyph glyph-name="Eacute" unicode="&#xc9;" horiz-adv-x="652" 
d="M570 637l14 -215l-19 -5l-78 110q-28 40 -54 55t-77 17l-91 4v-265h34q42 0 64 17.5t39 64.5l12 33h21v-269h-21l-12 31q-18 47 -39.5 64.5t-63.5 17.5h-34v-262l123 6q41 2 68.5 17.5t53.5 48.5l81 104l19 -4l-19 -207h-563v17l87 24v555l-87 24v17h542zM422 899
q21 -13 23.5 -38t-15.5 -48q-30 -40 -135 -123l-13 9q26 118 58 173q14 24 37.5 32t44.5 -5z" />
    <glyph glyph-name="Ecircumflex" unicode="&#xca;" horiz-adv-x="652" 
d="M570 637l14 -215l-19 -5l-78 110q-28 40 -54 55t-77 17l-91 4v-265h34q42 0 64 17.5t39 64.5l12 33h21v-269h-21l-12 31q-18 47 -39.5 64.5t-63.5 17.5h-34v-262l123 6q41 2 68.5 17.5t53.5 48.5l81 104l19 -4l-19 -207h-563v17l87 24v555l-87 24v17h542zM317 767
l-128 -74l-15 13l136 183h21l129 -183l-15 -13z" />
    <glyph glyph-name="Edieresis" unicode="&#xcb;" horiz-adv-x="652" 
d="M570 637l14 -215l-19 -5l-78 110q-28 40 -54 55t-77 17l-91 4v-265h34q42 0 64 17.5t39 64.5l12 33h21v-269h-21l-12 31q-18 47 -39.5 64.5t-63.5 17.5h-34v-262l123 6q41 2 68.5 17.5t53.5 48.5l81 104l19 -4l-19 -207h-563v17l87 24v555l-87 24v17h542zM410 714
q-30 0 -49.5 20.5t-19.5 50.5q0 31 22.5 54.5t54.5 23.5q30 0 49.5 -20t19.5 -51t-22.5 -54.5t-54.5 -23.5zM219 714q-30 0 -49.5 20.5t-19.5 50.5q0 31 22 54.5t54 23.5q31 0 50 -20t19 -51t-22 -54.5t-54 -23.5z" />
    <glyph glyph-name="Igrave" unicode="&#xcc;" horiz-adv-x="400" 
d="M275 41l86 -24v-17h-323v17l87 24v555l-87 24v17h323v-17l-86 -24v-555zM250 699l-13 -9q-105 83 -135 123q-18 23 -15 47.5t24 38.5q20 13 44.5 5t37.5 -32q29 -53 57 -173z" />
    <glyph glyph-name="Iacute" unicode="&#xcd;" horiz-adv-x="400" 
d="M275 41l86 -24v-17h-323v17l87 24v555l-87 24v17h323v-17l-86 -24v-555zM303 899q21 -13 23.5 -38t-15.5 -48q-30 -40 -135 -123l-13 9q26 118 58 173q14 24 37.5 32t44.5 -5z" />
    <glyph glyph-name="Icircumflex" unicode="&#xce;" horiz-adv-x="400" 
d="M275 41l86 -24v-17h-323v17l87 24v555l-87 24v17h323v-17l-86 -24v-555zM198 767l-128 -74l-15 13l136 183h21l129 -183l-15 -13z" />
    <glyph glyph-name="Idieresis" unicode="&#xcf;" horiz-adv-x="400" 
d="M275 41l86 -24v-17h-323v17l87 24v555l-87 24v17h323v-17l-86 -24v-555zM291 714q-30 0 -49.5 20.5t-19.5 50.5q0 31 22.5 54.5t54.5 23.5q30 0 49.5 -20t19.5 -51t-22.5 -54.5t-54.5 -23.5zM100 714q-30 0 -49.5 20.5t-19.5 50.5q0 31 22 54.5t54 23.5q31 0 50 -20
t19 -51t-22 -54.5t-54 -23.5z" />
    <glyph glyph-name="Eth" unicode="&#xd0;" horiz-adv-x="738" 
d="M693 319q0 -139 -99 -229t-265 -90h-301v17l87 24v264h-85v45h85v246l-87 24v17h308q170 0 263.5 -89t93.5 -229zM528 319q0 266 -213 280l-50 3v-252h116v-45h-116v-269l73 4q92 5 141 70.5t49 208.5z" />
    <glyph glyph-name="Ntilde" unicode="&#xd1;" horiz-adv-x="745" 
d="M120 53v534l-79 33v17h207l81 -102l256 -314h7v363l-85 36v17h213v-17l-85 -36v-590h-56l-82 102l-327 394h-7v-437l85 -36v-17h-213v17zM222 710q10 67 32.5 97.5t67.5 30.5q30 0 75.5 -20t66.5 -20q34 0 53 47l22 -6q-5 -69 -26 -100t-67 -31q-31 0 -79.5 21.5
t-69.5 21.5q-34 0 -53 -47z" />
    <glyph glyph-name="Ograve" unicode="&#xd2;" horiz-adv-x="732" 
d="M687 319q0 -142 -87 -238t-237 -96q-155 0 -236.5 94.5t-81.5 239.5q0 141 87 237t237 96q156 0 237 -94.5t81 -238.5zM523 319q0 147 -44 224t-121 77q-73 0 -111 -69.5t-38 -231.5t42.5 -231.5t122.5 -69.5q70 0 109.5 77t39.5 224zM419 706l-13 -9q-105 83 -135 123
q-18 23 -15 47.5t24 38.5q20 13 44.5 5t37.5 -32q29 -53 57 -173z" />
    <glyph glyph-name="Oacute" unicode="&#xd3;" horiz-adv-x="732" 
d="M687 319q0 -142 -87 -238t-237 -96q-155 0 -236.5 94.5t-81.5 239.5q0 141 87 237t237 96q156 0 237 -94.5t81 -238.5zM523 319q0 147 -44 224t-121 77q-73 0 -111 -69.5t-38 -231.5t42.5 -231.5t122.5 -69.5q70 0 109.5 77t39.5 224zM472 906q21 -13 23.5 -38t-15.5 -48
q-30 -40 -135 -123l-13 9q26 118 58 173q14 24 37.5 32t44.5 -5z" />
    <glyph glyph-name="Ocircumflex" unicode="&#xd4;" horiz-adv-x="732" 
d="M687 319q0 -142 -87 -238t-237 -96q-155 0 -236.5 94.5t-81.5 239.5q0 141 87 237t237 96q156 0 237 -94.5t81 -238.5zM523 319q0 147 -44 224t-121 77q-73 0 -111 -69.5t-38 -231.5t42.5 -231.5t122.5 -69.5q70 0 109.5 77t39.5 224zM367 774l-128 -74l-15 13l136 183
h21l129 -183l-15 -13z" />
    <glyph glyph-name="Otilde" unicode="&#xd5;" horiz-adv-x="732" 
d="M687 319q0 -142 -87 -238t-237 -96q-155 0 -236.5 94.5t-81.5 239.5q0 141 87 237t237 96q156 0 237 -94.5t81 -238.5zM523 319q0 147 -44 224t-121 77q-73 0 -111 -69.5t-38 -231.5t42.5 -231.5t122.5 -69.5q70 0 109.5 77t39.5 224zM218 717q10 67 32.5 97.5t67.5 30.5
q30 0 75.5 -20t66.5 -20q34 0 53 47l22 -6q-5 -69 -26 -100t-67 -31q-31 0 -79.5 21.5t-69.5 21.5q-34 0 -53 -47z" />
    <glyph glyph-name="Odieresis" unicode="&#xd6;" horiz-adv-x="732" 
d="M687 319q0 -142 -87 -238t-237 -96q-155 0 -236.5 94.5t-81.5 239.5q0 141 87 237t237 96q156 0 237 -94.5t81 -238.5zM523 319q0 147 -44 224t-121 77q-73 0 -111 -69.5t-38 -231.5t42.5 -231.5t122.5 -69.5q70 0 109.5 77t39.5 224zM460 721q-30 0 -49.5 20.5
t-19.5 50.5q0 31 22.5 54.5t54.5 23.5q30 0 49.5 -20t19.5 -51t-22.5 -54.5t-54.5 -23.5zM269 721q-30 0 -49.5 20.5t-19.5 50.5q0 31 22 54.5t54 23.5q31 0 50 -20t19 -51t-22 -54.5t-54 -23.5z" />
    <glyph glyph-name="multiply" unicode="&#xd7;" horiz-adv-x="505" 
d="M290 306l138 -141l-41 -39l-135 140l-135 -140l-41 39l138 141l-138 141l41 39l135 -140l135 140l41 -39z" />
    <glyph glyph-name="Oslash" unicode="&#xd8;" horiz-adv-x="732" 
d="M687 319q0 -142 -87 -238t-237 -96q-124 0 -206 66l-69 -79l-28 27l69 78q-84 91 -84 242q0 141 87 237t237 96q126 0 206 -66l69 79l28 -28l-68 -78q83 -90 83 -240zM220 181l278 318q-42 121 -140 121q-73 0 -111 -69.5t-38 -231.5q0 -78 11 -138zM511 453l-280 -318
q37 -117 143 -117q70 0 109.5 77t39.5 224q0 77 -12 134z" />
    <glyph glyph-name="Ugrave" unicode="&#xd9;" horiz-adv-x="714" 
d="M575 587l-72 33v17h188v-17l-73 -33v-377q0 -107 -66.5 -166t-176.5 -59q-130 0 -200 60.5t-70 182.5v368l-86 24v17h323v-17l-87 -24v-388q0 -162 160 -162q76 0 118 45t42 128v368zM426 699l-13 -9q-105 83 -135 123q-18 23 -15 47.5t24 38.5q20 13 44.5 5t37.5 -32
q29 -53 57 -173z" />
    <glyph glyph-name="Uacute" unicode="&#xda;" horiz-adv-x="714" 
d="M575 587l-72 33v17h188v-17l-73 -33v-377q0 -107 -66.5 -166t-176.5 -59q-130 0 -200 60.5t-70 182.5v368l-86 24v17h323v-17l-87 -24v-388q0 -162 160 -162q76 0 118 45t42 128v368zM479 899q21 -13 23.5 -38t-15.5 -48q-30 -40 -135 -123l-13 9q26 118 58 173
q14 24 37.5 32t44.5 -5z" />
    <glyph glyph-name="Ucircumflex" unicode="&#xdb;" horiz-adv-x="714" 
d="M575 587l-72 33v17h188v-17l-73 -33v-377q0 -107 -66.5 -166t-176.5 -59q-130 0 -200 60.5t-70 182.5v368l-86 24v17h323v-17l-87 -24v-388q0 -162 160 -162q76 0 118 45t42 128v368zM374 767l-128 -74l-15 13l136 183h21l129 -183l-15 -13z" />
    <glyph glyph-name="Udieresis" unicode="&#xdc;" horiz-adv-x="714" 
d="M575 587l-72 33v17h188v-17l-73 -33v-377q0 -107 -66.5 -166t-176.5 -59q-130 0 -200 60.5t-70 182.5v368l-86 24v17h323v-17l-87 -24v-388q0 -162 160 -162q76 0 118 45t42 128v368zM467 714q-30 0 -49.5 20.5t-19.5 50.5q0 31 22.5 54.5t54.5 23.5q30 0 49.5 -20
t19.5 -51t-22.5 -54.5t-54.5 -23.5zM276 714q-30 0 -49.5 20.5t-19.5 50.5q0 31 22 54.5t54 23.5q31 0 50 -20t19 -51t-22 -54.5t-54 -23.5z" />
    <glyph glyph-name="Yacute" unicode="&#xdd;" horiz-adv-x="637" 
d="M583 587l-179 -284v-255l90 -31v-17h-329v17l89 31v223l-182 314l-75 35v17h316v-17l-74 -30l139 -249l121 243l-60 36v17h211v-17zM445 899q21 -13 23.5 -38t-15.5 -48q-30 -40 -135 -123l-13 9q26 118 58 173q14 24 37.5 32t44.5 -5z" />
    <glyph glyph-name="Thorn" unicode="&#xde;" horiz-adv-x="631" 
d="M602 324q0 -79 -63.5 -135.5t-168.5 -56.5q-47 0 -105 9v-100l99 -24v-17h-335v17l86 24v555l-86 24v17h335v-17l-99 -24v-94q58 9 101 9q123 0 179.5 -52.5t56.5 -134.5zM447 325q0 67 -30.5 104.5t-88.5 38.5l-63 2v-294l63 2q58 1 88.5 40t30.5 107z" />
    <glyph glyph-name="germandbls" unicode="&#xdf;" horiz-adv-x="599" 
d="M589 158q0 -73 -47.5 -123t-122.5 -50q-68 0 -102.5 27.5t-34.5 70.5q0 28 17.5 47.5t43.5 19.5q50 0 61.5 -43.5t-19.5 -85.5q18 -2 32 -2q27 0 46 19.5t19 52.5q0 47 -44 98.5t-151 122.5v7q73 73 97.5 122t24.5 109t-31.5 99.5t-80.5 39.5q-75 0 -75 -116v-542l41 -17
v-14h-229v14l60 24v358h-90v17l90 45v20q0 71 26.5 117.5t79.5 88.5q73 57 163 57q77 0 127 -43t50 -102q0 -47 -31 -93t-106 -106v-7q94 -60 140 -120t46 -112z" />
    <glyph glyph-name="agrave" unicode="&#xe0;" horiz-adv-x="483" 
d="M412 332v-253q0 -30 15 -46t53 -20l2 -12q-74 -19 -111 -19q-77 0 -82 63l-5 2q-61 -63 -136 -63q-56 0 -88.5 29t-32.5 76q0 67 69.5 104t187.5 38v92q0 47 -23.5 72t-82.5 25q-25 0 -49 -4q42 -33 42 -78q0 -26 -18 -45t-45 -19q-30 0 -47.5 19.5t-17.5 46.5
q0 58 73.5 93.5t153.5 35.5q68 0 105 -35t37 -102zM284 65v142q-67 -4 -95 -26t-28 -65q0 -32 17.5 -51t45.5 -19q26 0 60 19zM287 513l-13 -9q-105 83 -135 123q-18 23 -15 47.5t24 38.5q20 13 44.5 5t37.5 -32q29 -53 57 -173z" />
    <glyph glyph-name="aacute" unicode="&#xe1;" horiz-adv-x="483" 
d="M412 332v-253q0 -30 15 -46t53 -20l2 -12q-74 -19 -111 -19q-77 0 -82 63l-5 2q-61 -63 -136 -63q-56 0 -88.5 29t-32.5 76q0 67 69.5 104t187.5 38v92q0 47 -23.5 72t-82.5 25q-25 0 -49 -4q42 -33 42 -78q0 -26 -18 -45t-45 -19q-30 0 -47.5 19.5t-17.5 46.5
q0 58 73.5 93.5t153.5 35.5q68 0 105 -35t37 -102zM284 65v142q-67 -4 -95 -26t-28 -65q0 -32 17.5 -51t45.5 -19q26 0 60 19zM340 713q21 -13 23.5 -38t-15.5 -48q-30 -40 -135 -123l-13 9q26 118 58 173q14 24 37.5 32t44.5 -5z" />
    <glyph glyph-name="acircumflex" unicode="&#xe2;" horiz-adv-x="483" 
d="M412 332v-253q0 -30 15 -46t53 -20l2 -12q-74 -19 -111 -19q-77 0 -82 63l-5 2q-61 -63 -136 -63q-56 0 -88.5 29t-32.5 76q0 67 69.5 104t187.5 38v92q0 47 -23.5 72t-82.5 25q-25 0 -49 -4q42 -33 42 -78q0 -26 -18 -45t-45 -19q-30 0 -47.5 19.5t-17.5 46.5
q0 58 73.5 93.5t153.5 35.5q68 0 105 -35t37 -102zM284 65v142q-67 -4 -95 -26t-28 -65q0 -32 17.5 -51t45.5 -19q26 0 60 19zM235 581l-128 -74l-15 13l136 183h21l129 -183l-15 -13z" />
    <glyph glyph-name="atilde" unicode="&#xe3;" horiz-adv-x="483" 
d="M412 332v-253q0 -30 15 -46t53 -20l2 -12q-74 -19 -111 -19q-77 0 -82 63l-5 2q-61 -63 -136 -63q-56 0 -88.5 29t-32.5 76q0 67 69.5 104t187.5 38v92q0 47 -23.5 72t-82.5 25q-25 0 -49 -4q42 -33 42 -78q0 -26 -18 -45t-45 -19q-30 0 -47.5 19.5t-17.5 46.5
q0 58 73.5 93.5t153.5 35.5q68 0 105 -35t37 -102zM284 65v142q-67 -4 -95 -26t-28 -65q0 -32 17.5 -51t45.5 -19q26 0 60 19zM86 524q10 67 32.5 97.5t67.5 30.5q30 0 75.5 -20t66.5 -20q34 0 53 47l22 -6q-5 -69 -26 -100t-67 -31q-31 0 -79.5 21.5t-69.5 21.5
q-34 0 -53 -47z" />
    <glyph glyph-name="adieresis" unicode="&#xe4;" horiz-adv-x="483" 
d="M412 332v-253q0 -30 15 -46t53 -20l2 -12q-74 -19 -111 -19q-77 0 -82 63l-5 2q-61 -63 -136 -63q-56 0 -88.5 29t-32.5 76q0 67 69.5 104t187.5 38v92q0 47 -23.5 72t-82.5 25q-25 0 -49 -4q42 -33 42 -78q0 -26 -18 -45t-45 -19q-30 0 -47.5 19.5t-17.5 46.5
q0 58 73.5 93.5t153.5 35.5q68 0 105 -35t37 -102zM284 65v142q-67 -4 -95 -26t-28 -65q0 -32 17.5 -51t45.5 -19q26 0 60 19zM328 528q-30 0 -49.5 20.5t-19.5 50.5q0 31 22.5 54.5t54.5 23.5q30 0 49.5 -20t19.5 -51t-22.5 -54.5t-54.5 -23.5zM137 528q-30 0 -49.5 20.5
t-19.5 50.5q0 31 22 54.5t54 23.5q31 0 50 -20t19 -51t-22 -54.5t-54 -23.5z" />
    <glyph glyph-name="aring" unicode="&#xe5;" horiz-adv-x="483" 
d="M412 332v-253q0 -30 15 -46t53 -20l2 -12q-74 -19 -111 -19q-77 0 -82 63l-5 2q-61 -63 -136 -63q-56 0 -88.5 29t-32.5 76q0 67 69.5 104t187.5 38v92q0 47 -23.5 72t-82.5 25q-25 0 -49 -4q42 -33 42 -78q0 -26 -18 -45t-45 -19q-30 0 -47.5 19.5t-17.5 46.5
q0 58 73.5 93.5t153.5 35.5q68 0 105 -35t37 -102zM284 65v142q-67 -4 -95 -26t-28 -65q0 -32 17.5 -51t45.5 -19q26 0 60 19zM338 598q0 -39 -28 -68.5t-76 -29.5q-47 0 -73.5 28t-26.5 69q0 38 28.5 67t76.5 29q47 0 73 -27t26 -68zM272 598q0 69 -37 69q-35 0 -35 -71
q0 -69 37 -69q20 0 27.5 17.5t7.5 53.5z" />
    <glyph glyph-name="ae" unicode="&#xe6;" horiz-adv-x="741" 
d="M713 251h-306q1 -99 31 -148.5t111 -49.5q54 0 153 26l6 -13q-47 -36 -101.5 -59t-101.5 -23q-121 0 -179 82l-5 2q-82 -84 -161 -84q-62 0 -97.5 29t-35.5 76q0 67 70 104t188 38v92q0 47 -24 72t-83 25q-24 0 -48 -4q41 -33 41 -78q0 -26 -17.5 -45t-44.5 -19
q-29 0 -47 19.5t-18 46.5q0 58 73 93.5t154 35.5q77 0 107 -47q60 47 132 47q102 0 153.5 -60t49.5 -158zM503 437q-40 0 -65.5 -42.5t-30.5 -113.5l180 10q-2 75 -22 110.5t-62 35.5zM315 84q-28 51 -30 123q-65 -5 -94.5 -27.5t-29.5 -63.5q0 -32 18 -51t45 -19
q42 0 91 38z" />
    <glyph glyph-name="ccedilla" unicode="&#xe7;" horiz-adv-x="478" 
d="M165 246q0 -86 42 -139.5t104 -53.5q48 0 137 29l6 -12q-50 -47 -100 -67l-82 -71q80 -19 80 -94q0 -43 -34 -73t-86 -30q-37 0 -62 18t-25 42q0 17 10.5 28.5t26.5 11.5q17 0 26.5 -11t9.5 -28t-14 -33q11 -3 24 -3q21 0 35 16t14 42q0 27 -16 43t-39 16q-20 0 -32 -4
l-12 12l115 101q-22 -2 -33 -2q-98 0 -164 65t-66 168q0 106 71.5 179t183.5 73q77 0 124.5 -31.5t47.5 -76.5q0 -31 -19 -53t-48 -22q-32 0 -52 21t-20 50q0 40 25 75q-10 2 -30 2q-66 0 -107 -46.5t-41 -141.5z" />
    <glyph glyph-name="egrave" unicode="&#xe8;" horiz-adv-x="499" 
d="M471 251h-306q1 -100 31 -149t110 -49q59 0 154 26l6 -13q-47 -36 -101.5 -59t-101.5 -23q-108 0 -170.5 64t-62.5 169q0 106 72.5 179t165.5 73q101 0 153 -60t50 -158zM166 280l179 11q-3 146 -84 146q-40 0 -65.5 -43t-29.5 -114zM316 513l-13 -9q-105 83 -135 123
q-18 23 -15 47.5t24 38.5q20 13 44.5 5t37.5 -32q29 -53 57 -173z" />
    <glyph glyph-name="eacute" unicode="&#xe9;" horiz-adv-x="499" 
d="M471 251h-306q1 -100 31 -149t110 -49q59 0 154 26l6 -13q-47 -36 -101.5 -59t-101.5 -23q-108 0 -170.5 64t-62.5 169q0 106 72.5 179t165.5 73q101 0 153 -60t50 -158zM166 280l179 11q-3 146 -84 146q-40 0 -65.5 -43t-29.5 -114zM369 713q21 -13 23.5 -38t-15.5 -48
q-30 -40 -135 -123l-13 9q26 118 58 173q14 24 37.5 32t44.5 -5z" />
    <glyph glyph-name="ecircumflex" unicode="&#xea;" horiz-adv-x="499" 
d="M471 251h-306q1 -100 31 -149t110 -49q59 0 154 26l6 -13q-47 -36 -101.5 -59t-101.5 -23q-108 0 -170.5 64t-62.5 169q0 106 72.5 179t165.5 73q101 0 153 -60t50 -158zM166 280l179 11q-3 146 -84 146q-40 0 -65.5 -43t-29.5 -114zM264 581l-128 -74l-15 13l136 183h21
l129 -183l-15 -13z" />
    <glyph glyph-name="edieresis" unicode="&#xeb;" horiz-adv-x="499" 
d="M471 251h-306q1 -100 31 -149t110 -49q59 0 154 26l6 -13q-47 -36 -101.5 -59t-101.5 -23q-108 0 -170.5 64t-62.5 169q0 106 72.5 179t165.5 73q101 0 153 -60t50 -158zM166 280l179 11q-3 146 -84 146q-40 0 -65.5 -43t-29.5 -114zM357 528q-30 0 -49.5 20.5
t-19.5 50.5q0 31 22.5 54.5t54.5 23.5q30 0 49.5 -20t19.5 -51t-22.5 -54.5t-54.5 -23.5zM166 528q-30 0 -49.5 20.5t-19.5 50.5q0 31 22 54.5t54 23.5q31 0 50 -20t19 -51t-22 -54.5t-54 -23.5z" />
    <glyph glyph-name="igrave" unicode="&#xec;" horiz-adv-x="279" 
d="M80 38v335l-59 47v10l183 42l4 -3v-431l60 -24v-14h-251v14zM184 513l-13 -9q-105 83 -135 123q-18 23 -15 47.5t24 38.5q20 13 44.5 5t37.5 -32q29 -53 57 -173z" />
    <glyph glyph-name="iacute" unicode="&#xed;" horiz-adv-x="279" 
d="M80 38v335l-59 47v10l183 42l4 -3v-431l60 -24v-14h-251v14zM237 713q21 -13 23.5 -38t-15.5 -48q-30 -40 -135 -123l-13 9q26 118 58 173q14 24 37.5 32t44.5 -5z" />
    <glyph glyph-name="icircumflex" unicode="&#xee;" horiz-adv-x="279" 
d="M80 38v335l-59 47v10l183 42l4 -3v-431l60 -24v-14h-251v14zM132 581l-128 -74l-15 13l136 183h21l129 -183l-15 -13z" />
    <glyph glyph-name="idieresis" unicode="&#xef;" horiz-adv-x="279" 
d="M80 38v335l-59 47v10l183 42l4 -3v-431l60 -24v-14h-251v14zM225 528q-30 0 -49.5 20.5t-19.5 50.5q0 31 22.5 54.5t54.5 23.5q30 0 49.5 -20t19.5 -51t-22.5 -54.5t-54.5 -23.5zM34 528q-30 0 -49.5 20.5t-19.5 50.5q0 31 22 54.5t54 23.5q31 0 50 -20t19 -51t-22 -54.5
t-54 -23.5z" />
    <glyph glyph-name="eth" unicode="&#xf0;" horiz-adv-x="534" 
d="M512 289q0 -132 -70 -218t-185 -86q-104 0 -165.5 67.5t-61.5 172.5q0 108 61.5 176.5t143.5 68.5q69 0 112 -40l3 2q-22 85 -67 146l-107 -45l-17 42l96 40q-55 64 -139 110l8 17q126 -33 209 -94l106 45l17 -41l-84 -36q140 -125 140 -327zM372 249q0 79 -13 147
q-35 19 -74 19q-55 0 -85 -50t-30 -147q0 -96 28 -147.5t80 -51.5q53 0 73.5 57t20.5 173z" />
    <glyph glyph-name="ntilde" unicode="&#xf1;" horiz-adv-x="561" 
d="M498 331v-293l60 -24v-14h-238v14l50 24v253q0 47 -15.5 72t-55.5 25q-45 0 -91 -19v-331l50 -24v-14h-238v14l60 24v335l-60 47v10l178 42l4 -3l-2 -81l4 -2q87 83 171 83q63 0 93 -39.5t30 -98.5zM128 524q10 67 32.5 97.5t67.5 30.5q30 0 75.5 -20t66.5 -20
q34 0 53 47l22 -6q-5 -69 -26 -100t-67 -31q-31 0 -79.5 21.5t-69.5 21.5q-34 0 -53 -47z" />
    <glyph glyph-name="ograve" unicode="&#xf2;" horiz-adv-x="540" 
d="M510 227q0 -97 -66 -170t-180 -73t-174 69.5t-60 173.5q0 97 66 169.5t180 72.5t174 -69.5t60 -172.5zM373 227q0 98 -25.5 154t-77.5 56t-77.5 -56t-25.5 -154t25.5 -154t77.5 -56t77.5 56t25.5 154zM327 513l-13 -9q-105 83 -135 123q-18 23 -15 47.5t24 38.5
q20 13 44.5 5t37.5 -32q29 -53 57 -173z" />
    <glyph glyph-name="oacute" unicode="&#xf3;" horiz-adv-x="540" 
d="M510 227q0 -97 -66 -170t-180 -73t-174 69.5t-60 173.5q0 97 66 169.5t180 72.5t174 -69.5t60 -172.5zM373 227q0 98 -25.5 154t-77.5 56t-77.5 -56t-25.5 -154t25.5 -154t77.5 -56t77.5 56t25.5 154zM380 713q21 -13 23.5 -38t-15.5 -48q-30 -40 -135 -123l-13 9
q26 118 58 173q14 24 37.5 32t44.5 -5z" />
    <glyph glyph-name="ocircumflex" unicode="&#xf4;" horiz-adv-x="540" 
d="M510 227q0 -97 -66 -170t-180 -73t-174 69.5t-60 173.5q0 97 66 169.5t180 72.5t174 -69.5t60 -172.5zM373 227q0 98 -25.5 154t-77.5 56t-77.5 -56t-25.5 -154t25.5 -154t77.5 -56t77.5 56t25.5 154zM275 581l-128 -74l-15 13l136 183h21l129 -183l-15 -13z" />
    <glyph glyph-name="otilde" unicode="&#xf5;" horiz-adv-x="540" 
d="M510 227q0 -97 -66 -170t-180 -73t-174 69.5t-60 173.5q0 97 66 169.5t180 72.5t174 -69.5t60 -172.5zM373 227q0 98 -25.5 154t-77.5 56t-77.5 -56t-25.5 -154t25.5 -154t77.5 -56t77.5 56t25.5 154zM126 524q10 67 32.5 97.5t67.5 30.5q30 0 75.5 -20t66.5 -20
q34 0 53 47l22 -6q-5 -69 -26 -100t-67 -31q-31 0 -79.5 21.5t-69.5 21.5q-34 0 -53 -47z" />
    <glyph glyph-name="odieresis" unicode="&#xf6;" horiz-adv-x="540" 
d="M510 227q0 -97 -66 -170t-180 -73t-174 69.5t-60 173.5q0 97 66 169.5t180 72.5t174 -69.5t60 -172.5zM373 227q0 98 -25.5 154t-77.5 56t-77.5 -56t-25.5 -154t25.5 -154t77.5 -56t77.5 56t25.5 154zM368 528q-30 0 -49.5 20.5t-19.5 50.5q0 31 22.5 54.5t54.5 23.5
q30 0 49.5 -20t19.5 -51t-22.5 -54.5t-54.5 -23.5zM177 528q-30 0 -49.5 20.5t-19.5 50.5q0 31 22 54.5t54 23.5q31 0 50 -20t19 -51t-22 -54.5t-54 -23.5z" />
    <glyph glyph-name="divide" unicode="&#xf7;" horiz-adv-x="505" 
d="M464 278h-423v57h423v-57zM253 530q26 0 44.5 -18.5t18.5 -44.5q0 -27 -18.5 -45t-44.5 -18q-27 0 -45.5 18t-18.5 45q0 26 18.5 44.5t45.5 18.5zM253 209q26 0 44.5 -18.5t18.5 -44.5q0 -27 -18.5 -45t-44.5 -18q-27 0 -45.5 18t-18.5 45q0 26 18.5 44.5t45.5 18.5z" />
    <glyph glyph-name="oslash" unicode="&#xf8;" horiz-adv-x="540" 
d="M449 401q61 -67 61 -174q0 -97 -66 -170t-180 -73q-87 0 -144 43l-51 -58l-29 24l51 59q-61 67 -61 175q0 97 66 169.5t180 72.5q87 0 144 -43l51 58l29 -25zM357 354q-24 83 -87 83q-52 0 -77.5 -56t-25.5 -154q0 -41 5 -83q3 3 8 9l20.5 23.5l30 34.5l33.5 38.5
l34.5 39l29.5 33l22 24.5zM373 227q0 41 -5 81l-46 -52l-92 -104l-47 -53q24 -82 87 -82q52 0 77.5 56t25.5 154z" />
    <glyph glyph-name="ugrave" unicode="&#xf9;" horiz-adv-x="558" 
d="M488 66l60 -29v-10l-178 -44l-4 2l2 80l-4 3q-88 -84 -170 -84q-64 0 -94 40t-30 99v258l-57 39v10l181 42l4 -3v-306q0 -47 15.5 -72t56.5 -25q43 0 90 18v297l-57 39v10l181 42l4 -3v-403zM323 513l-13 -9q-105 83 -135 123q-18 23 -15 47.5t24 38.5q20 13 44.5 5
t37.5 -32q29 -53 57 -173z" />
    <glyph glyph-name="uacute" unicode="&#xfa;" horiz-adv-x="558" 
d="M488 66l60 -29v-10l-178 -44l-4 2l2 80l-4 3q-88 -84 -170 -84q-64 0 -94 40t-30 99v258l-57 39v10l181 42l4 -3v-306q0 -47 15.5 -72t56.5 -25q43 0 90 18v297l-57 39v10l181 42l4 -3v-403zM376 713q21 -13 23.5 -38t-15.5 -48q-30 -40 -135 -123l-13 9q26 118 58 173
q14 24 37.5 32t44.5 -5z" />
    <glyph glyph-name="ucircumflex" unicode="&#xfb;" horiz-adv-x="558" 
d="M488 66l60 -29v-10l-178 -44l-4 2l2 80l-4 3q-88 -84 -170 -84q-64 0 -94 40t-30 99v258l-57 39v10l181 42l4 -3v-306q0 -47 15.5 -72t56.5 -25q43 0 90 18v297l-57 39v10l181 42l4 -3v-403zM271 581l-128 -74l-15 13l136 183h21l129 -183l-15 -13z" />
    <glyph glyph-name="udieresis" unicode="&#xfc;" horiz-adv-x="558" 
d="M488 66l60 -29v-10l-178 -44l-4 2l2 80l-4 3q-88 -84 -170 -84q-64 0 -94 40t-30 99v258l-57 39v10l181 42l4 -3v-306q0 -47 15.5 -72t56.5 -25q43 0 90 18v297l-57 39v10l181 42l4 -3v-403zM364 528q-30 0 -49.5 20.5t-19.5 50.5q0 31 22.5 54.5t54.5 23.5
q30 0 49.5 -20t19.5 -51t-22.5 -54.5t-54.5 -23.5zM173 528q-30 0 -49.5 20.5t-19.5 50.5q0 31 22 54.5t54 23.5q31 0 50 -20t19 -51t-22 -54.5t-54 -23.5z" />
    <glyph glyph-name="yacute" unicode="&#xfd;" horiz-adv-x="494" 
d="M451 405l-154 -379q-51 -125 -93.5 -179t-92.5 -54q-42 0 -65 20.5t-23 50.5q0 25 20.5 45t46.5 20q46 0 86 -48q39 49 58 91l5 11l-179 431l-60 26v14h259v-14l-59 -26l99 -275h5l89 268l-53 33v14h173v-14zM370 713q21 -13 23.5 -38t-15.5 -48q-30 -40 -135 -123l-13 9
q26 118 58 173q14 24 37.5 32t44.5 -5z" />
    <glyph glyph-name="thorn" unicode="&#xfe;" horiz-adv-x="552" 
d="M519 241q0 -106 -72.5 -181.5t-195.5 -75.5q-31 0 -61 6v-160l70 -24v-13h-258v13l60 24v800l-66 47v10l190 54l4 -3v-332l4 -3q68 66 145 66t128.5 -63t51.5 -165zM382 209q0 184 -124 184q-30 0 -68 -9v-313q34 -55 93 -55q43 0 71 47t28 146z" />
    <glyph glyph-name="ydieresis" unicode="&#xff;" horiz-adv-x="494" 
d="M451 405l-154 -379q-51 -125 -93.5 -179t-92.5 -54q-42 0 -65 20.5t-23 50.5q0 25 20.5 45t46.5 20q46 0 86 -48q39 49 58 91l5 11l-179 431l-60 26v14h259v-14l-59 -26l99 -275h5l89 268l-53 33v14h173v-14zM358 528q-30 0 -49.5 20.5t-19.5 50.5q0 31 22.5 54.5
t54.5 23.5q30 0 49.5 -20t19.5 -51t-22.5 -54.5t-54.5 -23.5zM167 528q-30 0 -49.5 20.5t-19.5 50.5q0 31 22 54.5t54 23.5q31 0 50 -20t19 -51t-22 -54.5t-54 -23.5z" />
    <glyph glyph-name="Amacron" unicode="&#x100;" horiz-adv-x="641" 
d="M573 46l80 -29v-17h-316v17l79 24l-60 174h-178l-58 -168l67 -30v-17h-204v17l68 33l236 593h63zM344 251l-76 218h-2l-75 -218h153zM458 799v-67h-276v67h276z" />
    <glyph glyph-name="amacron" unicode="&#x101;" horiz-adv-x="483" 
d="M412 332v-253q0 -30 15 -46t53 -20l2 -12q-74 -19 -111 -19q-77 0 -82 63l-5 2q-61 -63 -136 -63q-56 0 -88.5 29t-32.5 76q0 67 69.5 104t187.5 38v92q0 47 -23.5 72t-82.5 25q-25 0 -49 -4q42 -33 42 -78q0 -26 -18 -45t-45 -19q-30 0 -47.5 19.5t-17.5 46.5
q0 58 73.5 93.5t153.5 35.5q68 0 105 -35t37 -102zM284 65v142q-67 -4 -95 -26t-28 -65q0 -32 17.5 -51t45.5 -19q26 0 60 19zM374 606v-67h-276v67h276z" />
    <glyph glyph-name="Abreve" unicode="&#x102;" horiz-adv-x="641" 
d="M573 46l80 -29v-17h-316v17l79 24l-60 174h-178l-58 -168l67 -30v-17h-204v17l68 33l236 593h63zM344 251l-76 218h-2l-75 -218h153zM320 810q43 0 78 19.5t50 51.5l22 -6q-9 -72 -47.5 -114.5t-102.5 -42.5t-102.5 43t-44.5 114l22 6q13 -32 47.5 -51.5t77.5 -19.5z" />
    <glyph glyph-name="abreve" unicode="&#x103;" horiz-adv-x="483" 
d="M412 332v-253q0 -30 15 -46t53 -20l2 -12q-74 -19 -111 -19q-77 0 -82 63l-5 2q-61 -63 -136 -63q-56 0 -88.5 29t-32.5 76q0 67 69.5 104t187.5 38v92q0 47 -23.5 72t-82.5 25q-25 0 -49 -4q42 -33 42 -78q0 -26 -18 -45t-45 -19q-30 0 -47.5 19.5t-17.5 46.5
q0 58 73.5 93.5t153.5 35.5q68 0 105 -35t37 -102zM284 65v142q-67 -4 -95 -26t-28 -65q0 -32 17.5 -51t45.5 -19q26 0 60 19zM236 617q43 0 78 19.5t50 51.5l22 -6q-9 -72 -47.5 -114.5t-102.5 -42.5t-102.5 43t-44.5 114l22 6q13 -32 47.5 -51.5t77.5 -19.5z" />
    <glyph glyph-name="Aogonek" unicode="&#x104;" horiz-adv-x="641" 
d="M573 46l80 -29v-17h-67q-70 -63 -70 -131q0 -30 14 -49t40 -19q30 0 43 15l11 -8q-30 -61 -95 -61q-45 0 -72 27.5t-27 67.5t31 82.5t88 75.5h-212v17l79 24l-60 174h-178l-58 -168l67 -30v-17h-204v17l68 33l236 593h63zM344 251l-76 218h-2l-75 -218h153z" />
    <glyph glyph-name="aogonek" unicode="&#x105;" horiz-adv-x="483" 
d="M412 332v-253q0 -30 15 -46t53 -20l2 -12q-48 -25 -75.5 -63t-27.5 -72q0 -27 14.5 -46t39.5 -19q30 0 43 15l11 -8q-30 -61 -95 -61q-45 0 -72 27.5t-27 67.5t29.5 78t83.5 65q-16 -3 -35 -3q-77 0 -82 63l-5 2q-61 -63 -136 -63q-56 0 -88.5 29t-32.5 76q0 67 69.5 104
t187.5 38v92q0 47 -23.5 72t-82.5 25q-25 0 -49 -4q42 -33 42 -78q0 -26 -18 -45t-45 -19q-30 0 -47.5 19.5t-17.5 46.5q0 58 73.5 93.5t153.5 35.5q68 0 105 -35t37 -102zM284 65v142q-67 -4 -95 -26t-28 -65q0 -32 17.5 -51t45.5 -19q26 0 60 19z" />
    <glyph glyph-name="Cacute" unicode="&#x106;" horiz-adv-x="670" 
d="M623 191l-21 -166q-100 -40 -214 -40q-156 0 -249.5 88.5t-93.5 238.5q0 141 100 240.5t252 99.5q94 0 153 -31l34 34h14l14 -242l-25 -2q-37 94 -92.5 148.5t-115.5 54.5q-72 0 -120.5 -70t-48.5 -215q0 -140 55 -220.5t152 -80.5q33 0 72 9l119 158zM488 906
q21 -13 23.5 -38t-15.5 -48q-30 -40 -135 -123l-13 9q26 118 58 173q14 24 37.5 32t44.5 -5z" />
    <glyph glyph-name="cacute" unicode="&#x107;" horiz-adv-x="478" 
d="M457 361q0 -31 -19 -53t-48 -22q-32 0 -52 21t-20 50q0 40 25 75q-10 2 -30 2q-66 0 -107 -46.5t-41 -141.5q0 -86 42 -139.5t104 -53.5q48 0 137 29l6 -12q-92 -86 -194 -86q-98 0 -164 65t-66 168q0 106 71.5 179t183.5 73q77 0 124.5 -31.5t47.5 -76.5zM376 713
q21 -13 23.5 -38t-15.5 -48q-30 -40 -135 -123l-13 9q26 118 58 173q14 24 37.5 32t44.5 -5z" />
    <glyph glyph-name="Cdotaccent" unicode="&#x10a;" horiz-adv-x="670" 
d="M623 191l-21 -166q-100 -40 -214 -40q-156 0 -249.5 88.5t-93.5 238.5q0 141 100 240.5t252 99.5q94 0 153 -31l34 34h14l14 -242l-25 -2q-37 94 -92.5 148.5t-115.5 54.5q-72 0 -120.5 -70t-48.5 -215q0 -140 55 -220.5t152 -80.5q33 0 72 9l119 158zM458 799
q0 -31 -22 -54.5t-54 -23.5q-30 0 -49.5 20.5t-19.5 50.5q0 31 22 54.5t54 23.5q31 0 50 -20t19 -51z" />
    <glyph glyph-name="cdotaccent" unicode="&#x10b;" horiz-adv-x="478" 
d="M457 361q0 -31 -19 -53t-48 -22q-32 0 -52 21t-20 50q0 40 25 75q-10 2 -30 2q-66 0 -107 -46.5t-41 -141.5q0 -86 42 -139.5t104 -53.5q48 0 137 29l6 -12q-92 -86 -194 -86q-98 0 -164 65t-66 168q0 106 71.5 179t183.5 73q77 0 124.5 -31.5t47.5 -76.5zM346 606
q0 -31 -22 -54.5t-54 -23.5q-30 0 -49.5 20.5t-19.5 50.5q0 31 22 54.5t54 23.5q31 0 50 -20t19 -51z" />
    <glyph glyph-name="Ccaron" unicode="&#x10c;" horiz-adv-x="670" 
d="M623 191l-21 -166q-100 -40 -214 -40q-156 0 -249.5 88.5t-93.5 238.5q0 141 100 240.5t252 99.5q94 0 153 -31l34 34h14l14 -242l-25 -2q-37 94 -92.5 148.5t-115.5 54.5q-72 0 -120.5 -70t-48.5 -215q0 -140 55 -220.5t152 -80.5q33 0 72 9l119 158zM383 824l128 74
l15 -12l-136 -183h-21l-129 183l15 12z" />
    <glyph glyph-name="ccaron" unicode="&#x10d;" horiz-adv-x="478" 
d="M457 361q0 -31 -19 -53t-48 -22q-32 0 -52 21t-20 50q0 40 25 75q-10 2 -30 2q-66 0 -107 -46.5t-41 -141.5q0 -86 42 -139.5t104 -53.5q48 0 137 29l6 -12q-92 -86 -194 -86q-98 0 -164 65t-66 168q0 106 71.5 179t183.5 73q77 0 124.5 -31.5t47.5 -76.5zM271 631
l128 74l15 -12l-136 -183h-21l-129 183l15 12z" />
    <glyph glyph-name="Dcaron" unicode="&#x10e;" horiz-adv-x="738" 
d="M115 596l-87 24v17h308q170 0 263.5 -89t93.5 -229q0 -139 -99 -229t-265 -90h-301v17l87 24v555zM528 319q0 266 -213 280l-50 3v-566l73 4q92 5 141 70.5t49 208.5zM349 817l128 74l15 -12l-136 -183h-21l-129 183l15 12z" />
    <glyph glyph-name="dcaron" unicode="&#x10f;" horiz-adv-x="568" 
d="M495 55l66 -25v-10l-180 -37l-4 2l-8 54l-4 2l-15 -12q-56 -45 -119 -45q-83 0 -140.5 59.5t-57.5 169.5q0 114 73.5 185t176.5 71q45 0 83 -11v172l-65 47v10l189 54l5 -3v-683zM170 245q0 -194 132 -194q31 0 64 21v314q-38 49 -92 49q-43 0 -73.5 -46.5t-30.5 -143.5z
M553 505l-3 34q-3 39 -3 78q0 38 4 62.5t18.5 43t40.5 18.5q22 0 35.5 -15.5t13.5 -39.5q0 -43 -91 -185z" />
    <glyph glyph-name="Dcroat" unicode="&#x110;" horiz-adv-x="738" 
d="M693 319q0 -139 -99 -229t-265 -90h-301v17l87 24v264h-85v45h85v246l-87 24v17h308q170 0 263.5 -89t93.5 -229zM528 319q0 266 -213 280l-50 3v-252h116v-45h-116v-269l73 4q92 5 141 70.5t49 208.5z" />
    <glyph glyph-name="dcroat" unicode="&#x111;" horiz-adv-x="568" 
d="M495 55l66 -25v-10l-180 -37l-4 2l-8 54l-4 2l-15 -12q-56 -45 -119 -45q-83 0 -140.5 59.5t-57.5 169.5q0 114 73.5 185t176.5 71q45 0 83 -11v85h-127v43h127v44l-65 47v10l189 54l5 -3v-152h72v-43h-72v-488zM170 245q0 -194 132 -194q31 0 64 21v314q-38 49 -92 49
q-43 0 -73.5 -46.5t-30.5 -143.5z" />
    <glyph glyph-name="Emacron" unicode="&#x112;" horiz-adv-x="652" 
d="M570 637l14 -215l-19 -5l-78 110q-28 40 -54 55t-77 17l-91 4v-265h34q42 0 64 17.5t39 64.5l12 33h21v-269h-21l-12 31q-18 47 -39.5 64.5t-63.5 17.5h-34v-262l123 6q41 2 68.5 17.5t53.5 48.5l81 104l19 -4l-19 -207h-563v17l87 24v555l-87 24v17h542zM456 792v-67
h-276v67h276z" />
    <glyph glyph-name="emacron" unicode="&#x113;" horiz-adv-x="499" 
d="M471 251h-306q1 -100 31 -149t110 -49q59 0 154 26l6 -13q-47 -36 -101.5 -59t-101.5 -23q-108 0 -170.5 64t-62.5 169q0 106 72.5 179t165.5 73q101 0 153 -60t50 -158zM166 280l179 11q-3 146 -84 146q-40 0 -65.5 -43t-29.5 -114zM403 606v-67h-276v67h276z" />
    <glyph glyph-name="Ebreve" unicode="&#x114;" horiz-adv-x="652" 
d="M570 637l14 -215l-19 -5l-78 110q-28 40 -54 55t-77 17l-91 4v-265h34q42 0 64 17.5t39 64.5l12 33h21v-269h-21l-12 31q-18 47 -39.5 64.5t-63.5 17.5h-34v-262l123 6q41 2 68.5 17.5t53.5 48.5l81 104l19 -4l-19 -207h-563v17l87 24v555l-87 24v17h542zM318 803
q43 0 78 19.5t50 51.5l22 -6q-9 -72 -47.5 -114.5t-102.5 -42.5t-102.5 43t-44.5 114l22 6q13 -32 47.5 -51.5t77.5 -19.5z" />
    <glyph glyph-name="ebreve" unicode="&#x115;" horiz-adv-x="499" 
d="M471 251h-306q1 -100 31 -149t110 -49q59 0 154 26l6 -13q-47 -36 -101.5 -59t-101.5 -23q-108 0 -170.5 64t-62.5 169q0 106 72.5 179t165.5 73q101 0 153 -60t50 -158zM166 280l179 11q-3 146 -84 146q-40 0 -65.5 -43t-29.5 -114zM265 617q43 0 78 19.5t50 51.5l22 -6
q-9 -72 -47.5 -114.5t-102.5 -42.5t-102.5 43t-44.5 114l22 6q13 -32 47.5 -51.5t77.5 -19.5z" />
    <glyph glyph-name="Edotaccent" unicode="&#x116;" horiz-adv-x="652" 
d="M570 637l14 -215l-19 -5l-78 110q-28 40 -54 55t-77 17l-91 4v-265h34q42 0 64 17.5t39 64.5l12 33h21v-269h-21l-12 31q-18 47 -39.5 64.5t-63.5 17.5h-34v-262l123 6q41 2 68.5 17.5t53.5 48.5l81 104l19 -4l-19 -207h-563v17l87 24v555l-87 24v17h542zM392 792
q0 -31 -22 -54.5t-54 -23.5q-30 0 -49.5 20.5t-19.5 50.5q0 31 22 54.5t54 23.5q31 0 50 -20t19 -51z" />
    <glyph glyph-name="edotaccent" unicode="&#x117;" horiz-adv-x="499" 
d="M471 251h-306q1 -100 31 -149t110 -49q59 0 154 26l6 -13q-47 -36 -101.5 -59t-101.5 -23q-108 0 -170.5 64t-62.5 169q0 106 72.5 179t165.5 73q101 0 153 -60t50 -158zM166 280l179 11q-3 146 -84 146q-40 0 -65.5 -43t-29.5 -114zM339 606q0 -31 -22 -54.5t-54 -23.5
q-30 0 -49.5 20.5t-19.5 50.5q0 31 22 54.5t54 23.5q31 0 50 -20t19 -51z" />
    <glyph glyph-name="Eogonek" unicode="&#x118;" horiz-adv-x="652" 
d="M570 637l14 -215l-19 -5l-78 110q-28 40 -54 55t-77 17l-91 4v-265h34q42 0 64 17.5t39 64.5l12 33h21v-269h-21l-12 31q-18 47 -39.5 64.5t-63.5 17.5h-34v-262l123 6q41 2 68.5 17.5t53.5 48.5l81 104l19 -4l-19 -207h-41q-70 -63 -70 -131q0 -30 14 -49t40 -19
q30 0 43 15l11 -8q-30 -61 -95 -61q-45 0 -72 27.5t-27 67.5t31 82.5t88 75.5h-485v17l87 24v555l-87 24v17h542z" />
    <glyph glyph-name="eogonek" unicode="&#x119;" horiz-adv-x="499" 
d="M471 251h-306q1 -100 31 -149t110 -49q59 0 154 26l6 -13q-8 -8 -26.5 -22l-22.5 -17q-105 -88 -105 -158q0 -30 14 -49t40 -19q30 0 43 15l11 -8q-30 -61 -95 -61q-45 0 -72 27.5t-27 67.5t29 81.5t85 74.5q-44 -14 -77 -14q-108 0 -170.5 64t-62.5 169q0 106 72.5 179
t165.5 73q101 0 153 -60t50 -158zM166 280l179 11q-3 146 -84 146q-40 0 -65.5 -43t-29.5 -114z" />
    <glyph glyph-name="Ecaron" unicode="&#x11a;" horiz-adv-x="652" 
d="M570 637l14 -215l-19 -5l-78 110q-28 40 -54 55t-77 17l-91 4v-265h34q42 0 64 17.5t39 64.5l12 33h21v-269h-21l-12 31q-18 47 -39.5 64.5t-63.5 17.5h-34v-262l123 6q41 2 68.5 17.5t53.5 48.5l81 104l19 -4l-19 -207h-563v17l87 24v555l-87 24v17h542zM317 817l128 74
l15 -12l-136 -183h-21l-129 183l15 12z" />
    <glyph glyph-name="ecaron" unicode="&#x11b;" horiz-adv-x="499" 
d="M471 251h-306q1 -100 31 -149t110 -49q59 0 154 26l6 -13q-47 -36 -101.5 -59t-101.5 -23q-108 0 -170.5 64t-62.5 169q0 106 72.5 179t165.5 73q101 0 153 -60t50 -158zM166 280l179 11q-3 146 -84 146q-40 0 -65.5 -43t-29.5 -114zM264 631l128 74l15 -12l-136 -183
h-21l-129 183l15 12z" />
    <glyph glyph-name="Gbreve" unicode="&#x11e;" horiz-adv-x="706" 
d="M618 413l-25 -2q-100 203 -214 203q-73 0 -121 -69.5t-48 -215.5q0 -148 62.5 -218t159.5 -70q24 0 52 5v204l-80 25v16h285v-16l-61 -25v-255l-16 -4l-86 49q-81 -55 -169 -55q-132 0 -222 92t-90 235q0 141 100 240.5t252 99.5q97 0 156 -31l34 34h21zM377 810
q43 0 78 19.5t50 51.5l22 -6q-9 -72 -47.5 -114.5t-102.5 -42.5t-102.5 43t-44.5 114l22 6q13 -32 47.5 -51.5t77.5 -19.5z" />
    <glyph glyph-name="gbreve" unicode="&#x11f;" horiz-adv-x="513" 
d="M441 320q0 -67 -56 -108.5t-144 -41.5q-49 0 -86 12q-11 -20 -11 -50q0 -35 61 -36l126 -2q79 -1 120.5 -33t41.5 -87q0 -66 -78 -123.5t-197 -57.5q-98 0 -156.5 32t-58.5 77q0 61 110 92l-1 6q-60 11 -60 56q0 50 81 130v5q-44 19 -70 53t-26 76q0 66 57.5 107.5
t146.5 41.5q86 0 140 -37q78 62 121 62q31 0 47.5 -17t16.5 -42q0 -23 -16.5 -40t-40.5 -17t-39.5 13.5t-17.5 36.5l-49 -10l-2 -4q40 -38 40 -94zM310 323q0 117 -74 117q-36 0 -54.5 -26t-18.5 -91q0 -69 19 -96t59 -27q32 0 50.5 33.5t18.5 89.5zM394 -83q0 29 -25.5 49
t-79.5 21l-154 1q-24 -19 -24 -61q0 -98 151 -98q62 0 97 24.5t35 63.5zM250 617q43 0 78 19.5t50 51.5l22 -6q-9 -72 -47.5 -114.5t-102.5 -42.5t-102.5 43t-44.5 114l22 6q13 -32 47.5 -51.5t77.5 -19.5z" />
    <glyph glyph-name="Gdotaccent" unicode="&#x120;" horiz-adv-x="706" 
d="M618 413l-25 -2q-100 203 -214 203q-73 0 -121 -69.5t-48 -215.5q0 -148 62.5 -218t159.5 -70q24 0 52 5v204l-80 25v16h285v-16l-61 -25v-255l-16 -4l-86 49q-81 -55 -169 -55q-132 0 -222 92t-90 235q0 141 100 240.5t252 99.5q97 0 156 -31l34 34h21zM451 799
q0 -31 -22 -54.5t-54 -23.5q-30 0 -49.5 20.5t-19.5 50.5q0 31 22 54.5t54 23.5q31 0 50 -20t19 -51z" />
    <glyph glyph-name="gdotaccent" unicode="&#x121;" horiz-adv-x="513" 
d="M441 320q0 -67 -56 -108.5t-144 -41.5q-49 0 -86 12q-11 -20 -11 -50q0 -35 61 -36l126 -2q79 -1 120.5 -33t41.5 -87q0 -66 -78 -123.5t-197 -57.5q-98 0 -156.5 32t-58.5 77q0 61 110 92l-1 6q-60 11 -60 56q0 50 81 130v5q-44 19 -70 53t-26 76q0 66 57.5 107.5
t146.5 41.5q86 0 140 -37q78 62 121 62q31 0 47.5 -17t16.5 -42q0 -23 -16.5 -40t-40.5 -17t-39.5 13.5t-17.5 36.5l-49 -10l-2 -4q40 -38 40 -94zM310 323q0 117 -74 117q-36 0 -54.5 -26t-18.5 -91q0 -69 19 -96t59 -27q32 0 50.5 33.5t18.5 89.5zM394 -83q0 29 -25.5 49
t-79.5 21l-154 1q-24 -19 -24 -61q0 -98 151 -98q62 0 97 24.5t35 63.5zM324 606q0 -31 -22 -54.5t-54 -23.5q-30 0 -49.5 20.5t-19.5 50.5q0 31 22 54.5t54 23.5q31 0 50 -20t19 -51z" />
    <glyph glyph-name="Gcommaaccent" unicode="&#x122;" horiz-adv-x="706" 
d="M618 413l-25 -2q-100 203 -214 203q-73 0 -121 -69.5t-48 -215.5q0 -148 62.5 -218t159.5 -70q24 0 52 5v204l-80 25v16h285v-16l-61 -25v-255l-16 -4l-86 49q-81 -55 -169 -55q-132 0 -222 92t-90 235q0 141 100 240.5t252 99.5q97 0 156 -31l34 34h21zM439 -160
q0 -47 -34 -88t-94 -66l-9 12q80 59 88 115l-1 1l-11 -3q-16 -4 -24 -4q-22 0 -36.5 16t-14.5 40q0 27 18 46t45 19q33 0 53 -24.5t20 -63.5z" />
    <glyph glyph-name="gcommaaccent" unicode="&#x123;" horiz-adv-x="513" 
d="M441 320q0 -67 -56 -108.5t-144 -41.5q-49 0 -86 12q-11 -20 -11 -50q0 -35 61 -36l126 -2q79 -1 120.5 -33t41.5 -87q0 -66 -78 -123.5t-197 -57.5q-98 0 -156.5 32t-58.5 77q0 61 110 92l-1 6q-60 11 -60 56q0 50 81 130v5q-44 19 -70 53t-26 76q0 66 57.5 107.5
t146.5 41.5q86 0 140 -37q78 62 121 62q31 0 47.5 -17t16.5 -42q0 -23 -16.5 -40t-40.5 -17t-39.5 13.5t-17.5 36.5l-49 -10l-2 -4q40 -38 40 -94zM310 323q0 117 -74 117q-36 0 -54.5 -26t-18.5 -91q0 -69 19 -96t59 -27q32 0 50.5 33.5t18.5 89.5zM394 -83q0 29 -25.5 49
t-79.5 21l-154 1q-24 -19 -24 -61q0 -98 151 -98q62 0 97 24.5t35 63.5zM173 608q0 47 34 88t94 66l9 -12q-80 -59 -88 -115l1 -1l11 3q16 4 24 4q22 0 36.5 -16t14.5 -40q0 -27 -18 -46t-45 -19q-33 0 -53 24.5t-20 63.5z" />
    <glyph glyph-name="Hbar" unicode="&#x126;" horiz-adv-x="786" 
d="M762 500v-43h-91v-416l87 -24v-17h-311v17l74 24v267h-256v-267l74 -24v-17h-311v17l87 24v416h-91v43h91v96l-87 24v17h311v-17l-74 -24v-96h256v96l-74 24v17h311v-17l-87 -24v-96h91zM521 353v104h-256v-104h256z" />
    <glyph glyph-name="hbar" unicode="&#x127;" horiz-adv-x="561" 
d="M370 291q0 97 -73 97q-48 0 -94 -19v-331l50 -24v-14h-238v14l60 24v505h-72v43h72v44l-66 47v10l190 54l4 -3v-152h128v-43h-128v-152l4 -2q84 80 166 80q63 0 94 -39.5t31 -98.5v-293l60 -24v-14h-238v14l50 24v253z" />
    <glyph glyph-name="Imacron" unicode="&#x12a;" horiz-adv-x="400" 
d="M275 41l86 -24v-17h-323v17l87 24v555l-87 24v17h323v-17l-86 -24v-555zM337 792v-67h-276v67h276z" />
    <glyph glyph-name="imacron" unicode="&#x12b;" horiz-adv-x="279" 
d="M80 38v335l-59 47v10l183 42l4 -3v-431l60 -24v-14h-251v14zM271 606v-67h-276v67h276z" />
    <glyph glyph-name="Ibreve" unicode="&#x12c;" horiz-adv-x="400" 
d="M275 41l86 -24v-17h-323v17l87 24v555l-87 24v17h323v-17l-86 -24v-555zM199 803q43 0 78 19.5t50 51.5l22 -6q-9 -72 -47.5 -114.5t-102.5 -42.5t-102.5 43t-44.5 114l22 6q13 -32 47.5 -51.5t77.5 -19.5z" />
    <glyph glyph-name="ibreve" unicode="&#x12d;" horiz-adv-x="279" 
d="M80 38v335l-59 47v10l183 42l4 -3v-431l60 -24v-14h-251v14zM133 617q43 0 78 19.5t50 51.5l22 -6q-9 -72 -47.5 -114.5t-102.5 -42.5t-102.5 43t-44.5 114l22 6q13 -32 47.5 -51.5t77.5 -19.5z" />
    <glyph glyph-name="Iogonek" unicode="&#x12e;" horiz-adv-x="400" 
d="M275 41l86 -24v-17h-102q-70 -63 -70 -131q0 -30 14 -49t40 -19q30 0 43 15l11 -8q-30 -61 -95 -61q-45 0 -72 27.5t-27 67.5t31 82.5t88 75.5h-184v17l87 24v555l-87 24v17h323v-17l-86 -24v-555z" />
    <glyph glyph-name="iogonek" unicode="&#x12f;" horiz-adv-x="279" 
d="M80 373l-59 47v10l183 42l4 -3v-431l60 -24v-14h-68q-70 -63 -70 -131q0 -30 14 -49t40 -19q30 0 43 15l11 -8q-30 -61 -95 -61q-45 0 -72 27.5t-27 67.5t31 82.5t88 75.5h-146v14l63 24v335zM66 609q0 33 24 58.5t58 25.5q33 0 53.5 -21.5t20.5 -54.5t-24 -58t-58 -25
q-32 0 -53 21.5t-21 53.5z" />
    <glyph glyph-name="Idotaccent" unicode="&#x130;" horiz-adv-x="400" 
d="M275 41l86 -24v-17h-323v17l87 24v555l-87 24v17h323v-17l-86 -24v-555zM273 792q0 -31 -22 -54.5t-54 -23.5q-30 0 -49.5 20.5t-19.5 50.5q0 31 22 54.5t54 23.5q31 0 50 -20t19 -51z" />
    <glyph glyph-name="dotlessi" unicode="&#x131;" horiz-adv-x="279" 
d="M80 38v335l-59 47v10l183 42l4 -3v-431l60 -24v-14h-251v14z" />
    <glyph glyph-name="Kcommaaccent" unicode="&#x136;" horiz-adv-x="717" 
d="M419 382l225 -330l73 -35v-17h-291v17l46 25l-155 250h-52v-251l74 -24v-17h-311v17l87 24v555l-87 24v17h311v-17l-74 -24v-258h61l179 238l-70 44v17h254v-17l-86 -36zM437 -160q0 -47 -34 -88t-94 -66l-9 12q80 59 88 115l-1 1l-11 -3q-16 -4 -24 -4q-22 0 -36.5 16
t-14.5 40q0 27 18 46t45 19q33 0 53 -24.5t20 -63.5z" />
    <glyph glyph-name="kcommaaccent" unicode="&#x137;" horiz-adv-x="528" 
d="M321 282l172 -247l49 -21v-14h-236v14l38 21l-113 171h-28v-168l44 -24v-14h-232v14l60 24v592l-65 47v10l189 54l4 -3v-489h33l117 158l-55 33v14h216v-14l-60 -24zM340 -160q0 -47 -34 -88t-94 -66l-9 12q80 59 88 115l-1 1l-11 -3q-16 -4 -24 -4q-22 0 -36.5 16
t-14.5 40q0 27 18 46t45 19q33 0 53 -24.5t20 -63.5z" />
    <glyph glyph-name="Lacute" unicode="&#x139;" horiz-adv-x="609" 
d="M578 217l-23 -217h-527v17l87 24v555l-87 24v17h324v-17l-87 -24v-561l89 4q73 4 122 68l85 113zM306 899q21 -13 23.5 -38t-15.5 -48q-30 -40 -135 -123l-13 9q26 118 58 173q14 24 37.5 32t44.5 -5z" />
    <glyph glyph-name="lacute" unicode="&#x13a;" horiz-adv-x="277" 
d="M203 38l60 -24v-14h-251v14l63 24v592l-65 47v10l189 54l4 -3v-700zM235 971q21 -13 23.5 -38t-15.5 -48q-30 -40 -135 -123l-13 9q26 118 58 173q14 24 37.5 32t44.5 -5z" />
    <glyph glyph-name="Lcommaaccent" unicode="&#x13b;" horiz-adv-x="609" 
d="M578 217l-23 -217h-527v17l87 24v555l-87 24v17h324v-17l-87 -24v-561l89 4q73 4 122 68l85 113zM385 -160q0 -47 -34 -88t-94 -66l-9 12q80 59 88 115l-1 1l-11 -3q-16 -4 -24 -4q-22 0 -36.5 16t-14.5 40q0 27 18 46t45 19q33 0 53 -24.5t20 -63.5z" />
    <glyph glyph-name="lcommaaccent" unicode="&#x13c;" horiz-adv-x="277" 
d="M203 38l60 -24v-14h-251v14l63 24v592l-65 47v10l189 54l4 -3v-700zM204 -160q0 -47 -34 -88t-94 -66l-9 12q80 59 88 115l-1 1l-11 -3q-16 -4 -24 -4q-22 0 -36.5 16t-14.5 40q0 27 18 46t45 19q33 0 53 -24.5t20 -63.5z" />
    <glyph glyph-name="Lcaron" unicode="&#x13d;" horiz-adv-x="609" 
d="M578 217l-23 -217h-527v17l87 24v555l-87 24v17h324v-17l-87 -24v-561l89 4q73 4 122 68l85 113zM398 401l-3 34q-3 39 -3 78q0 38 4 62.5t18.5 43t40.5 18.5q22 0 35.5 -15.5t13.5 -39.5q0 -43 -91 -185z" />
    <glyph glyph-name="lcaron" unicode="&#x13e;" horiz-adv-x="277" 
d="M203 38l60 -24v-14h-251v14l63 24v592l-65 47v10l189 54l4 -3v-700zM264 505l-3 34q-3 39 -3 78q0 38 4 62.5t18.5 43t40.5 18.5q22 0 35.5 -15.5t13.5 -39.5q0 -43 -91 -185z" />
    <glyph glyph-name="Ldot" unicode="&#x13f;" horiz-adv-x="605" 
d="M565 380q0 -30 -20.5 -50.5t-49.5 -20.5t-50 20.5t-21 50.5q0 29 21 49.5t50 20.5t49.5 -20.5t20.5 -49.5zM578 217l-23 -217h-527v17l87 24v555l-87 24v17h324v-17l-87 -24v-561l89 4q73 4 122 68l85 113z" />
    <glyph glyph-name="ldot" unicode="&#x140;" horiz-adv-x="399" 
d="M405 344q0 -30 -20.5 -50.5t-49.5 -20.5t-50 20.5t-21 50.5q0 29 21 49.5t50 20.5t49.5 -20.5t20.5 -49.5zM203 38l60 -24v-14h-251v14l63 24v592l-65 47v10l189 54l4 -3v-700z" />
    <glyph glyph-name="Lslash" unicode="&#x141;" horiz-adv-x="609" 
d="M578 217l-23 -217h-527v17l87 24v227l-66 -18l-12 44l78 21v281l-87 24v17h324v-17l-87 -24v-240l120 33l13 -44l-133 -36v-274l89 4q73 4 122 68l85 113z" />
    <glyph glyph-name="lslash" unicode="&#x142;" horiz-adv-x="307" 
d="M218 347v-309l60 -24v-14h-251v14l63 24v274l-16 -4l-32 -8l-17 -5l-11 43l76 20v272l-65 47v10l189 54l4 -3v-345l75 20l12 -43z" />
    <glyph glyph-name="Nacute" unicode="&#x143;" horiz-adv-x="745" 
d="M120 53v534l-79 33v17h207l81 -102l256 -314h7v363l-85 36v17h213v-17l-85 -36v-590h-56l-82 102l-327 394h-7v-437l85 -36v-17h-213v17zM476 899q21 -13 23.5 -38t-15.5 -48q-30 -40 -135 -123l-13 9q26 118 58 173q14 24 37.5 32t44.5 -5z" />
    <glyph glyph-name="nacute" unicode="&#x144;" horiz-adv-x="561" 
d="M498 331v-293l60 -24v-14h-238v14l50 24v253q0 47 -15.5 72t-55.5 25q-45 0 -91 -19v-331l50 -24v-14h-238v14l60 24v335l-60 47v10l178 42l4 -3l-2 -81l4 -2q87 83 171 83q63 0 93 -39.5t30 -98.5zM382 713q21 -13 23.5 -38t-15.5 -48q-30 -40 -135 -123l-13 9
q26 118 58 173q14 24 37.5 32t44.5 -5z" />
    <glyph glyph-name="Ncommaaccent" unicode="&#x145;" horiz-adv-x="745" 
d="M120 53v534l-79 33v17h207l81 -102l256 -314h7v363l-85 36v17h213v-17l-85 -36v-590h-56l-82 102l-327 394h-7v-437l85 -36v-17h-213v17zM441 -142q0 -47 -34 -88t-94 -66l-9 12q80 59 88 115l-1 1l-11 -3q-16 -4 -24 -4q-22 0 -36.5 16t-14.5 40q0 27 18 46t45 19
q33 0 53 -24.5t20 -63.5z" />
    <glyph glyph-name="ncommaaccent" unicode="&#x146;" horiz-adv-x="561" 
d="M498 331v-293l60 -24v-14h-238v14l50 24v253q0 47 -15.5 72t-55.5 25q-45 0 -91 -19v-331l50 -24v-14h-238v14l60 24v335l-60 47v10l178 42l4 -3l-2 -81l4 -2q87 83 171 83q63 0 93 -39.5t30 -98.5zM347 -160q0 -47 -34 -88t-94 -66l-9 12q80 59 88 115l-1 1l-11 -3
q-16 -4 -24 -4q-22 0 -36.5 16t-14.5 40q0 27 18 46t45 19q33 0 53 -24.5t20 -63.5z" />
    <glyph glyph-name="Ncaron" unicode="&#x147;" horiz-adv-x="745" 
d="M120 53v534l-79 33v17h207l81 -102l256 -314h7v363l-85 36v17h213v-17l-85 -36v-590h-56l-82 102l-327 394h-7v-437l85 -36v-17h-213v17zM371 817l128 74l15 -12l-136 -183h-21l-129 183l15 12z" />
    <glyph glyph-name="ncaron" unicode="&#x148;" horiz-adv-x="561" 
d="M498 331v-293l60 -24v-14h-238v14l50 24v253q0 47 -15.5 72t-55.5 25q-45 0 -91 -19v-331l50 -24v-14h-238v14l60 24v335l-60 47v10l178 42l4 -3l-2 -81l4 -2q87 83 171 83q63 0 93 -39.5t30 -98.5zM277 631l128 74l15 -12l-136 -183h-21l-129 183l15 12z" />
    <glyph glyph-name="Omacron" unicode="&#x14c;" horiz-adv-x="732" 
d="M687 319q0 -142 -87 -238t-237 -96q-155 0 -236.5 94.5t-81.5 239.5q0 141 87 237t237 96q156 0 237 -94.5t81 -238.5zM523 319q0 147 -44 224t-121 77q-73 0 -111 -69.5t-38 -231.5t42.5 -231.5t122.5 -69.5q70 0 109.5 77t39.5 224zM506 799v-67h-276v67h276z" />
    <glyph glyph-name="omacron" unicode="&#x14d;" horiz-adv-x="540" 
d="M510 227q0 -97 -66 -170t-180 -73t-174 69.5t-60 173.5q0 97 66 169.5t180 72.5t174 -69.5t60 -172.5zM373 227q0 98 -25.5 154t-77.5 56t-77.5 -56t-25.5 -154t25.5 -154t77.5 -56t77.5 56t25.5 154zM414 606v-67h-276v67h276z" />
    <glyph glyph-name="Obreve" unicode="&#x14e;" horiz-adv-x="732" 
d="M687 319q0 -142 -87 -238t-237 -96q-155 0 -236.5 94.5t-81.5 239.5q0 141 87 237t237 96q156 0 237 -94.5t81 -238.5zM523 319q0 147 -44 224t-121 77q-73 0 -111 -69.5t-38 -231.5t42.5 -231.5t122.5 -69.5q70 0 109.5 77t39.5 224zM368 810q43 0 78 19.5t50 51.5
l22 -6q-9 -72 -47.5 -114.5t-102.5 -42.5t-102.5 43t-44.5 114l22 6q13 -32 47.5 -51.5t77.5 -19.5z" />
    <glyph glyph-name="obreve" unicode="&#x14f;" horiz-adv-x="540" 
d="M510 227q0 -97 -66 -170t-180 -73t-174 69.5t-60 173.5q0 97 66 169.5t180 72.5t174 -69.5t60 -172.5zM373 227q0 98 -25.5 154t-77.5 56t-77.5 -56t-25.5 -154t25.5 -154t77.5 -56t77.5 56t25.5 154zM276 617q43 0 78 19.5t50 51.5l22 -6q-9 -72 -47.5 -114.5
t-102.5 -42.5t-102.5 43t-44.5 114l22 6q13 -32 47.5 -51.5t77.5 -19.5z" />
    <glyph glyph-name="Ohungarumlaut" unicode="&#x150;" horiz-adv-x="732" 
d="M687 319q0 -142 -87 -238t-237 -96q-155 0 -236.5 94.5t-81.5 239.5q0 141 87 237t237 96q156 0 237 -94.5t81 -238.5zM523 319q0 147 -44 224t-121 77q-73 0 -111 -69.5t-38 -231.5t42.5 -231.5t122.5 -69.5q70 0 109.5 77t39.5 224zM558 821q-38 -49 -135 -120l-13 9
q28 106 66 169q14 23 37 31t43 -5q19 -13 19.5 -37t-17.5 -47zM406 824q-42 -54 -132 -124l-14 8q27 111 61 171q14 24 36.5 32.5t42.5 -3.5q20 -13 22 -37t-16 -47z" />
    <glyph glyph-name="ohungarumlaut" unicode="&#x151;" horiz-adv-x="540" 
d="M510 227q0 -97 -66 -170t-180 -73t-174 69.5t-60 173.5q0 97 66 169.5t180 72.5t174 -69.5t60 -172.5zM373 227q0 98 -25.5 154t-77.5 56t-77.5 -56t-25.5 -154t25.5 -154t77.5 -56t77.5 56t25.5 154zM466 628q-38 -49 -135 -120l-13 9q28 106 66 169q14 23 37 31t43 -5
q19 -13 19.5 -37t-17.5 -47zM314 631q-42 -54 -132 -124l-14 8q27 111 61 171q14 24 36.5 32.5t42.5 -3.5q20 -13 22 -37t-16 -47z" />
    <glyph glyph-name="OE" unicode="&#x152;" horiz-adv-x="1010" 
d="M968 207l-19 -207h-547q-170 0 -263.5 89t-93.5 230q0 138 99 228t265 90h519l14 -215l-18 -5l-79 110q-28 40 -54 55t-76 17l-92 4v-265h34q42 0 64 17.5t39 64.5l12 33h21v-269h-21l-12 31q-18 47 -39.5 64.5t-63.5 17.5h-34v-262l123 6q41 2 68.5 17.5t53.5 48.5
l81 104zM210 319q0 -273 213 -281l50 -2v566l-73 -4q-92 -5 -141 -70.5t-49 -208.5z" />
    <glyph glyph-name="oe" unicode="&#x153;" horiz-adv-x="844" 
d="M510 251q1 -99 31 -148.5t110 -49.5q55 0 154 26l6 -13q-47 -36 -101.5 -59t-101.5 -23q-112 0 -171 72q-64 -72 -173 -72q-114 0 -174 69.5t-60 173.5q0 97 66 169.5t180 72.5q117 0 174 -77q67 77 163 77q101 0 153 -60t50 -158h-306zM510 281l180 10q-3 146 -84 146
q-40 0 -65.5 -42.5t-30.5 -113.5zM373 227q0 98 -25.5 154t-77.5 56t-77.5 -56t-25.5 -154t25.5 -154t77.5 -56t77.5 56t25.5 154z" />
    <glyph glyph-name="Racute" unicode="&#x154;" horiz-adv-x="683" 
d="M612 481q0 -61 -47 -107t-142 -61v-5q65 -10 99.5 -40t51.5 -80q32 -95 61 -131q24 -28 58 -40v-17h-121q-56 0 -82.5 23.5t-52.5 88.5l-41 103q-16 41 -43 56.5t-77 15.5h-11v-246l86 -24v-17h-323v17l87 24v555l-87 24v17h377q100 0 153.5 -45.5t53.5 -110.5zM459 460
q0 64 -37 101t-95 39l-62 2v-281l62 2q58 2 95 37.5t37 99.5zM433 899q21 -13 23.5 -38t-15.5 -48q-30 -40 -135 -123l-13 9q26 118 58 173q14 24 37.5 32t44.5 -5z" />
    <glyph glyph-name="racute" unicode="&#x155;" horiz-adv-x="428" 
d="M420 396q0 -32 -18.5 -53.5t-49.5 -21.5q-29 0 -49 18t-27 50q-40 -3 -68 -37v-314l69 -24v-14h-257v14l60 24v335l-59 47v10l178 42l4 -3l-4 -92l4 -2q32 48 70 71.5t73 23.5q33 0 53.5 -20t20.5 -54zM338 713q21 -13 23.5 -38t-15.5 -48q-30 -40 -135 -123l-13 9
q26 118 58 173q14 24 37.5 32t44.5 -5z" />
    <glyph glyph-name="Rcommaaccent" unicode="&#x156;" horiz-adv-x="683" 
d="M612 481q0 -61 -47 -107t-142 -61v-5q65 -10 99.5 -40t51.5 -80q32 -95 61 -131q24 -28 58 -40v-17h-121q-56 0 -82.5 23.5t-52.5 88.5l-41 103q-16 41 -43 56.5t-77 15.5h-11v-246l86 -24v-17h-323v17l87 24v555l-87 24v17h377q100 0 153.5 -45.5t53.5 -110.5zM459 460
q0 64 -37 101t-95 39l-62 2v-281l62 2q58 2 95 37.5t37 99.5zM425 -160q0 -47 -34 -88t-94 -66l-9 12q80 59 88 115l-1 1l-11 -3q-16 -4 -24 -4q-22 0 -36.5 16t-14.5 40q0 27 18 46t45 19q33 0 53 -24.5t20 -63.5z" />
    <glyph glyph-name="rcommaaccent" unicode="&#x157;" horiz-adv-x="428" 
d="M420 396q0 -32 -18.5 -53.5t-49.5 -21.5q-29 0 -49 18t-27 50q-40 -3 -68 -37v-314l69 -24v-14h-257v14l60 24v335l-59 47v10l178 42l4 -3l-4 -92l4 -2q32 48 70 71.5t73 23.5q33 0 53.5 -20t20.5 -54zM219 -160q0 -47 -34 -88t-94 -66l-9 12q80 59 88 115l-1 1l-11 -3
q-16 -4 -24 -4q-22 0 -36.5 16t-14.5 40q0 27 18 46t45 19q33 0 53 -24.5t20 -63.5z" />
    <glyph glyph-name="Rcaron" unicode="&#x158;" horiz-adv-x="683" 
d="M612 481q0 -61 -47 -107t-142 -61v-5q65 -10 99.5 -40t51.5 -80q32 -95 61 -131q24 -28 58 -40v-17h-121q-56 0 -82.5 23.5t-52.5 88.5l-41 103q-16 41 -43 56.5t-77 15.5h-11v-246l86 -24v-17h-323v17l87 24v555l-87 24v17h377q100 0 153.5 -45.5t53.5 -110.5zM459 460
q0 64 -37 101t-95 39l-62 2v-281l62 2q58 2 95 37.5t37 99.5zM328 817l128 74l15 -12l-136 -183h-21l-129 183l15 12z" />
    <glyph glyph-name="rcaron" unicode="&#x159;" horiz-adv-x="428" 
d="M420 396q0 -32 -18.5 -53.5t-49.5 -21.5q-29 0 -49 18t-27 50q-40 -3 -68 -37v-314l69 -24v-14h-257v14l60 24v335l-59 47v10l178 42l4 -3l-4 -92l4 -2q32 48 70 71.5t73 23.5q33 0 53.5 -20t20.5 -54zM233 631l128 74l15 -12l-136 -183h-21l-129 183l15 12z" />
    <glyph glyph-name="Sacute" unicode="&#x15a;" horiz-adv-x="544" 
d="M503 198q0 -92 -66.5 -152.5t-161.5 -60.5q-79 0 -157 38l-37 -35h-20l-13 225l26 2q42 -98 97.5 -145t110.5 -47q51 0 78.5 28.5t27.5 70.5q0 44 -23 69.5t-91 53.5l-32 12l-38 15t-31 14q-53 26 -82.5 70.5t-29.5 98.5q0 82 63 139.5t146 57.5q65 0 128 -34l38 34h20
l17 -201l-25 -3q-83 166 -177 166q-43 0 -67.5 -24t-24.5 -63q0 -38 19 -64t70 -49q15 -7 54.5 -22t59.5 -25q121 -58 121 -169zM373 906q21 -13 23.5 -38t-15.5 -48q-30 -40 -135 -123l-13 9q26 118 58 173q14 24 37.5 32t44.5 -5z" />
    <glyph glyph-name="sacute" unicode="&#x15b;" horiz-adv-x="415" 
d="M385 136q0 -67 -55.5 -109.5t-130.5 -42.5q-88 0 -157 27l-3 137l20 2q56 -76 90 -104t72 -28q30 0 47 19t17 49q0 14 -7 27t-14.5 20.5t-26 17.5t-28 14l-34.5 14q-32 13 -50 22.5t-41 27t-33.5 41.5t-10.5 55q0 60 53 102t133 42q75 0 125 -18l3 -124l-20 -4
q-49 66 -74.5 89t-59.5 23q-28 0 -44.5 -18.5t-16.5 -42.5t18.5 -43t35.5 -27t57 -24q31 -12 49.5 -21.5t41 -26.5t33.5 -41t11 -55zM315 713q21 -13 23.5 -38t-15.5 -48q-30 -40 -135 -123l-13 9q26 118 58 173q14 24 37.5 32t44.5 -5z" />
    <glyph glyph-name="Scedilla" unicode="&#x15e;" horiz-adv-x="544" 
d="M361 -162q0 -43 -34 -73t-86 -30q-37 0 -62 18t-25 42q0 17 10.5 28.5t26.5 11.5q17 0 26.5 -11t9.5 -28t-14 -33q11 -3 24 -3q21 0 35 16t14 42q0 27 -16 43t-39 16q-20 0 -32 -4l-12 12l115 102q-18 -2 -27 -2q-79 0 -157 38l-37 -35h-20l-13 225l26 2
q42 -98 97.5 -145t110.5 -47q51 0 78.5 28.5t27.5 70.5q0 44 -23 69.5t-91 53.5l-32 12l-38 15t-31 14q-53 26 -82.5 70.5t-29.5 98.5q0 82 63 139.5t146 57.5q65 0 128 -34l38 34h20l17 -201l-25 -3q-83 166 -177 166q-43 0 -67.5 -24t-24.5 -63q0 -38 19 -64t70 -49
q15 -7 54.5 -22t59.5 -25q121 -58 121 -169q0 -71 -40.5 -124.5t-105.5 -74.5l-76 -67q80 -19 80 -94z" />
    <glyph glyph-name="scedilla" unicode="&#x15f;" horiz-adv-x="415" 
d="M295 -162q0 -43 -34 -73t-86 -30q-37 0 -62 18t-25 42q0 17 10.5 28.5t26.5 11.5q17 0 26.5 -11t9.5 -28t-14 -33q11 -3 24 -3q21 0 35 16t14 42q0 27 -16 43t-39 16q-20 0 -32 -4l-12 12l115 102q-18 -3 -37 -3q-88 0 -157 27l-3 137l20 2q56 -76 90 -104t72 -28
q30 0 47 19t17 49q0 14 -7 27t-14.5 20.5t-26 17.5t-28 14l-34.5 14q-32 13 -50 22.5t-41 27t-33.5 41.5t-10.5 55q0 60 53 102t133 42q75 0 125 -18l3 -124l-20 -4q-49 66 -74.5 89t-59.5 23q-28 0 -44.5 -18.5t-16.5 -42.5t18.5 -43t35.5 -27t57 -24q31 -12 49.5 -21.5
t41 -26.5t33.5 -41t11 -55q0 -84 -82 -127l-88 -77q80 -19 80 -94z" />
    <glyph glyph-name="Scaron" unicode="&#x160;" horiz-adv-x="544" 
d="M503 198q0 -92 -66.5 -152.5t-161.5 -60.5q-79 0 -157 38l-37 -35h-20l-13 225l26 2q42 -98 97.5 -145t110.5 -47q51 0 78.5 28.5t27.5 70.5q0 44 -23 69.5t-91 53.5l-32 12l-38 15t-31 14q-53 26 -82.5 70.5t-29.5 98.5q0 82 63 139.5t146 57.5q65 0 128 -34l38 34h20
l17 -201l-25 -3q-83 166 -177 166q-43 0 -67.5 -24t-24.5 -63q0 -38 19 -64t70 -49q15 -7 54.5 -22t59.5 -25q121 -58 121 -169zM268 824l128 74l15 -12l-136 -183h-21l-129 183l15 12z" />
    <glyph glyph-name="scaron" unicode="&#x161;" horiz-adv-x="415" 
d="M385 136q0 -67 -55.5 -109.5t-130.5 -42.5q-88 0 -157 27l-3 137l20 2q56 -76 90 -104t72 -28q30 0 47 19t17 49q0 14 -7 27t-14.5 20.5t-26 17.5t-28 14l-34.5 14q-32 13 -50 22.5t-41 27t-33.5 41.5t-10.5 55q0 60 53 102t133 42q75 0 125 -18l3 -124l-20 -4
q-49 66 -74.5 89t-59.5 23q-28 0 -44.5 -18.5t-16.5 -42.5t18.5 -43t35.5 -27t57 -24q31 -12 49.5 -21.5t41 -26.5t33.5 -41t11 -55zM210 631l128 74l15 -12l-136 -183h-21l-129 183l15 12z" />
    <glyph glyph-name="Tcommaaccent" unicode="&#x162;" horiz-adv-x="681" 
d="M657 414l-22 -5l-91 123q-29 39 -52.5 53t-61.5 17l-13 1v-562l90 -24v-17h-330v17l90 24v562l-17 -1q-38 -2 -61 -16.5t-52 -53.5l-92 -123l-21 5l28 223h577zM408 -160q0 -47 -34 -88t-94 -66l-9 12q80 59 88 115l-1 1l-11 -3q-16 -4 -24 -4q-22 0 -36.5 16t-14.5 40
q0 27 18 46t45 19q33 0 53 -24.5t20 -63.5z" />
    <glyph glyph-name="tcommaaccent" unicode="&#x163;" horiz-adv-x="363" 
d="M364 29q-27 -17 -78.5 -31t-95.5 -14q-109 0 -109 116v293h-77v15l104 93l88 100h13v-147h152v-61h-152v-246q0 -64 28 -84q26 -18 72 -18q8 0 26.5 0.5t26.5 0.5zM258 -160q0 -47 -34 -88t-94 -66l-9 12q80 59 88 115l-1 1l-11 -3q-16 -4 -24 -4q-22 0 -36.5 16
t-14.5 40q0 27 18 46t45 19q33 0 53 -24.5t20 -63.5z" />
    <glyph glyph-name="Tcaron" unicode="&#x164;" horiz-adv-x="681" 
d="M657 414l-22 -5l-91 123q-29 39 -52.5 53t-61.5 17l-13 1v-562l90 -24v-17h-330v17l90 24v562l-17 -1q-38 -2 -61 -16.5t-52 -53.5l-92 -123l-21 5l28 223h577zM338 817l128 74l15 -12l-136 -183h-21l-129 183l15 12z" />
    <glyph glyph-name="tcaron" unicode="&#x165;" horiz-adv-x="363" 
d="M364 29q-27 -17 -78.5 -31t-95.5 -14q-109 0 -109 116v293h-77v15l104 93l88 100h13v-147h152v-61h-152v-246q0 -64 28 -84q26 -18 72 -18q8 0 26.5 0.5t26.5 0.5zM263 508l-3 34q-3 39 -3 78q0 38 4 62.5t18.5 43t40.5 18.5q22 0 35.5 -15.5t13.5 -39.5q0 -43 -91 -185z
" />
    <glyph glyph-name="Umacron" unicode="&#x16a;" horiz-adv-x="714" 
d="M575 587l-72 33v17h188v-17l-73 -33v-377q0 -107 -66.5 -166t-176.5 -59q-130 0 -200 60.5t-70 182.5v368l-86 24v17h323v-17l-87 -24v-388q0 -162 160 -162q76 0 118 45t42 128v368zM513 792v-67h-276v67h276z" />
    <glyph glyph-name="umacron" unicode="&#x16b;" horiz-adv-x="558" 
d="M488 66l60 -29v-10l-178 -44l-4 2l2 80l-4 3q-88 -84 -170 -84q-64 0 -94 40t-30 99v258l-57 39v10l181 42l4 -3v-306q0 -47 15.5 -72t56.5 -25q43 0 90 18v297l-57 39v10l181 42l4 -3v-403zM410 606v-67h-276v67h276z" />
    <glyph glyph-name="Ubreve" unicode="&#x16c;" horiz-adv-x="714" 
d="M575 587l-72 33v17h188v-17l-73 -33v-377q0 -107 -66.5 -166t-176.5 -59q-130 0 -200 60.5t-70 182.5v368l-86 24v17h323v-17l-87 -24v-388q0 -162 160 -162q76 0 118 45t42 128v368zM375 803q43 0 78 19.5t50 51.5l22 -6q-9 -72 -47.5 -114.5t-102.5 -42.5t-102.5 43
t-44.5 114l22 6q13 -32 47.5 -51.5t77.5 -19.5z" />
    <glyph glyph-name="ubreve" unicode="&#x16d;" horiz-adv-x="558" 
d="M488 66l60 -29v-10l-178 -44l-4 2l2 80l-4 3q-88 -84 -170 -84q-64 0 -94 40t-30 99v258l-57 39v10l181 42l4 -3v-306q0 -47 15.5 -72t56.5 -25q43 0 90 18v297l-57 39v10l181 42l4 -3v-403zM272 617q43 0 78 19.5t50 51.5l22 -6q-9 -72 -47.5 -114.5t-102.5 -42.5
t-102.5 43t-44.5 114l22 6q13 -32 47.5 -51.5t77.5 -19.5z" />
    <glyph glyph-name="Uring" unicode="&#x16e;" horiz-adv-x="714" 
d="M575 587l-72 33v17h188v-17l-73 -33v-377q0 -107 -66.5 -166t-176.5 -59q-130 0 -200 60.5t-70 182.5v368l-86 24v17h323v-17l-87 -24v-388q0 -162 160 -162q76 0 118 45t42 128v368zM477 784q0 -39 -28 -68.5t-76 -29.5q-47 0 -73.5 28t-26.5 69q0 38 28.5 67t76.5 29
q47 0 73 -27t26 -68zM411 784q0 69 -37 69q-35 0 -35 -71q0 -69 37 -69q20 0 27.5 17.5t7.5 53.5z" />
    <glyph glyph-name="uring" unicode="&#x16f;" horiz-adv-x="558" 
d="M488 66l60 -29v-10l-178 -44l-4 2l2 80l-4 3q-88 -84 -170 -84q-64 0 -94 40t-30 99v258l-57 39v10l181 42l4 -3v-306q0 -47 15.5 -72t56.5 -25q43 0 90 18v297l-57 39v10l181 42l4 -3v-403zM374 598q0 -39 -28 -68.5t-76 -29.5q-47 0 -73.5 28t-26.5 69q0 38 28.5 67
t76.5 29q47 0 73 -27t26 -68zM308 598q0 69 -37 69q-35 0 -35 -71q0 -69 37 -69q20 0 27.5 17.5t7.5 53.5z" />
    <glyph glyph-name="Uhungarumlaut" unicode="&#x170;" horiz-adv-x="714" 
d="M575 587l-72 33v17h188v-17l-73 -33v-377q0 -107 -66.5 -166t-176.5 -59q-130 0 -200 60.5t-70 182.5v368l-86 24v17h323v-17l-87 -24v-388q0 -162 160 -162q76 0 118 45t42 128v368zM565 814q-38 -49 -135 -120l-13 9q28 106 66 169q14 23 37 31t43 -5q19 -13 19.5 -37
t-17.5 -47zM413 817q-42 -54 -132 -124l-14 8q27 111 61 171q14 24 36.5 32.5t42.5 -3.5q20 -13 22 -37t-16 -47z" />
    <glyph glyph-name="uhungarumlaut" unicode="&#x171;" horiz-adv-x="558" 
d="M488 66l60 -29v-10l-178 -44l-4 2l2 80l-4 3q-88 -84 -170 -84q-64 0 -94 40t-30 99v258l-57 39v10l181 42l4 -3v-306q0 -47 15.5 -72t56.5 -25q43 0 90 18v297l-57 39v10l181 42l4 -3v-403zM462 628q-38 -49 -135 -120l-13 9q28 106 66 169q14 23 37 31t43 -5
q19 -13 19.5 -37t-17.5 -47zM310 631q-42 -54 -132 -124l-14 8q27 111 61 171q14 24 36.5 32.5t42.5 -3.5q20 -13 22 -37t-16 -47z" />
    <glyph glyph-name="Uogonek" unicode="&#x172;" horiz-adv-x="714" 
d="M575 587l-72 33v17h188v-17l-73 -33v-377q0 -90 -48 -146.5t-130 -71.5q-61 -61 -61 -123q0 -30 14 -49t40 -19q30 0 43 15l11 -8q-30 -61 -95 -61q-45 0 -72 27.5t-27 67.5q0 35 25 73t71 70h-14q-130 0 -200 60.5t-70 182.5v368l-86 24v17h323v-17l-87 -24v-388
q0 -162 160 -162q76 0 118 45t42 128v368z" />
    <glyph glyph-name="uogonek" unicode="&#x173;" horiz-adv-x="558" 
d="M488 66l60 -29v-10q-56 -27 -92 -71.5t-36 -86.5q0 -30 14 -49t40 -19q30 0 43 15l11 -8q-30 -61 -95 -61q-45 0 -72 27.5t-27 67.5q0 42 34 87t95 77l-93 -23l-4 2l2 80l-4 3q-88 -84 -170 -84q-64 0 -94 40t-30 99v258l-57 39v10l181 42l4 -3v-306q0 -47 15.5 -72
t56.5 -25q43 0 90 18v297l-57 39v10l181 42l4 -3v-403z" />
    <glyph glyph-name="Wcircumflex" unicode="&#x174;" horiz-adv-x="939" 
d="M585 596l120 -399h2l105 384l-66 39v17h196v-17l-61 -33l-205 -593h-35l-159 444h-2l-175 -444h-35l-189 597l-80 29v17h307v-17l-69 -24l103 -404h2l116 310l-27 89l-61 29v17h286v-17zM492 767l-128 -74l-15 13l136 183h21l129 -183l-15 -13z" />
    <glyph glyph-name="wcircumflex" unicode="&#x175;" horiz-adv-x="738" 
d="M474 414l65 -265h5l86 258l-52 33v14h181v-14l-65 -35l-181 -416h-28l-99 280l-140 -280h-28l-159 425l-60 26v14h244v-14l-44 -26l81 -270h5l82 176l-8 24q-8 23 -17 46l-8 24l-48 26v14h244v-14zM386 581l-128 -74l-15 13l136 183h21l129 -183l-15 -13z" />
    <glyph glyph-name="Ycircumflex" unicode="&#x176;" horiz-adv-x="637" 
d="M583 587l-179 -284v-255l90 -31v-17h-329v17l89 31v223l-182 314l-75 35v17h316v-17l-74 -30l139 -249l121 243l-60 36v17h211v-17zM340 767l-128 -74l-15 13l136 183h21l129 -183l-15 -13z" />
    <glyph glyph-name="ycircumflex" unicode="&#x177;" horiz-adv-x="494" 
d="M451 405l-154 -379q-51 -125 -93.5 -179t-92.5 -54q-42 0 -65 20.5t-23 50.5q0 25 20.5 45t46.5 20q46 0 86 -48q39 49 58 91l5 11l-179 431l-60 26v14h259v-14l-59 -26l99 -275h5l89 268l-53 33v14h173v-14zM265 581l-128 -74l-15 13l136 183h21l129 -183l-15 -13z" />
    <glyph glyph-name="Ydieresis" unicode="&#x178;" horiz-adv-x="637" 
d="M583 587l-179 -284v-255l90 -31v-17h-329v17l89 31v223l-182 314l-75 35v17h316v-17l-74 -30l139 -249l121 243l-60 36v17h211v-17zM433 714q-30 0 -49.5 20.5t-19.5 50.5q0 31 22.5 54.5t54.5 23.5q30 0 49.5 -20t19.5 -51t-22.5 -54.5t-54.5 -23.5zM242 714
q-30 0 -49.5 20.5t-19.5 50.5q0 31 22 54.5t54 23.5q31 0 50 -20t19 -51t-22 -54.5t-54 -23.5z" />
    <glyph glyph-name="Zacute" unicode="&#x179;" horiz-adv-x="630" 
d="M590 223l-16 -223h-544l-4 10l391 585l-138 -3q-39 -1 -68 -18.5t-67 -63.5l-64 -77l-18 5l17 199h514l4 -10l-387 -587l170 3q39 1 65 19.5t55 58.5l75 106zM434 899q21 -13 23.5 -38t-15.5 -48q-30 -40 -135 -123l-13 9q26 118 58 173q14 24 37.5 32t44.5 -5z" />
    <glyph glyph-name="zacute" unicode="&#x17a;" horiz-adv-x="471" 
d="M457 441l-290 -403h147l114 133l18 -6l-12 -165h-412l-9 14l290 402h-139l-106 -133l-18 6l9 165h399zM350 713q21 -13 23.5 -38t-15.5 -48q-30 -40 -135 -123l-13 9q26 118 58 173q14 24 37.5 32t44.5 -5z" />
    <glyph glyph-name="Zdotaccent" unicode="&#x17b;" horiz-adv-x="630" 
d="M590 223l-16 -223h-544l-4 10l391 585l-138 -3q-39 -1 -68 -18.5t-67 -63.5l-64 -77l-18 5l17 199h514l4 -10l-387 -587l170 3q39 1 65 19.5t55 58.5l75 106zM404 792q0 -31 -22 -54.5t-54 -23.5q-30 0 -49.5 20.5t-19.5 50.5q0 31 22 54.5t54 23.5q31 0 50 -20t19 -51z
" />
    <glyph glyph-name="zdotaccent" unicode="&#x17c;" horiz-adv-x="471" 
d="M457 441l-290 -403h147l114 133l18 -6l-12 -165h-412l-9 14l290 402h-139l-106 -133l-18 6l9 165h399zM320 606q0 -31 -22 -54.5t-54 -23.5q-30 0 -49.5 20.5t-19.5 50.5q0 31 22 54.5t54 23.5q31 0 50 -20t19 -51z" />
    <glyph glyph-name="Zcaron" unicode="&#x17d;" horiz-adv-x="630" 
d="M590 223l-16 -223h-544l-4 10l391 585l-138 -3q-39 -1 -68 -18.5t-67 -63.5l-64 -77l-18 5l17 199h514l4 -10l-387 -587l170 3q39 1 65 19.5t55 58.5l75 106zM329 817l128 74l15 -12l-136 -183h-21l-129 183l15 12z" />
    <glyph glyph-name="zcaron" unicode="&#x17e;" horiz-adv-x="471" 
d="M457 441l-290 -403h147l114 133l18 -6l-12 -165h-412l-9 14l290 402h-139l-106 -133l-18 6l9 165h399zM245 631l128 74l15 -12l-136 -183h-21l-129 183l15 12z" />
    <glyph glyph-name="florin" unicode="&#x192;" horiz-adv-x="505" 
d="M516 554q0 -26 -17 -44t-48 -18q-28 0 -56 22t-46 64q-24 -24 -39.5 -65t-29.5 -149l-1 -12h128l-10 -58h-126l-22 -161q-24 -178 -110 -266q-51 -52 -120 -52q-43 0 -70 19.5t-27 49.5q0 25 18 44t44 19q63 0 96 -79q18 27 36 161l37 265h-104l2 16l113 48l1 5
q21 118 95 195q67 70 159 70q40 0 68.5 -21.5t28.5 -52.5z" />
    <glyph glyph-name="Aringacute" unicode="&#x1fa;" horiz-adv-x="641" 
d="M573 46l80 -29v-17h-316v17l79 24l-60 174h-178l-58 -168l67 -30v-17h-204v17l68 33l232 584q-31 9 -48 34.5t-17 57.5q0 38 28.5 67t76.5 29q47 0 73 -27t26 -68q0 -31 -18.5 -57t-50.5 -36zM266 469l-75 -218h153l-76 218h-2zM284 725q0 -69 37 -69q20 0 27.5 17.5
t7.5 53.5q0 69 -37 69q-35 0 -35 -71zM431 1055q21 -13 23.5 -38t-15.5 -48q-30 -40 -135 -123l-13 9q26 118 58 173q14 24 37.5 32t44.5 -5z" />
    <glyph glyph-name="aringacute" unicode="&#x1fb;" horiz-adv-x="483" 
d="M412 332v-253q0 -30 15 -46t53 -20l2 -12q-74 -19 -111 -19q-77 0 -82 63l-5 2q-61 -63 -136 -63q-56 0 -88.5 29t-32.5 76q0 67 69.5 104t187.5 38v92q0 47 -23.5 72t-82.5 25q-25 0 -49 -4q42 -33 42 -78q0 -26 -18 -45t-45 -19q-30 0 -47.5 19.5t-17.5 46.5
q0 58 73.5 93.5t153.5 35.5q68 0 105 -35t37 -102zM284 65v142q-67 -4 -95 -26t-28 -65q0 -32 17.5 -51t45.5 -19q26 0 60 19zM349 596q0 -39 -28 -68.5t-76 -29.5q-47 0 -73.5 28t-26.5 69q0 38 28.5 67t76.5 29q47 0 73 -27t26 -68zM283 596q0 69 -37 69q-35 0 -35 -71
q0 -69 37 -69q20 0 27.5 17.5t7.5 53.5zM355 923q21 -13 23.5 -38t-15.5 -48q-30 -40 -135 -123l-13 9q26 118 58 173q14 24 37.5 32t44.5 -5z" />
    <glyph glyph-name="AEacute" unicode="&#x1fc;" horiz-adv-x="949" 
d="M225 240l-122 -193l67 -30v-17h-203v17l68 33l377 546l-87 24v17h542l14 -215l-19 -5l-79 110q-28 40 -53.5 55t-76.5 17l-91 4v-265h34q42 0 64 17.5t39 64.5l12 33h21v-269h-22l-11 31q-17 47 -38.5 64.5t-64.5 17.5h-34v-262l123 6q41 2 68.5 17.5t53.5 48.5l81 104
l19 -4l-19 -207h-563v17l87 24v199h-187zM412 276v256h-2l-162 -256h164zM633 899q21 -13 23.5 -38t-15.5 -48q-30 -40 -135 -123l-13 9q26 118 58 173q14 24 37.5 32t44.5 -5z" />
    <glyph glyph-name="aeacute" unicode="&#x1fd;" horiz-adv-x="741" 
d="M713 251h-306q1 -99 31 -148.5t111 -49.5q54 0 153 26l6 -13q-47 -36 -101.5 -59t-101.5 -23q-121 0 -179 82l-5 2q-82 -84 -161 -84q-62 0 -97.5 29t-35.5 76q0 67 70 104t188 38v92q0 47 -24 72t-83 25q-24 0 -48 -4q41 -33 41 -78q0 -26 -17.5 -45t-44.5 -19
q-29 0 -47 19.5t-18 46.5q0 58 73 93.5t154 35.5q77 0 107 -47q60 47 132 47q102 0 153.5 -60t49.5 -158zM503 437q-40 0 -65.5 -42.5t-30.5 -113.5l180 10q-2 75 -22 110.5t-62 35.5zM315 84q-28 51 -30 123q-65 -5 -94.5 -27.5t-29.5 -63.5q0 -32 18 -51t45 -19
q42 0 91 38zM481 713q21 -13 23.5 -38t-15.5 -48q-30 -40 -135 -123l-13 9q26 118 58 173q14 24 37.5 32t44.5 -5z" />
    <glyph glyph-name="Oslashacute" unicode="&#x1fe;" horiz-adv-x="732" 
d="M687 319q0 -142 -87 -238t-237 -96q-124 0 -206 66l-69 -79l-28 27l69 78q-84 91 -84 242q0 141 87 237t237 96q126 0 206 -66l69 79l28 -28l-68 -78q83 -90 83 -240zM220 181l278 318q-42 121 -140 121q-73 0 -111 -69.5t-38 -231.5q0 -78 11 -138zM511 453l-280 -318
q37 -117 143 -117q70 0 109.5 77t39.5 224q0 77 -12 134zM473 906q21 -13 23.5 -38t-15.5 -48q-30 -40 -135 -123l-13 9q26 118 58 173q14 24 37.5 32t44.5 -5z" />
    <glyph glyph-name="oslashacute" unicode="&#x1ff;" horiz-adv-x="540" 
d="M449 401q61 -67 61 -174q0 -97 -66 -170t-180 -73q-87 0 -144 43l-51 -58l-29 24l51 59q-61 67 -61 175q0 97 66 169.5t180 72.5q87 0 144 -43l51 58l29 -25zM357 354q-24 83 -87 83q-52 0 -77.5 -56t-25.5 -154q0 -41 5 -83q3 3 8 9l20.5 23.5l30 34.5l33.5 38.5
l34.5 39l29.5 33l22 24.5zM373 227q0 41 -5 81l-46 -52l-92 -104l-47 -53q24 -82 87 -82q52 0 77.5 56t25.5 154zM381 713q21 -13 23.5 -38t-15.5 -48q-30 -40 -135 -123l-13 9q26 118 58 173q14 24 37.5 32t44.5 -5z" />
    <glyph glyph-name="Scommaaccent" unicode="&#x218;" horiz-adv-x="544" 
d="M503 198q0 -92 -66.5 -152.5t-161.5 -60.5q-79 0 -157 38l-37 -35h-20l-13 225l26 2q42 -98 97.5 -145t110.5 -47q51 0 78.5 28.5t27.5 70.5q0 44 -23 69.5t-91 53.5l-32 12l-38 15t-31 14q-53 26 -82.5 70.5t-29.5 98.5q0 82 63 139.5t146 57.5q65 0 128 -34l38 34h20
l17 -201l-25 -3q-83 166 -177 166q-43 0 -67.5 -24t-24.5 -63q0 -38 19 -64t70 -49q15 -7 54.5 -22t59.5 -25q121 -58 121 -169zM338 -160q0 -47 -34 -88t-94 -66l-9 12q80 59 88 115l-1 1l-11 -3q-16 -4 -24 -4q-22 0 -36.5 16t-14.5 40q0 27 18 46t45 19q33 0 53 -24.5
t20 -63.5z" />
    <glyph glyph-name="scommaaccent" unicode="&#x219;" horiz-adv-x="415" 
d="M385 136q0 -67 -55.5 -109.5t-130.5 -42.5q-88 0 -157 27l-3 137l20 2q56 -76 90 -104t72 -28q30 0 47 19t17 49q0 14 -7 27t-14.5 20.5t-26 17.5t-28 14l-34.5 14q-32 13 -50 22.5t-41 27t-33.5 41.5t-10.5 55q0 60 53 102t133 42q75 0 125 -18l3 -124l-20 -4
q-49 66 -74.5 89t-59.5 23q-28 0 -44.5 -18.5t-16.5 -42.5t18.5 -43t35.5 -27t57 -24q31 -12 49.5 -21.5t41 -26.5t33.5 -41t11 -55zM273 -160q0 -47 -34 -88t-94 -66l-9 12q80 59 88 115l-1 1l-11 -3q-16 -4 -24 -4q-22 0 -36.5 16t-14.5 40q0 27 18 46t45 19
q33 0 53 -24.5t20 -63.5z" />
    <glyph glyph-name="schwa" unicode="&#x259;" horiz-adv-x="499" 
d="M28 202h306q-1 100 -31 149t-110 49q-59 0 -154 -26l-6 13q47 36 101.5 59t101.5 23q108 0 170.5 -64t62.5 -169q0 -106 -72.5 -179t-165.5 -73q-101 0 -153 60t-50 158zM333 173l-179 -11q3 -146 84 -146q40 0 65.5 43t29.5 114z" />
    <glyph glyph-name="circumflex" unicode="&#x2c6;" horiz-adv-x="319" 
d="M159 581l-128 -74l-15 13l136 183h21l129 -183l-15 -13z" />
    <glyph glyph-name="caron" unicode="&#x2c7;" horiz-adv-x="319" 
d="M159 631l128 74l15 -12l-136 -183h-21l-129 183l15 12z" />
    <glyph glyph-name="breve" unicode="&#x2d8;" horiz-adv-x="336" 
d="M167 617q43 0 78 19.5t50 51.5l22 -6q-9 -72 -47.5 -114.5t-102.5 -42.5t-102.5 43t-44.5 114l22 6q13 -32 47.5 -51.5t77.5 -19.5z" />
    <glyph glyph-name="dotaccent" unicode="&#x2d9;" horiz-adv-x="207" 
d="M176 606q0 -31 -22 -54.5t-54 -23.5q-30 0 -49.5 20.5t-19.5 50.5q0 31 22 54.5t54 23.5q31 0 50 -20t19 -51z" />
    <glyph glyph-name="ring" unicode="&#x2da;" horiz-adv-x="259" 
d="M230 598q0 -39 -28 -68.5t-76 -29.5q-47 0 -73.5 28t-26.5 69q0 38 28.5 67t76.5 29q47 0 73 -27t26 -68zM164 598q0 69 -37 69q-35 0 -35 -71q0 -69 37 -69q20 0 27.5 17.5t7.5 53.5z" />
    <glyph glyph-name="ogonek" unicode="&#x2db;" horiz-adv-x="269" 
d="M155 15l14 -11q-75 -66 -75 -135q0 -30 14 -49t40 -19q30 0 43 15l11 -8q-30 -61 -95 -61q-45 0 -72 27.5t-27 67.5q0 44 38.5 91t108.5 82z" />
    <glyph glyph-name="tilde" unicode="&#x2dc;" horiz-adv-x="351" 
d="M19 524q10 67 32.5 97.5t67.5 30.5q30 0 75.5 -20t66.5 -20q34 0 53 47l22 -6q-5 -69 -26 -100t-67 -31q-31 0 -79.5 21.5t-69.5 21.5q-34 0 -53 -47z" />
    <glyph glyph-name="hungarumlaut" unicode="&#x2dd;" horiz-adv-x="334" 
d="M314 628q-38 -49 -135 -120l-13 9q28 106 66 169q14 23 37 31t43 -5q19 -13 19.5 -37t-17.5 -47zM162 631q-42 -54 -132 -124l-14 8q27 111 61 171q14 24 36.5 32.5t42.5 -3.5q20 -13 22 -37t-16 -47z" />
    <glyph glyph-name="commaaccent" unicode="&#x326;" horiz-adv-x="210" 
d="M185 -160q0 -47 -34 -88t-94 -66l-9 12q80 59 88 115l-1 1l-11 -3q-16 -4 -24 -4q-22 0 -36.5 16t-14.5 40q0 27 18 46t45 19q33 0 53 -24.5t20 -63.5z" />
    <glyph glyph-name="Wgrave" unicode="&#x1e80;" horiz-adv-x="939" 
d="M585 596l120 -399h2l105 384l-66 39v17h196v-17l-61 -33l-205 -593h-35l-159 444h-2l-175 -444h-35l-189 597l-80 29v17h307v-17l-69 -24l103 -404h2l116 310l-27 89l-61 29v17h286v-17zM544 699l-13 -9q-105 83 -135 123q-18 23 -15 47.5t24 38.5q20 13 44.5 5t37.5 -32
q29 -53 57 -173z" />
    <glyph glyph-name="wgrave" unicode="&#x1e81;" horiz-adv-x="738" 
d="M474 414l65 -265h5l86 258l-52 33v14h181v-14l-65 -35l-181 -416h-28l-99 280l-140 -280h-28l-159 425l-60 26v14h244v-14l-44 -26l81 -270h5l82 176l-8 24q-8 23 -17 46l-8 24l-48 26v14h244v-14zM438 513l-13 -9q-105 83 -135 123q-18 23 -15 47.5t24 38.5
q20 13 44.5 5t37.5 -32q29 -53 57 -173z" />
    <glyph glyph-name="Wacute" unicode="&#x1e82;" horiz-adv-x="939" 
d="M585 596l120 -399h2l105 384l-66 39v17h196v-17l-61 -33l-205 -593h-35l-159 444h-2l-175 -444h-35l-189 597l-80 29v17h307v-17l-69 -24l103 -404h2l116 310l-27 89l-61 29v17h286v-17zM597 899q21 -13 23.5 -38t-15.5 -48q-30 -40 -135 -123l-13 9q26 118 58 173
q14 24 37.5 32t44.5 -5z" />
    <glyph glyph-name="wacute" unicode="&#x1e83;" horiz-adv-x="738" 
d="M474 414l65 -265h5l86 258l-52 33v14h181v-14l-65 -35l-181 -416h-28l-99 280l-140 -280h-28l-159 425l-60 26v14h244v-14l-44 -26l81 -270h5l82 176l-8 24q-8 23 -17 46l-8 24l-48 26v14h244v-14zM491 713q21 -13 23.5 -38t-15.5 -48q-30 -40 -135 -123l-13 9
q26 118 58 173q14 24 37.5 32t44.5 -5z" />
    <glyph glyph-name="Wdieresis" unicode="&#x1e84;" horiz-adv-x="939" 
d="M585 596l120 -399h2l105 384l-66 39v17h196v-17l-61 -33l-205 -593h-35l-159 444h-2l-175 -444h-35l-189 597l-80 29v17h307v-17l-69 -24l103 -404h2l116 310l-27 89l-61 29v17h286v-17zM585 714q-30 0 -49.5 20.5t-19.5 50.5q0 31 22.5 54.5t54.5 23.5q30 0 49.5 -20
t19.5 -51t-22.5 -54.5t-54.5 -23.5zM394 714q-30 0 -49.5 20.5t-19.5 50.5q0 31 22 54.5t54 23.5q31 0 50 -20t19 -51t-22 -54.5t-54 -23.5z" />
    <glyph glyph-name="wdieresis" unicode="&#x1e85;" horiz-adv-x="738" 
d="M474 414l65 -265h5l86 258l-52 33v14h181v-14l-65 -35l-181 -416h-28l-99 280l-140 -280h-28l-159 425l-60 26v14h244v-14l-44 -26l81 -270h5l82 176l-8 24q-8 23 -17 46l-8 24l-48 26v14h244v-14zM479 528q-30 0 -49.5 20.5t-19.5 50.5q0 31 22.5 54.5t54.5 23.5
q30 0 49.5 -20t19.5 -51t-22.5 -54.5t-54.5 -23.5zM288 528q-30 0 -49.5 20.5t-19.5 50.5q0 31 22 54.5t54 23.5q31 0 50 -20t19 -51t-22 -54.5t-54 -23.5z" />
    <glyph glyph-name="Ygrave" unicode="&#x1ef2;" horiz-adv-x="637" 
d="M583 587l-179 -284v-255l90 -31v-17h-329v17l89 31v223l-182 314l-75 35v17h316v-17l-74 -30l139 -249l121 243l-60 36v17h211v-17zM392 699l-13 -9q-105 83 -135 123q-18 23 -15 47.5t24 38.5q20 13 44.5 5t37.5 -32q29 -53 57 -173z" />
    <glyph glyph-name="ygrave" unicode="&#x1ef3;" horiz-adv-x="494" 
d="M451 405l-154 -379q-51 -125 -93.5 -179t-92.5 -54q-42 0 -65 20.5t-23 50.5q0 25 20.5 45t46.5 20q46 0 86 -48q39 49 58 91l5 11l-179 431l-60 26v14h259v-14l-59 -26l99 -275h5l89 268l-53 33v14h173v-14zM317 513l-13 -9q-105 83 -135 123q-18 23 -15 47.5t24 38.5
q20 13 44.5 5t37.5 -32q29 -53 57 -173z" />
    <glyph glyph-name="enspace" unicode="&#x2002;" horiz-adv-x="500" 
 />
    <glyph glyph-name="emspace" unicode="&#x2003;" horiz-adv-x="1000" 
 />
    <glyph glyph-name="threeperemspace" unicode="&#x2004;" horiz-adv-x="333" 
 />
    <glyph glyph-name="fourperemspace" unicode="&#x2005;" horiz-adv-x="250" 
 />
    <glyph glyph-name="figurespace" unicode="&#x2007;" horiz-adv-x="520" 
 />
    <glyph glyph-name="thinspace" unicode="&#x2009;" horiz-adv-x="133" 
 />
    <glyph glyph-name="hairspace" unicode="&#x200a;" horiz-adv-x="75" 
 />
    <glyph glyph-name="endash" unicode="&#x2013;" horiz-adv-x="533" 
d="M495 230h-457v45h457v-45z" />
    <glyph glyph-name="emdash" unicode="&#x2014;" horiz-adv-x="783" 
d="M745 230h-707v45h707v-45z" />
    <glyph glyph-name="quoteleft" unicode="&#x2018;" horiz-adv-x="218" 
d="M183 463q0 -30 -20.5 -51t-50.5 -21q-37 0 -59 27t-22 70q0 110 141 171l11 -14q-79 -68 -97 -128l2 -2l17 5q10 3 21 3q25 0 41 -17t16 -43z" />
    <glyph glyph-name="quoteright" unicode="&#x2019;" horiz-adv-x="219" 
d="M187 555q0 -110 -141 -171l-11 14q79 68 97 128l-2 2l-15 -4q-16 -4 -23 -4q-25 0 -41 17t-16 43q0 30 20.5 51t50.5 21q37 0 59 -27t22 -70z" />
    <glyph glyph-name="quotesinglbase" unicode="&#x201a;" horiz-adv-x="232" 
d="M187 28q0 -110 -141 -171l-11 14q79 68 97 128l-2 2l-15 -4q-16 -4 -23 -4q-25 0 -41 17t-16 43q0 30 20.5 51t50.5 21q37 0 59 -27t22 -70z" />
    <glyph glyph-name="quotedblleft" unicode="&#x201c;" horiz-adv-x="384" 
d="M349 472q0 -28 -19.5 -48.5t-48.5 -20.5q-35 0 -56 25.5t-21 67.5q0 105 135 163l10 -13q-77 -67 -92 -123l1 -2l17 5q11 3 20 3q23 0 38.5 -16.5t15.5 -40.5zM175 472q0 -28 -19.5 -48.5t-48.5 -20.5q-35 0 -56 25.5t-21 67.5q0 105 135 163l10 -13q-77 -67 -92 -123
l1 -2l17 5q11 3 20 3q23 0 38.5 -16.5t15.5 -40.5z" />
    <glyph glyph-name="quotedblright" unicode="&#x201d;" horiz-adv-x="385" 
d="M354 559q0 -105 -135 -163l-10 13q77 67 92 123l-1 2l-14 -4q-14 -4 -23 -4q-23 0 -38.5 16.5t-15.5 40.5q0 28 19.5 48.5t48.5 20.5q35 0 56 -25.5t21 -67.5zM180 559q0 -105 -135 -163l-10 13q77 67 92 123l-1 2l-14 -4q-14 -4 -23 -4q-23 0 -38.5 16.5t-15.5 40.5
q0 28 19.5 48.5t48.5 20.5q35 0 56 -25.5t21 -67.5z" />
    <glyph glyph-name="quotedblbase" unicode="&#x201e;" horiz-adv-x="385" 
d="M354 32q0 -105 -135 -163l-10 13q77 67 92 123l-1 2l-14 -4q-14 -4 -23 -4q-23 0 -38.5 16.5t-15.5 40.5q0 28 19.5 48.5t48.5 20.5q35 0 56 -25.5t21 -67.5zM180 32q0 -105 -135 -163l-10 13q77 67 92 123l-1 2l-14 -4q-14 -4 -23 -4q-23 0 -38.5 16.5t-15.5 40.5
q0 28 19.5 48.5t48.5 20.5q35 0 56 -25.5t21 -67.5z" />
    <glyph glyph-name="dagger" unicode="&#x2020;" horiz-adv-x="444" 
d="M426 394l-183 4l4 -481h-50l4 481l-183 -4v47l183 -4l-4 233h50l-4 -233l183 4v-47z" />
    <glyph glyph-name="daggerdbl" unicode="&#x2021;" horiz-adv-x="444" 
d="M426 146l-183 4l4 -233h-50l4 233l-183 -4v47l183 -4v209l-183 -4v47l183 -4l-4 233h50l-4 -233l183 4v-47l-183 4v-209l183 4v-47z" />
    <glyph glyph-name="bullet" unicode="&#x2022;" horiz-adv-x="470" 
d="M395 319q0 -67 -47 -114.5t-114 -47.5q-68 0 -115 47.5t-47 114.5t47.5 114t114.5 47t114 -47t47 -114z" />
    <glyph glyph-name="ellipsis" unicode="&#x2026;" horiz-adv-x="644" 
d="M611 55q0 -29 -20.5 -50t-49.5 -21t-50 21t-21 50t21 49.5t50 20.5t49.5 -20.5t20.5 -49.5zM393 55q0 -29 -20.5 -50t-49.5 -21t-50 21t-21 50t21 49.5t50 20.5t49.5 -20.5t20.5 -49.5zM175 55q0 -29 -20.5 -50t-49.5 -21t-50 21t-21 50t21 49.5t50 20.5t49.5 -20.5
t20.5 -49.5z" />
    <glyph glyph-name="guilsinglleft" unicode="&#x2039;" horiz-adv-x="306" 
d="M137 224l113 -174l-23 -20l-197 189v10l197 189l23 -21z" />
    <glyph glyph-name="guilsinglright" unicode="&#x203a;" horiz-adv-x="306" 
d="M276 229v-10l-197 -189l-23 20l113 174l-113 173l23 21z" />
    <glyph glyph-name="fraction" unicode="&#x2044;" horiz-adv-x="536" 
d="M518 619l-235 -325l-230 -329l-35 26l235 326l230 329z" />
    <glyph glyph-name="Euro" unicode="&#x20ac;" horiz-adv-x="606" 
d="M98 331h-76v45h82q23 116 101.5 184t189.5 68q83 0 128 -33t45 -80q0 -35 -18.5 -55.5t-52.5 -20.5q-53 0 -69 51.5t15 86.5q-22 14 -52 14q-52 0 -97 -52t-55 -163h235v-45h-237v-13q0 -28 3 -54h234v-45h-225q19 -69 64 -106.5t110 -37.5q86 0 143 25l5 -13
q-34 -46 -86.5 -74t-114.5 -28q-102 0 -176.5 61t-92.5 173h-79v45h74v22q0 15 2 45z" />
    <glyph glyph-name="published" unicode="&#x2117;" horiz-adv-x="734" 
d="M701 319q0 -139 -98 -236.5t-236 -97.5t-236 97.5t-98 236.5q0 138 98 235.5t236 97.5t236 -97.5t98 -235.5zM660 319q0 122 -86 209.5t-207 87.5t-207 -87.5t-86 -209.5q0 -123 86 -210.5t207 -87.5t207 87.5t86 210.5zM533 385q0 -43 -36 -74.5t-92 -31.5q-27 0 -55 5
v-104l52 -14v-16h-186v16l43 14v277l-43 15v15h186q68 0 99.5 -29t31.5 -73zM440 386q0 68 -59 76q-12 2 -31 2v-156l32 3q28 3 43 23t15 52z" />
    <glyph glyph-name="servicemark" unicode="&#x2120;" horiz-adv-x="509" 
d="M184 508q0 -29 -20 -46.5t-51 -17.5q-29 0 -55 11l-9 -11h-11l-3 71h13q36 -59 71 -59q12 0 19.5 8.5t7.5 21.5t-10.5 20.5t-36.5 16.5q-31 11 -45 22.5t-14 35.5q0 26 19.5 43t47.5 17q25 0 45 -9l8 9h11l5 -62l-13 -1q-39 51 -60 51q-24 0 -24 -27q0 -13 11 -21t37 -17
q20 -7 30.5 -12.5t18.5 -16.5t8 -27zM457 616v-146l25 -9v-11h-97v11l20 9v143h-4l-61 -163h-16l-65 163h-4v-140l27 -12v-11h-70v11l26 12v143l-26 9v12h95l9 -31l32 -86h2l31 86l10 31h91v-12z" />
    <glyph glyph-name="trademark" unicode="&#x2122;" horiz-adv-x="545" 
d="M493 616v-146l25 -9v-11h-97v11l20 9v143h-4l-61 -163h-16l-65 163h-4v-140l27 -12v-11h-70v11l26 12v143l-26 9v12h95l9 -31l32 -86h2l31 86l10 31h91v-12zM218 566l-8 -2l-28 40q-12 17 -28 20l-6 1v-155l25 -9v-11h-103v11l26 9v155l-6 -1q-17 -3 -29 -20l-29 -40
l-8 2l8 71h180z" />
    <glyph glyph-name="minus" unicode="&#x2212;" horiz-adv-x="505" 
d="M464 276h-423v61h423v-61z" />
    <glyph glyph-name="a.sc" horiz-adv-x="537" 
d="M289 182l-68 182h-2l-64 -182h134zM143 147l-36 -102l61 -30v-15h-183v15l66 33l188 456h63l182 -465l58 -24v-15h-258v13l59 24l-41 110h-159z" />
    <glyph glyph-name="b.sc" horiz-adv-x="551" 
d="M515 135q0 -58 -49.5 -96.5t-147.5 -38.5h-292v16l68 22v421l-68 22v16h274q195 0 195 -112q0 -102 -152 -121v-5q80 -3 126 -39t46 -85zM229 270l40 2q45 2 70 28t25 71q0 89 -91 94l-44 2v-197zM372 134q0 50 -29.5 78.5t-80.5 28.5h-33v-208q25 -3 50 -3q47 0 70 24
t23 80z" />
    <glyph glyph-name="c.sc" horiz-adv-x="548" 
d="M508 167l-19 -153q-63 -29 -149 -29q-61 0 -112.5 12.5t-96 40.5t-70 80t-25.5 124q0 114 80 192t204 78q69 0 124 -29l28 30h12l15 -198l-21 -2q-46 84 -86.5 124t-83.5 40q-54 0 -90 -55t-36 -165q0 -120 47.5 -177.5t125.5 -57.5q17 0 31 4l107 145z" />
    <glyph glyph-name="d.sc" 
d="M94 459l-68 22v16h253q138 0 213 -66.5t75 -179.5q0 -114 -78 -182.5t-214 -68.5h-249v16l68 22v421zM420 249q0 105 -40.5 157t-109.5 57l-41 3v-434l56 3q135 7 135 214z" />
    <glyph glyph-name="e.sc" horiz-adv-x="544" 
d="M481 497l11 -171l-17 -5l-61 83q-22 30 -44.5 44t-60.5 15l-80 3v-198h38q31 0 48 13t30 49l9 24h19v-211h-19l-10 24q-15 36 -31 48.5t-46 12.5h-38v-196l100 5q60 3 98 52l64 82l17 -5l-15 -166h-467v16l68 22v421l-68 22v16h455z" />
    <glyph glyph-name="f.sc" horiz-adv-x="513" 
d="M491 321l-17 -5l-62 88q-21 30 -44 44t-61 15l-78 3v-209h41q30 0 47.5 14t30.5 48l9 24h19v-211h-19l-10 24q-15 36 -31 48.5t-46 12.5h-41v-179l74 -22v-16h-277v16l68 22v421l-68 22v16h454z" />
    <glyph glyph-name="g.sc" horiz-adv-x="574" 
d="M502 321l-21 -2q-89 158 -173 158q-55 0 -90.5 -52.5t-35.5 -165.5q0 -121 45.5 -174.5t117.5 -53.5q12 0 38 4v160l-66 23v15h238v-15l-46 -23v-202l-14 -4l-75 40q-63 -44 -141 -44q-99 0 -171 68t-72 186q0 119 79.5 196t204.5 77q72 0 127 -29l29 30h16z" />
    <glyph glyph-name="h.sc" horiz-adv-x="653" 
d="M424 277v183l-63 21v16h266v-16l-68 -22v-421l68 -22v-16h-266v16l63 21v201h-195v-201l63 -21v-16h-266v16l68 22v421l-68 22v16h266v-16l-63 -21v-183h195z" />
    <glyph glyph-name="i.sc" horiz-adv-x="339" 
d="M237 38l68 -22v-16h-271v16l68 22v421l-68 22v16h271v-16l-68 -22v-421z" />
    <glyph glyph-name="j.sc" horiz-adv-x="450" 
d="M366 192q0 -100 -48 -151q-53 -57 -173 -57q-67 0 -103 27t-36 66q0 31 20.5 52t49.5 21q40 0 59.5 -36t13.5 -98q84 13 84 123v316l-73 20v22h271v-22l-65 -20v-263z" />
    <glyph glyph-name="k.sc" horiz-adv-x="599" 
d="M358 307l189 -264l53 -27v-16h-254v16l49 19l-127 193h-39v-191l61 -21v-16h-264v16l68 22v421l-68 22v16h264v-16l-61 -21v-193h47l142 177l-65 37v16h222v-22l-76 -26z" />
    <glyph glyph-name="l.sc" horiz-adv-x="504" 
d="M480 186l-20 -186h-434v16l68 22v421l-68 22v16h278v-16l-75 -21v-428l62 2q60 3 99 54l75 100z" />
    <glyph glyph-name="m.sc" horiz-adv-x="758" 
d="M664 38l68 -22v-16h-265v16l63 21v393h-7l-168 -431h-30l-180 431h-7v-384l69 -30v-16h-179v16l69 30v411l-69 24v16h235l32 -78l90 -234h5l88 234l28 78h226v-16l-68 -22v-421z" />
    <glyph glyph-name="n.sc" horiz-adv-x="620" 
d="M100 49v402l-66 30v16h177l67 -82l200 -241h6v274l-70 33v16h178v-16l-70 -33v-454h-62l-74 90l-242 283h-6v-318l69 -34v-15h-177v15z" />
    <glyph glyph-name="o.sc" 
d="M562 249q0 -113 -69 -188.5t-195 -75.5q-131 0 -196.5 74.5t-65.5 189.5q0 112 69.5 187.5t196.5 75.5q130 0 195 -74.5t65 -188.5zM416 249q0 115 -33 174t-90 59q-111 0 -111 -233t123 -233q52 0 81.5 59t29.5 174z" />
    <glyph glyph-name="p.sc" horiz-adv-x="518" 
d="M497 349q0 -69 -52 -111.5t-140 -42.5q-38 0 -76 5v-163l83 -21v-16h-286v16l68 22v421l-68 22v16h275q96 0 146 -40.5t50 -107.5zM358 347q0 113 -91 118l-38 2v-239l35 1q45 1 69.5 32.5t24.5 85.5z" />
    <glyph glyph-name="q.sc" 
d="M562 249q0 -92 -47 -161.5t-135 -92.5q33 -53 62 -72q37 -26 94 -37l-4 -16h-105q-90 0 -121 26q-22 17 -47 67l-13 25q-106 15 -158 86.5t-52 174.5q0 112 69.5 187.5t196.5 75.5q130 0 195 -74.5t65 -188.5zM416 249q0 115 -33 174t-90 59q-111 0 -111 -233t123 -233
q52 0 81.5 59t29.5 174z" />
    <glyph glyph-name="r.sc" horiz-adv-x="565" 
d="M508 375q0 -110 -156 -132v-5q56 -7 84.5 -29t42.5 -62q25 -72 45 -98q16 -21 50 -32v-17h-113q-42 0 -63 18.5t-40 67.5l-30 77q-13 32 -33 44.5t-58 12.5h-8v-182l68 -22v-16h-271v16l68 22v421l-68 22v16h310q87 0 129.5 -33t42.5 -89zM371 358q0 101 -98 106l-44 2
v-216l42 2q45 2 72.5 28.5t27.5 77.5z" />
    <glyph glyph-name="s.sc" horiz-adv-x="462" 
d="M425 158q0 -77 -54.5 -124.5t-132.5 -47.5q-75 0 -138 26l-31 -29h-19l-10 188l22 2q89 -154 177 -154q40 0 62.5 20t22.5 54t-19.5 52t-72.5 38l-36 12.5t-49 19.5q-52 24 -74 56t-22 79q0 68 52 114.5t120 46.5q62 0 117 -24l31 26h19l14 -173l-21 -2
q-48 77 -83.5 108.5t-76.5 31.5q-31 0 -49 -18.5t-18 -46.5q0 -30 16 -49t55 -36q14 -6 46 -17.5t48 -18.5q57 -25 80.5 -55.5t23.5 -78.5z" />
    <glyph glyph-name="t.sc" horiz-adv-x="555" 
d="M533 309l-18 -4l-77 103q-40 55 -80 58l-14 1v-429l71 -22v-16h-277v16l71 22v429l-13 -1q-22 -1 -39 -14t-40 -44l-77 -103l-18 4l20 189h471z" />
    <glyph glyph-name="u.sc" 
d="M476 450l-61 31v16h164v-16l-62 -31v-274q0 -92 -56.5 -141.5t-148.5 -49.5q-106 0 -164 49.5t-58 151.5v273l-68 22v16h271v-16l-68 -22v-286q0 -134 127 -134q59 0 91.5 37.5t32.5 106.5v267z" />
    <glyph glyph-name="v.sc" horiz-adv-x="560" 
d="M501 448l-197 -455h-42l-198 464l-63 24v16h271v-16l-63 -22l124 -310l112 296l-64 35v17h185v-17z" />
    <glyph glyph-name="w.sc" horiz-adv-x="792" 
d="M383 386l-25 71l-48 24v16h244v-16l-59 -22l95 -294h2l82 280l-65 35v17h185v-17l-61 -32l-163 -455h-46l-121 338h-2l-132 -338h-44l-157 464l-63 24v16h261v-16l-55 -22l84 -294h2z" />
    <glyph glyph-name="x.sc" horiz-adv-x="569" 
d="M315 308l99 150l-56 23v16h194v-16l-71 -23l-140 -180l165 -242l58 -20v-16h-269v16l59 18l-99 163l-105 -158l56 -23v-16h-192v16l69 23l146 184l-157 238l-58 20v16h268v-16l-58 -17z" />
    <glyph glyph-name="y.sc" horiz-adv-x="536" 
d="M479 452l-135 -229v-179l71 -28v-16h-276v16l70 28v156l-143 250l-61 31v16h270v-16l-61 -26l107 -200l96 195l-59 31v16h184v-16z" />
    <glyph glyph-name="z.sc" horiz-adv-x="523" 
d="M487 191l-12 -191h-452l-4 9l316 450l-104 -1q-33 0 -54 -13t-54 -53l-59 -73l-13 3l14 175h430l4 -9l-314 -451l128 2q33 1 52.5 15t43.5 48l65 92z" />
    <glyph glyph-name="aacute.sc" horiz-adv-x="537" 
d="M289 182l-68 182h-2l-64 -182h134zM143 147l-36 -102l61 -30v-15h-183v15l66 33l188 456h63l182 -465l58 -24v-15h-258v13l59 24l-41 110h-159zM375 760q21 -13 23.5 -38t-15.5 -48q-30 -40 -135 -123l-13 9q26 118 58 173q14 24 37.5 32t44.5 -5z" />
    <glyph glyph-name="abreve.sc" horiz-adv-x="537" 
d="M289 182l-68 182h-2l-64 -182h134zM143 147l-36 -102l61 -30v-15h-183v15l66 33l188 456h63l182 -465l58 -24v-15h-258v13l59 24l-41 110h-159zM271 664q43 0 78 19.5t50 51.5l22 -6q-9 -72 -47.5 -114.5t-102.5 -42.5t-102.5 43t-44.5 114l22 6q13 -32 47.5 -51.5
t77.5 -19.5z" />
    <glyph glyph-name="acircumflex.sc" horiz-adv-x="537" 
d="M289 182l-68 182h-2l-64 -182h134zM143 147l-36 -102l61 -30v-15h-183v15l66 33l188 456h63l182 -465l58 -24v-15h-258v13l59 24l-41 110h-159zM270 628l-128 -74l-15 13l136 183h21l129 -183l-15 -13z" />
    <glyph glyph-name="adieresis.sc" horiz-adv-x="537" 
d="M289 182l-68 182h-2l-64 -182h134zM143 147l-36 -102l61 -30v-15h-183v15l66 33l188 456h63l182 -465l58 -24v-15h-258v13l59 24l-41 110h-159zM363 575q-30 0 -49.5 20.5t-19.5 50.5q0 31 22.5 54.5t54.5 23.5q30 0 49.5 -20t19.5 -51t-22.5 -54.5t-54.5 -23.5zM172 575
q-30 0 -49.5 20.5t-19.5 50.5q0 31 22 54.5t54 23.5q31 0 50 -20t19 -51t-22 -54.5t-54 -23.5z" />
    <glyph glyph-name="ae.sc" horiz-adv-x="794" 
d="M758 166l-15 -166h-467v16l68 22v142h-159l-91 -138l60 -27v-15h-182v15l61 30l294 410l-75 27v15h479l11 -171l-17 -5l-61 83q-22 30 -44.5 44t-60.5 15l-80 3v-198h38q31 0 48 13t30 49l9 24h19v-211h-19l-10 24q-15 36 -31 48.5t-46 12.5h-38v-196l100 5q60 3 98 52
l64 82zM344 215v203h-2l-134 -203h136z" />
    <glyph glyph-name="aeacute.sc" horiz-adv-x="794" 
d="M758 166l-15 -166h-467v16l68 22v142h-159l-91 -138l60 -27v-15h-182v15l61 30l294 410l-75 27v15h479l11 -171l-17 -5l-61 83q-22 30 -44.5 44t-60.5 15l-80 3v-198h38q31 0 48 13t30 49l9 24h19v-211h-19l-10 24q-15 36 -31 48.5t-46 12.5h-38v-196l100 5q60 3 98 52
l64 82zM344 215v203h-2l-134 -203h136zM558 753q21 -13 23.5 -38t-15.5 -48q-30 -40 -135 -123l-13 9q26 118 58 173q14 24 37.5 32t44.5 -5z" />
    <glyph glyph-name="agrave.sc" horiz-adv-x="537" 
d="M289 182l-68 182h-2l-64 -182h134zM143 147l-36 -102l61 -30v-15h-183v15l66 33l188 456h63l182 -465l58 -24v-15h-258v13l59 24l-41 110h-159zM322 560l-13 -9q-105 83 -135 123q-18 23 -15 47.5t24 38.5q20 13 44.5 5t37.5 -32q29 -53 57 -173z" />
    <glyph glyph-name="amacron.sc" horiz-adv-x="537" 
d="M289 182l-68 182h-2l-64 -182h134zM143 147l-36 -102l61 -30v-15h-183v15l66 33l188 456h63l182 -465l58 -24v-15h-258v13l59 24l-41 110h-159zM409 653v-67h-276v67h276z" />
    <glyph glyph-name="aogonek.sc" horiz-adv-x="537" 
d="M143 147l-36 -102l61 -30v-15h-183v15l66 33l188 456h63l182 -465l58 -24v-15h-43q-70 -63 -70 -131q0 -30 14 -49t40 -19q30 0 43 15l11 -8q-30 -61 -95 -61q-45 0 -72 27.5t-27 67.5t31 82.5t88 75.5h-178v13l59 24l-41 110h-159zM289 182l-68 182h-2l-64 -182h134z
" />
    <glyph glyph-name="aring.sc" horiz-adv-x="537" 
d="M289 182l-68 182h-2l-64 -182h134zM306 583q0 69 -37 69q-35 0 -35 -71q0 -69 37 -69q20 0 27.5 17.5t7.5 53.5zM233 490q-31 9 -48 34.5t-17 57.5q0 38 28.5 67t76.5 29q47 0 73 -27t26 -68q0 -30 -17.5 -55.5t-47.5 -36.5l177 -452l58 -24v-15h-258v13l59 24l-41 110
h-159l-36 -102l61 -30v-15h-183v15l66 33z" />
    <glyph glyph-name="aringacute.sc" horiz-adv-x="537" 
d="M289 182l-68 182h-2l-64 -182h134zM306 583q0 69 -37 69q-35 0 -35 -71q0 -69 37 -69q20 0 27.5 17.5t7.5 53.5zM233 490q-31 9 -48 34.5t-17 57.5q0 38 28.5 67t76.5 29q47 0 73 -27t26 -68q0 -30 -17.5 -55.5t-47.5 -36.5l177 -452l58 -24v-15h-258v13l59 24l-41 110
h-159l-36 -102l61 -30v-15h-183v15l66 33zM379 911q21 -13 23.5 -38t-15.5 -48q-30 -40 -135 -123l-13 9q26 118 58 173q14 24 37.5 32t44.5 -5z" />
    <glyph glyph-name="atilde.sc" horiz-adv-x="537" 
d="M289 182l-68 182h-2l-64 -182h134zM143 147l-36 -102l61 -30v-15h-183v15l66 33l188 456h63l182 -465l58 -24v-15h-258v13l59 24l-41 110h-159zM121 571q10 67 32.5 97.5t67.5 30.5q30 0 75.5 -20t66.5 -20q34 0 53 47l22 -6q-5 -69 -26 -100t-67 -31q-31 0 -79.5 21.5
t-69.5 21.5q-34 0 -53 -47z" />
    <glyph glyph-name="cacute.sc" horiz-adv-x="548" 
d="M508 167l-19 -153q-63 -29 -149 -29q-61 0 -112.5 12.5t-96 40.5t-70 80t-25.5 124q0 114 80 192t204 78q69 0 124 -29l28 30h12l15 -198l-21 -2q-46 84 -86.5 124t-83.5 40q-54 0 -90 -55t-36 -165q0 -120 47.5 -177.5t125.5 -57.5q17 0 31 4l107 145zM407 760
q21 -13 23.5 -38t-15.5 -48q-30 -40 -135 -123l-13 9q26 118 58 173q14 24 37.5 32t44.5 -5z" />
    <glyph glyph-name="ccaron.sc" horiz-adv-x="548" 
d="M508 167l-19 -153q-63 -29 -149 -29q-61 0 -112.5 12.5t-96 40.5t-70 80t-25.5 124q0 114 80 192t204 78q69 0 124 -29l28 30h12l15 -198l-21 -2q-46 84 -86.5 124t-83.5 40q-54 0 -90 -55t-36 -165q0 -120 47.5 -177.5t125.5 -57.5q17 0 31 4l107 145zM302 678l128 74
l15 -12l-136 -183h-21l-129 183l15 12z" />
    <glyph glyph-name="ccedilla.sc" horiz-adv-x="548" 
d="M315 -14h-4q-121 6 -198 66.5t-77 189.5q0 114 80 192t204 78q69 0 124 -29l28 30h12l15 -198l-21 -2q-46 84 -86.5 124t-83.5 40q-54 0 -90 -55t-36 -165q0 -119 46.5 -177t121.5 -58q18 0 40 5l103 144l15 -4l-19 -153q-57 -26 -133 -29l-61 -53q80 -19 80 -94
q0 -43 -34 -73t-86 -30q-37 0 -62 18t-25 42q0 17 10.5 28.5t26.5 11.5q17 0 26.5 -11t9.5 -28t-14 -33q11 -3 24 -3q21 0 35 16t14 42q0 27 -16 43t-39 16q-20 0 -32 -4l-12 12z" />
    <glyph glyph-name="cdotaccent.sc" horiz-adv-x="548" 
d="M508 167l-19 -153q-63 -29 -149 -29q-61 0 -112.5 12.5t-96 40.5t-70 80t-25.5 124q0 114 80 192t204 78q69 0 124 -29l28 30h12l15 -198l-21 -2q-46 84 -86.5 124t-83.5 40q-54 0 -90 -55t-36 -165q0 -120 47.5 -177.5t125.5 -57.5q17 0 31 4l107 145zM377 653
q0 -31 -22 -54.5t-54 -23.5q-30 0 -49.5 20.5t-19.5 50.5q0 31 22 54.5t54 23.5q31 0 50 -20t19 -51z" />
    <glyph glyph-name="dcaron.sc" 
d="M94 459l-68 22v16h253q138 0 213 -66.5t75 -179.5q0 -114 -78 -182.5t-214 -68.5h-249v16l68 22v421zM420 249q0 105 -40.5 157t-109.5 57l-41 3v-434l56 3q135 7 135 214zM296 671l128 74l15 -12l-136 -183h-21l-129 183l15 12z" />
    <glyph glyph-name="dcroat.sc" 
d="M229 278h97v-45h-97v-201l56 3q135 7 135 214q0 105 -40.5 157t-109.5 57l-41 3v-188zM94 233h-68v45h68v181l-68 22v16h253q138 0 213 -66.5t75 -179.5q0 -114 -78 -182.5t-214 -68.5h-249v16l68 22v195z" />
    <glyph glyph-name="eacute.sc" horiz-adv-x="544" 
d="M481 497l11 -171l-17 -5l-61 83q-22 30 -44.5 44t-60.5 15l-80 3v-198h38q31 0 48 13t30 49l9 24h19v-211h-19l-10 24q-15 36 -31 48.5t-46 12.5h-38v-196l100 5q60 3 98 52l64 82l17 -5l-15 -166h-467v16l68 22v421l-68 22v16h455zM368 753q21 -13 23.5 -38t-15.5 -48
q-30 -40 -135 -123l-13 9q26 118 58 173q14 24 37.5 32t44.5 -5z" />
    <glyph glyph-name="ebreve.sc" horiz-adv-x="544" 
d="M481 497l11 -171l-17 -5l-61 83q-22 30 -44.5 44t-60.5 15l-80 3v-198h38q31 0 48 13t30 49l9 24h19v-211h-19l-10 24q-15 36 -31 48.5t-46 12.5h-38v-196l100 5q60 3 98 52l64 82l17 -5l-15 -166h-467v16l68 22v421l-68 22v16h455zM264 657q43 0 78 19.5t50 51.5l22 -6
q-9 -72 -47.5 -114.5t-102.5 -42.5t-102.5 43t-44.5 114l22 6q13 -32 47.5 -51.5t77.5 -19.5z" />
    <glyph glyph-name="ecaron.sc" horiz-adv-x="544" 
d="M481 497l11 -171l-17 -5l-61 83q-22 30 -44.5 44t-60.5 15l-80 3v-198h38q31 0 48 13t30 49l9 24h19v-211h-19l-10 24q-15 36 -31 48.5t-46 12.5h-38v-196l100 5q60 3 98 52l64 82l17 -5l-15 -166h-467v16l68 22v421l-68 22v16h455zM263 671l128 74l15 -12l-136 -183h-21
l-129 183l15 12z" />
    <glyph glyph-name="ecircumflex.sc" horiz-adv-x="544" 
d="M481 497l11 -171l-17 -5l-61 83q-22 30 -44.5 44t-60.5 15l-80 3v-198h38q31 0 48 13t30 49l9 24h19v-211h-19l-10 24q-15 36 -31 48.5t-46 12.5h-38v-196l100 5q60 3 98 52l64 82l17 -5l-15 -166h-467v16l68 22v421l-68 22v16h455zM263 621l-128 -74l-15 13l136 183h21
l129 -183l-15 -13z" />
    <glyph glyph-name="edieresis.sc" horiz-adv-x="544" 
d="M481 497l11 -171l-17 -5l-61 83q-22 30 -44.5 44t-60.5 15l-80 3v-198h38q31 0 48 13t30 49l9 24h19v-211h-19l-10 24q-15 36 -31 48.5t-46 12.5h-38v-196l100 5q60 3 98 52l64 82l17 -5l-15 -166h-467v16l68 22v421l-68 22v16h455zM356 568q-30 0 -49.5 20.5t-19.5 50.5
q0 31 22.5 54.5t54.5 23.5q30 0 49.5 -20t19.5 -51t-22.5 -54.5t-54.5 -23.5zM165 568q-30 0 -49.5 20.5t-19.5 50.5q0 31 22 54.5t54 23.5q31 0 50 -20t19 -51t-22 -54.5t-54 -23.5z" />
    <glyph glyph-name="edotaccent.sc" horiz-adv-x="544" 
d="M481 497l11 -171l-17 -5l-61 83q-22 30 -44.5 44t-60.5 15l-80 3v-198h38q31 0 48 13t30 49l9 24h19v-211h-19l-10 24q-15 36 -31 48.5t-46 12.5h-38v-196l100 5q60 3 98 52l64 82l17 -5l-15 -166h-467v16l68 22v421l-68 22v16h455zM338 646q0 -31 -22 -54.5t-54 -23.5
q-30 0 -49.5 20.5t-19.5 50.5q0 31 22 54.5t54 23.5q31 0 50 -20t19 -51z" />
    <glyph glyph-name="egrave.sc" horiz-adv-x="544" 
d="M481 497l11 -171l-17 -5l-61 83q-22 30 -44.5 44t-60.5 15l-80 3v-198h38q31 0 48 13t30 49l9 24h19v-211h-19l-10 24q-15 36 -31 48.5t-46 12.5h-38v-196l100 5q60 3 98 52l64 82l17 -5l-15 -166h-467v16l68 22v421l-68 22v16h455zM315 553l-13 -9q-105 83 -135 123
q-18 23 -15 47.5t24 38.5q20 13 44.5 5t37.5 -32q29 -53 57 -173z" />
    <glyph glyph-name="emacron.sc" horiz-adv-x="544" 
d="M481 497l11 -171l-17 -5l-61 83q-22 30 -44.5 44t-60.5 15l-80 3v-198h38q31 0 48 13t30 49l9 24h19v-211h-19l-10 24q-15 36 -31 48.5t-46 12.5h-38v-196l100 5q60 3 98 52l64 82l17 -5l-15 -166h-467v16l68 22v421l-68 22v16h455zM402 646v-67h-276v67h276z" />
    <glyph glyph-name="eogonek.sc" horiz-adv-x="544" 
d="M481 497l11 -171l-17 -5l-61 83q-22 30 -44.5 44t-60.5 15l-80 3v-198h38q31 0 48 13t30 49l9 24h19v-211h-19l-10 24q-15 36 -31 48.5t-46 12.5h-38v-196l100 5q60 3 98 52l64 82l17 -5l-15 -166h-48q-70 -63 -70 -131q0 -30 14 -49t40 -19q30 0 43 15l11 -8
q-30 -61 -95 -61q-45 0 -72 27.5t-27 67.5t31 82.5t88 75.5h-382v16l68 22v421l-68 22v16h455z" />
    <glyph glyph-name="eth.sc" 
d="M229 278h97v-45h-97v-201l56 3q135 7 135 214q0 105 -40.5 157t-109.5 57l-41 3v-188zM94 233h-68v45h68v181l-68 22v16h253q138 0 213 -66.5t75 -179.5q0 -114 -78 -182.5t-214 -68.5h-249v16l68 22v195z" />
    <glyph glyph-name="gbreve.sc" horiz-adv-x="574" 
d="M502 321l-21 -2q-89 158 -173 158q-55 0 -90.5 -52.5t-35.5 -165.5q0 -121 45.5 -174.5t117.5 -53.5q12 0 38 4v160l-66 23v15h238v-15l-46 -23v-202l-14 -4l-75 40q-63 -44 -141 -44q-99 0 -171 68t-72 186q0 119 79.5 196t204.5 77q72 0 127 -29l29 30h16zM288 664
q43 0 78 19.5t50 51.5l22 -6q-9 -72 -47.5 -114.5t-102.5 -42.5t-102.5 43t-44.5 114l22 6q13 -32 47.5 -51.5t77.5 -19.5z" />
    <glyph glyph-name="gcommaaccent.sc" horiz-adv-x="574" 
d="M502 321l-21 -2q-89 158 -173 158q-55 0 -90.5 -52.5t-35.5 -165.5q0 -121 45.5 -174.5t117.5 -53.5q12 0 38 4v160l-66 23v15h238v-15l-46 -23v-202l-14 -4l-75 40q-63 -44 -141 -44q-99 0 -171 68t-72 186q0 119 79.5 196t204.5 77q72 0 127 -29l29 30h16zM357 -160
q0 -47 -34 -88t-94 -66l-9 12q80 59 88 115l-1 1l-11 -3q-16 -4 -24 -4q-22 0 -36.5 16t-14.5 40q0 27 18 46t45 19q33 0 53 -24.5t20 -63.5z" />
    <glyph glyph-name="gdotaccent.sc" horiz-adv-x="574" 
d="M502 321l-21 -2q-89 158 -173 158q-55 0 -90.5 -52.5t-35.5 -165.5q0 -121 45.5 -174.5t117.5 -53.5q12 0 38 4v160l-66 23v15h238v-15l-46 -23v-202l-14 -4l-75 40q-63 -44 -141 -44q-99 0 -171 68t-72 186q0 119 79.5 196t204.5 77q72 0 127 -29l29 30h16zM362 653
q0 -31 -22 -54.5t-54 -23.5q-30 0 -49.5 20.5t-19.5 50.5q0 31 22 54.5t54 23.5q31 0 50 -20t19 -51z" />
    <glyph glyph-name="hbar.sc" horiz-adv-x="653" 
d="M609 391v-38h-50v-315l68 -22v-16h-266v16l63 21v201h-195v-201l63 -21v-16h-266v16l68 22v315h-51v38h51v68l-68 22v16h266v-16l-63 -21v-69h195v69l-63 21v16h266v-16l-68 -22v-68h50zM424 277v76h-195v-76h195z" />
    <glyph glyph-name="iacute.sc" horiz-adv-x="339" 
d="M237 38l68 -22v-16h-271v16l68 22v421l-68 22v16h271v-16l-68 -22v-421zM273 753q21 -13 23.5 -38t-15.5 -48q-30 -40 -135 -123l-13 9q26 118 58 173q14 24 37.5 32t44.5 -5z" />
    <glyph glyph-name="ibreve.sc" horiz-adv-x="339" 
d="M237 38l68 -22v-16h-271v16l68 22v421l-68 22v16h271v-16l-68 -22v-421zM169 657q43 0 78 19.5t50 51.5l22 -6q-9 -72 -47.5 -114.5t-102.5 -42.5t-102.5 43t-44.5 114l22 6q13 -32 47.5 -51.5t77.5 -19.5z" />
    <glyph glyph-name="icircumflex.sc" horiz-adv-x="339" 
d="M237 38l68 -22v-16h-271v16l68 22v421l-68 22v16h271v-16l-68 -22v-421zM168 621l-128 -74l-15 13l136 183h21l129 -183l-15 -13z" />
    <glyph glyph-name="idieresis.sc" horiz-adv-x="339" 
d="M237 38l68 -22v-16h-271v16l68 22v421l-68 22v16h271v-16l-68 -22v-421zM261 568q-30 0 -49.5 20.5t-19.5 50.5q0 31 22.5 54.5t54.5 23.5q30 0 49.5 -20t19.5 -51t-22.5 -54.5t-54.5 -23.5zM70 568q-30 0 -49.5 20.5t-19.5 50.5q0 31 22 54.5t54 23.5q31 0 50 -20
t19 -51t-22 -54.5t-54 -23.5z" />
    <glyph glyph-name="idotaccent.sc" horiz-adv-x="339" 
d="M237 38l68 -22v-16h-271v16l68 22v421l-68 22v16h271v-16l-68 -22v-421zM243 646q0 -31 -22 -54.5t-54 -23.5q-30 0 -49.5 20.5t-19.5 50.5q0 31 22 54.5t54 23.5q31 0 50 -20t19 -51z" />
    <glyph glyph-name="dotlessi.sc" horiz-adv-x="339" 
d="M237 38l68 -22v-16h-271v16l68 22v421l-68 22v16h271v-16l-68 -22v-421z" />
    <glyph glyph-name="igrave.sc" horiz-adv-x="339" 
d="M237 38l68 -22v-16h-271v16l68 22v421l-68 22v16h271v-16l-68 -22v-421zM220 553l-13 -9q-105 83 -135 123q-18 23 -15 47.5t24 38.5q20 13 44.5 5t37.5 -32q29 -53 57 -173z" />
    <glyph glyph-name="imacron.sc" horiz-adv-x="339" 
d="M237 38l68 -22v-16h-271v16l68 22v421l-68 22v16h271v-16l-68 -22v-421zM307 646v-67h-276v67h276z" />
    <glyph glyph-name="iogonek.sc" horiz-adv-x="339" 
d="M237 38l68 -22v-16h-81q-70 -63 -70 -131q0 -30 14 -49t40 -19q30 0 43 15l11 -8q-30 -61 -95 -61q-45 0 -72 27.5t-27 67.5t31 82.5t88 75.5h-153v16l68 22v421l-68 22v16h271v-16l-68 -22v-421z" />
    <glyph glyph-name="kcommaaccent.sc" horiz-adv-x="599" 
d="M358 307l189 -264l53 -27v-16h-254v16l49 19l-127 193h-39v-191l61 -21v-16h-264v16l68 22v421l-68 22v16h264v-16l-61 -21v-193h47l142 177l-65 37v16h222v-22l-76 -26zM377 -160q0 -47 -34 -88t-94 -66l-9 12q80 59 88 115l-1 1l-11 -3q-16 -4 -24 -4q-22 0 -36.5 16
t-14.5 40q0 27 18 46t45 19q33 0 53 -24.5t20 -63.5z" />
    <glyph glyph-name="lacute.sc" horiz-adv-x="504" 
d="M480 186l-20 -186h-434v16l68 22v421l-68 22v16h278v-16l-75 -21v-428l62 2q60 3 99 54l75 100zM275 753q21 -13 23.5 -38t-15.5 -48q-30 -40 -135 -123l-13 9q26 118 58 173q14 24 37.5 32t44.5 -5z" />
    <glyph glyph-name="lcaron.sc" horiz-adv-x="504" 
d="M480 186l-20 -186h-434v16l68 22v421l-68 22v16h278v-16l-75 -21v-428l62 2q60 3 99 54l75 100zM349 261l-3 34q-3 39 -3 78q0 38 4 62.5t18.5 43t40.5 18.5q22 0 35.5 -15.5t13.5 -39.5q0 -43 -91 -185z" />
    <glyph glyph-name="lcommaaccent.sc" horiz-adv-x="504" 
d="M480 186l-20 -186h-434v16l68 22v421l-68 22v16h278v-16l-75 -21v-428l62 2q60 3 99 54l75 100zM322 -160q0 -47 -34 -88t-94 -66l-9 12q80 59 88 115l-1 1l-11 -3q-16 -4 -24 -4q-22 0 -36.5 16t-14.5 40q0 27 18 46t45 19q33 0 53 -24.5t20 -63.5z" />
    <glyph glyph-name="ldot.sc" horiz-adv-x="500" 
d="M479 177l-19 -177h-434v16l68 22v421l-68 22v16h278v-16l-75 -21v-428l62 2q61 3 99 50l74 95zM481 311q0 -30 -20.5 -50.5t-49.5 -20.5t-50 20.5t-21 50.5q0 29 21 49.5t50 20.5t49.5 -20.5t20.5 -49.5z" />
    <glyph glyph-name="lslash.sc" horiz-adv-x="504" 
d="M94 201l-54 -14l-12 44l66 17v211l-68 22v16h278v-16l-75 -21v-175l97 27l13 -44l-110 -30v-206l62 2q60 3 99 54l75 100l15 -2l-20 -186h-434v16l68 22v163z" />
    <glyph glyph-name="nacute.sc" horiz-adv-x="620" 
d="M100 49v402l-66 30v16h177l67 -82l200 -241h6v274l-70 33v16h178v-16l-70 -33v-454h-62l-74 90l-242 283h-6v-318l69 -34v-15h-177v15zM413 753q21 -13 23.5 -38t-15.5 -48q-30 -40 -135 -123l-13 9q26 118 58 173q14 24 37.5 32t44.5 -5z" />
    <glyph glyph-name="ncaron.sc" horiz-adv-x="620" 
d="M100 49v402l-66 30v16h177l67 -82l200 -241h6v274l-70 33v16h178v-16l-70 -33v-454h-62l-74 90l-242 283h-6v-318l69 -34v-15h-177v15zM308 671l128 74l15 -12l-136 -183h-21l-129 183l15 12z" />
    <glyph glyph-name="ncommaaccent.sc" horiz-adv-x="620" 
d="M100 49v402l-66 30v16h177l67 -82l200 -241h6v274l-70 33v16h178v-16l-70 -33v-454h-62l-74 90l-242 283h-6v-318l69 -34v-15h-177v15zM368 -146q0 -47 -34 -88t-94 -66l-9 12q80 59 88 115l-1 1l-11 -3q-16 -4 -24 -4q-22 0 -36.5 16t-14.5 40q0 27 18 46t45 19
q33 0 53 -24.5t20 -63.5z" />
    <glyph glyph-name="ntilde.sc" horiz-adv-x="620" 
d="M100 49v402l-66 30v16h177l67 -82l200 -241h6v274l-70 33v16h178v-16l-70 -33v-454h-62l-74 90l-242 283h-6v-318l69 -34v-15h-177v15zM159 564q10 67 32.5 97.5t67.5 30.5q30 0 75.5 -20t66.5 -20q34 0 53 47l22 -6q-5 -69 -26 -100t-67 -31q-31 0 -79.5 21.5
t-69.5 21.5q-34 0 -53 -47z" />
    <glyph glyph-name="oacute.sc" 
d="M562 249q0 -113 -69 -188.5t-195 -75.5q-131 0 -196.5 74.5t-65.5 189.5q0 112 69.5 187.5t196.5 75.5q130 0 195 -74.5t65 -188.5zM416 249q0 115 -33 174t-90 59q-111 0 -111 -233t123 -233q52 0 81.5 59t29.5 174zM405 760q21 -13 23.5 -38t-15.5 -48
q-30 -40 -135 -123l-13 9q26 118 58 173q14 24 37.5 32t44.5 -5z" />
    <glyph glyph-name="obreve.sc" 
d="M562 249q0 -113 -69 -188.5t-195 -75.5q-131 0 -196.5 74.5t-65.5 189.5q0 112 69.5 187.5t196.5 75.5q130 0 195 -74.5t65 -188.5zM416 249q0 115 -33 174t-90 59q-111 0 -111 -233t123 -233q52 0 81.5 59t29.5 174zM301 664q43 0 78 19.5t50 51.5l22 -6
q-9 -72 -47.5 -114.5t-102.5 -42.5t-102.5 43t-44.5 114l22 6q13 -32 47.5 -51.5t77.5 -19.5z" />
    <glyph glyph-name="ocircumflex.sc" 
d="M562 249q0 -113 -69 -188.5t-195 -75.5q-131 0 -196.5 74.5t-65.5 189.5q0 112 69.5 187.5t196.5 75.5q130 0 195 -74.5t65 -188.5zM416 249q0 115 -33 174t-90 59q-111 0 -111 -233t123 -233q52 0 81.5 59t29.5 174zM300 628l-128 -74l-15 13l136 183h21l129 -183
l-15 -13z" />
    <glyph glyph-name="odieresis.sc" 
d="M562 249q0 -113 -69 -188.5t-195 -75.5q-131 0 -196.5 74.5t-65.5 189.5q0 112 69.5 187.5t196.5 75.5q130 0 195 -74.5t65 -188.5zM416 249q0 115 -33 174t-90 59q-111 0 -111 -233t123 -233q52 0 81.5 59t29.5 174zM393 575q-30 0 -49.5 20.5t-19.5 50.5
q0 31 22.5 54.5t54.5 23.5q30 0 49.5 -20t19.5 -51t-22.5 -54.5t-54.5 -23.5zM202 575q-30 0 -49.5 20.5t-19.5 50.5q0 31 22 54.5t54 23.5q31 0 50 -20t19 -51t-22 -54.5t-54 -23.5z" />
    <glyph glyph-name="oe.sc" horiz-adv-x="819" 
d="M783 166l-15 -166h-449q-138 0 -213 66.5t-75 179.5q0 114 78 182.5t214 68.5h433l11 -171l-17 -5l-61 83q-22 30 -44.5 44t-60.5 15l-80 3v-198h38q31 0 48 13t30 49l9 24h19v-211h-19l-10 24q-15 36 -31 48.5t-46 12.5h-38v-196l100 5q60 3 98 52l64 82zM369 31v434
l-56 -3q-135 -7 -135 -214q0 -105 40.5 -157t109.5 -57z" />
    <glyph glyph-name="ograve.sc" 
d="M562 249q0 -113 -69 -188.5t-195 -75.5q-131 0 -196.5 74.5t-65.5 189.5q0 112 69.5 187.5t196.5 75.5q130 0 195 -74.5t65 -188.5zM416 249q0 115 -33 174t-90 59q-111 0 -111 -233t123 -233q52 0 81.5 59t29.5 174zM352 560l-13 -9q-105 83 -135 123q-18 23 -15 47.5
t24 38.5q20 13 44.5 5t37.5 -32q29 -53 57 -173z" />
    <glyph glyph-name="ohungarumlaut.sc" 
d="M562 249q0 -113 -69 -188.5t-195 -75.5q-131 0 -196.5 74.5t-65.5 189.5q0 112 69.5 187.5t196.5 75.5q130 0 195 -74.5t65 -188.5zM416 249q0 115 -33 174t-90 59q-111 0 -111 -233t123 -233q52 0 81.5 59t29.5 174zM491 675q-38 -49 -135 -120l-13 9q28 106 66 169
q14 23 37 31t43 -5q19 -13 19.5 -37t-17.5 -47zM339 678q-42 -54 -132 -124l-14 8q27 111 61 171q14 24 36.5 32.5t42.5 -3.5q20 -13 22 -37t-16 -47z" />
    <glyph glyph-name="omacron.sc" 
d="M562 249q0 -113 -69 -188.5t-195 -75.5q-131 0 -196.5 74.5t-65.5 189.5q0 112 69.5 187.5t196.5 75.5q130 0 195 -74.5t65 -188.5zM416 249q0 115 -33 174t-90 59q-111 0 -111 -233t123 -233q52 0 81.5 59t29.5 174zM439 653v-67h-276v67h276z" />
    <glyph glyph-name="oslash.sc" 
d="M105 55q-69 72 -69 194q0 112 69.5 187.5t196.5 75.5q101 0 164 -47l54 62l28 -26l-53 -61q67 -70 67 -191q0 -113 -69 -188.5t-195 -75.5q-99 0 -164 46l-54 -61l-28 25zM189 150l209 238q-31 94 -105 94q-111 0 -111 -233q0 -60 7 -99zM409 343l-210 -238
q28 -89 106 -89q52 0 81.5 59t29.5 174q0 56 -7 94z" />
    <glyph glyph-name="oslashacute.sc" 
d="M105 55q-69 72 -69 194q0 112 69.5 187.5t196.5 75.5q101 0 164 -47l54 62l28 -26l-53 -61q67 -70 67 -191q0 -113 -69 -188.5t-195 -75.5q-99 0 -164 46l-54 -61l-28 25zM189 150l209 238q-31 94 -105 94q-111 0 -111 -233q0 -60 7 -99zM409 343l-210 -238
q28 -89 106 -89q52 0 81.5 59t29.5 174q0 56 -7 94zM411 760q21 -13 23.5 -38t-15.5 -48q-30 -40 -135 -123l-13 9q26 118 58 173q14 24 37.5 32t44.5 -5z" />
    <glyph glyph-name="otilde.sc" 
d="M562 249q0 -113 -69 -188.5t-195 -75.5q-131 0 -196.5 74.5t-65.5 189.5q0 112 69.5 187.5t196.5 75.5q130 0 195 -74.5t65 -188.5zM416 249q0 115 -33 174t-90 59q-111 0 -111 -233t123 -233q52 0 81.5 59t29.5 174zM151 571q10 67 32.5 97.5t67.5 30.5q30 0 75.5 -20
t66.5 -20q34 0 53 47l22 -6q-5 -69 -26 -100t-67 -31q-31 0 -79.5 21.5t-69.5 21.5q-34 0 -53 -47z" />
    <glyph glyph-name="racute.sc" horiz-adv-x="565" 
d="M508 375q0 -110 -156 -132v-5q56 -7 84.5 -29t42.5 -62q25 -72 45 -98q16 -21 50 -32v-17h-113q-42 0 -63 18.5t-40 67.5l-30 77q-13 32 -33 44.5t-58 12.5h-8v-182l68 -22v-16h-271v16l68 22v421l-68 22v16h310q87 0 129.5 -33t42.5 -89zM371 358q0 101 -98 106l-44 2
v-216l42 2q45 2 72.5 28.5t27.5 77.5zM379 753q21 -13 23.5 -38t-15.5 -48q-30 -40 -135 -123l-13 9q26 118 58 173q14 24 37.5 32t44.5 -5z" />
    <glyph glyph-name="rcaron.sc" horiz-adv-x="565" 
d="M508 375q0 -110 -156 -132v-5q56 -7 84.5 -29t42.5 -62q25 -72 45 -98q16 -21 50 -32v-17h-113q-42 0 -63 18.5t-40 67.5l-30 77q-13 32 -33 44.5t-58 12.5h-8v-182l68 -22v-16h-271v16l68 22v421l-68 22v16h310q87 0 129.5 -33t42.5 -89zM371 358q0 101 -98 106l-44 2
v-216l42 2q45 2 72.5 28.5t27.5 77.5zM274 671l128 74l15 -12l-136 -183h-21l-129 183l15 12z" />
    <glyph glyph-name="rcommaaccent.sc" horiz-adv-x="565" 
d="M508 375q0 -110 -156 -132v-5q56 -7 84.5 -29t42.5 -62q25 -72 45 -98q16 -21 50 -32v-17h-113q-42 0 -63 18.5t-40 67.5l-30 77q-13 32 -33 44.5t-58 12.5h-8v-182l68 -22v-16h-271v16l68 22v421l-68 22v16h310q87 0 129.5 -33t42.5 -89zM371 358q0 101 -98 106l-44 2
v-216l42 2q45 2 72.5 28.5t27.5 77.5zM357 -160q0 -47 -34 -88t-94 -66l-9 12q80 59 88 115l-1 1l-11 -3q-16 -4 -24 -4q-22 0 -36.5 16t-14.5 40q0 27 18 46t45 19q33 0 53 -24.5t20 -63.5z" />
    <glyph glyph-name="sacute.sc" horiz-adv-x="462" 
d="M425 158q0 -77 -54.5 -124.5t-132.5 -47.5q-75 0 -138 26l-31 -29h-19l-10 188l22 2q89 -154 177 -154q40 0 62.5 20t22.5 54t-19.5 52t-72.5 38l-36 12.5t-49 19.5q-52 24 -74 56t-22 79q0 68 52 114.5t120 46.5q62 0 117 -24l31 26h19l14 -173l-21 -2
q-48 77 -83.5 108.5t-76.5 31.5q-31 0 -49 -18.5t-18 -46.5q0 -30 16 -49t55 -36q14 -6 46 -17.5t48 -18.5q57 -25 80.5 -55.5t23.5 -78.5zM335 760q21 -13 23.5 -38t-15.5 -48q-30 -40 -135 -123l-13 9q26 118 58 173q14 24 37.5 32t44.5 -5z" />
    <glyph glyph-name="scaron.sc" horiz-adv-x="462" 
d="M425 158q0 -77 -54.5 -124.5t-132.5 -47.5q-75 0 -138 26l-31 -29h-19l-10 188l22 2q89 -154 177 -154q40 0 62.5 20t22.5 54t-19.5 52t-72.5 38l-36 12.5t-49 19.5q-52 24 -74 56t-22 79q0 68 52 114.5t120 46.5q62 0 117 -24l31 26h19l14 -173l-21 -2
q-48 77 -83.5 108.5t-76.5 31.5q-31 0 -49 -18.5t-18 -46.5q0 -30 16 -49t55 -36q14 -6 46 -17.5t48 -18.5q57 -25 80.5 -55.5t23.5 -78.5zM230 678l128 74l15 -12l-136 -183h-21l-129 183l15 12z" />
    <glyph glyph-name="scedilla.sc" horiz-adv-x="462" 
d="M318 -162q0 -43 -34 -73t-86 -30q-37 0 -62 18t-25 42q0 17 10.5 28.5t26.5 11.5q17 0 26.5 -11t9.5 -28t-14 -33q10 -3 24 -3q21 0 35 16t14 42q0 27 -16 43t-39 16q-20 0 -32 -4l-12 12l115 102q-4 0 -11 -0.5t-10 -0.5q-75 0 -138 26l-31 -29h-19l-10 188l22 2
q89 -154 177 -154q40 0 62.5 20t22.5 54t-19.5 52t-72.5 38l-36 12.5t-49 19.5q-52 24 -74 56t-22 79q0 68 52 114.5t120 46.5q62 0 117 -24l31 26h19l14 -173l-21 -2q-48 77 -83.5 108.5t-76.5 31.5q-31 0 -49 -18.5t-18 -46.5q0 -30 16 -49t55 -36q14 -6 46 -17.5
t48 -18.5q57 -25 80.5 -55.5t23.5 -78.5q0 -56 -30 -97t-79 -61l-78 -68q80 -19 80 -94z" />
    <glyph glyph-name="scommaaccent.sc" horiz-adv-x="462" 
d="M425 158q0 -77 -54.5 -124.5t-132.5 -47.5q-75 0 -138 26l-31 -29h-19l-10 188l22 2q89 -154 177 -154q40 0 62.5 20t22.5 54t-19.5 52t-72.5 38l-36 12.5t-49 19.5q-52 24 -74 56t-22 79q0 68 52 114.5t120 46.5q62 0 117 -24l31 26h19l14 -173l-21 -2
q-48 77 -83.5 108.5t-76.5 31.5q-31 0 -49 -18.5t-18 -46.5q0 -30 16 -49t55 -36q14 -6 46 -17.5t48 -18.5q57 -25 80.5 -55.5t23.5 -78.5zM295 -160q0 -47 -34 -88t-94 -66l-9 12q80 59 88 115l-1 1l-11 -3q-16 -4 -24 -4q-22 0 -36.5 16t-14.5 40q0 27 18 46t45 19
q33 0 53 -24.5t20 -63.5z" />
    <glyph glyph-name="tcaron.sc" horiz-adv-x="555" 
d="M533 309l-18 -4l-77 103q-40 55 -80 58l-14 1v-429l71 -22v-16h-277v16l71 22v429l-13 -1q-22 -1 -39 -14t-40 -44l-77 -103l-18 4l20 189h471zM275 671l128 74l15 -12l-136 -183h-21l-129 183l15 12z" />
    <glyph glyph-name="tcommaaccent.sc" horiz-adv-x="555" 
d="M533 309l-18 -4l-77 103q-40 55 -80 58l-14 1v-429l71 -22v-16h-277v16l71 22v429l-13 -1q-22 -1 -39 -14t-40 -44l-77 -103l-18 4l20 189h471zM338 -160q0 -47 -34 -88t-94 -66l-9 12q80 59 88 115l-1 1l-11 -3q-16 -4 -24 -4q-22 0 -36.5 16t-14.5 40q0 27 18 46t45 19
q33 0 53 -24.5t20 -63.5z" />
    <glyph glyph-name="thorn.sc" horiz-adv-x="522" 
d="M498 253q0 -68 -51.5 -109.5t-141.5 -41.5q-38 0 -76 5v-70l83 -21v-16h-286v16l68 22v421l-68 22v16h286v-16l-83 -21v-65q38 5 76 5q90 0 141.5 -40.5t51.5 -106.5zM360 251q0 54 -25.5 83.5t-70.5 31.5l-35 1v-232l35 1q45 2 70.5 31.5t25.5 83.5z" />
    <glyph glyph-name="uacute.sc" 
d="M476 450l-61 31v16h164v-16l-62 -31v-274q0 -92 -56.5 -141.5t-148.5 -49.5q-106 0 -164 49.5t-58 151.5v273l-68 22v16h271v-16l-68 -22v-286q0 -134 127 -134q59 0 91.5 37.5t32.5 106.5v267zM419 753q21 -13 23.5 -38t-15.5 -48q-30 -40 -135 -123l-13 9
q26 118 58 173q14 24 37.5 32t44.5 -5z" />
    <glyph glyph-name="ubreve.sc" 
d="M476 450l-61 31v16h164v-16l-62 -31v-274q0 -92 -56.5 -141.5t-148.5 -49.5q-106 0 -164 49.5t-58 151.5v273l-68 22v16h271v-16l-68 -22v-286q0 -134 127 -134q59 0 91.5 37.5t32.5 106.5v267zM315 657q43 0 78 19.5t50 51.5l22 -6q-9 -72 -47.5 -114.5t-102.5 -42.5
t-102.5 43t-44.5 114l22 6q13 -32 47.5 -51.5t77.5 -19.5z" />
    <glyph glyph-name="ucircumflex.sc" 
d="M476 450l-61 31v16h164v-16l-62 -31v-274q0 -92 -56.5 -141.5t-148.5 -49.5q-106 0 -164 49.5t-58 151.5v273l-68 22v16h271v-16l-68 -22v-286q0 -134 127 -134q59 0 91.5 37.5t32.5 106.5v267zM314 621l-128 -74l-15 13l136 183h21l129 -183l-15 -13z" />
    <glyph glyph-name="udieresis.sc" 
d="M476 450l-61 31v16h164v-16l-62 -31v-274q0 -92 -56.5 -141.5t-148.5 -49.5q-106 0 -164 49.5t-58 151.5v273l-68 22v16h271v-16l-68 -22v-286q0 -134 127 -134q59 0 91.5 37.5t32.5 106.5v267zM407 568q-30 0 -49.5 20.5t-19.5 50.5q0 31 22.5 54.5t54.5 23.5
q30 0 49.5 -20t19.5 -51t-22.5 -54.5t-54.5 -23.5zM216 568q-30 0 -49.5 20.5t-19.5 50.5q0 31 22 54.5t54 23.5q31 0 50 -20t19 -51t-22 -54.5t-54 -23.5z" />
    <glyph glyph-name="ugrave.sc" 
d="M476 450l-61 31v16h164v-16l-62 -31v-274q0 -92 -56.5 -141.5t-148.5 -49.5q-106 0 -164 49.5t-58 151.5v273l-68 22v16h271v-16l-68 -22v-286q0 -134 127 -134q59 0 91.5 37.5t32.5 106.5v267zM366 553l-13 -9q-105 83 -135 123q-18 23 -15 47.5t24 38.5q20 13 44.5 5
t37.5 -32q29 -53 57 -173z" />
    <glyph glyph-name="uhungarumlaut.sc" 
d="M476 450l-61 31v16h164v-16l-62 -31v-274q0 -92 -56.5 -141.5t-148.5 -49.5q-106 0 -164 49.5t-58 151.5v273l-68 22v16h271v-16l-68 -22v-286q0 -134 127 -134q59 0 91.5 37.5t32.5 106.5v267zM505 668q-38 -49 -135 -120l-13 9q28 106 66 169q14 23 37 31t43 -5
q19 -13 19.5 -37t-17.5 -47zM353 671q-42 -54 -132 -124l-14 8q27 111 61 171q14 24 36.5 32.5t42.5 -3.5q20 -13 22 -37t-16 -47z" />
    <glyph glyph-name="umacron.sc" 
d="M476 450l-61 31v16h164v-16l-62 -31v-274q0 -92 -56.5 -141.5t-148.5 -49.5q-106 0 -164 49.5t-58 151.5v273l-68 22v16h271v-16l-68 -22v-286q0 -134 127 -134q59 0 91.5 37.5t32.5 106.5v267zM453 646v-67h-276v67h276z" />
    <glyph glyph-name="uogonek.sc" 
d="M476 450l-61 31v16h164v-16l-62 -31v-274q0 -76 -39 -123t-106 -61q-61 -61 -61 -123q0 -30 14 -49t40 -19q30 0 43 15l11 -8q-30 -61 -95 -61q-45 0 -72 27.5t-27 67.5q0 35 24.5 73t71.5 70h-9q-106 0 -164 49.5t-58 151.5v273l-68 22v16h271v-16l-68 -22v-286
q0 -134 127 -134q59 0 91.5 37.5t32.5 106.5v267z" />
    <glyph glyph-name="uring.sc" 
d="M476 450l-61 31v16h164v-16l-62 -31v-274q0 -92 -56.5 -141.5t-148.5 -49.5q-106 0 -164 49.5t-58 151.5v273l-68 22v16h271v-16l-68 -22v-286q0 -134 127 -134q59 0 91.5 37.5t32.5 106.5v267zM417 638q0 -39 -28 -68.5t-76 -29.5q-47 0 -73.5 28t-26.5 69q0 38 28.5 67
t76.5 29q47 0 73 -27t26 -68zM351 638q0 69 -37 69q-35 0 -35 -71q0 -69 37 -69q20 0 27.5 17.5t7.5 53.5z" />
    <glyph glyph-name="wacute.sc" horiz-adv-x="792" 
d="M383 386l-25 71l-48 24v16h244v-16l-59 -22l95 -294h2l82 280l-65 35v17h185v-17l-61 -32l-163 -455h-46l-121 338h-2l-132 -338h-44l-157 464l-63 24v16h261v-16l-55 -22l84 -294h2zM522 753q21 -13 23.5 -38t-15.5 -48q-30 -40 -135 -123l-13 9q26 118 58 173
q14 24 37.5 32t44.5 -5z" />
    <glyph glyph-name="wcircumflex.sc" horiz-adv-x="792" 
d="M383 386l-25 71l-48 24v16h244v-16l-59 -22l95 -294h2l82 280l-65 35v17h185v-17l-61 -32l-163 -455h-46l-121 338h-2l-132 -338h-44l-157 464l-63 24v16h261v-16l-55 -22l84 -294h2zM417 621l-128 -74l-15 13l136 183h21l129 -183l-15 -13z" />
    <glyph glyph-name="wdieresis.sc" horiz-adv-x="792" 
d="M383 386l-25 71l-48 24v16h244v-16l-59 -22l95 -294h2l82 280l-65 35v17h185v-17l-61 -32l-163 -455h-46l-121 338h-2l-132 -338h-44l-157 464l-63 24v16h261v-16l-55 -22l84 -294h2zM510 568q-30 0 -49.5 20.5t-19.5 50.5q0 31 22.5 54.5t54.5 23.5q30 0 49.5 -20
t19.5 -51t-22.5 -54.5t-54.5 -23.5zM319 568q-30 0 -49.5 20.5t-19.5 50.5q0 31 22 54.5t54 23.5q31 0 50 -20t19 -51t-22 -54.5t-54 -23.5z" />
    <glyph glyph-name="wgrave.sc" horiz-adv-x="792" 
d="M383 386l-25 71l-48 24v16h244v-16l-59 -22l95 -294h2l82 280l-65 35v17h185v-17l-61 -32l-163 -455h-46l-121 338h-2l-132 -338h-44l-157 464l-63 24v16h261v-16l-55 -22l84 -294h2zM469 553l-13 -9q-105 83 -135 123q-18 23 -15 47.5t24 38.5q20 13 44.5 5t37.5 -32
q29 -53 57 -173z" />
    <glyph glyph-name="yacute.sc" horiz-adv-x="536" 
d="M479 452l-135 -229v-179l71 -28v-16h-276v16l70 28v156l-143 250l-61 31v16h270v-16l-61 -26l107 -200l96 195l-59 31v16h184v-16zM387 753q21 -13 23.5 -38t-15.5 -48q-30 -40 -135 -123l-13 9q26 118 58 173q14 24 37.5 32t44.5 -5z" />
    <glyph glyph-name="ycircumflex.sc" horiz-adv-x="536" 
d="M479 452l-135 -229v-179l71 -28v-16h-276v16l70 28v156l-143 250l-61 31v16h270v-16l-61 -26l107 -200l96 195l-59 31v16h184v-16zM282 621l-128 -74l-15 13l136 183h21l129 -183l-15 -13z" />
    <glyph glyph-name="ydieresis.sc" horiz-adv-x="536" 
d="M479 452l-135 -229v-179l71 -28v-16h-276v16l70 28v156l-143 250l-61 31v16h270v-16l-61 -26l107 -200l96 195l-59 31v16h184v-16zM375 568q-30 0 -49.5 20.5t-19.5 50.5q0 31 22.5 54.5t54.5 23.5q30 0 49.5 -20t19.5 -51t-22.5 -54.5t-54.5 -23.5zM184 568
q-30 0 -49.5 20.5t-19.5 50.5q0 31 22 54.5t54 23.5q31 0 50 -20t19 -51t-22 -54.5t-54 -23.5z" />
    <glyph glyph-name="ygrave.sc" horiz-adv-x="536" 
d="M479 452l-135 -229v-179l71 -28v-16h-276v16l70 28v156l-143 250l-61 31v16h270v-16l-61 -26l107 -200l96 195l-59 31v16h184v-16zM334 553l-13 -9q-105 83 -135 123q-18 23 -15 47.5t24 38.5q20 13 44.5 5t37.5 -32q29 -53 57 -173z" />
    <glyph glyph-name="zacute.sc" horiz-adv-x="523" 
d="M487 191l-12 -191h-452l-4 9l316 450l-104 -1q-33 0 -54 -13t-54 -53l-59 -73l-13 3l14 175h430l4 -9l-314 -451l128 2q33 1 52.5 15t43.5 48l65 92zM372 753q21 -13 23.5 -38t-15.5 -48q-30 -40 -135 -123l-13 9q26 118 58 173q14 24 37.5 32t44.5 -5z" />
    <glyph glyph-name="zcaron.sc" horiz-adv-x="523" 
d="M487 191l-12 -191h-452l-4 9l316 450l-104 -1q-33 0 -54 -13t-54 -53l-59 -73l-13 3l14 175h430l4 -9l-314 -451l128 2q33 1 52.5 15t43.5 48l65 92zM267 671l128 74l15 -12l-136 -183h-21l-129 183l15 12z" />
    <glyph glyph-name="zdotaccent.sc" horiz-adv-x="523" 
d="M487 191l-12 -191h-452l-4 9l316 450l-104 -1q-33 0 -54 -13t-54 -53l-59 -73l-13 3l14 175h430l4 -9l-314 -451l128 2q33 1 52.5 15t43.5 48l65 92zM342 646q0 -31 -22 -54.5t-54 -23.5q-30 0 -49.5 20.5t-19.5 50.5q0 31 22 54.5t54 23.5q31 0 50 -20t19 -51z" />
    <glyph glyph-name="registered.alt" horiz-adv-x="734" 
d="M701 319q0 -139 -98 -236.5t-236 -97.5t-236 97.5t-98 236.5q0 138 98 235.5t236 97.5t236 -97.5t98 -235.5zM660 319q0 122 -86 209.5t-207 87.5t-207 -87.5t-86 -209.5q0 -123 86 -210.5t207 -87.5t207 87.5t86 210.5zM519 406q0 -33 -24.5 -58t-77.5 -33v-2
q41 -5 61 -21t28 -45q9 -39 25 -63q7 -11 24 -18v-16h-65q-30 0 -45 13t-28 48l-19 51q-7 20 -20 27t-43 7h-3v-116l43 -14v-16h-177v16l43 14v277l-43 15v15h219q51 0 76.5 -24.5t25.5 -56.5zM429 391q0 32 -18 50.5t-47 20.5l-32 3v-146l32 1q30 1 47.5 20.5t17.5 50.5z
" />
    <glyph glyph-name="NUL" horiz-adv-x="0" 
 />
    <glyph glyph-name="hfjslug" horiz-adv-x="694" 
d="M644 -200h-208l-8 14h-163l-8 -14h-207v303q14 0 23 9.5t9 22.5t-9.5 22.5t-22.5 9.5v554h100l30 79h334l29 -79h101v-921zM400 563v-172h15v78h38v14h-38v66h43v14h-58zM184 563v-172h15v79h47v-79h15v172h-15v-79h-47v79h-15zM460 394q10 -4 21 -4q31 0 31 36v137h-16
v-137q0 -22 -16 -22q-8 0 -20 5v-15zM371 465l-13 3q-4 -18 -8 -30h-1l-16 31q23 21 23 42q0 31 -27 31q-12 0 -20 -9t-8 -22t14 -39q-23 -18 -23 -47q0 -16 8 -26.5t21 -10.5q19 0 29 24h1l12 -24l12 6l-17 32q6 14 13 39zM523 323v-46h8v12l8 8l15 -20h10l-20 26l18 20
h-10l-20 -24h-1v24h-8zM488 292l10 -15h9l-12 17q10 4 10 14q0 15 -17 15h-20v-46h8v15h12zM426 276q10 0 17 7t7 17q0 9 -7 16.5t-17 7.5t-17 -7.5t-7 -16.5q0 -10 7 -17t17 -7zM370 301l-13 22h-9l18 -29v-17h8v17l18 29h-9zM193 323v-46h34v7h-26v13h23v7h-23v12h26v7
h-34zM132 323v-46h8v32l25 -32h7v46h-8v-32l-25 32h-7zM241 323l14 -47h8l11 34h1l11 -34h8l14 47h-8l-10 -35h-1l-11 35h-7l-11 -35h-1l-10 35h-8zM327 479q-12 22 -12 32q0 19 14 19q13 0 13 -19q0 -15 -15 -32zM342 423q-8 -21 -20 -21q-16 0 -16 25q0 19 16 35zM487 299
h-11v17h11q10 0 10 -8q0 -9 -10 -9zM426 283q-16 0 -16 17q0 6 4.5 11.5t11.5 5.5t11.5 -5.5t4.5 -11.5q0 -17 -16 -17z" />
    <glyph glyph-name="A.sc" horiz-adv-x="537" 
d="M289 182l-68 182h-2l-64 -182h134zM143 147l-36 -102l61 -30v-15h-183v15l66 33l188 456h63l182 -465l58 -24v-15h-258v13l59 24l-41 110h-159z" />
    <glyph glyph-name="B.sc" horiz-adv-x="551" 
d="M515 135q0 -58 -49.5 -96.5t-147.5 -38.5h-292v16l68 22v421l-68 22v16h274q195 0 195 -112q0 -102 -152 -121v-5q80 -3 126 -39t46 -85zM229 270l40 2q45 2 70 28t25 71q0 89 -91 94l-44 2v-197zM372 134q0 50 -29.5 78.5t-80.5 28.5h-33v-208q25 -3 50 -3q47 0 70 24
t23 80z" />
    <glyph glyph-name="C.sc" horiz-adv-x="548" 
d="M508 167l-19 -153q-63 -29 -149 -29q-61 0 -112.5 12.5t-96 40.5t-70 80t-25.5 124q0 114 80 192t204 78q69 0 124 -29l28 30h12l15 -198l-21 -2q-46 84 -86.5 124t-83.5 40q-54 0 -90 -55t-36 -165q0 -120 47.5 -177.5t125.5 -57.5q17 0 31 4l107 145z" />
    <glyph glyph-name="D.sc" 
d="M94 459l-68 22v16h253q138 0 213 -66.5t75 -179.5q0 -114 -78 -182.5t-214 -68.5h-249v16l68 22v421zM420 249q0 105 -40.5 157t-109.5 57l-41 3v-434l56 3q135 7 135 214z" />
    <glyph glyph-name="E.sc" horiz-adv-x="544" 
d="M481 497l11 -171l-17 -5l-61 83q-22 30 -44.5 44t-60.5 15l-80 3v-198h38q31 0 48 13t30 49l9 24h19v-211h-19l-10 24q-15 36 -31 48.5t-46 12.5h-38v-196l100 5q60 3 98 52l64 82l17 -5l-15 -166h-467v16l68 22v421l-68 22v16h455z" />
    <glyph glyph-name="F.sc" horiz-adv-x="513" 
d="M491 321l-17 -5l-62 88q-21 30 -44 44t-61 15l-78 3v-209h41q30 0 47.5 14t30.5 48l9 24h19v-211h-19l-10 24q-15 36 -31 48.5t-46 12.5h-41v-179l74 -22v-16h-277v16l68 22v421l-68 22v16h454z" />
    <glyph glyph-name="G.sc" horiz-adv-x="574" 
d="M502 321l-21 -2q-89 158 -173 158q-55 0 -90.5 -52.5t-35.5 -165.5q0 -121 45.5 -174.5t117.5 -53.5q12 0 38 4v160l-66 23v15h238v-15l-46 -23v-202l-14 -4l-75 40q-63 -44 -141 -44q-99 0 -171 68t-72 186q0 119 79.5 196t204.5 77q72 0 127 -29l29 30h16z" />
    <glyph glyph-name="H.sc" horiz-adv-x="653" 
d="M424 277v183l-63 21v16h266v-16l-68 -22v-421l68 -22v-16h-266v16l63 21v201h-195v-201l63 -21v-16h-266v16l68 22v421l-68 22v16h266v-16l-63 -21v-183h195z" />
    <glyph glyph-name="I.sc" horiz-adv-x="339" 
d="M237 38l68 -22v-16h-271v16l68 22v421l-68 22v16h271v-16l-68 -22v-421z" />
    <glyph glyph-name="J.sc" horiz-adv-x="450" 
d="M366 192q0 -100 -48 -151q-53 -57 -173 -57q-67 0 -103 27t-36 66q0 31 20.5 52t49.5 21q40 0 59.5 -36t13.5 -98q84 13 84 123v316l-73 20v22h271v-22l-65 -20v-263z" />
    <glyph glyph-name="K.sc" horiz-adv-x="599" 
d="M358 307l189 -264l53 -27v-16h-254v16l49 19l-127 193h-39v-191l61 -21v-16h-264v16l68 22v421l-68 22v16h264v-16l-61 -21v-193h47l142 177l-65 37v16h222v-22l-76 -26z" />
    <glyph glyph-name="L.sc" horiz-adv-x="504" 
d="M480 186l-20 -186h-434v16l68 22v421l-68 22v16h278v-16l-75 -21v-428l62 2q60 3 99 54l75 100z" />
    <glyph glyph-name="M.sc" horiz-adv-x="758" 
d="M664 38l68 -22v-16h-265v16l63 21v393h-7l-168 -431h-30l-180 431h-7v-384l69 -30v-16h-179v16l69 30v411l-69 24v16h235l32 -78l90 -234h5l88 234l28 78h226v-16l-68 -22v-421z" />
    <glyph glyph-name="N.sc" horiz-adv-x="620" 
d="M100 49v402l-66 30v16h177l67 -82l200 -241h6v274l-70 33v16h178v-16l-70 -33v-454h-62l-74 90l-242 283h-6v-318l69 -34v-15h-177v15z" />
    <glyph glyph-name="O.sc" 
d="M562 249q0 -113 -69 -188.5t-195 -75.5q-131 0 -196.5 74.5t-65.5 189.5q0 112 69.5 187.5t196.5 75.5q130 0 195 -74.5t65 -188.5zM416 249q0 115 -33 174t-90 59q-111 0 -111 -233t123 -233q52 0 81.5 59t29.5 174z" />
    <glyph glyph-name="P.sc" horiz-adv-x="518" 
d="M497 349q0 -69 -52 -111.5t-140 -42.5q-38 0 -76 5v-163l83 -21v-16h-286v16l68 22v421l-68 22v16h275q96 0 146 -40.5t50 -107.5zM358 347q0 113 -91 118l-38 2v-239l35 1q45 1 69.5 32.5t24.5 85.5z" />
    <glyph glyph-name="Q.sc" 
d="M562 249q0 -92 -47 -161.5t-135 -92.5q33 -53 62 -72q37 -26 94 -37l-4 -16h-105q-90 0 -121 26q-22 17 -47 67l-13 25q-106 15 -158 86.5t-52 174.5q0 112 69.5 187.5t196.5 75.5q130 0 195 -74.5t65 -188.5zM416 249q0 115 -33 174t-90 59q-111 0 -111 -233t123 -233
q52 0 81.5 59t29.5 174z" />
    <glyph glyph-name="R.sc" horiz-adv-x="565" 
d="M508 375q0 -110 -156 -132v-5q56 -7 84.5 -29t42.5 -62q25 -72 45 -98q16 -21 50 -32v-17h-113q-42 0 -63 18.5t-40 67.5l-30 77q-13 32 -33 44.5t-58 12.5h-8v-182l68 -22v-16h-271v16l68 22v421l-68 22v16h310q87 0 129.5 -33t42.5 -89zM371 358q0 101 -98 106l-44 2
v-216l42 2q45 2 72.5 28.5t27.5 77.5z" />
    <glyph glyph-name="S.sc" horiz-adv-x="462" 
d="M425 158q0 -77 -54.5 -124.5t-132.5 -47.5q-75 0 -138 26l-31 -29h-19l-10 188l22 2q89 -154 177 -154q40 0 62.5 20t22.5 54t-19.5 52t-72.5 38l-36 12.5t-49 19.5q-52 24 -74 56t-22 79q0 68 52 114.5t120 46.5q62 0 117 -24l31 26h19l14 -173l-21 -2
q-48 77 -83.5 108.5t-76.5 31.5q-31 0 -49 -18.5t-18 -46.5q0 -30 16 -49t55 -36q14 -6 46 -17.5t48 -18.5q57 -25 80.5 -55.5t23.5 -78.5z" />
    <glyph glyph-name="T.sc" horiz-adv-x="555" 
d="M533 309l-18 -4l-77 103q-40 55 -80 58l-14 1v-429l71 -22v-16h-277v16l71 22v429l-13 -1q-22 -1 -39 -14t-40 -44l-77 -103l-18 4l20 189h471z" />
    <glyph glyph-name="U.sc" 
d="M476 450l-61 31v16h164v-16l-62 -31v-274q0 -92 -56.5 -141.5t-148.5 -49.5q-106 0 -164 49.5t-58 151.5v273l-68 22v16h271v-16l-68 -22v-286q0 -134 127 -134q59 0 91.5 37.5t32.5 106.5v267z" />
    <glyph glyph-name="V.sc" horiz-adv-x="560" 
d="M501 448l-197 -455h-42l-198 464l-63 24v16h271v-16l-63 -22l124 -310l112 296l-64 35v17h185v-17z" />
    <glyph glyph-name="W.sc" horiz-adv-x="792" 
d="M383 386l-25 71l-48 24v16h244v-16l-59 -22l95 -294h2l82 280l-65 35v17h185v-17l-61 -32l-163 -455h-46l-121 338h-2l-132 -338h-44l-157 464l-63 24v16h261v-16l-55 -22l84 -294h2z" />
    <glyph glyph-name="X.sc" horiz-adv-x="569" 
d="M315 308l99 150l-56 23v16h194v-16l-71 -23l-140 -180l165 -242l58 -20v-16h-269v16l59 18l-99 163l-105 -158l56 -23v-16h-192v16l69 23l146 184l-157 238l-58 20v16h268v-16l-58 -17z" />
    <glyph glyph-name="Y.sc" horiz-adv-x="536" 
d="M479 452l-135 -229v-179l71 -28v-16h-276v16l70 28v156l-143 250l-61 31v16h270v-16l-61 -26l107 -200l96 195l-59 31v16h184v-16z" />
    <glyph glyph-name="Z.sc" horiz-adv-x="523" 
d="M487 191l-12 -191h-452l-4 9l316 450l-104 -1q-33 0 -54 -13t-54 -53l-59 -73l-13 3l14 175h430l4 -9l-314 -451l128 2q33 1 52.5 15t43.5 48l65 92z" />
    <glyph glyph-name="Aacute.sc" horiz-adv-x="537" 
d="M289 182l-68 182h-2l-64 -182h134zM143 147l-36 -102l61 -30v-15h-183v15l66 33l188 456h63l182 -465l58 -24v-15h-258v13l59 24l-41 110h-159zM375 753q21 -13 23.5 -38t-15.5 -48q-30 -40 -135 -123l-13 9q26 118 58 173q14 24 37.5 32t44.5 -5z" />
    <glyph glyph-name="Abreve.sc" horiz-adv-x="537" 
d="M289 182l-68 182h-2l-64 -182h134zM143 147l-36 -102l61 -30v-15h-183v15l66 33l188 456h63l182 -465l58 -24v-15h-258v13l59 24l-41 110h-159zM271 657q43 0 78 19.5t50 51.5l22 -6q-9 -72 -47.5 -114.5t-102.5 -42.5t-102.5 43t-44.5 114l22 6q13 -32 47.5 -51.5
t77.5 -19.5z" />
    <glyph glyph-name="Acircumflex.sc" horiz-adv-x="537" 
d="M289 182l-68 182h-2l-64 -182h134zM143 147l-36 -102l61 -30v-15h-183v15l66 33l188 456h63l182 -465l58 -24v-15h-258v13l59 24l-41 110h-159zM270 621l-128 -74l-15 13l136 183h21l129 -183l-15 -13z" />
    <glyph glyph-name="Adieresis.sc" horiz-adv-x="537" 
d="M289 182l-68 182h-2l-64 -182h134zM143 147l-36 -102l61 -30v-15h-183v15l66 33l188 456h63l182 -465l58 -24v-15h-258v13l59 24l-41 110h-159zM363 568q-30 0 -49.5 20.5t-19.5 50.5q0 31 22.5 54.5t54.5 23.5q30 0 49.5 -20t19.5 -51t-22.5 -54.5t-54.5 -23.5zM172 568
q-30 0 -49.5 20.5t-19.5 50.5q0 31 22 54.5t54 23.5q31 0 50 -20t19 -51t-22 -54.5t-54 -23.5z" />
    <glyph glyph-name="AE.sc" horiz-adv-x="794" 
d="M758 166l-15 -166h-467v16l68 22v142h-159l-91 -138l60 -27v-15h-182v15l61 30l294 410l-75 27v15h479l11 -171l-17 -5l-61 83q-22 30 -44.5 44t-60.5 15l-80 3v-198h38q31 0 48 13t30 49l9 24h19v-211h-19l-10 24q-15 36 -31 48.5t-46 12.5h-38v-196l100 5q60 3 98 52
l64 82zM344 215v203h-2l-134 -203h136z" />
    <glyph glyph-name="AEacute.sc" horiz-adv-x="794" 
d="M758 166l-15 -166h-467v16l68 22v142h-159l-91 -138l60 -27v-15h-182v15l61 30l294 410l-75 27v15h479l11 -171l-17 -5l-61 83q-22 30 -44.5 44t-60.5 15l-80 3v-198h38q31 0 48 13t30 49l9 24h19v-211h-19l-10 24q-15 36 -31 48.5t-46 12.5h-38v-196l100 5q60 3 98 52
l64 82zM344 215v203h-2l-134 -203h136zM558 753q21 -13 23.5 -38t-15.5 -48q-30 -40 -135 -123l-13 9q26 118 58 173q14 24 37.5 32t44.5 -5z" />
    <glyph glyph-name="Agrave.sc" horiz-adv-x="537" 
d="M289 182l-68 182h-2l-64 -182h134zM143 147l-36 -102l61 -30v-15h-183v15l66 33l188 456h63l182 -465l58 -24v-15h-258v13l59 24l-41 110h-159zM322 553l-13 -9q-105 83 -135 123q-18 23 -15 47.5t24 38.5q20 13 44.5 5t37.5 -32q29 -53 57 -173z" />
    <glyph glyph-name="Amacron.sc" horiz-adv-x="537" 
d="M289 182l-68 182h-2l-64 -182h134zM143 147l-36 -102l61 -30v-15h-183v15l66 33l188 456h63l182 -465l58 -24v-15h-258v13l59 24l-41 110h-159zM409 646v-67h-276v67h276z" />
    <glyph glyph-name="Aogonek.sc" horiz-adv-x="537" 
d="M143 147l-36 -102l61 -30v-15h-183v15l66 33l188 456h63l182 -465l58 -24v-15h-43q-70 -63 -70 -131q0 -30 14 -49t40 -19q30 0 43 15l11 -8q-30 -61 -95 -61q-45 0 -72 27.5t-27 67.5t31 82.5t88 75.5h-178v13l59 24l-41 110h-159zM289 182l-68 182h-2l-64 -182h134z
" />
    <glyph glyph-name="Aring.sc" horiz-adv-x="537" 
d="M289 182l-68 182h-2l-64 -182h134zM306 583q0 69 -37 69q-35 0 -35 -71q0 -69 37 -69q20 0 27.5 17.5t7.5 53.5zM233 490q-31 9 -48 34.5t-17 57.5q0 38 28.5 67t76.5 29q47 0 73 -27t26 -68q0 -30 -17.5 -55.5t-47.5 -36.5l177 -452l58 -24v-15h-258v13l59 24l-41 110
h-159l-36 -102l61 -30v-15h-183v15l66 33z" />
    <glyph glyph-name="Aringacute.sc" horiz-adv-x="537" 
d="M289 182l-68 182h-2l-64 -182h134zM306 583q0 69 -37 69q-35 0 -35 -71q0 -69 37 -69q20 0 27.5 17.5t7.5 53.5zM233 490q-31 9 -48 34.5t-17 57.5q0 38 28.5 67t76.5 29q47 0 73 -27t26 -68q0 -30 -17.5 -55.5t-47.5 -36.5l177 -452l58 -24v-15h-258v13l59 24l-41 110
h-159l-36 -102l61 -30v-15h-183v15l66 33zM379 911q21 -13 23.5 -38t-15.5 -48q-30 -40 -135 -123l-13 9q26 118 58 173q14 24 37.5 32t44.5 -5z" />
    <glyph glyph-name="Atilde.sc" horiz-adv-x="537" 
d="M289 182l-68 182h-2l-64 -182h134zM143 147l-36 -102l61 -30v-15h-183v15l66 33l188 456h63l182 -465l58 -24v-15h-258v13l59 24l-41 110h-159zM121 564q10 67 32.5 97.5t67.5 30.5q30 0 75.5 -20t66.5 -20q34 0 53 47l22 -6q-5 -69 -26 -100t-67 -31q-31 0 -79.5 21.5
t-69.5 21.5q-34 0 -53 -47z" />
    <glyph glyph-name="Cacute.sc" horiz-adv-x="548" 
d="M508 167l-19 -153q-63 -29 -149 -29q-61 0 -112.5 12.5t-96 40.5t-70 80t-25.5 124q0 114 80 192t204 78q69 0 124 -29l28 30h12l15 -198l-21 -2q-46 84 -86.5 124t-83.5 40q-54 0 -90 -55t-36 -165q0 -120 47.5 -177.5t125.5 -57.5q17 0 31 4l107 145zM407 753
q21 -13 23.5 -38t-15.5 -48q-30 -40 -135 -123l-13 9q26 118 58 173q14 24 37.5 32t44.5 -5z" />
    <glyph glyph-name="Ccaron.sc" horiz-adv-x="548" 
d="M508 167l-19 -153q-63 -29 -149 -29q-61 0 -112.5 12.5t-96 40.5t-70 80t-25.5 124q0 114 80 192t204 78q69 0 124 -29l28 30h12l15 -198l-21 -2q-46 84 -86.5 124t-83.5 40q-54 0 -90 -55t-36 -165q0 -120 47.5 -177.5t125.5 -57.5q17 0 31 4l107 145zM302 671l128 74
l15 -12l-136 -183h-21l-129 183l15 12z" />
    <glyph glyph-name="Ccedilla.sc" horiz-adv-x="548" 
d="M315 -14h-4q-121 6 -198 66.5t-77 189.5q0 114 80 192t204 78q69 0 124 -29l28 30h12l15 -198l-21 -2q-46 84 -86.5 124t-83.5 40q-54 0 -90 -55t-36 -165q0 -119 46.5 -177t121.5 -58q18 0 40 5l103 144l15 -4l-19 -153q-57 -26 -133 -29l-61 -53q80 -19 80 -94
q0 -43 -34 -73t-86 -30q-37 0 -62 18t-25 42q0 17 10.5 28.5t26.5 11.5q17 0 26.5 -11t9.5 -28t-14 -33q11 -3 24 -3q21 0 35 16t14 42q0 27 -16 43t-39 16q-20 0 -32 -4l-12 12z" />
    <glyph glyph-name="Cdotaccent.sc" horiz-adv-x="548" 
d="M508 167l-19 -153q-63 -29 -149 -29q-61 0 -112.5 12.5t-96 40.5t-70 80t-25.5 124q0 114 80 192t204 78q69 0 124 -29l28 30h12l15 -198l-21 -2q-46 84 -86.5 124t-83.5 40q-54 0 -90 -55t-36 -165q0 -120 47.5 -177.5t125.5 -57.5q17 0 31 4l107 145zM377 646
q0 -31 -22 -54.5t-54 -23.5q-30 0 -49.5 20.5t-19.5 50.5q0 31 22 54.5t54 23.5q31 0 50 -20t19 -51z" />
    <glyph glyph-name="Dcaron.sc" 
d="M94 459l-68 22v16h253q138 0 213 -66.5t75 -179.5q0 -114 -78 -182.5t-214 -68.5h-249v16l68 22v421zM420 249q0 105 -40.5 157t-109.5 57l-41 3v-434l56 3q135 7 135 214zM296 671l128 74l15 -12l-136 -183h-21l-129 183l15 12z" />
    <glyph glyph-name="Dcroat.sc" 
d="M229 278h97v-45h-97v-201l56 3q135 7 135 214q0 105 -40.5 157t-109.5 57l-41 3v-188zM94 233h-68v45h68v181l-68 22v16h253q138 0 213 -66.5t75 -179.5q0 -114 -78 -182.5t-214 -68.5h-249v16l68 22v195z" />
    <glyph glyph-name="Eacute.sc" horiz-adv-x="544" 
d="M481 497l11 -171l-17 -5l-61 83q-22 30 -44.5 44t-60.5 15l-80 3v-198h38q31 0 48 13t30 49l9 24h19v-211h-19l-10 24q-15 36 -31 48.5t-46 12.5h-38v-196l100 5q60 3 98 52l64 82l17 -5l-15 -166h-467v16l68 22v421l-68 22v16h455zM368 753q21 -13 23.5 -38t-15.5 -48
q-30 -40 -135 -123l-13 9q26 118 58 173q14 24 37.5 32t44.5 -5z" />
    <glyph glyph-name="Ebreve.sc" horiz-adv-x="544" 
d="M481 497l11 -171l-17 -5l-61 83q-22 30 -44.5 44t-60.5 15l-80 3v-198h38q31 0 48 13t30 49l9 24h19v-211h-19l-10 24q-15 36 -31 48.5t-46 12.5h-38v-196l100 5q60 3 98 52l64 82l17 -5l-15 -166h-467v16l68 22v421l-68 22v16h455zM264 657q43 0 78 19.5t50 51.5l22 -6
q-9 -72 -47.5 -114.5t-102.5 -42.5t-102.5 43t-44.5 114l22 6q13 -32 47.5 -51.5t77.5 -19.5z" />
    <glyph glyph-name="Ecaron.sc" horiz-adv-x="544" 
d="M481 497l11 -171l-17 -5l-61 83q-22 30 -44.5 44t-60.5 15l-80 3v-198h38q31 0 48 13t30 49l9 24h19v-211h-19l-10 24q-15 36 -31 48.5t-46 12.5h-38v-196l100 5q60 3 98 52l64 82l17 -5l-15 -166h-467v16l68 22v421l-68 22v16h455zM263 671l128 74l15 -12l-136 -183h-21
l-129 183l15 12z" />
    <glyph glyph-name="Ecircumflex.sc" horiz-adv-x="544" 
d="M481 497l11 -171l-17 -5l-61 83q-22 30 -44.5 44t-60.5 15l-80 3v-198h38q31 0 48 13t30 49l9 24h19v-211h-19l-10 24q-15 36 -31 48.5t-46 12.5h-38v-196l100 5q60 3 98 52l64 82l17 -5l-15 -166h-467v16l68 22v421l-68 22v16h455zM263 621l-128 -74l-15 13l136 183h21
l129 -183l-15 -13z" />
    <glyph glyph-name="Edieresis.sc" horiz-adv-x="544" 
d="M481 497l11 -171l-17 -5l-61 83q-22 30 -44.5 44t-60.5 15l-80 3v-198h38q31 0 48 13t30 49l9 24h19v-211h-19l-10 24q-15 36 -31 48.5t-46 12.5h-38v-196l100 5q60 3 98 52l64 82l17 -5l-15 -166h-467v16l68 22v421l-68 22v16h455zM356 568q-30 0 -49.5 20.5t-19.5 50.5
q0 31 22.5 54.5t54.5 23.5q30 0 49.5 -20t19.5 -51t-22.5 -54.5t-54.5 -23.5zM165 568q-30 0 -49.5 20.5t-19.5 50.5q0 31 22 54.5t54 23.5q31 0 50 -20t19 -51t-22 -54.5t-54 -23.5z" />
    <glyph glyph-name="Edotaccent.sc" horiz-adv-x="544" 
d="M481 497l11 -171l-17 -5l-61 83q-22 30 -44.5 44t-60.5 15l-80 3v-198h38q31 0 48 13t30 49l9 24h19v-211h-19l-10 24q-15 36 -31 48.5t-46 12.5h-38v-196l100 5q60 3 98 52l64 82l17 -5l-15 -166h-467v16l68 22v421l-68 22v16h455zM338 646q0 -31 -22 -54.5t-54 -23.5
q-30 0 -49.5 20.5t-19.5 50.5q0 31 22 54.5t54 23.5q31 0 50 -20t19 -51z" />
    <glyph glyph-name="Egrave.sc" horiz-adv-x="544" 
d="M481 497l11 -171l-17 -5l-61 83q-22 30 -44.5 44t-60.5 15l-80 3v-198h38q31 0 48 13t30 49l9 24h19v-211h-19l-10 24q-15 36 -31 48.5t-46 12.5h-38v-196l100 5q60 3 98 52l64 82l17 -5l-15 -166h-467v16l68 22v421l-68 22v16h455zM315 553l-13 -9q-105 83 -135 123
q-18 23 -15 47.5t24 38.5q20 13 44.5 5t37.5 -32q29 -53 57 -173z" />
    <glyph glyph-name="Emacron.sc" horiz-adv-x="544" 
d="M481 497l11 -171l-17 -5l-61 83q-22 30 -44.5 44t-60.5 15l-80 3v-198h38q31 0 48 13t30 49l9 24h19v-211h-19l-10 24q-15 36 -31 48.5t-46 12.5h-38v-196l100 5q60 3 98 52l64 82l17 -5l-15 -166h-467v16l68 22v421l-68 22v16h455zM402 646v-67h-276v67h276z" />
    <glyph glyph-name="Eogonek.sc" horiz-adv-x="544" 
d="M481 497l11 -171l-17 -5l-61 83q-22 30 -44.5 44t-60.5 15l-80 3v-198h38q31 0 48 13t30 49l9 24h19v-211h-19l-10 24q-15 36 -31 48.5t-46 12.5h-38v-196l100 5q60 3 98 52l64 82l17 -5l-15 -166h-48q-70 -63 -70 -131q0 -30 14 -49t40 -19q30 0 43 15l11 -8
q-30 -61 -95 -61q-45 0 -72 27.5t-27 67.5t31 82.5t88 75.5h-382v16l68 22v421l-68 22v16h455z" />
    <glyph glyph-name="Eth.sc" 
d="M229 278h97v-45h-97v-201l56 3q135 7 135 214q0 105 -40.5 157t-109.5 57l-41 3v-188zM94 233h-68v45h68v181l-68 22v16h253q138 0 213 -66.5t75 -179.5q0 -114 -78 -182.5t-214 -68.5h-249v16l68 22v195z" />
    <glyph glyph-name="Gbreve.sc" horiz-adv-x="574" 
d="M502 321l-21 -2q-89 158 -173 158q-55 0 -90.5 -52.5t-35.5 -165.5q0 -121 45.5 -174.5t117.5 -53.5q12 0 38 4v160l-66 23v15h238v-15l-46 -23v-202l-14 -4l-75 40q-63 -44 -141 -44q-99 0 -171 68t-72 186q0 119 79.5 196t204.5 77q72 0 127 -29l29 30h16zM288 657
q43 0 78 19.5t50 51.5l22 -6q-9 -72 -47.5 -114.5t-102.5 -42.5t-102.5 43t-44.5 114l22 6q13 -32 47.5 -51.5t77.5 -19.5z" />
    <glyph glyph-name="Gcommaaccent.sc" horiz-adv-x="574" 
d="M502 321l-21 -2q-89 158 -173 158q-55 0 -90.5 -52.5t-35.5 -165.5q0 -121 45.5 -174.5t117.5 -53.5q12 0 38 4v160l-66 23v15h238v-15l-46 -23v-202l-14 -4l-75 40q-63 -44 -141 -44q-99 0 -171 68t-72 186q0 119 79.5 196t204.5 77q72 0 127 -29l29 30h16zM357 -160
q0 -47 -34 -88t-94 -66l-9 12q80 59 88 115l-1 1l-11 -3q-16 -4 -24 -4q-22 0 -36.5 16t-14.5 40q0 27 18 46t45 19q33 0 53 -24.5t20 -63.5z" />
    <glyph glyph-name="Gdotaccent.sc" horiz-adv-x="574" 
d="M502 321l-21 -2q-89 158 -173 158q-55 0 -90.5 -52.5t-35.5 -165.5q0 -121 45.5 -174.5t117.5 -53.5q12 0 38 4v160l-66 23v15h238v-15l-46 -23v-202l-14 -4l-75 40q-63 -44 -141 -44q-99 0 -171 68t-72 186q0 119 79.5 196t204.5 77q72 0 127 -29l29 30h16zM362 646
q0 -31 -22 -54.5t-54 -23.5q-30 0 -49.5 20.5t-19.5 50.5q0 31 22 54.5t54 23.5q31 0 50 -20t19 -51z" />
    <glyph glyph-name="Hbar.sc" horiz-adv-x="653" 
d="M609 391v-38h-50v-315l68 -22v-16h-266v16l63 21v201h-195v-201l63 -21v-16h-266v16l68 22v315h-51v38h51v68l-68 22v16h266v-16l-63 -21v-69h195v69l-63 21v16h266v-16l-68 -22v-68h50zM424 277v76h-195v-76h195z" />
    <glyph glyph-name="Iacute.sc" horiz-adv-x="339" 
d="M237 38l68 -22v-16h-271v16l68 22v421l-68 22v16h271v-16l-68 -22v-421zM273 753q21 -13 23.5 -38t-15.5 -48q-30 -40 -135 -123l-13 9q26 118 58 173q14 24 37.5 32t44.5 -5z" />
    <glyph glyph-name="Ibreve.sc" horiz-adv-x="339" 
d="M237 38l68 -22v-16h-271v16l68 22v421l-68 22v16h271v-16l-68 -22v-421zM169 657q43 0 78 19.5t50 51.5l22 -6q-9 -72 -47.5 -114.5t-102.5 -42.5t-102.5 43t-44.5 114l22 6q13 -32 47.5 -51.5t77.5 -19.5z" />
    <glyph glyph-name="Icircumflex.sc" horiz-adv-x="339" 
d="M237 38l68 -22v-16h-271v16l68 22v421l-68 22v16h271v-16l-68 -22v-421zM168 621l-128 -74l-15 13l136 183h21l129 -183l-15 -13z" />
    <glyph glyph-name="Idieresis.sc" horiz-adv-x="339" 
d="M237 38l68 -22v-16h-271v16l68 22v421l-68 22v16h271v-16l-68 -22v-421zM261 568q-30 0 -49.5 20.5t-19.5 50.5q0 31 22.5 54.5t54.5 23.5q30 0 49.5 -20t19.5 -51t-22.5 -54.5t-54.5 -23.5zM70 568q-30 0 -49.5 20.5t-19.5 50.5q0 31 22 54.5t54 23.5q31 0 50 -20
t19 -51t-22 -54.5t-54 -23.5z" />
    <glyph glyph-name="Idotaccent.sc" horiz-adv-x="339" 
d="M237 38l68 -22v-16h-271v16l68 22v421l-68 22v16h271v-16l-68 -22v-421zM243 646q0 -31 -22 -54.5t-54 -23.5q-30 0 -49.5 20.5t-19.5 50.5q0 31 22 54.5t54 23.5q31 0 50 -20t19 -51z" />
    <glyph glyph-name="Igrave.sc" horiz-adv-x="339" 
d="M237 38l68 -22v-16h-271v16l68 22v421l-68 22v16h271v-16l-68 -22v-421zM220 553l-13 -9q-105 83 -135 123q-18 23 -15 47.5t24 38.5q20 13 44.5 5t37.5 -32q29 -53 57 -173z" />
    <glyph glyph-name="Imacron.sc" horiz-adv-x="339" 
d="M237 38l68 -22v-16h-271v16l68 22v421l-68 22v16h271v-16l-68 -22v-421zM307 646v-67h-276v67h276z" />
    <glyph glyph-name="Iogonek.sc" horiz-adv-x="339" 
d="M237 38l68 -22v-16h-81q-70 -63 -70 -131q0 -30 14 -49t40 -19q30 0 43 15l11 -8q-30 -61 -95 -61q-45 0 -72 27.5t-27 67.5t31 82.5t88 75.5h-153v16l68 22v421l-68 22v16h271v-16l-68 -22v-421z" />
    <glyph glyph-name="Kcommaaccent.sc" horiz-adv-x="599" 
d="M358 307l189 -264l53 -27v-16h-254v16l49 19l-127 193h-39v-191l61 -21v-16h-264v16l68 22v421l-68 22v16h264v-16l-61 -21v-193h47l142 177l-65 37v16h222v-22l-76 -26zM377 -160q0 -47 -34 -88t-94 -66l-9 12q80 59 88 115l-1 1l-11 -3q-16 -4 -24 -4q-22 0 -36.5 16
t-14.5 40q0 27 18 46t45 19q33 0 53 -24.5t20 -63.5z" />
    <glyph glyph-name="Lacute.sc" horiz-adv-x="504" 
d="M480 186l-20 -186h-434v16l68 22v421l-68 22v16h278v-16l-75 -21v-428l62 2q60 3 99 54l75 100zM275 753q21 -13 23.5 -38t-15.5 -48q-30 -40 -135 -123l-13 9q26 118 58 173q14 24 37.5 32t44.5 -5z" />
    <glyph glyph-name="Lcaron.sc" horiz-adv-x="504" 
d="M480 186l-20 -186h-434v16l68 22v421l-68 22v16h278v-16l-75 -21v-428l62 2q60 3 99 54l75 100zM349 261l-3 34q-3 39 -3 78q0 38 4 62.5t18.5 43t40.5 18.5q22 0 35.5 -15.5t13.5 -39.5q0 -43 -91 -185z" />
    <glyph glyph-name="Lcommaaccent.sc" horiz-adv-x="504" 
d="M480 186l-20 -186h-434v16l68 22v421l-68 22v16h278v-16l-75 -21v-428l62 2q60 3 99 54l75 100zM322 -160q0 -47 -34 -88t-94 -66l-9 12q80 59 88 115l-1 1l-11 -3q-16 -4 -24 -4q-22 0 -36.5 16t-14.5 40q0 27 18 46t45 19q33 0 53 -24.5t20 -63.5z" />
    <glyph glyph-name="Ldot.sc" horiz-adv-x="500" 
d="M479 177l-19 -177h-434v16l68 22v421l-68 22v16h278v-16l-75 -21v-428l62 2q61 3 99 50l74 95zM481 311q0 -30 -20.5 -50.5t-49.5 -20.5t-50 20.5t-21 50.5q0 29 21 49.5t50 20.5t49.5 -20.5t20.5 -49.5z" />
    <glyph glyph-name="Lslash.sc" horiz-adv-x="504" 
d="M94 201l-54 -14l-12 44l66 17v211l-68 22v16h278v-16l-75 -21v-175l97 27l13 -44l-110 -30v-206l62 2q60 3 99 54l75 100l15 -2l-20 -186h-434v16l68 22v163z" />
    <glyph glyph-name="Nacute.sc" horiz-adv-x="620" 
d="M100 49v402l-66 30v16h177l67 -82l200 -241h6v274l-70 33v16h178v-16l-70 -33v-454h-62l-74 90l-242 283h-6v-318l69 -34v-15h-177v15zM413 753q21 -13 23.5 -38t-15.5 -48q-30 -40 -135 -123l-13 9q26 118 58 173q14 24 37.5 32t44.5 -5z" />
    <glyph glyph-name="Ncaron.sc" horiz-adv-x="620" 
d="M100 49v402l-66 30v16h177l67 -82l200 -241h6v274l-70 33v16h178v-16l-70 -33v-454h-62l-74 90l-242 283h-6v-318l69 -34v-15h-177v15zM308 671l128 74l15 -12l-136 -183h-21l-129 183l15 12z" />
    <glyph glyph-name="Ncommaaccent.sc" horiz-adv-x="620" 
d="M100 49v402l-66 30v16h177l67 -82l200 -241h6v274l-70 33v16h178v-16l-70 -33v-454h-62l-74 90l-242 283h-6v-318l69 -34v-15h-177v15zM378 -146q0 -47 -34 -88t-94 -66l-9 12q80 59 88 115l-1 1l-11 -3q-16 -4 -24 -4q-22 0 -36.5 16t-14.5 40q0 27 18 46t45 19
q33 0 53 -24.5t20 -63.5z" />
    <glyph glyph-name="Ntilde.sc" horiz-adv-x="620" 
d="M100 49v402l-66 30v16h177l67 -82l200 -241h6v274l-70 33v16h178v-16l-70 -33v-454h-62l-74 90l-242 283h-6v-318l69 -34v-15h-177v15zM159 564q10 67 32.5 97.5t67.5 30.5q30 0 75.5 -20t66.5 -20q34 0 53 47l22 -6q-5 -69 -26 -100t-67 -31q-31 0 -79.5 21.5
t-69.5 21.5q-34 0 -53 -47z" />
    <glyph glyph-name="Oacute.sc" 
d="M562 249q0 -113 -69 -188.5t-195 -75.5q-131 0 -196.5 74.5t-65.5 189.5q0 112 69.5 187.5t196.5 75.5q130 0 195 -74.5t65 -188.5zM416 249q0 115 -33 174t-90 59q-111 0 -111 -233t123 -233q52 0 81.5 59t29.5 174zM405 753q21 -13 23.5 -38t-15.5 -48
q-30 -40 -135 -123l-13 9q26 118 58 173q14 24 37.5 32t44.5 -5z" />
    <glyph glyph-name="Obreve.sc" 
d="M562 249q0 -113 -69 -188.5t-195 -75.5q-131 0 -196.5 74.5t-65.5 189.5q0 112 69.5 187.5t196.5 75.5q130 0 195 -74.5t65 -188.5zM416 249q0 115 -33 174t-90 59q-111 0 -111 -233t123 -233q52 0 81.5 59t29.5 174zM301 657q43 0 78 19.5t50 51.5l22 -6
q-9 -72 -47.5 -114.5t-102.5 -42.5t-102.5 43t-44.5 114l22 6q13 -32 47.5 -51.5t77.5 -19.5z" />
    <glyph glyph-name="Ocircumflex.sc" 
d="M562 249q0 -113 -69 -188.5t-195 -75.5q-131 0 -196.5 74.5t-65.5 189.5q0 112 69.5 187.5t196.5 75.5q130 0 195 -74.5t65 -188.5zM416 249q0 115 -33 174t-90 59q-111 0 -111 -233t123 -233q52 0 81.5 59t29.5 174zM300 621l-128 -74l-15 13l136 183h21l129 -183
l-15 -13z" />
    <glyph glyph-name="Odieresis.sc" 
d="M562 249q0 -113 -69 -188.5t-195 -75.5q-131 0 -196.5 74.5t-65.5 189.5q0 112 69.5 187.5t196.5 75.5q130 0 195 -74.5t65 -188.5zM416 249q0 115 -33 174t-90 59q-111 0 -111 -233t123 -233q52 0 81.5 59t29.5 174zM393 568q-30 0 -49.5 20.5t-19.5 50.5
q0 31 22.5 54.5t54.5 23.5q30 0 49.5 -20t19.5 -51t-22.5 -54.5t-54.5 -23.5zM202 568q-30 0 -49.5 20.5t-19.5 50.5q0 31 22 54.5t54 23.5q31 0 50 -20t19 -51t-22 -54.5t-54 -23.5z" />
    <glyph glyph-name="OE.sc" horiz-adv-x="819" 
d="M783 166l-15 -166h-449q-138 0 -213 66.5t-75 179.5q0 114 78 182.5t214 68.5h433l11 -171l-17 -5l-61 83q-22 30 -44.5 44t-60.5 15l-80 3v-198h38q31 0 48 13t30 49l9 24h19v-211h-19l-10 24q-15 36 -31 48.5t-46 12.5h-38v-196l100 5q60 3 98 52l64 82zM369 31v434
l-56 -3q-135 -7 -135 -214q0 -105 40.5 -157t109.5 -57z" />
    <glyph glyph-name="Ograve.sc" 
d="M562 249q0 -113 -69 -188.5t-195 -75.5q-131 0 -196.5 74.5t-65.5 189.5q0 112 69.5 187.5t196.5 75.5q130 0 195 -74.5t65 -188.5zM416 249q0 115 -33 174t-90 59q-111 0 -111 -233t123 -233q52 0 81.5 59t29.5 174zM352 553l-13 -9q-105 83 -135 123q-18 23 -15 47.5
t24 38.5q20 13 44.5 5t37.5 -32q29 -53 57 -173z" />
    <glyph glyph-name="Ohungarumlaut.sc" 
d="M562 249q0 -113 -69 -188.5t-195 -75.5q-131 0 -196.5 74.5t-65.5 189.5q0 112 69.5 187.5t196.5 75.5q130 0 195 -74.5t65 -188.5zM416 249q0 115 -33 174t-90 59q-111 0 -111 -233t123 -233q52 0 81.5 59t29.5 174zM491 668q-38 -49 -135 -120l-13 9q28 106 66 169
q14 23 37 31t43 -5q19 -13 19.5 -37t-17.5 -47zM339 671q-42 -54 -132 -124l-14 8q27 111 61 171q14 24 36.5 32.5t42.5 -3.5q20 -13 22 -37t-16 -47z" />
    <glyph glyph-name="Omacron.sc" 
d="M562 249q0 -113 -69 -188.5t-195 -75.5q-131 0 -196.5 74.5t-65.5 189.5q0 112 69.5 187.5t196.5 75.5q130 0 195 -74.5t65 -188.5zM416 249q0 115 -33 174t-90 59q-111 0 -111 -233t123 -233q52 0 81.5 59t29.5 174zM439 646v-67h-276v67h276z" />
    <glyph glyph-name="Oslash.sc" 
d="M105 55q-69 72 -69 194q0 112 69.5 187.5t196.5 75.5q101 0 164 -47l54 62l28 -26l-53 -61q67 -70 67 -191q0 -113 -69 -188.5t-195 -75.5q-99 0 -164 46l-54 -61l-28 25zM189 150l209 238q-31 94 -105 94q-111 0 -111 -233q0 -60 7 -99zM409 343l-210 -238
q28 -89 106 -89q52 0 81.5 59t29.5 174q0 56 -7 94z" />
    <glyph glyph-name="Oslashacute.sc" 
d="M105 55q-69 72 -69 194q0 112 69.5 187.5t196.5 75.5q101 0 164 -47l54 62l28 -26l-53 -61q67 -70 67 -191q0 -113 -69 -188.5t-195 -75.5q-99 0 -164 46l-54 -61l-28 25zM189 150l209 238q-31 94 -105 94q-111 0 -111 -233q0 -60 7 -99zM409 343l-210 -238
q28 -89 106 -89q52 0 81.5 59t29.5 174q0 56 -7 94zM411 753q21 -13 23.5 -38t-15.5 -48q-30 -40 -135 -123l-13 9q26 118 58 173q14 24 37.5 32t44.5 -5z" />
    <glyph glyph-name="Otilde.sc" 
d="M562 249q0 -113 -69 -188.5t-195 -75.5q-131 0 -196.5 74.5t-65.5 189.5q0 112 69.5 187.5t196.5 75.5q130 0 195 -74.5t65 -188.5zM416 249q0 115 -33 174t-90 59q-111 0 -111 -233t123 -233q52 0 81.5 59t29.5 174zM151 564q10 67 32.5 97.5t67.5 30.5q30 0 75.5 -20
t66.5 -20q34 0 53 47l22 -6q-5 -69 -26 -100t-67 -31q-31 0 -79.5 21.5t-69.5 21.5q-34 0 -53 -47z" />
    <glyph glyph-name="Racute.sc" horiz-adv-x="565" 
d="M508 375q0 -110 -156 -132v-5q56 -7 84.5 -29t42.5 -62q25 -72 45 -98q16 -21 50 -32v-17h-113q-42 0 -63 18.5t-40 67.5l-30 77q-13 32 -33 44.5t-58 12.5h-8v-182l68 -22v-16h-271v16l68 22v421l-68 22v16h310q87 0 129.5 -33t42.5 -89zM371 358q0 101 -98 106l-44 2
v-216l42 2q45 2 72.5 28.5t27.5 77.5zM379 753q21 -13 23.5 -38t-15.5 -48q-30 -40 -135 -123l-13 9q26 118 58 173q14 24 37.5 32t44.5 -5z" />
    <glyph glyph-name="Rcaron.sc" horiz-adv-x="565" 
d="M508 375q0 -110 -156 -132v-5q56 -7 84.5 -29t42.5 -62q25 -72 45 -98q16 -21 50 -32v-17h-113q-42 0 -63 18.5t-40 67.5l-30 77q-13 32 -33 44.5t-58 12.5h-8v-182l68 -22v-16h-271v16l68 22v421l-68 22v16h310q87 0 129.5 -33t42.5 -89zM371 358q0 101 -98 106l-44 2
v-216l42 2q45 2 72.5 28.5t27.5 77.5zM274 671l128 74l15 -12l-136 -183h-21l-129 183l15 12z" />
    <glyph glyph-name="Rcommaaccent.sc" horiz-adv-x="565" 
d="M508 375q0 -110 -156 -132v-5q56 -7 84.5 -29t42.5 -62q25 -72 45 -98q16 -21 50 -32v-17h-113q-42 0 -63 18.5t-40 67.5l-30 77q-13 32 -33 44.5t-58 12.5h-8v-182l68 -22v-16h-271v16l68 22v421l-68 22v16h310q87 0 129.5 -33t42.5 -89zM371 358q0 101 -98 106l-44 2
v-216l42 2q45 2 72.5 28.5t27.5 77.5zM357 -160q0 -47 -34 -88t-94 -66l-9 12q80 59 88 115l-1 1l-11 -3q-16 -4 -24 -4q-22 0 -36.5 16t-14.5 40q0 27 18 46t45 19q33 0 53 -24.5t20 -63.5z" />
    <glyph glyph-name="Sacute.sc" horiz-adv-x="462" 
d="M425 158q0 -77 -54.5 -124.5t-132.5 -47.5q-75 0 -138 26l-31 -29h-19l-10 188l22 2q89 -154 177 -154q40 0 62.5 20t22.5 54t-19.5 52t-72.5 38l-36 12.5t-49 19.5q-52 24 -74 56t-22 79q0 68 52 114.5t120 46.5q62 0 117 -24l31 26h19l14 -173l-21 -2
q-48 77 -83.5 108.5t-76.5 31.5q-31 0 -49 -18.5t-18 -46.5q0 -30 16 -49t55 -36q14 -6 46 -17.5t48 -18.5q57 -25 80.5 -55.5t23.5 -78.5zM335 753q21 -13 23.5 -38t-15.5 -48q-30 -40 -135 -123l-13 9q26 118 58 173q14 24 37.5 32t44.5 -5z" />
    <glyph glyph-name="Scaron.sc" horiz-adv-x="462" 
d="M425 158q0 -77 -54.5 -124.5t-132.5 -47.5q-75 0 -138 26l-31 -29h-19l-10 188l22 2q89 -154 177 -154q40 0 62.5 20t22.5 54t-19.5 52t-72.5 38l-36 12.5t-49 19.5q-52 24 -74 56t-22 79q0 68 52 114.5t120 46.5q62 0 117 -24l31 26h19l14 -173l-21 -2
q-48 77 -83.5 108.5t-76.5 31.5q-31 0 -49 -18.5t-18 -46.5q0 -30 16 -49t55 -36q14 -6 46 -17.5t48 -18.5q57 -25 80.5 -55.5t23.5 -78.5zM230 671l128 74l15 -12l-136 -183h-21l-129 183l15 12z" />
    <glyph glyph-name="Scedilla.sc" horiz-adv-x="462" 
d="M318 -162q0 -43 -34 -73t-86 -30q-37 0 -62 18t-25 42q0 17 10.5 28.5t26.5 11.5q17 0 26.5 -11t9.5 -28t-14 -33q10 -3 24 -3q21 0 35 16t14 42q0 27 -16 43t-39 16q-20 0 -32 -4l-12 12l115 102q-4 0 -11 -0.5t-10 -0.5q-75 0 -138 26l-31 -29h-19l-10 188l22 2
q89 -154 177 -154q40 0 62.5 20t22.5 54t-19.5 52t-72.5 38l-36 12.5t-49 19.5q-52 24 -74 56t-22 79q0 68 52 114.5t120 46.5q62 0 117 -24l31 26h19l14 -173l-21 -2q-48 77 -83.5 108.5t-76.5 31.5q-31 0 -49 -18.5t-18 -46.5q0 -30 16 -49t55 -36q14 -6 46 -17.5
t48 -18.5q57 -25 80.5 -55.5t23.5 -78.5q0 -56 -30 -97t-79 -61l-78 -68q80 -19 80 -94z" />
    <glyph glyph-name="Scommaaccent.sc" horiz-adv-x="462" 
d="M425 158q0 -77 -54.5 -124.5t-132.5 -47.5q-75 0 -138 26l-31 -29h-19l-10 188l22 2q89 -154 177 -154q40 0 62.5 20t22.5 54t-19.5 52t-72.5 38l-36 12.5t-49 19.5q-52 24 -74 56t-22 79q0 68 52 114.5t120 46.5q62 0 117 -24l31 26h19l14 -173l-21 -2
q-48 77 -83.5 108.5t-76.5 31.5q-31 0 -49 -18.5t-18 -46.5q0 -30 16 -49t55 -36q14 -6 46 -17.5t48 -18.5q57 -25 80.5 -55.5t23.5 -78.5zM295 -160q0 -47 -34 -88t-94 -66l-9 12q80 59 88 115l-1 1l-11 -3q-16 -4 -24 -4q-22 0 -36.5 16t-14.5 40q0 27 18 46t45 19
q33 0 53 -24.5t20 -63.5z" />
    <glyph glyph-name="Tcaron.sc" horiz-adv-x="555" 
d="M533 309l-18 -4l-77 103q-40 55 -80 58l-14 1v-429l71 -22v-16h-277v16l71 22v429l-13 -1q-22 -1 -39 -14t-40 -44l-77 -103l-18 4l20 189h471zM275 671l128 74l15 -12l-136 -183h-21l-129 183l15 12z" />
    <glyph glyph-name="Tcommaaccent.sc" horiz-adv-x="555" 
d="M533 309l-18 -4l-77 103q-40 55 -80 58l-14 1v-429l71 -22v-16h-277v16l71 22v429l-13 -1q-22 -1 -39 -14t-40 -44l-77 -103l-18 4l20 189h471zM338 -160q0 -47 -34 -88t-94 -66l-9 12q80 59 88 115l-1 1l-11 -3q-16 -4 -24 -4q-22 0 -36.5 16t-14.5 40q0 27 18 46t45 19
q33 0 53 -24.5t20 -63.5z" />
    <glyph glyph-name="Thorn.sc" horiz-adv-x="522" 
d="M498 253q0 -68 -51.5 -109.5t-141.5 -41.5q-38 0 -76 5v-70l83 -21v-16h-286v16l68 22v421l-68 22v16h286v-16l-83 -21v-65q38 5 76 5q90 0 141.5 -40.5t51.5 -106.5zM360 251q0 54 -25.5 83.5t-70.5 31.5l-35 1v-232l35 1q45 2 70.5 31.5t25.5 83.5z" />
    <glyph glyph-name="Uacute.sc" 
d="M476 450l-61 31v16h164v-16l-62 -31v-274q0 -92 -56.5 -141.5t-148.5 -49.5q-106 0 -164 49.5t-58 151.5v273l-68 22v16h271v-16l-68 -22v-286q0 -134 127 -134q59 0 91.5 37.5t32.5 106.5v267zM419 753q21 -13 23.5 -38t-15.5 -48q-30 -40 -135 -123l-13 9
q26 118 58 173q14 24 37.5 32t44.5 -5z" />
    <glyph glyph-name="Ubreve.sc" 
d="M476 450l-61 31v16h164v-16l-62 -31v-274q0 -92 -56.5 -141.5t-148.5 -49.5q-106 0 -164 49.5t-58 151.5v273l-68 22v16h271v-16l-68 -22v-286q0 -134 127 -134q59 0 91.5 37.5t32.5 106.5v267zM315 657q43 0 78 19.5t50 51.5l22 -6q-9 -72 -47.5 -114.5t-102.5 -42.5
t-102.5 43t-44.5 114l22 6q13 -32 47.5 -51.5t77.5 -19.5z" />
    <glyph glyph-name="Ucircumflex.sc" 
d="M476 450l-61 31v16h164v-16l-62 -31v-274q0 -92 -56.5 -141.5t-148.5 -49.5q-106 0 -164 49.5t-58 151.5v273l-68 22v16h271v-16l-68 -22v-286q0 -134 127 -134q59 0 91.5 37.5t32.5 106.5v267zM314 621l-128 -74l-15 13l136 183h21l129 -183l-15 -13z" />
    <glyph glyph-name="Udieresis.sc" 
d="M476 450l-61 31v16h164v-16l-62 -31v-274q0 -92 -56.5 -141.5t-148.5 -49.5q-106 0 -164 49.5t-58 151.5v273l-68 22v16h271v-16l-68 -22v-286q0 -134 127 -134q59 0 91.5 37.5t32.5 106.5v267zM407 568q-30 0 -49.5 20.5t-19.5 50.5q0 31 22.5 54.5t54.5 23.5
q30 0 49.5 -20t19.5 -51t-22.5 -54.5t-54.5 -23.5zM216 568q-30 0 -49.5 20.5t-19.5 50.5q0 31 22 54.5t54 23.5q31 0 50 -20t19 -51t-22 -54.5t-54 -23.5z" />
    <glyph glyph-name="Ugrave.sc" 
d="M476 450l-61 31v16h164v-16l-62 -31v-274q0 -92 -56.5 -141.5t-148.5 -49.5q-106 0 -164 49.5t-58 151.5v273l-68 22v16h271v-16l-68 -22v-286q0 -134 127 -134q59 0 91.5 37.5t32.5 106.5v267zM366 553l-13 -9q-105 83 -135 123q-18 23 -15 47.5t24 38.5q20 13 44.5 5
t37.5 -32q29 -53 57 -173z" />
    <glyph glyph-name="Uhungarumlaut.sc" 
d="M476 450l-61 31v16h164v-16l-62 -31v-274q0 -92 -56.5 -141.5t-148.5 -49.5q-106 0 -164 49.5t-58 151.5v273l-68 22v16h271v-16l-68 -22v-286q0 -134 127 -134q59 0 91.5 37.5t32.5 106.5v267zM505 668q-38 -49 -135 -120l-13 9q28 106 66 169q14 23 37 31t43 -5
q19 -13 19.5 -37t-17.5 -47zM353 671q-42 -54 -132 -124l-14 8q27 111 61 171q14 24 36.5 32.5t42.5 -3.5q20 -13 22 -37t-16 -47z" />
    <glyph glyph-name="Umacron.sc" 
d="M476 450l-61 31v16h164v-16l-62 -31v-274q0 -92 -56.5 -141.5t-148.5 -49.5q-106 0 -164 49.5t-58 151.5v273l-68 22v16h271v-16l-68 -22v-286q0 -134 127 -134q59 0 91.5 37.5t32.5 106.5v267zM453 646v-67h-276v67h276z" />
    <glyph glyph-name="Uogonek.sc" 
d="M476 450l-61 31v16h164v-16l-62 -31v-274q0 -76 -39 -123t-106 -61q-61 -61 -61 -123q0 -30 14 -49t40 -19q30 0 43 15l11 -8q-30 -61 -95 -61q-45 0 -72 27.5t-27 67.5q0 35 24.5 73t71.5 70h-9q-106 0 -164 49.5t-58 151.5v273l-68 22v16h271v-16l-68 -22v-286
q0 -134 127 -134q59 0 91.5 37.5t32.5 106.5v267z" />
    <glyph glyph-name="Uring.sc" 
d="M476 450l-61 31v16h164v-16l-62 -31v-274q0 -92 -56.5 -141.5t-148.5 -49.5q-106 0 -164 49.5t-58 151.5v273l-68 22v16h271v-16l-68 -22v-286q0 -134 127 -134q59 0 91.5 37.5t32.5 106.5v267zM417 638q0 -39 -28 -68.5t-76 -29.5q-47 0 -73.5 28t-26.5 69q0 38 28.5 67
t76.5 29q47 0 73 -27t26 -68zM351 638q0 69 -37 69q-35 0 -35 -71q0 -69 37 -69q20 0 27.5 17.5t7.5 53.5z" />
    <glyph glyph-name="Wacute.sc" horiz-adv-x="792" 
d="M383 386l-25 71l-48 24v16h244v-16l-59 -22l95 -294h2l82 280l-65 35v17h185v-17l-61 -32l-163 -455h-46l-121 338h-2l-132 -338h-44l-157 464l-63 24v16h261v-16l-55 -22l84 -294h2zM522 753q21 -13 23.5 -38t-15.5 -48q-30 -40 -135 -123l-13 9q26 118 58 173
q14 24 37.5 32t44.5 -5z" />
    <glyph glyph-name="Wcircumflex.sc" horiz-adv-x="792" 
d="M383 386l-25 71l-48 24v16h244v-16l-59 -22l95 -294h2l82 280l-65 35v17h185v-17l-61 -32l-163 -455h-46l-121 338h-2l-132 -338h-44l-157 464l-63 24v16h261v-16l-55 -22l84 -294h2zM417 621l-128 -74l-15 13l136 183h21l129 -183l-15 -13z" />
    <glyph glyph-name="Wdieresis.sc" horiz-adv-x="792" 
d="M383 386l-25 71l-48 24v16h244v-16l-59 -22l95 -294h2l82 280l-65 35v17h185v-17l-61 -32l-163 -455h-46l-121 338h-2l-132 -338h-44l-157 464l-63 24v16h261v-16l-55 -22l84 -294h2zM510 568q-30 0 -49.5 20.5t-19.5 50.5q0 31 22.5 54.5t54.5 23.5q30 0 49.5 -20
t19.5 -51t-22.5 -54.5t-54.5 -23.5zM319 568q-30 0 -49.5 20.5t-19.5 50.5q0 31 22 54.5t54 23.5q31 0 50 -20t19 -51t-22 -54.5t-54 -23.5z" />
    <glyph glyph-name="Wgrave.sc" horiz-adv-x="792" 
d="M383 386l-25 71l-48 24v16h244v-16l-59 -22l95 -294h2l82 280l-65 35v17h185v-17l-61 -32l-163 -455h-46l-121 338h-2l-132 -338h-44l-157 464l-63 24v16h261v-16l-55 -22l84 -294h2zM469 553l-13 -9q-105 83 -135 123q-18 23 -15 47.5t24 38.5q20 13 44.5 5t37.5 -32
q29 -53 57 -173z" />
    <glyph glyph-name="Yacute.sc" horiz-adv-x="536" 
d="M479 452l-135 -229v-179l71 -28v-16h-276v16l70 28v156l-143 250l-61 31v16h270v-16l-61 -26l107 -200l96 195l-59 31v16h184v-16zM387 753q21 -13 23.5 -38t-15.5 -48q-30 -40 -135 -123l-13 9q26 118 58 173q14 24 37.5 32t44.5 -5z" />
    <glyph glyph-name="Ycircumflex.sc" horiz-adv-x="536" 
d="M479 452l-135 -229v-179l71 -28v-16h-276v16l70 28v156l-143 250l-61 31v16h270v-16l-61 -26l107 -200l96 195l-59 31v16h184v-16zM282 621l-128 -74l-15 13l136 183h21l129 -183l-15 -13z" />
    <glyph glyph-name="Ydieresis.sc" horiz-adv-x="536" 
d="M479 452l-135 -229v-179l71 -28v-16h-276v16l70 28v156l-143 250l-61 31v16h270v-16l-61 -26l107 -200l96 195l-59 31v16h184v-16zM375 568q-30 0 -49.5 20.5t-19.5 50.5q0 31 22.5 54.5t54.5 23.5q30 0 49.5 -20t19.5 -51t-22.5 -54.5t-54.5 -23.5zM184 568
q-30 0 -49.5 20.5t-19.5 50.5q0 31 22 54.5t54 23.5q31 0 50 -20t19 -51t-22 -54.5t-54 -23.5z" />
    <glyph glyph-name="Ygrave.sc" horiz-adv-x="536" 
d="M479 452l-135 -229v-179l71 -28v-16h-276v16l70 28v156l-143 250l-61 31v16h270v-16l-61 -26l107 -200l96 195l-59 31v16h184v-16zM334 553l-13 -9q-105 83 -135 123q-18 23 -15 47.5t24 38.5q20 13 44.5 5t37.5 -32q29 -53 57 -173z" />
    <glyph glyph-name="Zacute.sc" horiz-adv-x="523" 
d="M487 191l-12 -191h-452l-4 9l316 450l-104 -1q-33 0 -54 -13t-54 -53l-59 -73l-13 3l14 175h430l4 -9l-314 -451l128 2q33 1 52.5 15t43.5 48l65 92zM372 753q21 -13 23.5 -38t-15.5 -48q-30 -40 -135 -123l-13 9q26 118 58 173q14 24 37.5 32t44.5 -5z" />
    <glyph glyph-name="Zcaron.sc" horiz-adv-x="523" 
d="M487 191l-12 -191h-452l-4 9l316 450l-104 -1q-33 0 -54 -13t-54 -53l-59 -73l-13 3l14 175h430l4 -9l-314 -451l128 2q33 1 52.5 15t43.5 48l65 92zM267 671l128 74l15 -12l-136 -183h-21l-129 183l15 12z" />
    <glyph glyph-name="Zdotaccent.sc" horiz-adv-x="523" 
d="M487 191l-12 -191h-452l-4 9l316 450l-104 -1q-33 0 -54 -13t-54 -53l-59 -73l-13 3l14 175h430l4 -9l-314 -451l128 2q33 1 52.5 15t43.5 48l65 92zM342 646q0 -31 -22 -54.5t-54 -23.5q-30 0 -49.5 20.5t-19.5 50.5q0 31 22 54.5t54 23.5q31 0 50 -20t19 -51z" />
    <glyph glyph-name="f_f.sc" horiz-adv-x="1026" 
d="M491 321l-17 -5l-62 88q-21 30 -44 44t-61 15l-78 3v-209h41q30 0 47.5 14t30.5 48l9 24h19v-211h-19l-10 24q-15 36 -31 48.5t-46 12.5h-41v-179l74 -22v-16h-277v16l68 22v421l-68 22v16h454zM1004 321l-17 -5l-62 88q-21 30 -44 44t-61 15l-78 3v-209h41q30 0 47.5 14
t30.5 48l9 24h19v-211h-19l-10 24q-15 36 -31 48.5t-46 12.5h-41v-179l74 -22v-16h-277v16l68 22v421l-68 22v16h454z" />
    <glyph glyph-name="f_i.sc" horiz-adv-x="852" 
d="M491 321l-17 -5l-62 88q-21 30 -44 44t-61 15l-78 3v-209h41q30 0 47.5 14t30.5 48l9 24h19v-211h-19l-10 24q-15 36 -31 48.5t-46 12.5h-41v-179l74 -22v-16h-277v16l68 22v421l-68 22v16h454zM750 38l68 -22v-16h-271v16l68 22v421l-68 22v16h271v-16l-68 -22v-421z
" />
    <glyph glyph-name="f_l.sc" horiz-adv-x="1017" 
d="M491 321l-17 -5l-62 88q-21 30 -44 44t-61 15l-78 3v-209h41q30 0 47.5 14t30.5 48l9 24h19v-211h-19l-10 24q-15 36 -31 48.5t-46 12.5h-41v-179l74 -22v-16h-277v16l68 22v421l-68 22v16h454zM993 186l-20 -186h-434v16l68 22v421l-68 22v16h278v-16l-75 -21v-428l62 2
q60 3 99 54l75 100z" />
    <glyph glyph-name="f_f_i.sc" horiz-adv-x="1365" 
d="M491 321l-17 -5l-62 88q-21 30 -44 44t-61 15l-78 3v-209h41q30 0 47.5 14t30.5 48l9 24h19v-211h-19l-10 24q-15 36 -31 48.5t-46 12.5h-41v-179l74 -22v-16h-277v16l68 22v421l-68 22v16h454zM1004 321l-17 -5l-62 88q-21 30 -44 44t-61 15l-78 3v-209h41q30 0 47.5 14
t30.5 48l9 24h19v-211h-19l-10 24q-15 36 -31 48.5t-46 12.5h-41v-179l74 -22v-16h-277v16l68 22v421l-68 22v16h454zM1263 38l68 -22v-16h-271v16l68 22v421l-68 22v16h271v-16l-68 -22v-421z" />
    <glyph glyph-name="f_f_l.sc" horiz-adv-x="1530" 
d="M491 321l-17 -5l-62 88q-21 30 -44 44t-61 15l-78 3v-209h41q30 0 47.5 14t30.5 48l9 24h19v-211h-19l-10 24q-15 36 -31 48.5t-46 12.5h-41v-179l74 -22v-16h-277v16l68 22v421l-68 22v16h454zM1004 321l-17 -5l-62 88q-21 30 -44 44t-61 15l-78 3v-209h41q30 0 47.5 14
t30.5 48l9 24h19v-211h-19l-10 24q-15 36 -31 48.5t-46 12.5h-41v-179l74 -22v-16h-277v16l68 22v421l-68 22v16h454zM1506 186l-20 -186h-434v16l68 22v421l-68 22v16h278v-16l-75 -21v-428l62 2q60 3 99 54l75 100z" />
    <glyph glyph-name="germandbls.sc" horiz-adv-x="924" 
d="M425 158q0 -77 -54.5 -124.5t-132.5 -47.5q-75 0 -138 26l-31 -29h-19l-10 188l22 2q89 -154 177 -154q40 0 62.5 20t22.5 54t-19.5 52t-72.5 38l-36 12.5t-49 19.5q-52 24 -74 56t-22 79q0 68 52 114.5t120 46.5q62 0 117 -24l31 26h19l14 -173l-21 -2
q-48 77 -83.5 108.5t-76.5 31.5q-31 0 -49 -18.5t-18 -46.5q0 -30 16 -49t55 -36q14 -6 46 -17.5t48 -18.5q57 -25 80.5 -55.5t23.5 -78.5zM887 158q0 -77 -54.5 -124.5t-132.5 -47.5q-75 0 -138 26l-31 -29h-19l-10 188l22 2q89 -154 177 -154q40 0 62.5 20t22.5 54
t-19.5 52t-72.5 38l-36 12.5t-49 19.5q-52 24 -74 56t-22 79q0 68 52 114.5t120 46.5q62 0 117 -24l31 26h19l14 -173l-21 -2q-48 77 -83.5 108.5t-76.5 31.5q-31 0 -49 -18.5t-18 -46.5q0 -30 16 -49t55 -36q14 -6 46 -17.5t48 -18.5q57 -25 80.5 -55.5t23.5 -78.5z" />
    <glyph glyph-name="i.dot" horiz-adv-x="279" 
d="M66 609q0 33 24 58.5t58 25.5q33 0 53.5 -21.5t20.5 -54.5t-24 -58t-58 -25q-32 0 -53 21.5t-21 53.5zM80 373l-59 47v10l183 42l4 -3v-431l60 -24v-14h-251v14l63 24v335z" />
    <glyph glyph-name="caron.alt" horiz-adv-x="238" 
d="M73 501l-3 34q-3 39 -3 78q0 38 4 62.5t18.5 43t40.5 18.5q22 0 35.5 -15.5t13.5 -39.5q0 -43 -91 -185z" />
    <hkern g1="F"
	g2="u.sc,uacute.sc,ubreve.sc,ucircumflex.sc,udieresis.sc,ugrave.sc,uhungarumlaut.sc,umacron.sc,uogonek.sc,uring.sc,U.sc,Uacute.sc,Ubreve.sc,Ucircumflex.sc,Udieresis.sc,Ugrave.sc,Uhungarumlaut.sc,Umacron.sc,Uogone</font>
</defs>
</svg>
