<svg xmlns="http://www.w3.org/2000/svg" viewBox="5 5 178 283.6" width="178" height="283.6"><path fill="#FFF" d="M36.5 10.3h1.9l2.3 7.3 2.4-7.3h1.5l2.4 7.3 2.3-7.3h1.8l-3.4 10h-1.3l-2.4-7-2.4 7H40c0-.1-3.5-10-3.5-10zm18.7 0H57v4.2h4.7v-4.2h1.8v9.8h-1.8v-4.2H57v4.2h-1.8v-9.8zm13 0h7.3v1.5H70v2.6h5V16h-5v2.6h5.7V20h-7.4c-.1 0-.1-9.7-.1-9.7zm11.7 0h1.5l5.3 6.9v-6.9h1.8v9.8H87l-5.4-7v7h-1.8v-9.8zm19.4 4.8c0-2.8 2.2-5.1 5.1-5.1 3 0 5.1 2.3 5.1 5.1s-2.2 5.1-5.1 5.1c-3 0-5.1-2.3-5.1-5.1zm8.4 0c0-2-1.3-3.5-3.4-3.5-2 0-3.2 1.5-3.2 3.5 0 1.9 1.3 3.5 3.4 3.5 2 0 3.2-1.5 3.2-3.5zm6.1-4.8h1.6l5.3 6.9v-6.9h1.8v9.8h-1.3l-5.4-7v7H114v-9.8h-.2zm13.3 0h7.3v1.5h-5.5v2.6h5V16h-5v2.6h5.7V20h-7.4v-9.7zM10 38.3l1.1-1.2c.5.8 1.1 1.1 2 1.1s1.6-.7 1.6-2v-6.5h1.8v6.5c0 1.1-.4 2-.9 2.6-.5.5-1.3.8-2.3.8-1.5.3-2.6-.4-3.3-1.3zm10.6-3.5c0-2.8 2.2-5.1 5.1-5.1s5.1 2.3 5.1 5.1-2.2 5.1-5.1 5.1-5.1-2.3-5.1-5.1zm8.5 0c0-2-1.3-3.5-3.4-3.5s-3.2 1.6-3.2 3.5 1.3 3.5 3.4 3.5 3.2-1.5 3.2-3.5zm5.9.8v-5.7h1.9v5.7c0 1.9.9 2.8 2.6 2.8 1.5 0 2.4-.9 2.4-2.7V30h1.8v5.5c0 3-1.8 4.4-4.2 4.4-2.7 0-4.5-1.5-4.5-4.3zm13.2-5.8h4.4c1.2 0 2.3.4 2.8 1.1.5.5.8 1.2.8 2.2 0 1.6-.9 2.6-2.3 3l2.6 3.8h-2.2L52 36.3h-2.2v3.5H48c.2 0 .2-10 .2-10zm4.2 5c1.2 0 2-.7 2-1.8s-.8-1.6-2-1.6h-2.6v3.2h2.6v.2zm8.1-5h1.6l5.3 6.9v-6.9h1.8v9.8h-1.3l-5.4-7v7h-1.8v-9.8h-.2zm13.3 0h7.3v1.6h-5.5V34h5v1.6h-5v2.6h5.7v1.6h-7.4c-.1 0-.1-10-.1-10zm14.7 6l-3.9-5.9h2l2.7 4.3 2.8-4.3h2l-3.9 5.9v3.8h-1.8v-3.8zm15.7-6h7.3v1.6H106V34h5v1.6h-5v2.6h5.7v1.6h-7.4v-10zm11.8 0h1.6l5.3 6.9v-6.9h1.6v9.8h-1.3l-5.4-7v7H116v-9.8zm13.3 0h3.6c3.1 0 5.3 2.2 5.3 4.8 0 2.8-2.2 4.8-5.3 4.8h-3.6v-9.6zm1.7 1.6V38h2c2 0 3.4-1.3 3.4-3.2 0-2-1.3-3.4-3.4-3.4h-2zm10.7 6.9l1.1-1.2c.9.8 1.9 1.3 3.1 1.3 1.1 0 1.8-.4 1.8-1.2 0-.8-.4-1.1-2.3-1.5-2-.4-3.2-1.1-3.2-3 0-1.8 1.3-2.8 3.4-2.8 1.3 0 2.6.4 3.5 1.2l-.9 1.3c-.8-.7-1.8-1.1-2.6-1.1-1.1 0-1.6.5-1.6 1.1 0 .8.4 1.1 2.3 1.5 2 .4 3.2 1.2 3.2 3 0 1.9-1.3 3-3.5 3-1.6 0-3.1-.6-4.3-1.6zm11.5-.6h1.9v2h-1.9v-2zm6.1 0h1.9v2h-1.9v-2zm6.1 0h1.9v2h-1.9v-2zm-151.1 23h1.6l4.3 10h-1.9l-1.1-2.3h-4.7l-1.1 2.3H10l4.3-10zm2.4 5.9L15 62.7l-1.8 3.9h3.5zm7.4-5.9h1.6l5.3 6.9v-6.9h1.8v9.8h-1.3l-5.4-7v7h-1.8c-.2 0-.2-9.8-.2-9.8zm13 5c0-2.8 2.2-5.1 5.1-5.1s5.1 2.3 5.1 5.1-2.2 5.1-5.1 5.1c-3.1 0-5.1-2.4-5.1-5.1zm8.3 0c0-2-1.3-3.5-3.4-3.5-2 0-3.2 1.6-3.2 3.5s1.3 3.5 3.4 3.5c2-.1 3.2-1.6 3.2-3.5zm8.1-3.4h-3.1v-1.6h7.9v1.6h-3.1v8.2h-1.8c.1 0 .1-8.2.1-8.2zm8.9-1.6h1.8v4.2h4.7v-4.2h1.8v9.8h-1.8v-4.2h-4.7v4.2h-1.8v-9.8zm12.9 0h7.3v1.5H77v2.6h5v1.6h-5V69h5.7v1.5h-7.4v-9.8zm11.7 0h4.4c1.2 0 2.3.4 2.8.9s.8 1.3.8 2.2c0 1.6-.9 2.6-2.3 3l2.6 3.8h-2L90.9 67h-2.2v3.5H87v-9.8zm4.2 5c1.2 0 2-.7 2-1.8s-.8-1.6-2-1.6h-2.6v3.2h2.6v.2zm14.7-5h4.4c1.1 0 2 .3 2.6.8.4.4.7 1.1.7 1.6 0 1.2-.7 1.8-1.3 2.2 1.1.4 2 1.1 2 2.4 0 1.8-1.3 2.7-3.6 2.7H106l-.1-9.7zm5.9 2.8c0-.8-.7-1.2-1.8-1.2h-2.6v2.6h2.3c1.3 0 2.1-.5 2.1-1.4zm-1.5 2.9h-2.7v2.7h3c1.1 0 1.9-.4 1.9-1.3-.2-.9-.9-1.4-2.2-1.4zm7.9-5.7h7.3v1.5h-5.7v2.6h5v1.6h-5V69h5.7v1.5h-7.4l.1-9.8zm11.2 5c0-2.8 2-5.1 5.1-5.1 1.8 0 2.8.4 3.8 1.3l-1.1 1.3c-.8-.7-1.5-1.1-2.7-1.1-1.8 0-3.2 1.6-3.2 3.5 0 2 1.3 3.5 3.4 3.5.9 0 1.8-.3 2.3-.8v-1.9h-2.6V65h4.2v4.2c-.9.8-2.3 1.5-4.2 1.5-3 .1-5-2.2-5-5zm13.9-5h1.8v9.8h-1.8v-9.8zm6.6 0h1.6l5.3 6.9v-6.9h1.8v9.8h-1.3l-5.4-7v7H150v-9.8h-.1zm12.6 8.4l1.1-1.2c.9.8 1.9 1.3 3.1 1.3 1.1 0 1.8-.4 1.8-1.2s-.4-1.1-2.3-1.5c-2-.4-3.2-1.1-3.2-3 0-1.8 1.3-2.8 3.4-2.8 1.3 0 2.6.4 3.5 1.2l-.9 1.3c-.8-.7-1.8-1.1-2.6-1.1-1.1 0-1.6.5-1.6 1.1 0 .8.4 1.1 2.3 1.5 2 .4 3.2 1.2 3.2 3 0 1.9-1.3 3-3.5 3-1.7 0-3.1-.4-4.3-1.6zm11.6-.4h1.9v2h-1.9v-2z"/><path fill="#B99F62" d="M10 154.4h3c1.8 0 3 .9 3 2.6 0 1.8-1.3 2.6-3.1 2.6h-2v2.8H10v-8zm2.8 4.3c1.3 0 2.2-.7 2.2-1.8s-.8-1.8-2.2-1.8h-2v3.5c0 .1 2 .1 2 .1zm6.4.3v-4.6h.8v4.4c0 1.8.9 2.6 2.4 2.6 1.3 0 2.3-.8 2.3-2.6v-4.6h.9v4.4c0 2.3-1.3 3.5-3.2 3.5-1.9.3-3.2-.9-3.2-3.1zm10.5-4.6H33c.9 0 1.8.3 2.3.8.4.4.5.9.5 1.6 0 1.3-.9 2-2.2 2.3l2.4 3.2h-1l-2.3-3.1h-2.3v3.1h-.8c.1.1.1-7.9.1-7.9zm3.2 4.1c1.2 0 2-.5 2-1.6 0-.9-.8-1.6-2-1.6h-2.4v3.2h2.4zm6.3-.2c0-2.3 1.8-4.2 3.9-4.2 1.3 0 2.3.4 3.1 1.2l-.5.7c-.7-.7-1.3-1.1-2.4-1.1-1.8 0-3 1.3-3 3.2 0 1.8 1.3 3.2 3 3.2 1.1 0 1.8-.4 2.6-1.1l.5.5c-.8.8-1.8 1.3-3.2 1.3-2.4.4-4-1.4-4-3.7zm10.5-3.9h.8v3.5H55v-3.5h.8v7.8H55v-3.5h-4.4v3.5h-.8v-7.8zm13.2 0h.8l3.5 7.9h-.9l-.9-2h-4.2l-.9 2h-.9l3.5-7.9zm2.2 5l-1.8-4-1.8 4h3.6zm5.1 1.8l.5-.7c.8.8 1.6 1.1 2.7 1.1s1.8-.5 1.8-1.3-.4-1.1-2-1.5c-1.8-.4-2.6-.9-2.6-2.3 0-1.2 1.1-2.2 2.6-2.2 1.1 0 2 .3 2.8.9l-.5.7c-.8-.5-1.5-.8-2.3-.8-1.1 0-1.8.5-1.8 1.3s.4 1.1 2.2 1.5c1.8.4 2.6 1.1 2.6 2.3 0 1.3-1.1 2.3-2.7 2.3-1.3-.1-2.4-.4-3.3-1.3zm9.4-6.8h5.8v.8h-4.7v2.7H85v.8h-4.3v2.7h4.7v.8h-5.7l-.1-7.8zm14.5 0h.9l5 6.3v-6.3h.8v7.8h-.8l-5.1-6.5v6.5H94v-7.8h.1zm10.3 3.9c0-2.2 1.6-4.2 4-4.2s4 1.9 4 4c0 2.2-1.6 4-4 4-2.4.1-4-1.6-4-3.8zm7.1 0c0-1.8-1.3-3.2-3.1-3.2s-3.1 1.3-3.1 3.2c0 1.8 1.3 3.2 3.1 3.2 1.9.1 3.1-1.3 3.1-3.2zm4.1-3.9h.9l2.3 6.6 2.2-6.6h.8l2.2 6.6 2.3-6.6h.9l-2.8 7.9h-.8l-2.2-6.3-2.2 6.3h-.8c0 .1-2.8-7.9-2.8-7.9zM10 184.3h.9l2.3 6.6 2.2-6.6h.8l2.2 6.6 2.3-6.6h.9l-2.8 7.9h-.7l-2.3-6.5-2.2 6.5H13l-3-7.9zm17.9 0h.8l3.6 7.9h-.9l-.9-2h-4.3l-.9 2h-.9l3.5-7.9zm2.2 5.1l-1.8-4-1.8 4h3.6zm7.6-4.3h-2.6v-.8h6.3v.8h-2.6v7.1H38l-.3-7.1zm6.6 3.2c0-2.3 1.8-4.2 4-4.2 1.3 0 2.3.4 3.1 1.2l-.7.7c-.7-.7-1.3-1.1-2.6-1.1-1.8 0-3.1 1.3-3.1 3.2s1.3 3.2 3.1 3.2c1.1 0 1.8-.4 2.6-1.1l.5.5c-.8.8-1.8 1.3-3.2 1.3-1.9.4-3.7-1.4-3.7-3.7zm10.7-4h.9v3.5h4.6v-3.5h.9v7.8h-.9v-3.5h-4.6v3.5H55v-7.8zm17.5.8h-2.6v-.8h6.3v.8h-2.6v7.1h-.9c0 .1-.2-7.1-.2-7.1zm7.1-.8h.9v3.5h4.6v-3.5h.9v7.8h-.9v-3.5h-4.6v3.5h-.9v-7.8zm10.4 0h5.7v.8h-4.8v2.7h4.3v.8h-4.3v2.8h4.8v.8h-5.8l.1-7.9zm14.5 0h5.7v.8h-4.7v2.8h4.3v.8h-4.3v3.5h-.9v-7.9h-.1zm9.3 0h.9v7.8h-.9v-7.8zm5 0h.9v7.1h4.4v.8h-5.4v-7.9h.1zm8.7 0h.9l3 4.3 3-4.3h.8v7.8h-.9v-6.3l-3 4.2-2.8-4.2v6.3h-.8l-.2-7.8z"/><path fill="#FFF" d="M31.4 257.6h1.2l4 5.1v-5.1h1.3v7.4h-1.1l-4.1-5.3v5.3h-1.3v-7.4zm7.9 4.6c0-1.6 1.1-2.9 2.7-2.9 1.8 0 2.7 1.4 2.7 3v.4h-4.1c.1.9.8 1.4 1.6 1.4.6 0 1.1-.2 1.5-.6l.7.6c-.6.6-1.2 1.1-2.3 1.1-1.6-.1-2.8-1.3-2.8-3zm4-.4c-.1-.9-.6-1.5-1.4-1.5-.8 0-1.4.6-1.4 1.5h2.8zm1.8-2.4h1.4l1.5 4.1 1.5-4.1h1.4l-2.3 5.6h-1.1c-.1 0-2.4-5.6-2.4-5.6zm6.1 2.8c0-1.6 1.1-2.9 2.7-2.9 1.8 0 2.7 1.4 2.7 3v.4h-4.1c.1.9.8 1.4 1.6 1.4.6 0 1.1-.2 1.5-.6l.7.6c-.6.6-1.2 1.1-2.3 1.1-1.5-.1-2.8-1.3-2.8-3zm4.2-.4c-.1-.9-.6-1.5-1.4-1.5-.8 0-1.4.6-1.4 1.5h2.8zm2.5-2.4h1.3v1.2c.4-.9 1-1.4 2-1.4v1.4h-.1c-1.1 0-1.8.7-1.8 2.2v2.1H58l-.1-5.5zm7.1 4.9l.6-.9c.6.4 1.2.7 1.8.7.6 0 .9-.2.9-.6 0-.4-.6-.6-1.2-.8-.9-.2-1.7-.6-1.7-1.6 0-1.1.9-1.7 2-1.7.7 0 1.4.2 2.1.6l-.5.9c-.6-.4-1.1-.6-1.6-.6s-.8.2-.8.6c0 .4.6.6 1.2.8.8.2 1.7.6 1.7 1.6 0 1.2-.9 1.7-2.1 1.7-.9.1-1.8-.2-2.4-.7zm5.8-.9v-2.9h-.7v-1.1h.7v-1.6h1.3v1.6h1.5v1.1h-1.5v2.7c0 .5.2.7.7.7.3 0 .6-.1.8-.2v1.1c-.3.2-.6.3-1.1.3-1.1 0-1.7-.5-1.7-1.7zm3.6-1.2c0-1.6 1.2-2.9 3-2.9 1.7 0 3 1.3 3 2.8s-1.2 2.8-3 2.8c-1.8.2-3-1.1-3-2.7zm4.7 0c0-1-.7-1.8-1.7-1.8-1.1 0-1.7.8-1.7 1.8s.7 1.8 1.7 1.8c1-.1 1.7-.9 1.7-1.8zm2.5-2.8h1.3v.9c.4-.6 1-1.1 1.8-1.1 1.3 0 2.6 1.1 2.6 2.8 0 1.8-1.2 2.8-2.6 2.8-.9 0-1.5-.4-1.8-1v2.5h-1.3v-6.9zm4.4 2.8c0-1.1-.7-1.8-1.6-1.8s-1.6.7-1.6 1.8.7 1.8 1.6 1.8c.9-.1 1.6-.7 1.6-1.8zm2.5 1.3h1.4v1.4h-1.4v-1.4zm6.1-5.9h1.2l4 5.1v-5.1h1.3v7.4H100l-4.1-5.3v5.3h-1.4v-7.4zm7.9 4.6c0-1.6 1.1-2.9 2.7-2.9 1.8 0 2.7 1.4 2.7 3v.4h-4.1c.1.9.8 1.4 1.6 1.4.6 0 1.1-.2 1.5-.6l.7.6c-.6.6-1.2 1.1-2.3 1.1-1.6-.1-2.8-1.3-2.8-3zm4.2-.4c-.1-.9-.6-1.5-1.4-1.5-.8 0-1.4.6-1.4 1.5h2.8zm1.7-2.4h1.4l1.5 4.1 1.5-4.1h1.4l-2.3 5.6h-1.1l-2.4-5.6zm6.2 2.8c0-1.6 1.1-2.9 2.7-2.9 1.8 0 2.7 1.4 2.7 3v.4h-4.1c.1.9.8 1.4 1.6 1.4.6 0 1.1-.2 1.5-.6l.7.6c-.6.6-1.2 1.1-2.3 1.1-1.6-.1-2.8-1.3-2.8-3zm4.1-.4c-.1-.9-.6-1.5-1.4-1.5-.8 0-1.4.6-1.4 1.5h2.8zm2.5-2.4h1.3v1.2c.4-.9 1-1.4 2-1.4v1.4h-.1c-1.1 0-1.8.7-1.8 2.2v2.1h-1.4v-5.5zm7 4.9l.6-.9c.6.4 1.2.7 1.8.7.6 0 .9-.2.9-.6 0-.4-.6-.6-1.2-.8-.9-.2-1.7-.6-1.7-1.6 0-1.1.9-1.7 2-1.7.7 0 1.4.2 2.1.6l-.5.9c-.6-.4-1.1-.6-1.6-.6s-.8.2-.8.6c0 .4.6.6 1.2.8.8.2 1.7.6 1.7 1.6 0 1.2-.9 1.7-2.1 1.7-.8.1-1.7-.2-2.4-.7zm5.4-2.1c0-1.6 1.1-2.9 2.7-2.9 1.8 0 2.7 1.4 2.7 3v.4h-4c.1.9.8 1.4 1.6 1.4.6 0 1.1-.2 1.5-.6l.7.6c-.6.6-1.2 1.1-2.3 1.1-1.6-.1-2.9-1.3-2.9-3zm4.2-.4c-.1-.9-.6-1.5-1.4-1.5-.8 0-1.4.6-1.4 1.5h2.8zm2.7 1.6v-2.9h-.7v-1.1h.7v-1.6h1.3v1.6h1.5v1.1h-1.5v2.7c0 .5.2.7.7.7.3 0 .6-.1.8-.2v1.1c-.3.2-.6.3-1.1.3-1 0-1.7-.5-1.7-1.7zm4.4 0v-2.9h-.7v-1.1h.7v-1.6h1.3v1.6h1.5v1.1h-1.5v2.7c0 .5.2.7.7.7.3 0 .6-.1.8-.2v1.1c-.3.2-.6.3-1.1.3-1.1 0-1.7-.5-1.7-1.7zm4.1-6.1h1.3v7.7H149v-7.7zm2.6 4.9c0-1.6 1.1-2.9 2.7-2.9 1.8 0 2.7 1.4 2.7 3v.4h-4c.1.9.8 1.4 1.6 1.4.6 0 1.1-.2 1.5-.6l.7.6c-.6.6-1.2 1.1-2.3 1.1-1.7-.1-2.9-1.3-2.9-3zm4.1-.4c-.1-.9-.6-1.5-1.4-1.5-.8 0-1.4.6-1.4 1.5h2.8zm2.4 1.7h1.4v1.4h-1.4v-1.4zM33.4 208.7c.4-.6.9-.9 1.4-.9v-.4h-9.7v.4c.6 0 1.1.3 1.4.9.4.6.6 1.2.6 2v11.6h-14l.1-11.6c0-.7.1-1.4.5-2 .4-.6.8-.9 1.3-.9l.1-.4h-10v.4c.6 0 1.1.3 1.5.9.4.6.6 1.2.6 1.9v27.5c0 .7-.2 1.4-.7 1.9-.5.7-.9 1-1.5 1v.4h10v-.4c-1.1 0-1.7-1-1.8-2.8v-13.7h14v13.7c0 .7-.2 1.4-.7 1.9-.4.6-1 .9-1.6.9v.4h10v-.4c-.6 0-1.1-.3-1.4-.9-.4-.6-.6-1.2-.6-1.9v-27.5c-.1-.8.1-1.4.5-2m9.8 11.3c.9-1.1 1.9-1.7 3.1-1.7 1.2 0 2.2.6 3 1.8.9 1.2 1.3 2.8 1.4 4.5h-9.2c.3-1.9.8-3.5 1.7-4.6m12.2 6.4c.1-2.3-.5-4.3-1.7-6.2-1.6-2.3-3.9-3.6-6.9-3.6-3.2 0-5.8 1.5-7.8 4.4-1.6 2.5-2.5 5.4-2.5 8.5s.6 5.9 1.9 8c1.6 2.7 3.9 4.1 6.9 4.1 3 0 5.5-1.2 7.5-3.7 1.4-1.7 2.1-3.3 2.3-5v-.1c0-.1-.1-.2-.4-.3l-.4-.1c-.9 1.7-1.5 2.7-1.7 2.8-1.2 1.4-2.8 2.1-4.6 2.1-2.3 0-4.1-1-5.3-3-1.1-1.7-1.7-4-1.7-6.7l.1-1.6 14.3.4zM77.9 238v-15.6c0-1.3-.6-2.6-1.7-3.8-1.4-1.4-3-2.1-5.1-2.1-1.6 0-3.1.4-4.5 1.4-1.2.8-2.1 1.7-2.7 2.8l.1-4.1h-.2c-1.8 1.4-4.1 2.6-7.2 3.5v.4c1.4 0 2.2.7 2.3 2V238c0 1.1-.3 1.9-.9 2.3-.2.2-.7.4-1.4.6v.3h9v-.2c-1.2-.4-1.8-1.4-1.8-3v-12.4c0-1.5.4-2.8 1-4 .9-1.5 2.1-2.2 3.6-2.2 2.8 0 4.3 1.6 4.3 4.8V238c0 1.6-.6 2.6-1.8 3v.3H80l.1-.3c-.6-.2-1.1-.4-1.2-.6-.7-.4-1-1.3-1-2.4m58.4-11.3c-2.2-1.3-3.3-2.1-3.5-2.2-.8-.7-1.2-1.6-1.2-2.8-.1-.9.2-1.7.8-2.3.6-.6 1.4-.9 2.3-.9.9.1 2 .4 3 1.1 1.4.9 2.5 2.3 3.4 4h.6l-.4-6.9c-.1 0-.4.1-.4.1-.2.9-.6 1.2-1.1 1.2-.4 0-1.1-.2-2.1-.5-1.1-.4-2.1-.5-2.9-.5-1.8 0-3.4.6-4.8 1.7-1.6 1.3-2.4 3-2.4 5.1 0 1.9.7 3.6 2.1 4.8.4.4 1.7 1.2 3.8 2.5 2.1 1.3 3.1 2 3.5 2.3 1.1.9 1.7 2.1 1.7 3.3.1 1.2-.4 2.1-1.5 2.8-.7.4-1.4.7-2.1.7h-.4c-2.8-.2-4.9-2.3-6.3-6.3h-.7l.4 7.9.4.1c.5-.8 1.1-1.1 1.8-1.1.3 0 .9.2 1.7.6.9.4 2.1.6 3.3.6 1.8 0 3.5-.6 5-1.6 1.9-1.4 2.8-3.3 2.8-5.9-.1-1.6-.8-3.1-2.2-4.5-1-1.1-2.6-2.1-4.6-3.3m17.2 0c-2.1-1.3-3.3-2.1-3.5-2.2-.8-.6-1.2-1.6-1.2-2.8-.1-.9.2-1.7.8-2.3.6-.6 1.4-.9 2.3-.9.9.1 2 .4 3 1.1 1.4.9 2.5 2.2 3.4 4h.6l-.4-6.9c-.1 0-.4.1-.4.1-.2.9-.6 1.2-1.1 1.2-.4 0-1.1-.1-2.1-.5-1.1-.4-2.1-.5-2.9-.5-1.8 0-3.4.6-4.8 1.7-1.6 1.3-2.5 3-2.4 5.1.1 1.9.7 3.6 2.1 4.8.4.4 1.7 1.2 3.8 2.5 2.1 1.2 3.1 2 3.5 2.3 1.1.9 1.7 2.1 1.7 3.3.1 1.2-.4 2.1-1.5 2.8-.7.4-1.4.7-2.1.7h-.4c-2.8-.2-4.9-2.3-6.3-6.3h-.7l.4 7.9.4.1c.5-.7 1.1-1.1 1.8-1.1.3 0 .9.2 1.7.6.9.4 2.1.6 3.3.6 1.8 0 3.5-.6 5-1.6 1.9-1.4 2.8-3.3 2.8-5.9-.1-1.6-.8-3.1-2.2-4.5-.9-1.1-2.4-2.1-4.6-3.3m23.1-9.5v.3c1 .1 1.5.7 1.5 2 0 .4-.1.9-.2 1.4-1.1 3.3-2.7 8-4.9 13.9.1 0-4.8-14.8-4.8-14.8-.1-.4-.2-.7-.2-1 0-.9.6-1.4 1.7-1.4v-.4H160v.6h.2c.9 0 1.7.8 2.3 2.3 3.1 8.3 5.8 15.5 8 21.5-.2.9-.6 1.8-.9 2.5-.8 1.6-1.6 2.5-2.5 2.5-.4 0-1-.2-1.6-.6-.6-.4-1.1-.6-1.5-.6-1.6 0-2.4.6-2.4 1.8 0 .4.2.9.7 1.2.6.6 1.5.9 2.5.9 1.2 0 2.5-.4 3.6-1.2 1.2-.9 2.1-1.9 2.5-3.2l8.8-24.1c.2-.7.6-1.4 1.2-2.1.6-.8 1.2-1.2 1.7-1.2h.2v-.3h-6.2zM102.7 238v-15.6c0-1.3-.6-2.6-1.7-3.8-1.4-1.4-3-2.1-5.1-2.1-1.6 0-3.1.4-4.5 1.4-1.2.8-2.1 1.7-2.7 2.8l.1-4.1h-.2c-1.8 1.4-4.2 2.6-7.2 3.5v.4c1.4 0 2.2.7 2.3 2V238c0 1.1-.3 1.9-.9 2.3-.2.2-.7.4-1.4.6v.3h9v-.2c-1.2-.4-1.8-1.4-1.8-3v-12.4c0-1.5.4-2.8 1-4 .9-1.5 2.1-2.2 3.7-2.2 2.8 0 4.2 1.6 4.2 4.8V238c0 1.7-.6 2.6-1.8 3v.3h8.9v-.3c-.6-.2-1.1-.4-1.2-.6-.4-.4-.7-1.3-.7-2.4m9.9-18c.9-1.1 1.9-1.7 3.1-1.7 1.2 0 2.2.6 3 1.8.9 1.2 1.3 2.7 1.4 4.5h-9.2c.2-1.9.8-3.4 1.7-4.6m12.2 6.4c.1-2.2-.5-4.3-1.7-6.2-1.6-2.3-3.9-3.6-6.9-3.6-3.2 0-5.9 1.5-7.8 4.4-1.7 2.5-2.5 5.4-2.5 8.5s.6 5.9 1.9 8c1.6 2.7 3.9 4.1 6.9 4.1s5.5-1.2 7.5-3.7c1.3-1.7 2.1-3.3 2.3-5v-.1c0-.1-.1-.2-.4-.3l-.4-.1c-.9 1.7-1.5 2.7-1.7 2.8-1.2 1.4-2.8 2.1-4.6 2.1-2.3 0-4.1-1-5.3-3-1.1-1.7-1.7-4-1.7-6.7l.1-1.6 14.3.4z"/><path fill="#B99F62" d="M21.4 277.8l-3-2.8-.8.9 2 1.9H10v1.2h9.6l-2 1.9.8.8 3-2.7.6-.6"/><path d="M11.4 91.7h2l2.5 7.8 2.6-7.8H20l2.6 7.8 2.5-7.8H27l-3.6 10.6h-1.6l-2.6-7.5-2.6 7.5H15l-3.6-10.6zm20 0h1.8v4.4h5v-4.4H40v10.5h-1.8v-4.4h-5v4.4h-1.8V91.7zm17.5 0h1.7l4.6 10.6h-1.9l-1.1-2.5h-5l-1.1 2.5h-1.9l4.7-10.6zm2.6 6.4l-1.8-4.2-1.8 4.2h3.6zM62 93.4h-3.3v-1.7h8.5v1.7h-3.3v8.8H62v-8.8zm8.7 1.8c.9-.2 1.4-.6 1.3-1.4h-.8v-2.1h2v1.8c0 1.7-.8 2.4-2.3 2.5l-.2-.8zm6.5 5.5l1.1-1.3c1 .9 2 1.4 3.3 1.4 1.1 0 1.9-.5 1.9-1.3s-.4-1.2-2.4-1.6c-2.2-.5-3.5-1.2-3.5-3.1 0-1.8 1.5-3 3.6-3 1.5 0 2.7.5 3.8 1.3l-1 1.4c-.9-.7-1.9-1.1-2.9-1.1-1.1 0-1.7.6-1.7 1.2 0 .8.5 1.2 2.5 1.6 2.2.5 3.4 1.3 3.4 3.1 0 2-1.5 3.1-3.7 3.1-1.6 0-3.1-.6-4.4-1.7zm22.7-2.6l-4.2-6.4h2.2l2.9 4.6 3-4.6h2.1l-4.2 6.3v4.2h-1.9v-4.1zm9.6-1.1c0-3 2.3-5.5 5.5-5.5s5.5 2.4 5.5 5.4c0 3-2.3 5.4-5.5 5.4-3.3.1-5.5-2.3-5.5-5.3zm9 0c0-2.1-1.5-3.8-3.6-3.8s-3.5 1.6-3.5 3.7c0 2 1.5 3.7 3.6 3.7s3.5-1.6 3.5-3.6zm6.4.8v-6h1.8v6c0 1.9 1 3 2.7 3 1.6 0 2.6-1 2.6-2.9v-6h1.8v6c0 3.1-1.8 4.7-4.5 4.7-2.6-.2-4.4-1.8-4.4-4.8zm14-6.1h4.7c1.3 0 2.4.4 3 1 .6.6.9 1.4.9 2.3 0 1.7-1 2.8-2.5 3.2l2.8 4h-2.2l-2.6-3.7h-2.3v3.7h-1.8V91.7zm4.5 5.2c1.3 0 2.2-.7 2.2-1.8s-.8-1.7-2.2-1.7h-2.7v3.5h2.7zM10 112.7h2l2.5 7.8 2.6-7.8h1.6l2.6 7.8 2.5-7.8h1.9L22 123.3h-1.6l-2.6-7.5-2.6 7.5h-1.6L10 112.7zm20.1 0h1.8v10.5h-1.8v-10.5zm7 0h1.8v8.8h5.5v1.7H37v-10.5zm11.7 0h3.9c3.3 0 5.6 2.3 5.6 5.2 0 3-2.3 5.2-5.6 5.2h-3.9v-10.4zm1.8 1.7v7.1h2.1c2.2 0 3.6-1.5 3.6-3.5 0-2.1-1.4-3.6-3.6-3.6h-2.1zm19.2-1.7h4.7c1.3 0 2.4.4 3 1 .6.6.9 1.4.9 2.3 0 1.7-1 2.8-2.5 3.2l2.8 4h-2.2l-2.6-3.7h-2.3v3.7h-1.8v-10.5zm4.5 5.2c1.3 0 2.2-.7 2.2-1.8s-.8-1.7-2.2-1.7h-2.7v3.5h2.7zm12.5-5.2h1.7l4.6 10.6h-1.9l-1.1-2.5h-5l-1.1 2.5h-1.9l4.7-10.6zm2.6 6.4l-1.8-4.2-1.8 4.2h3.6zm7.9-6.4h4.7c1.2 0 2.1.3 2.7.9.5.5.7 1.1.7 1.7 0 1.3-.7 1.9-1.5 2.3 1.2.4 2.1 1.1 2.1 2.6 0 1.9-1.5 2.9-3.9 2.9h-4.9v-10.4zm6.3 3c0-.8-.7-1.3-1.8-1.3h-2.7v2.8h2.5c1.2 0 2-.5 2-1.5zm-1.6 3h-2.9v2.9h3.1c1.2 0 2-.5 2-1.4 0-1-.7-1.5-2.2-1.5zm8.5-6h4.7c1.2 0 2.1.3 2.7.9.5.5.7 1.1.7 1.7 0 1.3-.7 1.9-1.5 2.3 1.2.4 2.1 1.1 2.1 2.6 0 1.9-1.5 2.9-3.9 2.9h-4.9v-10.4zm6.3 3c0-.8-.7-1.3-1.8-1.3h-2.7v2.8h2.5c1.2 0 2-.5 2-1.5zm-1.5 3h-2.9v2.9h3.1c1.2 0 2-.5 2-1.4-.1-1-.8-1.5-2.2-1.5zm8.6-6h1.8v10.5h-1.8v-10.5zm9.6 1.7h-3.3v-1.7h8.5v1.7h-3.3v8.8h-1.8v-8.8zm10.9 3.1c2-.1 2.8-.8 2.8-1.7 0-.8-.6-1.4-1.7-1.4-.9 0-1.7.4-2.4 1.2l-1.1-1.2c.9-1 2-1.7 3.6-1.7 2.1 0 3.5 1.2 3.5 3 0 1.9-1.4 2.7-3 3l-.2 1.2h-1.2l-.3-2.4zm-.1 3.7h2v2.1h-2v-2.1z" fill="#FFF"/></svg>