<?xml version="1.0" encoding="UTF-8" ?>
<!DOCTYPE svg PUBLIC "-//W3C//DTD SVG 1.1//EN" "http://www.w3.org/Graphics/SVG/1.1/DTD/svg11.dtd">
<svg width="1365pt" height="733pt" viewBox="0 0 1365 733" version="1.1" xmlns="http://www.w3.org/2000/svg">
<path fill="#ffffff" d=" M 0.00 0.00 L 1365.00 0.00 L 1365.00 733.00 L 0.00 733.00 L 0.00 0.00 Z" />
<path fill="#030303" d=" M 249.93 254.97 C 257.93 243.06 272.01 236.65 285.94 235.04 C 302.76 233.12 320.47 235.29 335.46 243.51 C 341.23 246.58 346.31 250.75 351.04 255.23 C 342.55 263.64 333.96 271.97 325.32 280.23 C 317.67 272.46 306.65 268.89 295.94 268.66 C 291.61 268.75 287.23 270.10 283.75 272.71 C 279.63 275.85 277.41 281.79 279.52 286.70 C 281.25 291.09 285.65 293.86 290.14 294.79 C 305.14 297.82 321.35 297.93 334.72 306.25 C 343.71 311.49 349.53 321.06 351.45 331.14 C 353.68 342.91 353.30 355.68 347.71 366.51 C 341.78 378.29 330.89 386.98 318.77 391.80 C 307.79 396.31 295.78 397.61 284.00 397.27 C 266.08 397.09 247.24 392.00 234.57 378.63 C 242.60 369.10 251.17 360.04 259.48 350.76 C 267.98 358.48 279.80 361.06 290.97 361.41 C 297.66 361.24 305.00 360.78 310.53 356.58 C 316.51 352.11 316.88 342.43 311.95 337.07 C 307.82 333.50 302.05 333.53 296.96 332.69 C 285.38 331.49 273.42 329.88 263.25 323.79 C 252.64 317.81 245.21 306.91 243.09 294.96 C 240.83 281.45 241.94 266.54 249.93 254.97 Z" />
<path fill="#030303" d=" M 995.17 240.50 C 1018.72 239.24 1042.25 237.67 1065.80 236.33 C 1085.02 290.47 1103.79 344.77 1121.78 399.34 C 1108.51 398.32 1095.23 397.37 1081.96 396.44 C 1079.65 388.34 1077.28 380.26 1074.84 372.20 C 1059.22 371.26 1043.58 370.65 1027.95 370.20 C 1024.88 377.43 1022.83 385.09 1020.18 392.50 C 1006.88 392.00 993.61 391.03 980.32 390.35 C 995.83 349.90 1010.81 309.26 1025.56 268.53 C 1015.42 268.82 1005.29 269.41 995.14 269.61 C 995.16 259.90 995.12 250.20 995.17 240.50 Z" />
<path fill="#030303" d=" M 372.23 241.14 C 384.90 241.52 397.54 242.38 410.21 242.80 C 410.20 261.46 410.25 280.12 410.19 298.78 C 423.54 299.65 436.95 299.03 450.33 299.48 C 450.35 281.18 450.30 262.87 450.35 244.57 C 463.01 244.94 475.66 245.77 488.34 245.82 C 488.48 292.42 488.32 339.02 488.42 385.63 C 475.75 386.61 463.02 386.24 450.36 387.32 C 450.29 368.42 450.36 349.52 450.33 330.61 C 436.95 330.65 423.58 331.07 410.21 331.11 C 410.23 350.30 410.19 369.50 410.23 388.69 C 397.56 389.59 384.87 390.08 372.19 390.63 C 372.25 340.80 372.18 290.97 372.23 241.14 Z" />
<path fill="#030303" d=" M 877.23 245.71 C 889.91 245.48 902.56 244.51 915.25 244.29 C 915.23 281.42 915.30 318.55 915.21 355.69 C 923.79 356.60 932.44 356.14 941.05 356.54 C 951.32 356.58 961.58 357.32 971.85 357.36 C 971.81 368.19 971.83 379.02 971.84 389.85 C 940.33 388.73 908.87 386.73 877.34 386.20 C 877.12 339.37 877.33 292.54 877.23 245.71 Z" />
<path fill="#030303" d=" M 520.78 247.17 C 533.43 247.12 546.07 247.72 558.72 247.75 C 558.69 293.24 558.88 338.74 558.62 384.24 C 546.00 384.04 533.39 384.70 520.78 384.69 C 520.82 338.85 520.80 293.01 520.78 247.17 Z" />
<path fill="#030303" d=" M 781.37 247.13 C 796.13 245.15 811.99 245.29 825.53 252.27 C 835.02 257.24 843.76 264.61 848.31 274.50 C 851.80 281.84 852.97 290.01 853.48 298.05 C 853.91 310.35 853.91 322.66 853.48 334.95 C 852.90 346.03 850.54 357.59 843.44 366.45 C 835.47 376.20 824.05 382.96 811.72 385.46 C 800.18 387.69 788.19 387.68 776.71 385.11 C 762.68 381.86 749.55 373.59 741.46 361.57 C 732.56 347.42 733.73 330.01 733.68 314.00 C 733.53 299.15 733.54 283.00 742.26 270.24 C 751.41 257.59 766.04 249.46 781.37 247.13 Z" />
<path fill="#030303" d=" M 591.55 248.54 C 602.64 248.57 613.74 248.65 624.83 248.85 C 641.05 271.17 657.45 293.36 673.73 315.64 C 673.90 293.51 673.79 271.37 673.79 249.24 C 686.59 249.12 699.41 249.08 712.22 249.26 C 712.05 293.75 712.16 338.26 712.16 382.76 C 700.97 382.58 689.77 382.75 678.58 382.66 C 662.34 360.39 646.00 338.20 629.62 316.03 C 629.53 338.29 629.59 360.55 629.59 382.81 C 616.92 383.25 604.25 383.20 591.58 383.47 C 591.54 338.49 591.59 293.51 591.55 248.54 Z" />
<path fill="#ffffff" d=" M 786.50 277.62 C 793.81 275.33 802.57 276.37 808.42 281.58 C 813.08 286.06 813.73 292.85 814.34 298.93 C 815.04 310.61 815.05 322.34 814.34 334.02 C 813.74 339.87 813.17 346.39 808.82 350.82 C 799.89 359.56 782.32 358.24 776.08 346.95 C 773.23 341.07 773.23 334.36 772.72 327.99 C 772.66 315.69 771.92 303.22 774.29 291.08 C 775.36 284.71 780.27 279.31 786.50 277.62 Z" />
<path fill="#ffffff" d=" M 1038.35 338.49 C 1043.00 324.82 1047.37 311.07 1052.04 297.41 C 1056.45 311.14 1060.49 324.99 1064.86 338.73 C 1056.02 338.80 1047.19 338.47 1038.35 338.49 Z" />
<path fill="#030303" d=" M 782.35 436.35 C 791.26 434.66 800.68 436.22 808.78 440.24 C 820.67 446.15 829.33 458.00 831.49 471.10 C 833.96 483.97 830.54 497.98 822.04 508.02 C 814.24 517.35 802.22 523.01 790.04 522.82 C 778.73 523.14 767.40 518.58 759.44 510.57 C 751.11 502.36 746.62 490.62 746.71 478.98 C 746.89 467.92 751.06 456.80 758.83 448.83 C 765.02 442.23 773.41 437.77 782.35 436.35 Z" />
<path fill="#030303" d=" M 511.80 437.48 C 530.42 437.48 549.04 437.49 567.67 437.47 C 567.67 442.89 567.61 448.32 567.70 453.74 C 565.71 451.54 563.19 449.65 560.07 449.73 C 550.88 449.44 541.68 449.68 532.50 449.61 C 532.50 457.00 532.51 464.40 532.49 471.79 C 541.30 471.74 550.12 471.91 558.93 471.73 C 561.06 471.73 562.55 470.02 564.21 468.94 C 564.23 475.08 564.21 481.22 564.22 487.36 C 562.26 486.13 560.42 484.27 557.94 484.37 C 549.46 484.20 540.98 484.35 532.50 484.31 C 532.49 492.49 532.51 500.67 532.49 508.85 C 542.67 508.77 552.86 509.03 563.03 508.72 C 565.74 508.87 567.60 506.72 569.55 505.19 C 569.52 510.57 569.54 515.95 569.52 521.33 C 550.32 521.31 531.12 521.34 511.92 521.31 C 513.47 519.16 515.47 516.93 515.28 514.08 C 515.30 491.02 515.29 467.95 515.29 444.88 C 515.59 441.91 513.74 439.48 511.80 437.48 Z" />
<path fill="#030303" d=" M 581.60 437.48 C 603.91 437.48 626.22 437.49 648.53 437.47 C 648.51 443.20 648.52 448.94 648.52 454.68 C 646.69 452.69 645.01 449.98 642.03 449.79 C 635.96 449.36 629.87 449.72 623.79 449.61 C 623.80 471.11 623.77 492.61 623.80 514.11 C 623.61 516.97 625.53 519.22 627.18 521.33 C 619.11 521.31 611.04 521.35 602.98 521.31 C 604.54 519.14 606.70 516.98 606.42 514.08 C 606.44 492.59 606.43 471.10 606.42 449.61 C 600.27 449.73 594.10 449.34 587.97 449.81 C 585.01 450.10 583.35 452.76 581.59 454.81 C 581.63 449.03 581.62 443.25 581.60 437.48 Z" />
<path fill="#030303" d=" M 660.70 437.46 C 673.46 437.60 686.24 437.26 699.00 437.65 C 707.03 438.36 715.75 439.45 722.13 444.87 C 727.64 449.45 729.44 457.05 729.14 463.94 C 727.95 473.37 720.33 480.95 711.53 483.87 C 717.29 493.68 722.86 503.60 728.57 513.44 C 730.27 516.47 732.79 518.88 735.27 521.28 C 727.86 521.37 720.46 521.31 713.05 521.31 C 707.12 509.98 700.88 498.81 694.96 487.48 C 690.46 487.44 685.97 487.46 681.48 487.45 C 681.55 496.60 681.41 505.76 681.53 514.91 C 681.44 517.51 683.44 519.39 684.89 521.31 C 676.83 521.35 668.76 521.31 660.70 521.33 C 662.62 518.98 664.36 516.29 664.13 513.12 C 664.13 490.38 664.18 467.65 664.10 444.91 C 664.25 441.96 662.69 439.46 660.70 437.46 Z" />
<path fill="#030303" d=" M 849.79 437.48 C 857.84 437.46 865.90 437.52 873.96 437.45 C 872.43 439.35 870.39 441.26 870.57 443.92 C 870.48 467.30 870.53 490.69 870.54 514.07 C 870.25 516.99 872.30 519.20 873.99 521.30 C 865.90 521.35 857.82 521.31 849.73 521.33 C 851.37 519.21 853.29 516.98 853.15 514.12 C 853.19 491.04 853.16 467.96 853.16 444.88 C 853.42 441.94 851.75 439.47 849.79 437.48 Z" />
<path fill="#030303" d=" M 888.19 437.47 C 910.41 437.49 932.63 437.48 954.86 437.47 C 954.85 443.14 954.82 448.81 954.89 454.49 C 953.10 452.31 951.14 449.77 948.04 449.74 C 942.12 449.41 936.18 449.71 930.26 449.60 C 930.28 471.06 930.24 492.51 930.28 513.97 C 929.96 516.90 931.94 519.17 933.61 521.32 C 925.54 521.32 917.47 521.34 909.40 521.31 C 910.79 519.34 912.92 517.51 912.71 514.86 C 912.80 493.11 912.71 471.35 912.75 449.60 C 906.82 449.71 900.87 449.40 894.95 449.75 C 891.82 449.81 890.01 452.57 888.20 454.70 C 888.19 448.95 888.20 443.21 888.19 437.47 Z" />
<path fill="#030303" d=" M 417.22 437.44 C 433.73 438.01 450.77 435.70 466.74 441.05 C 476.23 444.07 484.91 450.48 489.36 459.55 C 493.81 468.28 494.41 478.38 493.55 487.99 C 492.24 499.89 484.11 510.44 473.22 515.25 C 455.68 523.35 435.89 520.94 417.16 521.32 C 418.88 519.23 420.77 516.92 420.51 514.03 C 420.59 491.01 420.56 467.99 420.52 444.97 C 420.88 441.98 419.05 439.57 417.22 437.44 Z" />
<path fill="#ffffff" d=" M 783.53 448.72 C 788.82 447.73 794.66 447.65 799.53 450.27 C 806.44 453.62 810.99 460.49 813.16 467.68 C 816.36 478.58 815.11 491.09 808.50 500.51 C 804.33 506.48 797.40 510.78 789.99 510.65 C 782.29 510.97 774.75 506.86 770.39 500.60 C 765.26 493.53 763.65 484.49 764.32 475.92 C 764.95 464.33 771.70 451.93 783.53 448.72 Z" />
<path fill="#ffffff" d=" M 437.75 449.59 C 447.69 449.74 458.49 450.09 466.87 456.14 C 473.97 461.32 476.77 470.51 476.54 478.98 C 476.90 487.51 474.04 496.69 466.99 501.97 C 458.67 508.22 447.78 508.99 437.74 508.84 C 437.77 489.09 437.75 469.34 437.75 449.59 Z" />
<path fill="#ffffff" d=" M 681.51 475.27 C 681.47 466.71 681.51 458.16 681.48 449.60 C 689.57 449.85 698.20 448.65 705.76 452.21 C 711.51 454.95 713.08 462.52 710.87 468.07 C 709.55 471.26 706.29 473.01 703.14 473.94 C 696.08 475.86 688.72 475.11 681.51 475.27 Z" />
</svg>
