<svg xmlns="http://www.w3.org/2000/svg" xmlns:xlink="http://www.w3.org/1999/xlink" width="0" height="0" style="position:absolute">
    <defs>
      
        <svg width="69" height="68" viewBox="0 0 69 68" id="at-sign"><title>at-sign</title><g transform="translate(-1.702 1.269)" stroke="#000" stroke-width="2" fill="none" fill-rule="evenodd" stroke-linecap="round" stroke-linejoin="round"><circle cx="36.143" cy="32.857" r="13.143"></circle><path d="M49.286 32.857v3.286c0 5.444 4.413 9.857 9.857 9.857C64.587 46 69 41.587 69 36.143v-3.286C68.999 17.588 58.48 4.332 43.61.862c-14.87-3.47-30.17 3.76-36.93 17.452-6.759 13.691-3.196 30.235 8.6 39.93 11.797 9.694 28.717 9.985 40.84.702"></path></g></svg>
      
        <svg width="65" height="71" viewBox="0 0 65 71" id="calendar"><title>calendar</title><g transform="translate(1.893 1)" stroke="#000" stroke-width="2" fill="none" fill-rule="evenodd" stroke-linecap="round" stroke-linejoin="round"><rect y="6.9" width="62.1" height="62.1" rx="2"></rect><path d="M44.85 0v13.8M17.25 0v13.8M0 26.6h62.1"></path></g></svg>
      
        <svg width="24" height="24" viewBox="0 0 24 24" fill="none" stroke="currentColor" stroke-width="2" stroke-linecap="round" stroke-linejoin="round" class="feather feather-chevron-left" id="chevron-left"><path d="M15 18l-6-6 6-6"></path></svg>
      
        <svg width="24" height="24" viewBox="0 0 24 24" fill="none" stroke="currentColor" stroke-width="2" stroke-linecap="round" stroke-linejoin="round" class="feather feather-chevron-right" id="chevron-right"><path d="M9 18l6-6-6-6"></path></svg>
      
        <svg width="57" height="71" viewBox="0 0 57 71" id="clipboard"><title>clipboard</title><g stroke-width="2" stroke="#000" fill="none" stroke-linejoin="round"><path d="M42.4 8.3h6.7c3.8 0 6.8 3 6.8 6.8v47.6c0 3.7-3 6.8-6.8 6.8H8.6c-3.7 0-6.7-3.1-6.7-6.8V15.1c0-3.8 3-6.8 6.7-6.8h6.8"></path><rect x="14.9" y="1.3" width="27" height="13.6" rx="1"></rect></g></svg>
      
        <svg width="72" height="71" viewBox="0 0 72 71" id="layers"><title>layers</title><g transform="translate(1.298 1)" stroke-width="2" stroke="#000" fill="none" fill-rule="evenodd" stroke-linecap="round" stroke-linejoin="round"><path d="M34.5 0L0 17.25 34.5 34.5 69 17.25zM0 51.75L34.5 69 69 51.75M0 34.5l34.5 17.25L69 34.5"></path></g></svg>
      
        <svg width="24" height="24" viewBox="0 0 24 24" fill="none" stroke="currentColor" stroke-width="2" stroke-linecap="round" stroke-linejoin="round" class="feather feather-link" id="link"><path d="M10 13a5 5 0 0 0 7.54.54l3-3a5 5 0 0 0-7.07-7.07l-1.72 1.71"></path><path d="M14 11a5 5 0 0 0-7.54-.54l-3 3a5 5 0 0 0 7.07 7.07l1.71-1.71"></path></svg>
      
        <svg width="72" height="71" viewBox="0 0 72 71" id="message-square"><title>message-square</title><path d="M70.6 47c0 4.2-3.4 7.7-7.7 7.7h-46L1.6 70V8.7C1.6 4.4 5 1 9.3 1h53.6c4.3 0 7.7 3.4 7.7 7.7V47z" stroke-width="2" stroke="#000" fill="none" stroke-linejoin="round"></path></svg>
      
        <svg width="75" height="68" viewBox="0 0 75 68" id="monitor"><title>monitor</title><g stroke-width="2" stroke="#000" fill="none" stroke-linejoin="round"><rect x="1" y="1" width="72.6" height="50.8" rx="2"></rect><path d="M22.8 66.4h29M37.3 51.8v14.6"></path></g></svg>
      
        <svg width="71" height="72" viewBox="0 0 71 72" id="thumbs-up"><title>thumbs-up</title><path d="M42.995 25.419v-13.8c0-5.716-4.634-10.35-10.35-10.35l-13.8 31.05v37.95h38.916a6.9 6.9 0 0 0 6.9-5.865l4.761-31.05a6.9 6.9 0 0 0-6.9-7.935H42.995zm-24.15 44.85H8.495a6.9 6.9 0 0 1-6.9-6.9v-24.15a6.9 6.9 0 0 1 6.9-6.9h10.35v37.95z" stroke="#000" stroke-width="2" fill="none" fill-rule="evenodd" stroke-linecap="round" stroke-linejoin="round"></path></svg>
      
        <svg width="87" height="72" viewBox="0 0 87 72" id="user-check"><title>user-check</title><g transform="translate(1 1.269)" stroke-width="2" stroke="#000" fill="none" stroke-linejoin="round"><path d="M57.5 69v-7.7c0-8.4-6.9-15.3-15.3-15.3H15.3C6.9 46 0 52.9 0 61.3V69"></path><circle cx="28.8" cy="15.3" r="15.3"></circle><path d="M61.3 30.7l7.7 7.6L84.3 23"></path></g></svg>
      
  </defs>
</svg>
