<svg xmlns="http://www.w3.org/2000/svg" xmlns:xlink="http://www.w3.org/1999/xlink" width="0" height="0" style="position:absolute">
	
		<symbol id="S-logo magazine" viewBox="0 0 1119.4 326.2">
			<path d="M259.4 0l-80.7 194.1c-20.2-55.2-111.6-79-111.6-133 0-25.8 19.1-46.6 51.4-46.6 30.3 0 57.6 24.1 60.3 82.7.4 7.9.4 11.6 2.3 11.6h.4L194.3 0h-1.2c-7.8 14.5-17.9 17.9-29.6 17.9-14.4 0-31.5-5.8-48.2-5.8C69.4 12.1 25.8 35 25.8 89c0 59.9 111.7 90.6 111.7 146.3 0 27.4-18.3 63.6-66.5 63.6-49.4 0-68.1-44.5-68.1-101.4 0-1.4-.6-4.4-2.6-4.4H0s.2 78.6 0 121.2c0-.4-.2 2.5.8 1.1 6.8-16.1 24.7-18.8 31.7-18.8 13.2 0 23.3 4.6 42.3 4.6 25.4 0 47.7-5.1 65.3-14.7L123.6 326h3.3L262.8 0h-3.4zM335 294.8h-15.1c-.8 0-1-.2-1-.7L355.2 179c0-.5.5-.7 1.2-.7h15.3c.3 0 1-2 .7-2h-34.7c-.8 0-2 1-3.4 3.1l-59.5 91.5-3.1-91.5c-.2-1.9-1-3.1-1.9-3.1h-33.1c-.5 0-1 2-.7 2h14.4c.9 0 1 .2 1 .7L215 294.1c-.2.5-.5.7-1.4.7h-14.4c-.3 0-1 2-.7 2H232c.3 0 .8-2 .5-2H218c-.7 0-1-.2-.8-.7l35.9-113.9 3.4 118.8c0 .5 1.9.5 2.2 0L336 180.9l-35.7 113.2c-.2.5-.5.7-1.4.7h-15.3c-.3 0-1 2-.7 2h51.3c.4 0 1.3-2 .8-2zM468.1 294.8h-15.8c-.7 0-1-.2-1-.7V173.9c0-.5-1.9-.7-2.4 0l-86 113.7c-4.6 6.1-6.1 7.1-8 7.1h-12.2c-.3 0-.9 2-.5 2h34.3c.3 0 .9-2 .5-2h-14.8c-1.5 0-1.5-.9 3.4-7.1l24.1-32h43.9V294c0 .5-.3.7-1 .7h-13.1c-.5 0-1 2-.5 2h48.6c.4.1.9-1.9.5-1.9zm-34.5-41.2h-42.2l42.2-55.8v55.8zM573.5 251.4h15.3c.3 0 1-2 .7-2h-51.3c-.3 0-1 2-.7 2h15.3c.7 0 1 .2.8.5l-9 29.2c-3.2 10-11.6 16.7-24.5 16.7-16.7 0-27.5-7-27.5-24.8 0-20.2 17.3-68 24.8-79.9 7.6-12.2 18.7-17.3 33-17.3 15.5 0 28.7 15.3 23.5 32-.2.5 2 .5 2 0l10.7-33.7c0-.3-1.9-.3-2 0-1.4 2.7-4.1 5.1-10.2 5.1-7 0-14.6-5.6-24-5.6-36.4 0-71.6 40.3-71.6 81.1 0 28.2 16.8 45.2 41.3 45.2 14.1 0 22.1-8.8 29.4-8.8 4.9 0 7 2.5 6 6.5-.2.5 2.2.5 2.4.2l14.5-45.7c.1-.5.4-.7 1.1-.7zM696.3 294.8h-15.8c-.7 0-1-.2-1-.7V173.9c0-.5-1.9-.7-2.4 0l-86 113.7c-4.6 6.1-6.1 7.1-8 7.1h-12.2c-.3 0-.9 2-.5 2h34.3c.3 0 .9-2 .5-2h-14.8c-1.5 0-1.5-.9 3.4-7.1l24.1-32h43.9V294c0 .5-.3.7-1 .7h-13.1c-.5 0-1 2-.5 2h48.6c.3.1.9-1.9.5-1.9zm-34.5-41.2h-42.2l42.2-55.8v55.8zM801.3 262.8c-5.4 17.3-19 32-49.6 32h-23.6c-.7 0-.7-.3-.5-.5l100-116.1c.7-.7.7-1.9.2-1.9h-78.2c-.3 0-.7.2-.7.3L737.6 212c-.2.3 1.9.3 2 0 6.1-19.7 20.4-33.7 43.3-33.7h22.6c.7 0 .7.5.5.7L706 294.9c-.7.7-.7 1.9-.2 1.9H792c.3 0 .5-.2.7-.5l10.5-33.5c.3-.5-1.7-.5-1.9 0zM861 294.8h-15.3c-.7 0-1-.2-.9-.7L881.3 179c.2-.5.5-.7 1.4-.7h15.1c.5 0 1-2 .7-2h-51.3c-.3 0-1 2-.5 2h15.1c.8 0 1 .2 1 .7l-36.4 115.1c-.2.5-.7.7-1.4.7h-15.3c-.3 0-1 2-.7 2h51.3c.6 0 1.1-2 .7-2zM1010.1 178.3h14.5c.3 0 1-2 .7-2h-33.5c-.3 0-1 2-.7 2h14.6c.7 0 1 .2.8.7L978 270.1l-29.1-90.8c-.9-2.4-1.7-3.1-2.9-3.1h-32.8c-.3 0-1 2-.5 2h14.5c.7 0 1 .2.8.7L891.6 294c0 .5-.5.7-1.2.7h-14.6c-.3 0-1 2-.7 2h33.5c.3 0 1-2 .7-2h-14.6c-.7 0-1-.2-.8-.7l35.5-112.7L968.6 299c.3.7 2.2.5 2.4 0l37.7-120c.2-.5.6-.7 1.4-.7zM1117.8 176.3H1032c-.3 0-1 2-.7 2h15.3c.7 0 1 .2.8.7L1011 294.1c-.2.5-.5.7-1.4.7h-15.1c-.5 0-1 2-.7 2h95c.3 0 .5-.2.7-.5l10.5-33.7c.2-.3-1.9-.3-2 0-5.4 17.5-19 32.1-49.6 32.1h-17.9c-.8 0-1-.2-1-.7l19-59.8h7.8c13.9 0 17.5 9 13.8 20.6-.2.3 2 .3 2 0l12.4-39.4c0-.3-2-.3-2.2 0-3.6 11.7-11.4 16.8-25.3 16.8h-7.8L1066 179c.2-.5.7-.7 1.4-.7h19.9c20.2 0 25.5 12.4 20.2 28.7 0 .5 2 .5 2 0l8.7-30.3c-.1-.1-.1-.4-.4-.4z"></path>
		</symbol>
	
		<symbol id="Sharp_logo_black" viewBox="0 0 153 60">
			<title>Sharp Logo-black</title><g fill="#222" fill-rule="evenodd"><path d="M27.6 38.4c0-4.3-1.1-6.4-4.5-8.9L12.9 22c-1.6-1.2-2.2-2.3-2.2-4.2v-5.6c0-1.7.9-2.6 2.6-2.6h.9c1.7 0 2.6.9 2.6 2.6v7.5l10.6-5.2V11C27.5 3.9 24 .5 17 .5h-6.4C3.4.5 0 3.9 0 11v9.4c0 4.2 1.1 6.5 4.5 8.9l10.2 7.5c1.6 1.2 2.2 2.3 2.2 4.2v7.1c0 1.7-.9 2.6-2.6 2.6h-1.1c-1.7 0-2.6-.9-2.6-2.6v-8.9L0 44.3v5c0 7.1 3.4 10.5 10.5 10.5h6.6c7.1 0 10.5-3.4 10.5-10.5V38.4zM59.1 59.3V1H48.2v26.3h-6.9V1H30.4v58.3h10.9V36.9h6.9v22.4h10.9zM80.4 47.2l.9 12.1h10.8L84.5 1H69.2l-7.7 58.3h9.8l1.2-12.1h7.9zm-4.2-36.7l3.3 27.3h-6.1l2.8-27.3zM110.9 39.5v19.8h10.9V39.4c0-4.1-1.4-6.2-4.8-7.2l-1.4-.4 1.4-.5c3.3-1.2 4.8-3.8 4.8-8.3V11.5c0-7.1-3.4-10.5-10.5-10.5H94v58.3h10.9V36.9h3.5c1.6 0 2.5.9 2.5 2.6zm-6-11.7V10.4h3.4c1.7 0 2.6.9 2.6 2.6v12.2c0 1.7-.9 2.6-2.6 2.6h-3.4zM152.1 11.5c0-7.1-3.4-10.5-10.5-10.5h-16.9v58.3h10.9V36.6h6c7.1 0 10.5-3.4 10.5-10.5V11.5zm-10.9 13.6c0 1.7-.9 2.6-2.6 2.6h-3V10.2h3c1.7 0 2.6.9 2.6 2.6v12.3z"></path></g>
		</symbol>
	
		<symbol id="at-sign" viewBox="0 0 69 68">
			<title>at-sign</title><g transform="translate(-1.702 1.269)" stroke-width="2" stroke="#6a6b6c" fill="none" fill-rule="evenodd" stroke-linecap="round" stroke-linejoin="round"><circle cx="36.143" cy="32.857" r="13.143"></circle><path d="M49.286 32.857v3.286c0 5.444 4.413 9.857 9.857 9.857C64.587 46 69 41.587 69 36.143v-3.286C68.999 17.588 58.48 4.332 43.61.862c-14.87-3.47-30.17 3.76-36.93 17.452-6.759 13.691-3.196 30.235 8.6 39.93 11.797 9.694 28.717 9.985 40.84.702"></path></g>
		</symbol>
	
		<symbol id="calendar" viewBox="0 0 65 71">
			<title>calendar</title><g transform="translate(1.893 1)" stroke-width="2" stroke="#6a6b6c" fill="none" fill-rule="evenodd" stroke-linecap="round" stroke-linejoin="round"><rect y="6.9" width="62.1" height="62.1" rx="2"></rect><path d="M44.85 0v13.8M17.25 0v13.8M0 26.6h62.1"></path></g>
		</symbol>
	
		<symbol id="chevron-left" viewBox="0 0 24 24">
			<path d="M15 18l-6-6 6-6"></path>
		</symbol>
	
		<symbol id="chevron-right" viewBox="0 0 24 24">
			<path d="M9 18l6-6-6-6"></path>
		</symbol>
	
		<symbol id="clipboard" viewBox="0 0 57 71">
			<title>clipboard</title><g stroke-width="2" stroke="#6a6b6c" fill="none" stroke-linejoin="round"><path d="M42.4 8.3h6.7c3.8 0 6.8 3 6.8 6.8v47.6c0 3.7-3 6.8-6.8 6.8H8.6c-3.7 0-6.7-3.1-6.7-6.8V15.1c0-3.8 3-6.8 6.7-6.8h6.8"></path><rect x="14.9" y="1.3" width="27" height="13.6" rx="1"></rect></g>
		</symbol>
	
		<symbol id="contempo-media" viewBox="0 0 204 45">
			<title>contempo-media-logo</title><g fill="#4A4A4A"><path d="M12.2.5C-1.3 1.8 0 16 0 16c.2 6.8 3.7 13.6 13.5 13.6 9.9 0 11.1-9 11.3-10 .3-1.1-.7-1.1-.7-1.1h-1.6c-1.3 0-1.3 1-1.3 1-1.4 7-7.7 7-7.7 7-10.1 0-10-10.6-10-10.6 0-12.2 8.7-12.3 8.7-12.3 7.1-.4 8.4 4.6 8.6 5.1.1.4.3.8 1.1.8h2c.9 0 .6-.9.6-.9C22.4-.5 12.2.5 12.2.5M54.5 2.1v25.8s-.2 1 1.4 1h.8s1.3.2 1.3-1.2V8.4s-.2-2.1 1.4.1c1.3 2 13.1 19.9 13.1 19.9s.4.5 1.3.5h2s1.1 0 1.1-1V2.2s.1-1.1-.9-1.1h-1.8s-.8.1-.8 1.3v19.4s0 2-1.3 0c-1.3-1.7-13.2-20-13.2-20s-.5-.7-1.5-.7h-2s-.9 0-.9 1M99.9 1H79.5s-.9 0-.9.8v1.8s0 .6 1.1.6c.5 0 7.2.1 7.2.1C88 4.3 88 5.7 88 5.7V28s-.1.9.9.9h2s.8-.1.8-1.1V5.7c0-1.3.6-1.5 1.4-1.5h7s.9.1.9-.8V1.7s0-.7-1.1-.7M188.5 42.4v2s-.1.5.4.5h1s.4-.1.4-.6V31.7s0-.4-.5-.4h-.9s-.4 0-.4.5v10.6M152.6 28V2s-.1-.8-1.2-.8h-3.1s-.7-.2-1.2.8c-.4 1.1-7.9 20.9-7.9 20.9s-.2.6-.7.6c-.5 0-.6-.6-.6-.6s-7.6-19.8-8-20.9c-.4-1-1.1-.8-1.1-.8h-3.2c-1.1 0-1.1.8-1.1.8v26s-.1.9.9.9h1.8s.8-.1.8-1.1V8.7c0-.5 0-1.2.3-1.2.4 0 .7.7.7.7l7.6 19.7c.5 1 1.2 1 1.2 1h1.5s.7 0 1.1-1L148 8.2s.3-.7.7-.7c.4 0 .3.7.3 1.2v19.1c0 1 .8 1.1.8 1.1h1.8c1 0 1-.9 1-.9M162.7 44.4V31.8s0-.5-.5-.5h-1.6s-.3 0-.5.5-3.9 10.1-3.9 10.1-.1.4-.3.4c-.3 0-.3-.4-.3-.4s-3.7-9.6-3.9-10.1c-.2-.5-.6-.5-.6-.5h-1.5c-.6 0-.6.5-.6.5v12.6s0 .5.5.5h.9s.4-.1.4-.6V35c0-.2-.1-.6.1-.6s.3.4.3.4l.6 1.3 3.1 8.3c.3.5.6.5.6.5h.7s.4 0 .6-.5l3.2-8.3.5-1.3s.2-.4.4-.4c.1 0 .1.4.1.6v9.3c0 .5.4.6.4.6h.9c.5 0 .4-.5.4-.5M121.9 3.4V1.7s-.1-.7-1.1-.7h-17.6c-.7 0-.7.8-.7.8v26.3s0 .8.7.8h17.6c1 0 1.1-.7 1.1-.7v-1.7c0-.9-.9-.8-.9-.8H107.6c-.8 0-1.4-.2-1.4-1.5v-6.8s.1-1.2 1.5-1.2h12.2s.9.1.9-.8v-1.7s0-.7-1.1-.7h-12.4s-1.1.1-1.1-.6V5.7c0-1.3.6-1.5 1.4-1.5H121s.9.1.9-.8M173.9 32.5v-.9s0-.3-.5-.3h-8.6c-.3 0-.3.3-.3.3v12.8s0 .5.3.5h8.6c.5 0 .5-.4.5-.4v-.8c0-.4-.4-.4-.4-.4h-6.6c-.3 0-.6-.1-.6-.7v-3.3s0-.6.7-.6h6s.4 0 .4-.4v-.8s0-.4-.5-.4h-6.1s-.4.1-.5-.3v-3.2c0-.7.3-.8.6-.8h6.6s.4.1.4-.3M167.3 14.3h-7.6s-.9.2-1.1-.6V5.9c0-1.3.6-1.6 1.4-1.6h7.2c2.1 0 5 1.1 5 5.4 0 4.4-4.9 4.6-4.9 4.6M168.9 1h-13.3c-.7 0-.7.8-.7.8v26.3s0 .8.7.8h2.3c.7 0 .7-.8.7-.8v-9.3s.1-1.3 1.5-1.3h8.9c6.9 0 6.9-8.3 6.9-8.3 0-7.7-6.9-8.2-7-8.2M181 43.4h-3.1c-.8 0-.7-.6-.7-.6v-9.4c0-.6.5-.6.5-.6h2.4c1.5 0 2 .2 2 .2 1.8.8 2.8 1.8 2.8 5.5 0 3.6-2.8 4.9-3.9 4.9m5.1-8.9c-1.4-3.4-5.9-3.2-5.9-3.2h-4.4s-.4.1-.4.6v12.5s0 .4.4.5h4.5c4.8-.1 5.9-3.8 5.9-3.8s1.2-3.3-.1-6.6M199.6 39.3H196c-.5 0-.3-.6-.3-.6s1.6-4.3 1.7-4.8c.2-.5.4-.5.4-.5s.2 0 .4.5 1.8 4.8 1.8 4.8.1.6-.4.6m4.2 4.9c-.2-.7-4.8-12.3-4.8-12.3s-.2-.5-.7-.5h-1c-.5 0-.6.5-.6.5s-4.6 11.6-4.9 12.3c-.3.6.3.7.3.7h.6c.7 0 .8-.5.8-.5s.8-2.1 1.1-2.9c.3-.8.9-.7.9-.7h4.6s.6-.1.9.7c.3.8 1.1 2.9 1.1 2.9s.1.5.8.5h.7s.5-.1.2-.7M190.6 26.2c-9.3 0-9.7-10-9.7-11.2v-.1c0-1.1.3-11.2 9.7-11.2 9.9 0 9.7 11.3 9.7 11.3 0 1.1-.4 11.2-9.7 11.2M203.9 15v-.1C203.9 2.5 194 .7 190.6.7c-3.4 0-13.3 1.8-13.3 14.2v.1c0 12.4 9.9 14.2 13.3 14.2 3.4 0 13.3-1.8 13.3-14.2M39.4 26.2c-9.3 0-9.7-10-9.7-11.2v-.1c0-1.1.3-11.2 9.7-11.2C49.3 3.7 49 15 49 15c0 1.1-.3 11.2-9.6 11.2M52.7 15v-.1C52.6 2.5 42.8.7 39.4.7c-3.5 0-13.3 1.8-13.3 14.2H26h.1c0 .1-.1.1-.1.1h.1c0 12.4 9.8 14.2 13.3 14.2 3.4 0 13.2-1.8 13.3-14.2"></path></g>
		</symbol>
	
		<symbol id="contempo-media_white" viewBox="0 0 204 46">
			<title>Page-1</title><g fill="#FFF"><path d="M12.2.5C-1.3 1.8 0 16.1 0 16.1c.2 6.8 3.7 13.6 13.5 13.6 9.9 0 11.1-9 11.3-10 .3-1.1-.7-1.1-.7-1.1h-1.6c-1.3 0-1.3 1-1.3 1-1.4 7.1-7.7 7-7.7 7-10.1 0-10-10.7-10-10.7 0-12.2 8.7-12.3 8.7-12.3 7.1-.4 8.4 4.6 8.6 5.1.1.4.3.8 1.1.8h2c.9 0 .6-.8.6-.8C22.4-.5 12.2.5 12.2.5M54.5 2.1V28s-.2 1.1 1.4 1.1h.8s1.3.2 1.3-1.3V8.4s-.2-2.1 1.4.2c1.3 2 13.1 19.9 13.1 19.9s.4.5 1.3.5h2s1.1 0 1.1-1V2.2s.1-1.1-.9-1.1h-1.8s-.8.1-.8 1.4v19.4s0 2-1.3 0C70.8 20.2 58.9 1.8 58.9 1.8s-.5-.7-1.5-.7h-2s-.9 0-.9 1M99.9 1.1H79.5s-.9-.1-.9.7v1.8s0 .6 1.1.6c.5 0 7.2.1 7.2.1C88 4.3 88 5.8 88 5.8v22.3s-.1.9.9.9h2s.8 0 .8-1.1V5.8c0-1.4.6-1.6 1.4-1.6h7s.9.1.9-.7V1.7s0-.6-1.1-.6M188.5 42.6v2s-.1.5.4.5h1s.4-.1.4-.6V31.9s0-.5-.5-.5h-.9s-.4 0-.4.6v10.6M152.6 28.1V2s-.1-.8-1.2-.8h-3.1s-.7-.2-1.2.9c-.4 1-7.9 20.9-7.9 20.9s-.2.6-.7.6c-.5 0-.6-.6-.6-.6s-7.6-19.9-8-20.9c-.4-1.1-1.1-.9-1.1-.9h-3.2c-1.1 0-1.1.8-1.1.8V28.1s-.1.9.9.9h1.8s.8 0 .8-1.1V8.8c0-.6 0-1.2.3-1.3.4 0 .7.7.7.7l7.6 19.8c.5 1.1 1.2 1 1.2 1h1.5s.7.1 1.1-1L148 8.2s.3-.7.7-.7c.4.1.3.7.3 1.3v19.1c0 1.1.8 1.1.8 1.1h1.8c1 0 1-.9 1-.9M162.7 44.6V31.9s0-.4-.5-.4h-1.6s-.3-.1-.5.4-3.9 10.2-3.9 10.2-.1.3-.3.3v.1c-.3 0-.3-.4-.3-.4s-3.7-9.7-3.9-10.2c-.2-.5-.6-.4-.6-.4h-1.5c-.6 0-.6.4-.6.4v12.7s0 .5.5.5h.9s.4-.1.4-.6v-9.3c0-.3-.1-.6.1-.6s.3.3.3.3l.6 1.3 3.1 8.4c.3.5.6.5.6.5h.7s.4 0 .6-.5l3.2-8.4.5-1.3s.2-.3.4-.3c.1 0 .1.3.1.6v9.3c0 .5.4.6.4.6h.9c.5 0 .4-.5.4-.5M121.9 3.5V1.7s-.1-.6-1.1-.6h-17.6c-.7 0-.7.7-.7.7v26.5s0 .7.7.7h17.6c1 0 1.1-.7 1.1-.7v-1.7c0-.9-.9-.8-.9-.8H107.6c-.8 0-1.4-.1-1.4-1.5v-6.8s.1-1.2 1.5-1.2h12.2s.9.1.9-.8v-1.7s0-.7-1.1-.7h-12.4s-1.1 0-1.1-.6V5.8c0-1.4.6-1.6 1.4-1.6H121s.9.1.9-.7M173.9 32.6v-.8s0-.4-.5-.4h-8.6c-.3 0-.3.4-.3.4v12.8s0 .5.3.5h8.6c.5 0 .5-.4.5-.4v-.8c0-.4-.4-.4-.4-.4h-6.6c-.3 0-.6-.1-.6-.7v-3.3s0-.6.7-.6h6s.4 0 .4-.4v-.9s0-.3-.5-.3h-6.1s-.4.1-.5-.3v-3.3c0-.6.3-.7.6-.7h6.6s.4 0 .4-.4M167.3 14.4h-7.6s-.9.1-1.1-.6V6c0-1.4.6-1.7 1.4-1.7h7.2c2.1 0 5 1.1 5 5.5 0 4.3-4.9 4.6-4.9 4.6m1.6-13.3h-13.3c-.7 0-.7.7-.7.7v26.5s0 .7.7.7h2.3c.7 0 .7-.7.7-.7v-9.5s.1-1.2 1.5-1.2h8.9c6.9 0 6.9-8.3 6.9-8.3 0-7.8-6.9-8.2-7-8.2M181 43.6h-3.1c-.8 0-.7-.7-.7-.7v-9.4c0-.6.5-.5.5-.5h2.4c1.5 0 2 .2 2 .2 1.8.7 2.8 1.8 2.8 5.4 0 3.7-2.8 5-3.9 5m5.1-9c-1.4-3.3-5.9-3.1-5.9-3.1h-4.4s-.4 0-.4.5v12.6s0 .4.4.5h4.5c4.8-.1 5.9-3.8 5.9-3.8s1.2-3.4-.1-6.7M199.6 39.5H196c-.5 0-.3-.6-.3-.6s1.6-4.3 1.7-4.8c.2-.5.4-.5.4-.5s.2 0 .4.5 1.8 4.8 1.8 4.8.1.6-.4.6m4.2 4.8c-.2-.6-4.8-12.3-4.8-12.3s-.2-.5-.7-.5h-1c-.5 0-.6.5-.6.5s-4.6 11.7-4.9 12.3c-.3.7.3.8.3.8h.6c.7 0 .8-.5.8-.5s.8-2.1 1.1-2.9c.3-.8.9-.7.9-.7h4.6s.6-.1.9.7c.3.8 1.1 2.9 1.1 2.9s.1.5.8.5h.7s.5-.1.2-.8M190.6 26.3c-9.3 0-9.7-10-9.7-11.2V15c0-1.2.3-11.3 9.7-11.3 9.9 0 9.7 11.4 9.7 11.4 0 1.1-.4 11.2-9.7 11.2M203.9 15C203.9 2.5 194 .7 190.6.7c-3.4 0-13.3 1.8-13.3 14.3v.1c0 12.4 9.9 14.2 13.3 14.2v.1c3.4 0 13.3-1.9 13.3-14.3V15M39.4 26.3c-9.3 0-9.7-10-9.7-11.2V15c0-1.2.3-11.3 9.7-11.3 9.9 0 9.6 11.4 9.6 11.4 0 1.1-.3 11.2-9.6 11.2M52.7 15C52.6 2.5 42.8.7 39.4.7 35.9.7 26.1 2.5 26.1 15H26h.1l-.1.1h.1c0 12.4 9.8 14.2 13.3 14.2v.1c3.4 0 13.2-1.9 13.3-14.3V15"></path></g>
		</symbol>
	
		<symbol id="layers" viewBox="0 0 72 71">
			<title>layers</title><g transform="translate(1.298 1)" stroke-width="2" stroke="#6a6b6c" fill="none" fill-rule="evenodd" stroke-linecap="round" stroke-linejoin="round"><path d="M34.5 0L0 17.25 34.5 34.5 69 17.25zM0 51.75L34.5 69 69 51.75M0 34.5l34.5 17.25L69 34.5"></path></g>
		</symbol>
	
		<symbol id="link" viewBox="0 0 24 24">
			<path d="M10 13a5 5 0 0 0 7.54.54l3-3a5 5 0 0 0-7.07-7.07l-1.72 1.71"></path><path d="M14 11a5 5 0 0 0-7.54-.54l-3 3a5 5 0 0 0 7.07 7.07l1.71-1.71"></path>
		</symbol>
	
		<symbol id="message-square" viewBox="0 0 72 71">
			<title>message-square</title><path d="M70.6 47c0 4.2-3.4 7.7-7.7 7.7h-46L1.6 70V8.7C1.6 4.4 5 1 9.3 1h53.6c4.3 0 7.7 3.4 7.7 7.7V47z" stroke-width="2" stroke="#6a6b6c" fill="none" stroke-linejoin="round"></path>
		</symbol>
	
		<symbol id="monitor" viewBox="0 0 75 68">
			<title>monitor</title><g stroke-width="2" stroke="#6a6b6c" fill="none" stroke-linejoin="round"><rect x="1" y="1" width="72.6" height="50.8" rx="2"></rect><path d="M22.8 66.4h29M37.3 51.8v14.6"></path></g>
		</symbol>
	
		<symbol id="thumbs-up" viewBox="0 0 71 72">
			<title>thumbs-up</title><path d="M42.995 25.419v-13.8c0-5.716-4.634-10.35-10.35-10.35l-13.8 31.05v37.95h38.916a6.9 6.9 0 0 0 6.9-5.865l4.761-31.05a6.9 6.9 0 0 0-6.9-7.935H42.995zm-24.15 44.85H8.495a6.9 6.9 0 0 1-6.9-6.9v-24.15a6.9 6.9 0 0 1 6.9-6.9h10.35v37.95z" stroke="#6a6b6c" stroke-width="2" fill="none" fill-rule="evenodd" stroke-linecap="round" stroke-linejoin="round"></path>
		</symbol>
	
		<symbol id="user-check" viewBox="0 0 87 72">
			<title>user-check</title><g transform="translate(1 1.269)" stroke-width="2" stroke="#6a6b6c" fill="none" stroke-linejoin="round"><path d="M57.5 69v-7.7c0-8.4-6.9-15.3-15.3-15.3H15.3C6.9 46 0 52.9 0 61.3V69"></path><circle cx="28.8" cy="15.3" r="15.3"></circle><path d="M61.3 30.7l7.7 7.6L84.3 23"></path></g>
		</symbol>
	
</svg>
