<?xml version="1.0" encoding="UTF-8"?>
<svg width="492px" height="284px" viewBox="0 0 492 284" version="1.1" xmlns="http://www.w3.org/2000/svg" xmlns:xlink="http://www.w3.org/1999/xlink">
    <!-- Generator: Sketch 42 (36781) - http://www.bohemiancoding.com/sketch -->
    <title>Body</title>
    <desc>Created with Sketch.</desc>
    <defs></defs>
    <g id="Page-1" stroke="none" stroke-width="1" fill="none" fill-rule="evenodd">
        <g id="Brand-Page" transform="translate(-626.000000, -1551.000000)">
            <g id="Sharp-Info" transform="translate(0.000000, 606.000000)">
                <g id="Analytics" transform="translate(218.000000, 946.000000)">
                    <g id="Macbook" transform="translate(411.000000, 0.000000)">
                        <g id="Body">
                            <path d="M108.02811,-45.8432235 C108.02811,-55.7882174 116.081099,-63.8502279 126.036962,-63.8502279 L358.727926,-63.8502279 C369.216349,-63.8502279 377.718896,-55.3522271 377.718896,-44.852424 L377.718896,315.202397 C377.718896,325.694594 369.220938,334.200201 358.727926,334.200201 L126.036962,334.200201 C116.090948,334.200201 108.02811,326.13648 108.02811,316.193196 L108.02811,-45.8432235 Z" id="Rectangle-2" stroke="#CCD2D5" stroke-width="2" fill="#EAF0F2" transform="translate(242.873503, 135.174986) rotate(-90.000000) translate(-242.873503, -135.174986) "></path>
                            <g id="Group" transform="translate(240.849558, 9.881583)">
                                <path d="M2.27693909,3.29386096 C1.57943675,3.29386096 1.01197293,2.72554326 1.01197293,2.02699136 C1.01197293,1.32843946 1.57943675,0.760121761 2.27693909,0.760121761 C2.97444144,0.760121761 3.54190526,1.32843946 3.54190526,2.02699136 C3.54190526,2.72554326 2.97444144,3.29386096 2.27693909,3.29386096" id="Fill-9" fill="#BAC1C4"></path>
                                <path d="M2.02394586,0 C0.907884286,0 0,0.909250411 0,2.02699136 C0,3.14473231 0.907884286,4.05398272 2.02394586,4.05398272 C3.14000744,4.05398272 4.04789172,3.14473231 4.04789172,2.02699136 C4.04789172,0.909250411 3.14000744,0 2.02394586,0 M2.02394586,1.15828078 C2.50304276,1.15828078 2.89135123,1.54717355 2.89135123,2.02699136 C2.89135123,2.50680917 2.50304276,2.89570195 2.02394586,2.89570195 C1.54484896,2.89570195 1.15654049,2.50680917 1.15654049,2.02699136 C1.15654049,1.54717355 1.54484896,1.15828078 2.02394586,1.15828078" id="Fill-11" fill="#D0D8DB"></path>
                            </g>
                            <rect id="Rectangle-3" fill="#DEE3E6" x="60.4653826" y="21.5367832" width="365.322228" height="229.050024" rx="2"></rect>
                            <g id="Group-2" transform="translate(0.000000, 270.856721)">
                                <path d="M2.25980374,0.00071675776 C1.1514729,0.00018672431 0.252993233,0.890540934 0.252993233,1.99094063 L0.252993233,3.32380514 C0.252993233,3.32380514 13.6611404,8.22698639 61.2243623,8.86784425 C108.915563,8.79064439 407.825091,8.86784425 407.825091,8.86784425 C407.825091,8.86784425 466.162267,9.19297446 485.639781,3.12090805 L485.639781,2.23840693 C485.639781,1.13023381 484.751768,0.23145732 483.632971,0.230922281 L2.25980374,0.00071675776 Z" id="Path-37" stroke="#CBD2D4" stroke-width="5"></path>
                                <path d="M486,3.04048704 C486,3.04048704 480.994716,9.12146113 377.09959,8.90428348 C342.850036,8.83268977 293.778603,8.83132346 243.37949,8.86166317 C192.385631,8.83131908 143.207223,8.83256992 108.900351,8.90428348 C5.00528094,9.12146113 0,3.04048704 0,3.04048704 L243.126497,3.04048704 L486,3.04048704 Z" id="Combined-Shape" fill="#CCD2D5"></path>
                                <path d="M0,1.52024352 C0,0.680636208 0.678391788,0 1.52640749,0 L484.473593,0 C485.316604,0 486,0.674782621 486,1.52024352 L486,3.04048704 L0,3.04048704 L0,1.52024352 Z" id="Rectangle-5" fill="#EAEFF1"></path>
                                <path d="M197.081728,0 L289.171265,0 L289.171265,3.04048704 C289.171265,3.04048704 277.572118,4.05398272 243.308336,4.05398272 C209.044553,4.05398272 197.081728,3.04048704 197.081728,3.04048704 L197.081728,0 Z" id="Rectangle-10" fill="#D9E0E3"></path>
                            </g>
                        </g>
                    </g>
                </g>
            </g>
        </g>
    </g>
</svg>